<svg width="24" height="24" viewBox="0 0 24 24" fill="none" xmlns="http://www.w3.org/2000/svg">
<g clip-path="url(#clip0_11_589)">
<path d="M6.38744 2.60789C6.38744 3.98742 7.5024 5.10238 8.88193 5.10238H11.3764V2.60789C11.3764 1.22836 10.2615 0.113403 8.88193 0.113403C7.5024 0.113403 6.38744 1.22836 6.38744 2.60789Z" fill="black"/>
<path d="M11.3764 8.86301C11.3764 7.48348 10.2615 6.36852 8.88193 6.36852H2.62681C1.24728 6.36852 0.132324 7.48348 0.132324 8.86301C0.132324 10.2425 1.24728 11.3575 2.62681 11.3575H8.88193C10.2615 11.3575 11.3764 10.2425 11.3764 8.86301Z" fill="black"/>
<path d="M2.64573 17.6126C4.02526 17.6126 5.14022 16.4977 5.14022 15.1181V12.6236H2.64573C1.26621 12.6236 0.151245 13.7386 0.151245 15.1181C0.151245 16.4977 1.26621 17.6126 2.64573 17.6126Z" fill="black"/>
<path d="M8.88195 12.6236C7.50243 12.6236 6.38747 13.7386 6.38747 15.1181V21.3543C6.38747 22.7339 7.50243 23.8488 8.88195 23.8488C10.2615 23.8488 11.3764 22.7339 11.3764 21.3543V15.1181C11.3764 13.7386 10.2615 12.6236 8.88195 12.6236Z" fill="black"/>
<path d="M18.8788 8.86301C18.8788 7.48348 19.9938 6.36852 21.3733 6.36852C22.7528 6.36852 23.8678 7.48348 23.8678 8.86301C23.8678 10.2425 22.7528 11.3575 21.3733 11.3575H18.8788V8.86301Z" fill="black"/>
<path d="M17.6316 8.86301C17.6316 10.2425 16.5166 11.3575 15.1371 11.3575C13.7575 11.3575 12.6426 10.2425 12.6426 8.86301V2.60789C12.6426 1.22836 13.7575 0.113403 15.1371 0.113403C16.5166 0.113403 17.6316 1.22836 17.6316 2.60789V8.86301Z" fill="black"/>
<path d="M17.6316 21.3543C17.6316 19.9748 16.5166 18.8599 15.1371 18.8599H12.6426V21.3543C12.6426 22.7339 13.7575 23.8488 15.1371 23.8488C16.5166 23.8488 17.6316 22.7339 17.6316 21.3543Z" fill="black"/>
<path d="M12.6426 15.1181C12.6426 16.4977 13.7575 17.6126 15.1371 17.6126H21.3922C22.7717 17.6126 23.8867 16.4977 23.8867 15.1181C23.8867 13.7386 22.7717 12.6236 21.3922 12.6236H15.1371C13.7575 12.6236 12.6426 13.7386 12.6426 15.1181Z" fill="black"/>
</g>
<defs>
<clipPath id="clip0_11_589">
<rect width="24" height="24" fill="white"/>
</clipPath>
</defs>
</svg>
