<svg width="24" height="24" viewBox="0 0 24 24" fill="none" xmlns="http://www.w3.org/2000/svg">
<g clip-path="url(#clip0_11_124)">
<path d="M23.9993 12.1286C18.6855 12.2915 16.2599 12.4287 14.3143 14.3143C12.4286 16.26 12.3 18.6856 12.1286 23.9994C18.654 23.9309 23.9308 18.654 23.9993 12.1286Z" fill="black"/>
<path d="M11.8714 23.9994C11.7086 18.6856 11.5713 16.26 9.68571 14.3143C7.74008 12.4287 5.31449 12.3001 0.000671408 12.1287C0.0691827 18.654 5.34603 23.9309 11.8714 23.9994Z" fill="black"/>
<path d="M23.9993 11.8715C23.9308 5.34609 18.654 0.0692431 12.1286 0.000732422C12.2914 5.31455 12.4286 7.74014 14.3143 9.68577C16.2599 11.5714 18.6855 11.7 23.9993 11.8715Z" fill="black"/>
<path d="M11.8714 0.000732423C5.34603 0.0692432 0.0691816 5.34609 0.000671387 11.8715C5.31449 11.7086 7.74008 11.5714 9.68571 9.68577C11.5713 7.74014 11.7 5.31455 11.8714 0.000732423Z" fill="black"/>
</g>
<defs>
<clipPath id="clip0_11_124">
<rect width="24" height="24" fill="white"/>
</clipPath>
</defs>
</svg>
