<svg width="24" height="24" viewBox="0 0 24 24" fill="none" xmlns="http://www.w3.org/2000/svg">
<g clip-path="url(#clip0_11_128)">
<path fill-rule="evenodd" clip-rule="evenodd" d="M24.0007 7.50628V7.50751H24V16.4924C24 16.5498 24 16.6072 24.0001 16.6646C24.0002 16.8939 24.0003 17.1231 23.9987 17.3524C23.9973 17.5937 23.9947 17.8351 23.988 18.0764C23.974 18.6018 23.9427 19.1324 23.8493 19.6525C23.7547 20.1805 23.5993 20.6718 23.3553 21.1518C23.1153 21.6232 22.802 22.0538 22.428 22.4279C22.054 22.8019 21.6226 23.1152 21.1513 23.3552C20.6719 23.5992 20.1813 23.7546 19.6532 23.8492C19.1332 23.9426 18.6026 23.9739 18.0765 23.9879C17.8352 23.9946 17.5939 23.9972 17.3525 23.9986C17.0663 23.9999 16.78 23.9999 16.4937 23.9999H7.50763C7.45023 23.9999 7.39283 23.9999 7.33543 23.9999C7.10616 24.0001 6.87688 24.0002 6.64761 23.9986C6.40627 23.9972 6.16493 23.9946 5.92359 23.9879C5.39758 23.9739 4.8669 23.9426 4.34689 23.8492C3.81954 23.7539 3.3282 23.5992 2.84886 23.3552C2.37751 23.1152 1.94617 22.8019 1.57216 22.4279C1.19815 22.0538 0.884809 21.6232 0.644804 21.1518C0.400798 20.6718 0.245461 20.1805 0.150792 19.6525C0.0574567 19.1324 0.0261227 18.6024 0.0121224 18.0764C0.00545553 17.8351 0.0027888 17.5937 0.00145543 17.3524C0.00012207 17.0657 0.00012207 16.7791 0.00012207 16.4924V7.50751C0.00012207 7.22083 0.00012207 6.93416 0.00145543 6.64815C0.0027888 6.40682 0.00545553 6.16548 0.0121224 5.92414C0.0261227 5.39879 0.0574567 4.86811 0.150792 4.3481C0.245461 3.82009 0.400798 3.32874 0.644804 2.84873C0.884809 2.37739 1.19815 1.94671 1.57216 1.5727C1.94617 1.19869 2.37751 0.885354 2.84886 0.645348C3.3282 0.401343 3.81888 0.246006 4.34689 0.151337C4.8669 0.0573347 5.39758 0.0266673 5.92359 0.0120003C6.16493 0.00533346 6.40627 0.00266673 6.64761 0.00133336C6.93428 0 7.22096 0 7.50763 0H16.4932C16.7798 0 17.0665 0 17.3532 0.00133336C17.5945 0.00266673 17.8359 0.00533346 18.0772 0.0120003C18.6032 0.0260006 19.1339 0.0573347 19.6539 0.15067C20.1813 0.246006 20.6726 0.400676 21.1519 0.644682C21.6233 0.884687 22.0546 1.19803 22.4286 1.57204C22.8027 1.94605 23.116 2.37672 23.356 2.84807C23.6 3.32808 23.7553 3.81942 23.85 4.34743C23.9433 4.86745 23.9747 5.39746 23.9887 5.92347C23.9953 6.16481 23.998 6.40615 23.9993 6.64749C24.0007 6.93375 24.0007 7.22002 24.0007 7.50628ZM16.2862 3.76554C16.348 3.75291 16.8619 3.66183 16.9198 3.65651C17.3047 3.62327 17.5208 3.8759 17.5194 4.28543V15.5747C17.5194 15.8779 17.5168 16.1525 17.453 16.4563C17.3911 16.7508 17.2788 17.028 17.1046 17.2773C16.9311 17.526 16.709 17.7301 16.4497 17.883C16.1878 18.0379 15.9126 18.1263 15.6187 18.1855C15.0669 18.2965 14.6893 18.3218 14.335 18.2506C13.9932 18.1815 13.7034 18.0246 13.4714 17.8119C13.1276 17.4974 12.9136 17.0719 12.867 16.6271C12.8125 16.1059 12.9854 15.5495 13.3769 15.1393C13.5744 14.9319 13.8224 14.7683 14.1535 14.64C14.4998 14.5057 14.8821 14.4253 15.4698 14.3069L15.9345 14.2132C16.1386 14.172 16.3128 14.1201 16.4537 13.9479C16.596 13.7751 16.598 13.5637 16.598 13.3549V8.08355C16.598 7.68 16.4165 7.57031 16.0316 7.6441C15.7557 7.69795 9.84276 8.89064 9.84276 8.89064C9.50902 8.97175 9.39202 9.08078 9.39202 9.4943V17.2162C9.39202 17.5193 9.37672 17.7939 9.3129 18.0977C9.25107 18.3922 9.13872 18.6695 8.96454 18.9188C8.79102 19.1674 8.56897 19.3715 8.30969 19.5244C8.04775 19.6793 7.77251 19.7717 7.47866 19.8309C6.92686 19.9426 6.54924 19.9672 6.1949 19.8961C5.85318 19.8276 5.56332 19.666 5.3313 19.4533C4.98758 19.1388 4.78747 18.7134 4.74093 18.2686C4.68642 17.7474 4.84531 17.1909 5.23689 16.7807C5.43434 16.5733 5.68232 16.4098 6.0134 16.2814C6.35977 16.1471 6.74204 16.0667 7.32974 15.9484L7.79445 15.8546C7.99855 15.8134 8.17274 15.7616 8.31368 15.5894C8.45462 15.4172 8.47124 15.2151 8.47124 15.007V6.10371C8.47124 5.98405 8.48121 5.90294 8.4872 5.86305C8.51578 5.67557 8.59091 5.51468 8.72653 5.401C8.83888 5.30659 8.98448 5.24078 9.16996 5.20155L9.17262 5.20089L16.2862 3.76554Z" fill="black"/>
</g>
<defs>
<clipPath id="clip0_11_128">
<rect width="24" height="24" fill="white"/>
</clipPath>
</defs>
</svg>
