<svg width="43" height="43" viewBox="0 0 43 43" fill="none" xmlns="http://www.w3.org/2000/svg">
<path d="M33.081 14.6486C33.0758 15.1496 33.0239 15.6507 32.9772 16.1517C32.9617 16.317 32.9565 16.4849 32.9539 16.6502C32.9487 16.9361 33.1744 17.1958 33.4571 17.1774C33.5919 17.1696 33.7294 17.1329 33.8591 17.0883C34.2922 16.9335 34.7201 16.7682 35.1507 16.603C35.5397 16.4508 35.9365 16.3144 36.3385 16.2042C36.7769 16.0835 37.2152 15.9943 37.6613 16.0678C38.569 16.2173 39.1604 17.2063 38.8284 18.0746C38.735 18.3186 38.5924 18.5285 38.4212 18.7226C38.1852 18.9875 37.918 19.2131 37.6275 19.4125C37.2852 19.646 36.9403 19.8742 36.5953 20.1051C36.0195 20.4881 35.4437 20.8685 34.8706 21.2567C34.632 21.4167 34.4011 21.5872 34.1755 21.763C34.051 21.8601 33.9343 21.9729 33.8279 22.0909C33.6256 22.3191 33.5141 22.6103 33.5323 22.9146C33.5504 23.2373 33.6049 23.5521 33.6931 23.8617C33.9654 24.827 34.383 25.7242 34.8887 26.582C36.2452 28.8722 38.167 30.6613 40.4546 32.1225C41.0822 32.5239 41.7539 32.8466 42.4153 33.1928C42.5087 33.2427 42.5995 33.2925 42.6902 33.3476C42.781 33.4027 42.8614 33.4761 42.9211 33.5653C43.0144 33.6991 43.0274 33.8408 42.947 33.9877C42.8796 34.1136 42.781 34.2107 42.6747 34.2999C42.5553 34.3996 42.4257 34.4835 42.2908 34.5596C41.5179 35.0029 40.688 35.3334 39.8295 35.5643C39.4145 35.6771 38.9995 35.7952 38.5872 35.9185C38.333 35.9945 38.0944 36.1073 37.8584 36.2306C37.4616 36.4379 37.2359 36.771 37.1529 37.2039C37.1062 37.4452 37.0777 37.6918 37.0336 37.9332C36.9247 38.5444 36.7068 38.7674 36.1155 38.8723C35.908 38.9091 35.6953 38.93 35.4852 38.9431C34.9562 38.972 34.4271 38.9877 33.898 39.0166C33.8824 39.0166 33.8668 39.0166 33.8539 39.0192C31.7401 39.1451 29.6964 39.8298 27.8835 40.9369C27.7875 40.9946 27.6915 41.0549 27.593 41.1126C26.859 41.5612 26.112 41.9888 25.3106 42.3036C24.4158 42.6551 23.4925 42.865 22.5355 42.9516C21.7289 43.025 20.9249 43.0145 20.1235 42.9227C18.9226 42.7863 17.784 42.4322 16.7077 41.876C16.2071 41.6163 15.7247 41.3278 15.2475 41.0313C15.2216 41.0156 15.1956 40.9998 15.1671 40.9815C13.2634 39.8088 11.0978 39.0979 8.86989 39.0061C8.85433 39.0061 8.83879 39.0061 8.82322 39.0061C8.35638 38.9877 7.89212 38.9694 7.42528 38.9405C7.15295 38.9248 6.88062 38.888 6.61349 38.8146C6.27373 38.7202 6.02733 38.4185 5.96249 38.0696C5.92618 37.8781 5.89765 37.6866 5.86394 37.4951C5.85616 37.4531 5.85614 37.4085 5.84836 37.3665C5.77055 36.8051 5.49563 36.3933 4.97432 36.1545C4.65531 36.0076 4.32854 35.8896 3.99138 35.7951C3.41041 35.6325 2.82425 35.4882 2.25625 35.281C1.75569 35.1 1.2733 34.8849 0.809045 34.6278C0.668991 34.5517 0.53411 34.4651 0.40443 34.376C0.316249 34.3156 0.233269 34.2474 0.160649 34.1713C-0.0727738 33.9247 -0.0494417 33.6021 0.215104 33.3922C0.368125 33.2689 0.54707 33.1876 0.72084 33.101C1.93204 32.5003 3.08103 31.7972 4.14958 30.963C5.76279 29.7064 7.1296 28.219 8.16444 26.4273C8.53273 25.7872 8.83876 25.1078 9.09034 24.41C9.25633 23.9483 9.3912 23.4866 9.42492 23.0012C9.44826 22.6445 9.32895 22.2903 9.08774 22.0306C8.91397 21.8443 8.71168 21.6948 8.50678 21.5453C8.20074 21.3249 7.89212 21.1072 7.58089 20.9C6.91174 20.454 6.24 20.0159 5.57086 19.5725C5.27778 19.3784 4.99507 19.1686 4.74089 18.9246C4.55675 18.7462 4.39076 18.5547 4.25849 18.3317C3.98357 17.8648 3.96283 17.3847 4.16772 16.8915C4.28962 16.5977 4.51788 16.3485 4.80317 16.2147C5.21036 16.0258 5.63571 16.0022 6.06365 16.073C6.5253 16.1491 6.96879 16.2934 7.40711 16.4534C7.8558 16.6161 8.29671 16.7945 8.74281 16.9623C8.95029 17.041 9.16036 17.1197 9.38082 17.1538C9.43269 17.1617 9.48459 17.1774 9.53646 17.1748C9.79322 17.167 10.0059 17.083 10.0033 16.7341C10.0033 16.5662 9.99812 16.3957 9.99034 16.2278C9.95143 15.3883 9.90214 14.5489 9.88139 13.7094C9.83471 11.7105 9.84248 9.7036 10.3586 7.76234C10.675 6.57398 11.2223 5.46956 11.9615 4.48844C13.4943 2.45012 15.5172 1.15684 17.937 0.466902C19.2598 0.089144 20.6111 -0.0341521 21.9805 0.00782104C23.2747 0.0471709 24.5637 0.267534 25.7878 0.700382C27.2402 1.21455 28.5604 1.95956 29.6834 3.01676C30.9594 4.21824 31.9424 5.62173 32.4767 7.32164C32.7179 8.09027 32.8709 8.87726 32.9643 9.67475C33.1588 11.3248 33.1043 12.9854 33.0888 14.6433L33.081 14.6486Z" fill="black"/>
</svg>
