<svg width="24" height="24" viewBox="0 0 24 24" fill="none" xmlns="http://www.w3.org/2000/svg">
<g clip-path="url(#clip0_11_130)">
<path d="M10.9705 0.157349C8.79549 0.353874 6.70864 1.14478 4.94298 2.45311C2.88846 3.97548 1.3776 6.11782 0.633238 8.56417C-0.111126 11.0105 -0.0495843 13.6313 0.808786 16.04C1.66715 18.4487 3.27691 20.5178 5.40061 21.9419C7.52432 23.3662 10.0495 24.0702 12.6038 23.9502C15.158 23.8302 17.606 22.8925 19.5868 21.2755C21.5676 19.6583 22.9762 17.4474 23.605 14.9688C24.194 12.647 24.0693 10.2055 23.2535 7.96133L23.2555 7.98092L20.2332 10.4106C20.4737 11.6221 20.4437 12.8788 20.1367 14.089C19.6965 15.824 18.7105 17.3716 17.324 18.5037C15.9374 19.6356 14.2238 20.292 12.4358 20.3761C10.6478 20.46 8.8802 19.9672 7.39361 18.9703C5.90701 17.9733 4.78018 16.5249 4.17933 14.8388C3.57847 13.1527 3.53539 11.3182 4.05645 9.60577C4.57749 7.89333 5.63511 6.39369 7.07326 5.32803C8.22181 4.47697 9.56453 3.93868 10.9705 3.75641V0.157349Z" fill="black"/>
<path d="M20.9893 4.16463L20.9767 4.13292C19.2677 2.20291 16.9429 0.830799 14.3101 0.324393V8.67314C13.6631 8.23637 12.8833 7.98134 12.0439 7.98134C9.80424 7.98134 7.98865 9.79695 7.98865 12.0366C7.98865 14.2763 9.80424 16.0919 12.0439 16.0919C14.2836 16.0919 16.0991 14.2763 16.0991 12.0366V4.7368C17.251 5.37804 18.2351 6.28398 18.9697 7.37237L20.9893 4.16463Z" fill="black"/>
</g>
<defs>
<clipPath id="clip0_11_130">
<rect width="24" height="24" fill="white"/>
</clipPath>
</defs>
</svg>
