<svg width="24" height="24" viewBox="0 0 24 24" fill="none" xmlns="http://www.w3.org/2000/svg">
<path fill-rule="evenodd" clip-rule="evenodd" d="M15.8501 10.3226C14.8691 11.3036 13.5066 11.9213 11.9988 11.9213C10.5091 11.9213 9.12841 11.3036 8.1474 10.3226C7.16639 9.34163 6.54872 7.97912 6.54872 6.47128C6.54872 4.96343 7.16639 3.60092 8.1474 2.61992C9.12841 1.63891 10.4909 1.02124 11.9988 1.02124C13.5066 1.02124 14.8691 1.63891 15.8501 2.61992C16.8312 3.60092 17.4488 4.96343 17.4488 6.47128C17.4488 7.97912 16.8312 9.34163 15.8501 10.3226ZM11.9988 3.98243C11.3266 3.98243 10.7089 4.25493 10.2547 4.7091C9.81873 5.16327 9.52806 5.78094 9.52806 6.45311C9.52806 7.12528 9.80057 7.74295 10.2547 8.19712C10.6907 8.65129 11.3084 8.92379 11.9988 8.92379C12.6709 8.92379 13.2886 8.65129 13.7428 8.19712C14.197 7.76112 14.4695 7.14345 14.4695 6.45311C14.4695 5.78094 14.197 5.16327 13.7428 4.7091C13.3068 4.25493 12.6891 3.98243 11.9988 3.98243Z" fill="#FF7700"/>
<path d="M17.7395 11.9395L19.3382 14.1195C19.4291 14.2285 19.4109 14.3738 19.2656 14.4647C17.9212 15.5729 16.3589 16.2995 14.7238 16.681L18.1029 22.6397C18.1937 22.8214 18.0847 23.0212 17.8849 23.0212H14.5785C14.4695 23.0212 14.3787 22.9486 14.3423 22.8577L11.9806 17.5894L9.61895 22.8577C9.58262 22.9667 9.49179 23.0212 9.38279 23.0212H6.07642C5.89475 23.0212 5.76758 22.8032 5.85842 22.6397L9.23745 16.681C7.60243 16.2995 6.04008 15.5547 4.69574 14.4647C4.6049 14.3738 4.58673 14.2285 4.6594 14.1195L6.25809 11.9395C6.34892 11.8305 6.53059 11.8123 6.63959 11.9032C8.14744 13.193 10.0005 14.0287 11.9988 14.0287C13.9972 14.0287 15.8502 13.193 17.358 11.9032C17.467 11.7942 17.6487 11.8123 17.7395 11.9395Z" fill="#FF7700"/>
</svg>
