<svg width="24" height="24" viewBox="0 0 24 24" fill="none" xmlns="http://www.w3.org/2000/svg">
<path d="M12.7496 8.00026C14.6828 8.00026 16.2499 6.43314 16.2499 4.50001C16.2499 2.56687 14.6828 0.999756 12.7496 0.999756C10.8165 0.999756 9.24939 2.56687 9.24939 4.50001C9.24939 6.43314 10.8165 8.00026 12.7496 8.00026Z" fill="#7B83EB"/>
<path opacity="0.1" d="M12.5003 5.25012H9.33008L9.34583 5.31987L9.34733 5.32587L9.36383 5.39037C9.59418 6.2639 10.1531 7.01468 10.9238 7.48593C11.6946 7.95718 12.6176 8.11247 13.5001 7.91937V6.24987C13.4993 5.98497 13.3937 5.73113 13.2064 5.54382C13.0191 5.3565 12.7652 5.25091 12.5003 5.25012Z" fill="black"/>
<path opacity="0.2" d="M11.7506 6.00012H9.58765C9.87152 6.59864 10.3194 7.10432 10.8793 7.45839C11.4391 7.81247 12.088 8.00041 12.7504 8.00037V6.99987C12.7496 6.73497 12.644 6.48113 12.4567 6.29382C12.2694 6.1065 12.0156 6.00091 11.7506 6.00012Z" fill="black"/>
<path d="M20.6255 8.25012C22.0752 8.25012 23.2505 7.07487 23.2505 5.62512C23.2505 4.17537 22.0752 3.00012 20.6255 3.00012C19.1757 3.00012 18.0005 4.17537 18.0005 5.62512C18.0005 7.07487 19.1757 8.25012 20.6255 8.25012Z" fill="#5059C9"/>
<path d="M22.8749 9.00024H16.9792C16.8519 9.00024 16.7298 9.05082 16.6398 9.14083C16.5498 9.23085 16.4992 9.35294 16.4992 9.48024V15.5627C16.4829 16.4431 16.7696 17.3022 17.3113 17.9964C17.8529 18.6905 18.6166 19.1775 19.4744 19.3757C20.0208 19.4904 20.5859 19.4817 21.1285 19.3504C21.6711 19.2191 22.1776 18.9685 22.6111 18.6167C23.0446 18.265 23.3942 17.821 23.6344 17.3171C23.8747 16.8132 23.9996 16.262 23.9999 15.7037V10.1252C23.9999 9.82688 23.8814 9.54073 23.6704 9.32975C23.4595 9.11877 23.1733 9.00024 22.8749 9.00024Z" fill="#5059C9"/>
<path d="M18.7498 10.1252V17.2502C18.7505 18.5707 18.3154 19.8544 17.5119 20.9022C16.7085 21.9501 15.5816 22.7034 14.3062 23.0453C13.0309 23.3872 11.6783 23.2986 10.4584 22.7932C9.23858 22.2878 8.21964 21.3939 7.55976 20.2502C7.41543 20.0104 7.29005 19.7596 7.18476 19.5002C7.08659 19.2557 7.00393 19.0052 6.93726 18.7502C6.81361 18.2598 6.75064 17.756 6.74976 17.2502V10.1252C6.74956 9.97745 6.77852 9.83107 6.83499 9.69449C6.89146 9.55791 6.97432 9.43382 7.07882 9.32931C7.18333 9.2248 7.30742 9.14195 7.444 9.08548C7.58058 9.02901 7.72696 9.00005 7.87476 9.00025H17.6248C17.7725 9.00005 17.9189 9.02901 18.0555 9.08548C18.1921 9.14195 18.3162 9.2248 18.4207 9.32931C18.5252 9.43382 18.6081 9.55791 18.6645 9.69449C18.721 9.83107 18.7499 9.97745 18.7498 10.1252Z" fill="#7B83EB"/>
<path opacity="0.2" d="M11.7506 6.00012H9.58765C9.87152 6.59864 10.3194 7.10432 10.8793 7.45839C11.4391 7.81247 12.088 8.00041 12.7504 8.00037V6.99987C12.7496 6.73497 12.644 6.48113 12.4567 6.29382C12.2694 6.1065 12.0156 6.00091 11.7506 6.00012Z" fill="black"/>
<path opacity="0.1" d="M13.4998 9.00025V18.5027C13.4998 18.7288 13.4224 18.9481 13.2805 19.1241C13.1386 19.3001 12.9407 19.4223 12.7198 19.4702C12.6492 19.4912 12.5759 19.5014 12.5023 19.5002H7.18476C7.08659 19.2557 7.00393 19.0052 6.93726 18.7502C6.81361 18.2598 6.75064 17.756 6.74976 17.2502V10.1252C6.74956 9.97745 6.77852 9.83107 6.83499 9.69449C6.89146 9.55791 6.97432 9.43382 7.07882 9.32931C7.18333 9.2248 7.30742 9.14195 7.444 9.08548C7.58058 9.02901 7.72696 9.00005 7.87476 9.00025H13.4998Z" fill="black"/>
<path opacity="0.2" d="M12.7498 9.00025V19.2527C12.7508 19.3263 12.7407 19.3997 12.7198 19.4702C12.6718 19.6912 12.5497 19.8891 12.3736 20.031C12.1976 20.1729 11.9783 20.2503 11.7523 20.2502H7.55976C7.41543 20.0104 7.29005 19.7596 7.18476 19.5002C7.08659 19.2557 7.00393 19.0052 6.93726 18.7502C6.81361 18.2598 6.75064 17.756 6.74976 17.2502V10.1252C6.74956 9.97745 6.77852 9.83107 6.83499 9.69449C6.89146 9.55791 6.97432 9.43382 7.07882 9.32931C7.18333 9.2248 7.30742 9.14195 7.444 9.08548C7.58058 9.02901 7.72696 9.00005 7.87476 9.00025H12.7498Z" fill="black"/>
<path opacity="0.2" d="M12.7498 9.00025V17.7527C12.7486 18.0169 12.6431 18.27 12.4563 18.4568C12.2695 18.6436 12.0164 18.7491 11.7523 18.7502H6.93726C6.81361 18.2598 6.75064 17.756 6.74976 17.2502V10.1252C6.74956 9.97745 6.77852 9.83107 6.83499 9.69449C6.89146 9.55791 6.97432 9.43382 7.07882 9.32931C7.18333 9.2248 7.30742 9.14195 7.444 9.08548C7.58058 9.02901 7.72696 9.00005 7.87476 9.00025H12.7498Z" fill="black"/>
<path opacity="0.2" d="M7.87476 9.00025C7.72696 9.00005 7.58058 9.02901 7.444 9.08548C7.30742 9.14195 7.18333 9.2248 7.07882 9.32931C6.97432 9.43382 6.89146 9.55791 6.83499 9.69449C6.77852 9.83107 6.74956 9.97745 6.74976 10.1252V17.2502C6.75064 17.756 6.81361 18.2598 6.93726 18.7502H11.0023C11.2664 18.7491 11.5195 18.6436 11.7063 18.4568C11.8931 18.27 11.9986 18.0169 11.9998 17.7527V9.00025H7.87476Z" fill="black"/>
<path d="M0.999749 6.00012H11.0002C11.2654 6.00012 11.5197 6.10545 11.7072 6.29294C11.8947 6.48043 12 6.73472 12 6.99987V17.0004C12 17.2655 11.8947 17.5198 11.7072 17.7073C11.5197 17.8948 11.2654 18.0001 11.0002 18.0001H0.999749C0.734599 18.0001 0.480309 17.8948 0.29282 17.7073C0.10533 17.5198 0 17.2655 0 17.0004L0 6.99987C0 6.73472 0.10533 6.48043 0.29282 6.29294C0.480309 6.10545 0.734599 6.00012 0.999749 6.00012Z" fill="#4B53BC"/>
<path d="M8.98501 9.73141H6.74251V15.7464H5.27101V9.73141H3.01501V8.25391H8.98501V9.73141Z" fill="white"/>
</svg>
