<svg width="24" height="24" viewBox="0 0 24 24" fill="none" xmlns="http://www.w3.org/2000/svg">
<g clip-path="url(#clip0_11_83)">
<path d="M4.9431 2.45311C6.70876 1.14478 8.79561 0.353874 10.9706 0.157349V3.75641C9.56466 3.93868 8.22194 4.47697 7.07338 5.32803C5.63523 6.39369 4.57762 7.89333 4.05657 9.60577C3.53551 11.3182 3.57859 13.1527 4.17945 14.8388C4.78031 16.5249 5.90713 17.9733 7.39373 18.9703C8.88032 19.9672 10.648 20.46 12.4359 20.3761C14.2239 20.292 15.9375 19.6356 17.3241 18.5037C18.7106 17.3716 19.6966 15.824 20.1368 14.089C20.4438 12.8788 20.4738 11.6221 20.2334 10.4106L23.2556 7.98092L23.2536 7.96133C24.0694 10.2055 24.1941 12.647 23.6052 14.9688C22.9764 17.4474 21.5678 19.6583 19.587 21.2755C17.6062 22.8925 15.1582 23.8302 12.6039 23.9502C10.0496 24.0702 7.52444 23.3662 5.40073 21.9419C3.27703 20.5178 1.66727 18.4487 0.808908 16.04C-0.0494623 13.6313 -0.111004 11.0105 0.63336 8.56417C1.37773 6.11782 2.88858 3.97548 4.9431 2.45311Z" fill="#FCCA00"/>
<path d="M20.9768 4.13299L20.9894 4.1647L18.9698 7.37244C18.2353 6.28405 17.2511 5.37811 16.0993 4.73687V12.0367C16.0993 14.2763 14.2837 16.092 12.044 16.092C9.80436 16.092 7.98877 14.2763 7.98877 12.0367C7.98877 9.79702 9.80436 7.98141 12.044 7.98141C12.8834 7.98141 13.6632 8.23644 14.3102 8.67321V0.324463C16.943 0.830869 19.2678 2.20298 20.9768 4.13299Z" fill="#FC3F1D"/>
</g>
<defs>
<clipPath id="clip0_11_83">
<rect width="24" height="24" fill="white"/>
</clipPath>
</defs>
</svg>
