<svg width="24" height="24" viewBox="0 0 24 24" fill="none" xmlns="http://www.w3.org/2000/svg">
<path d="M1.76471 15.37C1.76471 18.1648 5.40331 20.4312 9.89267 20.4312C14.382 20.4312 18.0206 18.1645 18.0206 15.37C18.0206 12.5755 14.3817 10.3091 9.89267 10.3091C5.40363 10.3091 1.76471 12.5751 1.76471 15.37Z" fill="white"/>
<path d="M10.0819 20.019C6.1089 20.4109 2.67932 18.6155 2.42084 16.0067C2.16299 13.3986 5.17579 10.9662 9.14819 10.5734C13.1215 10.1802 16.5514 11.9762 16.8093 14.5838C17.0668 17.1929 14.0553 19.6259 10.0819 20.019ZM18.029 11.3597C17.691 11.2589 17.4593 11.1896 17.6361 10.7457C18.0194 9.78135 18.059 8.94972 17.6435 8.35616C16.8645 7.24339 14.7328 7.30307 12.2893 8.32648C12.2893 8.32489 11.5221 8.66219 11.7181 8.05363C12.094 6.84513 12.0372 5.8332 11.4522 5.2489C10.1269 3.92232 6.60162 5.299 3.57828 8.32106C1.31445 10.5852 0 12.9847 0 15.0596C0 19.0285 5.08963 21.4413 10.0688 21.4413C16.5958 21.4413 20.9377 17.6489 20.9377 14.6383C20.9377 12.819 19.4056 11.7867 18.029 11.3597Z" fill="#E6162D"/>
<path d="M22.3632 4.09682C20.7871 2.34933 18.462 1.68333 16.3159 2.13935H16.3153C16.1973 2.16455 16.0854 2.21276 15.986 2.28121C15.8866 2.34966 15.8017 2.43701 15.7361 2.53828C15.6704 2.63955 15.6254 2.75276 15.6035 2.87143C15.5817 2.99011 15.5834 3.11193 15.6086 3.22994C15.6338 3.34795 15.682 3.45984 15.7505 3.55922C15.8189 3.6586 15.9063 3.74353 16.0075 3.80915C16.1088 3.87477 16.222 3.9198 16.3407 3.94168C16.4593 3.96355 16.5812 3.96183 16.6992 3.93663C18.2258 3.6124 19.8779 4.08725 20.9993 5.32799C21.5307 5.91686 21.8976 6.63526 22.0633 7.41095C22.2289 8.18664 22.1874 8.99227 21.9429 9.74683L21.9433 9.74715C21.906 9.86199 21.8917 9.98306 21.9013 10.1034C21.9109 10.2238 21.9441 10.3411 21.9991 10.4486C22.0541 10.556 22.1298 10.6516 22.2218 10.7298C22.3138 10.808 22.4203 10.8673 22.5352 10.9043C22.7669 10.9792 23.0189 10.9591 23.2358 10.8484C23.4527 10.7377 23.6168 10.5455 23.692 10.3139L23.6924 10.3101C24.3651 8.2224 23.94 5.84241 22.3632 4.09682Z" fill="#FF9933"/>
<path d="M19.9424 6.28119C19.1752 5.4301 18.0427 5.10683 16.9969 5.32926C16.8929 5.34829 16.7937 5.38801 16.7053 5.44607C16.6168 5.50412 16.5409 5.57933 16.4821 5.66724C16.4232 5.75514 16.3826 5.85396 16.3627 5.95784C16.3427 6.06173 16.3438 6.16856 16.3658 6.27202C16.3879 6.37548 16.4305 6.47346 16.4911 6.56016C16.5517 6.64687 16.6291 6.72053 16.7187 6.77679C16.8082 6.83305 16.9082 6.87076 17.0126 6.8877C17.117 6.90464 17.2238 6.90045 17.3266 6.87539V6.87603C17.5864 6.82047 17.8562 6.83414 18.1091 6.91569C18.362 6.99723 18.589 7.14378 18.7674 7.34066C18.9455 7.53803 19.0684 7.77888 19.1237 8.0389C19.179 8.29893 19.1647 8.56894 19.0824 8.8217H19.083C19.0185 9.02131 19.0358 9.23838 19.1313 9.4252C19.2267 9.61202 19.3924 9.75329 19.592 9.81799C19.7917 9.88238 20.0088 9.86483 20.1956 9.76921C20.3823 9.67358 20.5235 9.5077 20.588 9.30803C20.9167 8.291 20.7111 7.13196 19.9424 6.28119Z" fill="#FF9933"/>
<path d="M10.3012 15.2944C10.162 15.5324 9.85502 15.6467 9.61441 15.5474C9.37762 15.4498 9.30327 15.1843 9.43794 14.9507C9.57643 14.7184 9.87194 14.6051 10.1078 14.6986C10.3477 14.7863 10.4339 15.0554 10.3012 15.2944ZM9.03521 16.9197C8.65099 17.5327 7.82798 17.8014 7.20793 17.5183C6.59714 17.2404 6.41683 16.5278 6.80169 15.9301C7.18112 15.3349 7.97637 15.0694 8.59163 15.3272C9.21391 15.5928 9.41304 16.3002 9.03521 16.9197ZM10.4792 12.5803C8.58844 12.0882 6.4513 13.0305 5.63021 14.6967C4.79379 16.3957 5.60276 18.2817 7.51237 18.8985C9.49123 19.5364 11.8234 18.559 12.6342 16.7247C13.4343 14.9319 12.4357 13.0861 10.4792 12.5803Z" fill="black"/>
</svg>
