<svg width="24" height="24" viewBox="0 0 24 24" fill="none" xmlns="http://www.w3.org/2000/svg">
<path d="M8.0005 3.97644C9.0506 3.97644 10.0917 4.18376 11.0622 4.58788C12.0327 4.99049 12.9145 5.5824 13.6567 6.32754C14.3988 7.07268 14.9892 7.95754 15.3903 8.93103C15.7926 9.90477 15.9993 10.9482 15.9987 12.0017C15.9987 15.2467 14.0503 18.1732 11.0607 19.4141C8.07111 20.6565 4.63084 19.9699 2.34283 17.6744C0.0548316 15.3804 -0.628715 11.9281 0.60918 8.93103C1.84708 5.93244 4.76454 3.97794 7.99899 3.97794L8.0005 3.97644ZM8.0005 14.4069C8.31608 14.4076 8.62868 14.3458 8.92028 14.2251C9.21189 14.1044 9.47675 13.9273 9.6996 13.7038C9.9222 13.4799 10.0988 13.2145 10.2194 12.9226C10.3396 12.6297 10.4012 12.3172 10.4012 12.0017C10.4012 11.0282 9.81678 10.1509 8.9199 9.77832C8.02303 9.40575 6.99095 9.61157 6.3044 10.2996C5.61785 10.9877 5.41203 12.0228 5.7846 12.9226C5.96552 13.362 6.27284 13.7378 6.66761 14.0024C7.06238 14.2669 7.5268 14.4082 8.002 14.4084L8.0005 14.4069Z" fill="#00AEEF"/>
<path d="M16.9918 9.99469C19.0244 10.5821 21.4236 9.99469 21.4236 9.99469C20.728 13.0444 18.5196 14.9538 15.3362 15.1851C15.0298 15.9002 14.6196 16.5658 14.1209 17.1622C13.6221 17.7586 13.0392 18.2784 12.3917 18.7065C11.7427 19.1347 11.0367 19.4652 10.293 19.6875C9.54938 19.9099 8.7772 20.024 8.00201 20.0225L10.4012 12.3713C12.868 4.50679 14.1329 3.97498 19.9829 3.97498H24C23.3285 6.94352 21.0119 9.21199 16.9918 9.99319V9.99469Z" fill="#008CCF"/>
</svg>
