<svg width="24" height="24" viewBox="0 0 24 24" fill="none" xmlns="http://www.w3.org/2000/svg">
<g clip-path="url(#clip0_11_98)">
<path d="M8.00006 24.0001C10.2081 24.0001 12.0001 22.208 12.0001 20V16H8.00006C5.79205 16 4 17.792 4 20C4 22.208 5.79205 24.0001 8.00006 24.0001Z" fill="#0ACF83"/>
<path d="M4 12C4 9.79203 5.79205 8 8.00006 8H12.0001V16H8.00006C5.79205 16.0001 4 14.208 4 12Z" fill="#A259FF"/>
<path d="M4 4.00003C4 1.79203 5.79205 0 8.00006 0H12.0001V7.99997H8.00006C5.79205 7.99997 4 6.20803 4 4.00003Z" fill="#F24E1E"/>
<path d="M11.9999 0H15.9999C18.208 0 20 1.79203 20 4.00003C20 6.20803 18.208 7.99997 15.9999 7.99997H11.9999V0Z" fill="#FF7262"/>
<path d="M20 12C20 14.208 18.208 16.0001 15.9999 16.0001C13.7919 16.0001 11.9999 14.208 11.9999 12C11.9999 9.79203 13.7919 8 15.9999 8C18.208 8 20 9.79203 20 12Z" fill="#1ABCFE"/>
</g>
<defs>
<clipPath id="clip0_11_98">
<rect width="24" height="24" fill="white"/>
</clipPath>
</defs>
</svg>
