<svg width="24" height="24" viewBox="0 0 24 24" fill="none" xmlns="http://www.w3.org/2000/svg">
<path d="M11.1576 11.463L1.08997 22.0108C1.20301 22.4115 1.40617 22.781 1.68392 23.0911C1.96166 23.4012 2.30664 23.6437 2.69247 23.8001C3.0783 23.9564 3.49478 24.0225 3.91006 23.9932C4.32534 23.964 4.72843 23.8401 5.08852 23.6312L16.4165 17.1795L11.1576 11.463Z" fill="#EA4335"/>
<path d="M21.3378 9.67L16.439 6.86426L10.925 11.703L16.4615 17.1645L21.3228 14.3887C21.7535 14.1632 22.1142 13.8242 22.3659 13.4083C22.6176 12.9924 22.7507 12.5155 22.7507 12.0294C22.7507 11.5432 22.6176 11.0664 22.3659 10.6505C22.1142 10.2346 21.7535 9.89549 21.3228 9.67H21.3378Z" fill="#FBBC04"/>
<path d="M1.08993 1.99548C1.02907 2.22046 0.998794 2.45261 0.999908 2.68566V21.3206C1.00052 21.5535 1.03077 21.7854 1.08993 22.0107L11.5027 11.733L1.08993 1.99548Z" fill="#4285F4"/>
<path d="M11.2326 12.0032L16.439 6.86431L5.12603 0.382606C4.70043 0.133346 4.21638 0.00133073 3.72316 5.36551e-06C3.12749 -0.00117508 2.54777 0.192452 2.07237 0.55137C1.59697 0.910289 1.25197 1.41481 1.08997 1.98803L11.2326 12.0032Z" fill="#34A853"/>
</svg>
