<svg width="29" height="35" viewBox="0 0 29 35" fill="none" xmlns="http://www.w3.org/2000/svg">
<path d="M24.0682 18.4674C24.0531 15.6719 25.3067 13.5619 27.8442 12.008C26.4244 9.95898 24.2796 8.83164 21.4476 8.61074C18.7666 8.39746 15.8364 10.1875 14.764 10.1875C13.6312 10.1875 11.0333 8.68691 8.99421 8.68691C4.78014 8.75547 0.301758 12.0766 0.301758 18.833C0.301758 20.8287 0.664258 22.8904 1.38926 25.0182C2.35592 27.8137 5.84499 34.6691 9.48509 34.5549C11.3882 34.5092 12.7325 33.1914 15.2096 33.1914C17.6111 33.1914 18.8572 34.5549 20.9794 34.5549C24.6497 34.5016 27.8064 28.2707 28.7278 25.4676C23.8038 23.1291 24.0682 18.6121 24.0682 18.4674ZM19.7937 5.95996C21.8554 3.49199 21.6666 1.24492 21.6062 0.4375C19.7861 0.544141 17.6791 1.68672 16.4783 3.0959C15.1567 4.6041 14.3788 6.47031 14.545 8.57266C16.5161 8.725 18.3135 7.7043 19.7937 5.95996Z" fill="black"/>
</svg>
