<svg width="24" height="24" viewBox="0 0 24 24" fill="none" xmlns="http://www.w3.org/2000/svg">
<g opacity="0.5">
<path d="M22.1695 0.330004C22.0651 0.225462 21.941 0.14253 21.8045 0.0859487C21.6679 0.029367 21.5216 0.000244141 21.3738 0.000244141C21.226 0.000244141 21.0797 0.029367 20.9431 0.0859487C20.8066 0.14253 20.6825 0.225462 20.578 0.330004L15.8395 5.0685C14.594 4.69116 13.2995 4.50009 11.998 4.5015C6.76455 4.5015 2.22705 7.5495 -0.00195312 12.0015C0.955557 13.9116 2.3435 15.5732 4.05255 16.8555L0.326547 20.5815C0.121517 20.7936 0.00798728 21.0777 0.0104105 21.3727C0.0128337 21.6677 0.131016 21.9499 0.339502 22.1586C0.547989 22.3672 0.830099 22.4857 1.12507 22.4884C1.42004 22.4911 1.70427 22.3778 1.91655 22.173L22.1665 1.923C22.2711 1.81853 22.354 1.69448 22.4106 1.55794C22.4672 1.4214 22.4963 1.27505 22.4963 1.12725C22.4963 0.979456 22.4672 0.833107 22.4106 0.696569C22.354 0.56003 22.2711 0.435979 22.1665 0.331504L22.1695 0.330004ZM9.74955 7.5C10.22 7.49994 10.6787 7.64736 11.0611 7.92154C11.4434 8.19572 11.7302 8.58286 11.881 9.0285L9.02805 11.8815C8.52262 11.7106 8.09436 11.3657 7.81969 10.9084C7.54502 10.451 7.44182 9.91085 7.52851 9.38442C7.61519 8.85799 7.88613 8.37949 8.29295 8.03432C8.69978 7.68915 9.21602 7.49978 9.74955 7.5ZM2.58105 12C3.5344 10.4899 4.82918 9.22494 6.36105 8.307C6.12162 8.96516 5.99928 9.66015 5.99955 10.3605C5.99955 11.6475 6.40455 12.8385 7.09455 13.815L5.66655 15.243C4.43384 14.3765 3.38512 13.2743 2.58105 12ZM17.9995 10.359C17.9995 9.723 17.9005 9.1095 17.716 8.5335L10.174 16.0755C11.0737 16.3628 12.0284 16.4338 12.9606 16.2825C13.8928 16.1312 14.7762 15.762 15.5388 15.2049C16.3014 14.6478 16.9217 13.9186 17.3493 13.0766C17.7769 12.2345 17.9997 11.3034 17.9995 10.359Z" fill="black"/>
<path d="M19.4538 6.79651L17.8278 8.42251L17.9163 8.47801C19.3263 9.37801 20.5218 10.5825 21.4188 12C20.5244 13.4172 19.3285 14.6197 17.9163 15.522C16.6555 16.3273 15.2435 16.8667 13.7669 17.1073C12.2903 17.348 10.7802 17.2848 9.32884 16.9215L7.52734 18.723C8.96228 19.2384 10.4757 19.5013 12.0003 19.5C17.2338 19.5 21.7713 16.452 24.0003 12C22.954 9.90578 21.3888 8.11439 19.4538 6.79651Z" fill="black"/>
</g>
</svg>
