<svg width="510" height="349" viewBox="0 0 510 349" fill="none" xmlns="http://www.w3.org/2000/svg">
<path d="M3.81114 0.721832C3.04891 1.10611 1.87092 2.00275 1.24728 2.7713C0.0692935 4.05222 0 14.0433 0 174.669V345.285L2.00951 347.143L4.01902 349H228.599H453.11L455.05 347.463L456.99 345.926L457.198 333.181C457.268 326.2 457.545 320.116 457.753 319.603C457.961 318.963 461.98 322.229 469.671 329.274C476.808 335.871 482.005 340.098 483.183 340.354C486.925 341.251 488.658 340.098 499.467 330.171C509.861 320.628 510 320.436 510 317.682V314.864L483.668 290.463L457.337 266.061V135.537C457.337 40.622 457.129 4.6286 456.575 3.60388C456.159 2.83533 455.12 1.68253 454.288 1.10611C452.902 0.0173645 440.083 -0.0466919 229.015 0.0173645C67.5611 0.0173645 4.78125 0.209473 3.81114 0.721832ZM443.478 14.0433C444.379 15.5804 444.171 63.166 443.27 64.4469C442.785 65.0873 399.2 65.2795 229.015 65.2795C111.493 65.2795 14.8981 65.0873 14.2745 64.8952C13.3043 64.575 13.1658 61.6929 13.1658 39.085C13.1658 25.0591 13.3736 13.4028 13.6508 13.2107C13.8587 12.9545 110.523 12.7624 228.391 12.7624H442.716L443.478 14.0433ZM442.785 78.0885C443.686 78.6009 443.825 88.9762 443.825 165.318C443.825 234.295 443.617 251.971 442.924 251.971C441.884 251.971 426.155 237.625 426.155 236.601C426.155 236.152 426.848 234.551 427.749 233.014C432.668 224.304 435.094 216.618 436.549 204.898C438.143 192.153 434.47 175.245 427.402 163.269C423.037 155.775 419.226 151.292 411.88 144.696C404.743 138.291 400.239 135.281 393.24 132.079C371.552 122.088 348.615 121.127 326.026 129.261C302.743 137.651 284.865 156.288 278.075 179.088C275.649 187.542 275.026 203.873 276.827 212.455C280.846 231.157 291.864 247.36 308.009 258.376C310.851 260.297 313.276 261.898 313.484 261.898C313.622 261.898 315.632 262.923 317.849 264.14C322.7 266.766 329.075 269.072 337.251 270.993C342.518 272.274 345.082 272.466 356.168 272.466C366.355 272.466 370.027 272.21 373.838 271.313C381.183 269.52 388.251 267.214 392.686 265.101C394.904 264.012 396.982 263.179 397.398 263.179C397.745 263.179 408.346 272.594 420.819 284.186L443.478 305.129L443.686 320.372C443.825 333.309 443.686 335.679 442.785 336.191C441.122 337.152 15.0367 337.024 13.9973 336.063C12.75 334.91 12.8193 78.3447 14.0666 77.8964C15.7296 77.256 441.746 77.4481 442.785 78.0885ZM371.482 138.035C410.217 146.873 432.253 183.571 419.711 218.22C416.177 227.89 411.95 234.039 402.942 242.365C397.121 247.744 394.072 250.05 389.845 252.1C377.303 258.376 369.681 260.169 356.168 260.169C341.617 260.233 330.738 257.223 318.75 249.858C300.387 238.522 288.954 218.86 288.954 198.494C288.954 175.565 303.09 154.11 325.333 143.351C331.361 140.469 340.37 137.715 346.467 137.01C352.704 136.242 366.147 136.754 371.482 138.035ZM420.542 250.05C421.72 251.331 422.69 252.548 422.69 252.804C422.69 253.444 415.553 259.977 414.791 259.977C413.89 259.977 409.524 256.07 409.524 255.302C409.524 254.469 416.662 247.873 417.562 247.808C418.048 247.808 419.364 248.833 420.542 250.05ZM455.397 282.201C467.107 293.088 476.739 302.183 476.739 302.567C476.739 303.4 469.671 309.932 468.77 309.932C467.8 309.932 425.462 270.737 425.462 269.84C425.462 268.751 431.906 262.603 433.084 262.539C433.639 262.539 443.686 271.377 455.397 282.201ZM490.875 315.056C492.261 316.465 493.37 317.746 493.37 317.81C493.37 318.066 488.658 322.549 486.579 324.214C485.193 325.367 485.124 325.367 482.352 323.062C480.758 321.717 479.511 320.308 479.511 319.859C479.511 318.643 485.955 312.494 487.202 312.494C487.826 312.494 489.489 313.647 490.875 315.056Z" fill="#5D2D2B"/>
<path d="M57.8591 30.631C54.1173 32.4243 52.6621 34.794 52.6621 39.2771C52.6621 42.6075 52.87 43.0558 55.4338 45.4255C57.9977 47.7952 58.4828 47.9873 62.086 47.9873C68.3917 47.9873 71.8564 45.2334 72.48 39.7895C73.3809 32.2322 65.2735 27.1726 57.8591 30.631Z" fill="black"/>
<path d="M99.0896 30.5671C94.1698 32.8087 92.1603 38.3806 94.6548 43.248C97.0108 47.7952 104.702 49.5245 109.553 46.5143C112.81 44.5289 114.681 39.7896 113.572 36.5233C111.493 30.503 105.049 27.8772 99.0896 30.5671Z" fill="black"/>
<path d="M140.181 30.3749C130.688 34.2816 134.152 47.9873 144.616 47.9873C148.843 47.9873 152.238 46.13 153.97 42.8637C155.633 39.8536 155.495 37.2917 153.624 34.2176C150.991 29.9265 145.378 28.3254 140.181 30.3749Z" fill="black"/>
<path d="M190.834 111.008C186.954 112.609 186.053 118.053 189.31 120.743C190.072 121.447 192.012 122.408 193.537 122.92C195.13 123.497 196.447 124.329 196.447 124.777C196.447 125.226 167.413 139.124 128.609 157.184C88.0028 176.078 60.2161 189.335 59.3846 190.232C56.3357 193.754 59.731 199.774 64.8588 199.774C66.6604 199.774 84.2609 191.897 134.776 168.392C171.917 151.1 202.683 137.01 203.099 137.01C203.584 137.01 203.654 137.843 203.307 139.7C201.783 146.937 203.515 150.139 208.92 150.139C211.137 150.139 212.385 149.755 213.424 148.794C215.156 147.193 223.056 126.186 223.125 123.112C223.125 118.949 219.799 117.284 199.288 111.456C193.745 109.919 193.675 109.919 190.834 111.008Z" fill="#5D2D2B"/>
<path d="M183.282 168.649C182.104 169.097 180.787 170.25 180.302 171.211C179.679 172.556 179.471 187.798 179.471 236.985V301.094L181.48 302.952L183.49 304.809H201.298H219.107L221.116 302.952L223.126 301.094V236.345V171.659L221.463 169.866L219.8 168.072L202.545 167.944C189.38 167.816 184.876 167.944 183.282 168.649ZM209.128 236.409L208.92 292.32L201.367 292.512C195.755 292.64 193.607 292.448 193.191 291.872C192.567 290.911 192.429 181.586 193.122 181.01C193.329 180.753 197.071 180.561 201.437 180.561H209.267L209.128 236.409Z" fill="#FED45C"/>
<path d="M123.345 197.021C122.791 197.213 121.613 197.982 120.781 198.686L119.188 199.967V250.691V301.415L120.989 303.144L122.86 304.809H140.599C157.022 304.809 158.477 304.681 160.071 303.528L161.803 302.311L162.149 252.484C162.357 225.073 162.288 201.888 162.011 200.864C160.971 196.957 160.833 196.893 141.777 196.765C132.215 196.701 123.899 196.829 123.345 197.021ZM148.637 251.011V292.32H140.668H132.7L132.492 251.652C132.423 229.3 132.492 210.599 132.7 210.15C132.908 209.574 134.986 209.382 140.807 209.51L148.637 209.702V251.011Z" fill="#FED45C"/>
<path d="M61.4638 227.058C60.4244 227.57 59.2464 228.723 58.9 229.62C58.4842 230.581 58.207 245.567 58.207 266.126V301.094L60.2165 302.952L62.2261 304.809H79.8959C96.2492 304.809 97.635 304.745 99.2288 303.592C102.416 301.287 102.555 299.429 102.555 264.717C102.486 235.384 102.347 231.926 101.308 229.876C99.3674 226.226 98.4665 226.033 80.0345 226.097C66.5222 226.097 63.0576 226.29 61.4638 227.058ZM88.2804 239.867C88.4883 240.444 88.6962 252.164 88.6962 265.998C88.6962 284.699 88.4883 291.296 87.8646 291.872C87.3103 292.384 84.5386 292.64 80.0345 292.64C75.5304 292.64 72.7587 292.384 72.2043 291.872C71.5807 291.296 71.3728 284.699 71.3728 265.998C71.3728 252.164 71.5807 240.444 71.7886 239.867C72.135 239.035 73.5209 238.842 80.0345 238.842C86.5481 238.842 87.9339 239.035 88.2804 239.867Z" fill="#FED45C"/>
</svg>
