<svg width="229" height="207" viewBox="0 0 229 207" fill="none" xmlns="http://www.w3.org/2000/svg">
<path d="M156.559 -51.3042C156.559 -45.2343 161.03 -40.1134 166.893 -38.542C172.751 -36.972 179.055 -39.2118 182.087 -44.4638L183.295 -46.5548C187.515 -53.8645 196.862 -56.3689 204.172 -52.1485L209.822 -48.8863C217.141 -44.6608 219.649 -35.3023 215.423 -27.9837L214.213 -25.8873C211.179 -20.6341 212.436 -14.0103 216.725 -9.72122C221.014 -5.43245 227.638 -4.17603 232.891 -7.20856L234.987 -8.41901C242.306 -12.6442 251.665 -10.1365 255.89 -2.81772L259.153 2.83389C263.373 10.1431 260.869 19.4893 253.559 23.7091L251.47 24.9153C246.217 27.9479 243.977 34.2526 245.548 40.1112C247.119 45.9745 252.24 50.4463 258.311 50.4463H270.202C280.449 50.4463 288.756 58.7533 288.756 69.0005C288.756 79.2477 280.449 87.5547 270.202 87.5547H256.821C251.611 87.5547 247.208 91.3818 245.928 96.4327C244.679 101.365 246.633 106.61 251.04 109.155L262.624 115.843C271.499 120.967 274.54 132.314 269.416 141.189C264.292 150.064 252.944 153.104 244.07 147.981L234.198 142.281C229.391 139.506 223.316 140.743 219.535 144.806C215.981 148.626 215.056 154.31 217.665 158.829L223.358 168.689C228.482 177.564 225.441 188.911 216.567 194.035C207.692 199.159 196.344 196.118 191.221 187.244L188.825 183.094C184.939 176.363 176.726 173.698 169.266 175.877C162.102 177.969 156.559 184.255 156.559 191.719C156.559 200.158 149.717 207 141.277 207H134.732C126.292 207 119.45 200.158 119.45 191.718V189.301C119.45 183.232 114.979 178.111 109.116 176.54C103.258 174.97 96.954 177.21 93.9217 182.463L92.715 184.553C88.4951 191.863 79.1487 194.367 71.8394 190.147L66.1888 186.885C58.8697 182.659 56.3619 173.3 60.5874 165.981L61.7982 163.884C64.8307 158.631 63.5744 152.008 59.2856 147.719C54.9965 143.429 48.3727 142.173 43.1196 145.206L41.0227 146.417C33.7038 150.642 24.3449 148.135 20.1192 140.816L16.8575 135.167C12.6371 127.857 15.1416 118.509 22.4516 114.289L24.5436 113.081C29.7953 110.049 32.035 103.745 30.4654 97.888C28.8944 92.0257 23.7742 87.5547 17.705 87.5547H15.2853C6.84345 87.5547 0 80.7112 0 72.2694V65.7315C0 57.2897 6.84341 50.4463 15.2852 50.4463H16.2692C23.1671 50.4463 28.9778 45.35 30.8503 38.7111C32.7638 31.9273 30.2644 24.5396 24.1602 21.0155L23.294 20.5154C15.9897 16.2984 13.487 6.9586 17.7041 -0.345612L20.4717 -5.13924C24.9736 -12.9367 34.9441 -15.6083 42.7416 -11.1064L44.6167 -10.0239C50.2589 -6.76632 57.3543 -8.01297 62.1197 -12.4557C67.1832 -17.1765 68.8246 -24.7529 65.3632 -30.7483L64.2286 -32.7134C59.7504 -40.47 62.4079 -50.3882 70.1644 -54.8665L72.6576 -56.306C81.2728 -61.2801 92.2891 -58.3284 97.263 -49.7131L100.744 -43.6842C102.933 -39.8921 107.419 -38.1624 111.675 -39.1944C116.107 -40.2693 119.45 -44.1281 119.45 -48.6892V-53.7183C119.45 -62.1582 126.292 -69 134.732 -69H141.278C149.717 -69 156.559 -62.1585 156.559 -53.7191V-51.3042Z" fill="#875651"/>
</svg>
