<svg width="45" height="45" viewBox="0 0 45 45" fill="none" xmlns="http://www.w3.org/2000/svg">
<path d="M4.85525 9.2723H40.1886V13.689H4.85525V9.2723ZM9.27192 0.438965H35.7719V4.85563H9.27192V0.438965ZM40.1665 18.0835H4.83317C3.6618 18.0835 2.5384 18.5489 1.71012 19.3772C0.88183 20.2054 0.416504 21.3288 0.416504 22.5002V40.1669C0.416504 41.3383 0.88183 42.4617 1.71012 43.2899C2.5384 44.1182 3.6618 44.5835 4.83317 44.5835H40.1665C41.3379 44.5835 42.4613 44.1182 43.2896 43.2899C44.1178 42.4617 44.5832 41.3383 44.5832 40.1669V22.5002C44.5832 21.3288 44.1178 20.2054 43.2896 19.3772C42.4613 18.5489 41.3379 18.0835 40.1665 18.0835ZM18.7457 40.1669L11.4582 33.0119L14.5498 29.9202L18.7457 34.1161L30.4498 22.4119L33.5415 25.5035L18.7457 40.1669Z" fill="white"/>
</svg>
