<svg width="28" height="29" viewBox="0 0 28 29" fill="none" xmlns="http://www.w3.org/2000/svg">
<path d="M22.375 22.75C23.1043 22.75 23.8038 23.0397 24.3195 23.5555C24.8353 24.0712 25.125 24.7707 25.125 25.5C25.125 26.2293 24.8353 26.9288 24.3195 27.4445C23.8038 27.9603 23.1043 28.25 22.375 28.25C21.6457 28.25 20.9462 27.9603 20.4305 27.4445C19.9147 26.9288 19.625 26.2293 19.625 25.5C19.625 23.9737 20.8487 22.75 22.375 22.75ZM0.375 0.75H4.87125L6.16375 3.5H26.5C26.8647 3.5 27.2144 3.64487 27.4723 3.90273C27.7301 4.16059 27.875 4.51033 27.875 4.875C27.875 5.10875 27.8062 5.3425 27.71 5.5625L22.7875 14.4588C22.32 15.2975 21.4125 15.875 20.3813 15.875H10.1375L8.9 18.1163L8.85875 18.2812C8.85875 18.3724 8.89497 18.4599 8.95943 18.5243C9.0239 18.5888 9.11133 18.625 9.2025 18.625H25.125V21.375H8.625C7.89565 21.375 7.19618 21.0853 6.68046 20.5695C6.16473 20.0538 5.875 19.3543 5.875 18.625C5.875 18.1437 5.99875 17.69 6.205 17.305L8.075 13.9363L3.125 3.5H0.375V0.75ZM8.625 22.75C9.35435 22.75 10.0538 23.0397 10.5695 23.5555C11.0853 24.0712 11.375 24.7707 11.375 25.5C11.375 26.2293 11.0853 26.9288 10.5695 27.4445C10.0538 27.9603 9.35435 28.25 8.625 28.25C7.89565 28.25 7.19618 27.9603 6.68046 27.4445C6.16473 26.9288 5.875 26.2293 5.875 25.5C5.875 23.9737 7.09875 22.75 8.625 22.75ZM21 13.125L24.8225 6.25H7.4425L10.6875 13.125H21Z" fill="black"/>
</svg>
