<svg width="54" height="46" viewBox="0 0 54 46" fill="none" xmlns="http://www.w3.org/2000/svg">
<path d="M14.5385 0.153809C13.4369 0.153809 12.3803 0.591445 11.6013 1.37044C10.8223 2.14944 10.3847 3.20599 10.3847 4.30765V41.6923C10.3847 42.7939 10.8223 43.8505 11.6013 44.6295C12.3803 45.4085 13.4369 45.8461 14.5385 45.8461H39.4616C40.5633 45.8461 41.6198 45.4085 42.3988 44.6295C43.1778 43.8505 43.6154 42.7939 43.6154 41.6923V4.30765C43.6154 3.20599 43.1778 2.14944 42.3988 1.37044C41.6198 0.591445 40.5633 0.153809 39.4616 0.153809H14.5385ZM20.7693 4.17889C23.1204 4.17889 25.054 6.11042 25.054 8.4615C25.0485 9.59619 24.5954 10.6828 23.793 11.4852C22.9906 12.2876 21.904 12.7407 20.7693 12.7462C19.6341 12.7424 18.5465 12.2897 17.7438 11.487C16.9411 10.6843 16.4884 9.59669 16.4846 8.4615C16.4846 6.11042 18.4182 4.17889 20.7693 4.17889ZM5.06152 4.30765C4.94185 4.30654 4.82315 4.32933 4.7124 4.37467C4.60164 4.42002 4.50105 4.48702 4.41652 4.57174C4.33199 4.65647 4.26522 4.75721 4.22013 4.86807C4.17503 4.97893 4.15252 5.09768 4.15391 5.21735V6.38458H0.907676C0.788001 6.38346 0.669307 6.40625 0.558551 6.4516C0.447795 6.49695 0.347205 6.56394 0.262675 6.64867C0.178145 6.73339 0.111376 6.83413 0.0662814 6.94499C0.0211867 7.05585 -0.00132675 7.1746 6.04147e-05 7.29427V9.63081C6.04147e-05 10.1417 0.400907 10.5384 0.909753 10.5384H4.15391V11.7077C4.15391 12.2166 4.55268 12.6153 5.0636 12.6153H7.39806C7.51791 12.6167 7.63683 12.5942 7.74783 12.5489C7.85882 12.5037 7.95966 12.4368 8.04441 12.352C8.12916 12.2673 8.19612 12.1664 8.24134 12.0554C8.28657 11.9444 8.30914 11.8255 8.30775 11.7057V5.21735C8.30914 5.0975 8.28657 4.97858 8.24134 4.86758C8.19612 4.75658 8.12916 4.65575 8.04441 4.57099C7.95966 4.48624 7.85882 4.41929 7.74783 4.37406C7.63683 4.32884 7.51791 4.30626 7.39806 4.30765H5.06152ZM46.6 4.30765C46.4803 4.30654 46.3616 4.32933 46.2509 4.37467C46.1401 4.42002 46.0395 4.48702 45.955 4.57174C45.8705 4.65647 45.8037 4.75721 45.7586 4.86807C45.7135 4.97893 45.691 5.09768 45.6924 5.21735V11.7077C45.6924 12.2166 46.0911 12.6153 46.6021 12.6153H48.9386C49.0583 12.6165 49.177 12.5937 49.2877 12.5483C49.3985 12.503 49.4991 12.436 49.5836 12.3513C49.6681 12.2665 49.7349 12.1658 49.78 12.0549C49.8251 11.9441 49.8476 11.8253 49.8462 11.7057V10.5384H53.0924C53.2121 10.5395 53.3308 10.5168 53.4416 10.4714C53.5523 10.4261 53.6529 10.3591 53.7374 10.2743C53.822 10.1896 53.8887 10.0889 53.9338 9.97801C53.9789 9.86715 54.0014 9.7484 54.0001 9.62873V7.29427C54.0015 7.17442 53.9789 7.0555 53.9337 6.94451C53.8884 6.83351 53.8215 6.73267 53.7367 6.64792C53.652 6.56317 53.5511 6.49621 53.4401 6.45099C53.3291 6.40576 53.2102 6.38319 53.0904 6.38458H49.8462V5.21527C49.8473 5.09559 49.8245 4.9769 49.7792 4.86615C49.7338 4.75539 49.6669 4.6548 49.5821 4.57027C49.4974 4.48574 49.3967 4.41897 49.2858 4.37388C49.1749 4.32878 49.0562 4.30627 48.9365 4.30765H46.6ZM5.06152 18.8461C4.94185 18.845 4.82315 18.8678 4.7124 18.9131C4.60164 18.9585 4.50105 19.0255 4.41652 19.1102C4.33199 19.1949 4.26522 19.2957 4.22013 19.4065C4.17503 19.5174 4.15252 19.6361 4.15391 19.7558V20.923H0.907676C0.788001 20.9219 0.669307 20.9447 0.558551 20.9901C0.447795 21.0354 0.347205 21.1024 0.262675 21.1871C0.178145 21.2719 0.111376 21.3726 0.0662814 21.4835C0.0211867 21.5943 -0.00132675 21.7131 6.04147e-05 21.8327V24.1672C6.04147e-05 24.6802 0.400907 25.0769 0.909753 25.0769H4.15391V26.2462C4.15391 26.753 4.55268 27.1538 5.0636 27.1538H7.39806C7.51791 27.1552 7.63683 27.1326 7.74783 27.0874C7.85882 27.0422 7.95966 26.9752 8.04441 26.8905C8.12916 26.8057 8.19612 26.7049 8.24134 26.5939C8.28657 26.4829 8.30914 26.364 8.30775 26.2441V19.7558C8.30914 19.636 8.28657 19.517 8.24134 19.406C8.19612 19.295 8.12916 19.1942 8.04441 19.1095C7.95966 19.0247 7.85882 18.9578 7.74783 18.9125C7.63683 18.8673 7.51791 18.8447 7.39806 18.8461H5.06152ZM46.6 18.8461C46.4803 18.845 46.3616 18.8678 46.2509 18.9131C46.1401 18.9585 46.0395 19.0255 45.955 19.1102C45.8705 19.1949 45.8037 19.2957 45.7586 19.4065C45.7135 19.5174 45.691 19.6361 45.6924 19.7558V26.2441C45.6924 26.753 46.0911 27.1538 46.6021 27.1538H48.9386C49.0583 27.1549 49.177 27.1321 49.2877 27.0868C49.3985 27.0414 49.4991 26.9744 49.5836 26.8897C49.6681 26.805 49.7349 26.7043 49.78 26.5934C49.8251 26.4825 49.8476 26.3638 49.8462 26.2441V25.0769H53.0924C53.2121 25.078 53.3308 25.0552 53.4416 25.0099C53.5523 24.9645 53.6529 24.8975 53.7374 24.8128C53.822 24.7281 53.8887 24.6273 53.9338 24.5165C53.9789 24.4056 54.0014 24.2869 54.0001 24.1672V21.8327C54.0015 21.7129 53.9789 21.594 53.9337 21.483C53.8884 21.372 53.8215 21.2711 53.7367 21.1864C53.652 21.1016 53.5511 21.0347 53.4401 20.9895C53.3291 20.9442 53.2102 20.9216 53.0904 20.923H49.8462V19.7537C49.8473 19.6341 49.8245 19.5154 49.7792 19.4046C49.7338 19.2939 49.6669 19.1933 49.5821 19.1087C49.4974 19.0242 49.3967 18.9574 49.2858 18.9123C49.1749 18.8672 49.0562 18.8447 48.9365 18.8461H46.6ZM5.06152 33.3846C4.94185 33.3835 4.82315 33.4062 4.7124 33.4516C4.60164 33.4969 4.50105 33.5639 4.41652 33.6487C4.33199 33.7334 4.26522 33.8341 4.22013 33.945C4.17503 34.0559 4.15252 34.1746 4.15391 34.2943V35.4615H0.907676C0.788001 35.4604 0.669307 35.4832 0.558551 35.5285C0.447795 35.5739 0.347205 35.6409 0.262675 35.7256C0.178145 35.8103 0.111376 35.9111 0.0662814 36.0219C0.0211867 36.1328 -0.00132675 36.2515 6.04147e-05 36.3712V38.7077C6.04147e-05 39.2166 0.400907 39.6153 0.909753 39.6153H4.15391V40.7847C4.15391 41.2935 4.55268 41.6923 5.0636 41.6923H7.39806C7.51791 41.6937 7.63683 41.6711 7.74783 41.6259C7.85882 41.5806 7.95966 41.5137 8.04441 41.4289C8.12916 41.3442 8.19612 41.2433 8.24134 41.1323C8.28657 41.0213 8.30914 40.9024 8.30775 40.7826V34.2922C8.30887 34.1725 8.28608 34.0538 8.24073 33.9431C8.19539 33.8323 8.12839 33.7317 8.04366 33.6472C7.95894 33.5627 7.8582 33.4959 7.74734 33.4508C7.63648 33.4057 7.51773 33.3832 7.39806 33.3846H5.06152ZM46.6 33.3846C46.4803 33.3835 46.3616 33.4062 46.2509 33.4516C46.1401 33.4969 46.0395 33.5639 45.955 33.6487C45.8705 33.7334 45.8037 33.8341 45.7586 33.945C45.7135 34.0559 45.691 34.1746 45.6924 34.2943V40.7847C45.6924 41.2935 46.0911 41.6923 46.6021 41.6923H48.9386C49.0583 41.6934 49.177 41.6706 49.2877 41.6253C49.3985 41.5799 49.4991 41.5129 49.5836 41.4282C49.6681 41.3435 49.7349 41.2427 49.78 41.1319C49.8251 41.021 49.8476 40.9023 49.8462 40.7826V39.6153H53.0924C53.2121 39.6165 53.3308 39.5937 53.4416 39.5483C53.5523 39.503 53.6529 39.436 53.7374 39.3513C53.822 39.2665 53.8887 39.1658 53.9338 39.0549C53.9789 38.9441 54.0014 38.8253 54.0001 38.7057V36.3691C54.0012 36.2494 53.9784 36.1307 53.933 36.02C53.8877 35.9092 53.8207 35.8086 53.736 35.7241C53.6512 35.6396 53.5505 35.5728 53.4396 35.5277C53.3288 35.4826 53.21 35.4601 53.0904 35.4615H49.8462V34.2922C49.8473 34.1725 49.8245 34.0538 49.7792 33.9431C49.7338 33.8323 49.6669 33.7317 49.5821 33.6472C49.4974 33.5627 49.3967 33.4959 49.2858 33.4508C49.1749 33.4057 49.0562 33.3832 48.9365 33.3846H46.6Z" fill="white"/>
</svg>
