<svg width="44" height="40" viewBox="0 0 44 40" fill="none" xmlns="http://www.w3.org/2000/svg">
<rect width="44" height="40" rx="5" fill="#FFBCBC"/>
<path d="M17.616 28C17.168 28 16.7867 27.8426 16.472 27.528C16.1573 27.2133 16 26.8323 16 26.385V14H15V13H19V12.23H25V13H29V14H28V26.385C28 26.845 27.846 27.2293 27.538 27.538C27.23 27.8466 26.8453 28.0006 26.384 28H17.616ZM27 14H17V26.385C17 26.5643 17.0577 26.7116 17.173 26.827C17.2883 26.9423 17.436 27 17.616 27H26.385C26.5383 27 26.6793 26.936 26.808 26.808C26.9367 26.68 27.0007 26.5386 27 26.384V14ZM19.808 25H20.808V16H19.808V25ZM23.192 25H24.192V16H23.192V25Z" fill="#F30000"/>
</svg>
