<svg width="56" height="44" viewBox="0 0 56 44" fill="none" xmlns="http://www.w3.org/2000/svg">
<path d="M47.1918 4.25328C43.5641 2.5559 39.7263 1.34984 35.7797 0.666992C35.2882 1.55573 34.7138 2.75109 34.3177 3.70206C30.0627 3.06217 25.8467 3.06217 21.6699 3.70206C21.274 2.7513 20.6867 1.55573 20.1906 0.666992C16.2402 1.35014 12.3991 2.55927 8.76969 4.26214C1.54742 15.1761 -0.410484 25.8187 0.56836 36.3107C5.35865 39.888 10.0009 42.0611 14.565 43.4831C15.6993 41.9233 16.702 40.2719 17.5627 38.5459C15.9239 37.922 14.3442 37.1532 12.8422 36.2485C13.2374 35.9555 13.6234 35.6502 13.9995 35.333C23.1012 39.5902 32.9908 39.5902 41.9841 35.333C42.3618 35.6481 42.7476 35.9534 43.1412 36.2485C41.6368 37.1556 40.054 37.926 38.412 38.5504C39.2776 40.2834 40.2785 41.9364 41.4097 43.4874C45.9781 42.0656 50.6247 39.8925 55.415 36.3107C56.5636 24.148 53.453 13.6031 47.1918 4.25328ZM18.8027 29.8584C16.0704 29.8584 13.8296 27.3075 13.8296 24.2014C13.8296 21.0952 16.0226 18.5401 18.8027 18.5401C21.5828 18.5401 23.8236 21.0907 23.7758 24.2014C23.7801 27.3075 21.583 29.8584 18.8027 29.8584ZM37.1806 29.8584C34.4482 29.8584 32.2077 27.3075 32.2077 24.2014C32.2077 21.0952 34.4005 18.5401 37.1806 18.5401C39.9609 18.5401 42.2014 21.0907 42.1537 24.2014C42.1537 27.3075 39.9609 29.8584 37.1806 29.8584Z" fill="#5865F2"/>
</svg>
