<svg width="52" height="52" viewBox="0 0 52 52" fill="none" xmlns="http://www.w3.org/2000/svg">
<path d="M49.2498 25.9998C49.2498 38.8405 38.8405 49.2498 25.9998 49.2498C13.1592 49.2498 2.74984 38.8405 2.74984 25.9998C2.74984 13.1592 13.1592 2.74984 25.9998 2.74984C38.8405 2.74984 49.2498 13.1592 49.2498 25.9998Z" fill="#D85888"/>
<path fill-rule="evenodd" clip-rule="evenodd" d="M25.9998 0.166504C11.7383 0.166504 0.166504 11.7383 0.166504 25.9998C0.166504 40.2615 11.7383 51.8332 25.9998 51.8332C40.2334 51.8332 51.8332 40.2615 51.8332 25.9998C51.8332 11.7383 40.2334 0.166504 25.9998 0.166504ZM43.0632 12.0745C46.1453 15.829 47.9947 20.6202 48.0507 25.8037C47.3222 25.6637 40.0372 24.1786 32.6963 25.1033C32.5282 24.739 32.3881 24.3467 32.22 23.9545C31.7717 22.8898 31.2674 21.7971 30.763 20.7604C38.8884 17.4542 42.5869 12.6909 43.0632 12.0745ZM25.9998 3.97707C31.6036 3.97707 36.731 6.07848 40.6257 9.52479C40.2334 10.0852 36.8991 14.5402 29.0538 17.4821C25.4394 10.8417 21.4328 5.40602 20.8164 4.56545C22.4694 4.17319 24.2067 3.97707 25.9998 3.97707ZM16.6136 6.05045C17.202 6.83497 21.1246 12.2986 24.795 18.799C14.4841 21.5449 5.37801 21.4889 4.39734 21.4889C5.8263 14.6522 10.4494 8.9644 16.6136 6.05045ZM3.92102 26.0279C3.92102 25.8037 3.92102 25.5796 3.92102 25.3555C4.87366 25.3834 15.5768 25.5235 26.5882 22.2174C27.2327 23.4501 27.8211 24.7109 28.3815 25.9717C28.1012 26.0559 27.793 26.14 27.5129 26.2239C16.1372 29.8944 10.0852 39.9251 9.58082 40.7657C6.07846 36.8711 3.92102 31.6877 3.92102 26.0279ZM25.9998 48.0786C20.9003 48.0786 16.1933 46.3415 12.4668 43.4275C12.859 42.615 17.342 33.9852 29.7823 29.6423C29.8383 29.6142 29.8664 29.6142 29.9225 29.5863C33.0325 37.6276 34.2935 44.3801 34.6296 46.3134C31.9678 47.4622 29.0538 48.0786 25.9998 48.0786ZM38.3001 44.2961C38.076 42.9512 36.8991 36.5069 34.0132 28.5775C40.9339 27.4848 46.9859 29.2781 47.7425 29.5303C46.7899 35.6663 43.2594 40.9619 38.3001 44.2961Z" fill="#B33461"/>
</svg>
