<svg width="32" height="33" viewBox="0 0 32 33" fill="none" xmlns="http://www.w3.org/2000/svg">
<path d="M15.9886 0C7.14918 0 0 7.425 0 16.5943C0 24.8679 5.84725 31.7507 13.4989 33V21.4029H9.43326V16.5943H13.4989V12.9407C13.4989 8.76857 15.8972 6.48214 19.5289 6.48214C21.2877 6.48214 23.1149 6.81214 23.1149 6.81214V10.89H21.1049C19.1178 10.89 18.5011 12.1629 18.5011 13.4829V16.5943H22.9322L22.2241 21.4029H18.5011V33C26.1527 31.7507 32 24.8914 32 16.5943C32 7.425 24.8508 0 16.0114 0H15.9886Z" fill="#7140EB"/>
</svg>
