<svg width="37" height="48" viewBox="0 0 37 48" fill="none" xmlns="http://www.w3.org/2000/svg">
<path d="M18.5002 24C18.5002 21.9446 19.4374 19.9733 21.1057 18.5199C22.774 17.0665 25.0367 16.25 27.396 16.25C29.7553 16.25 32.018 17.0665 33.6863 18.5199C35.3546 19.9733 36.2918 21.9446 36.2918 24C36.2918 26.0554 35.3546 28.0267 33.6863 29.4801C32.018 30.9335 29.7553 31.75 27.396 31.75C25.0367 31.75 22.774 30.9335 21.1057 29.4801C19.4374 28.0267 18.5002 26.0554 18.5002 24Z" fill="#1ABCFE"/>
<path d="M0.708496 39.5C0.708496 37.4446 1.64573 35.4733 3.31403 34.0199C4.98232 32.5665 7.24501 31.75 9.60433 31.75H18.5002V39.5C18.5002 41.5554 17.5629 43.5267 15.8946 44.9801C14.2263 46.4335 11.9637 47.25 9.60433 47.25C7.24501 47.25 4.98232 46.4335 3.31403 44.9801C1.64573 43.5267 0.708496 41.5554 0.708496 39.5Z" fill="#0ACF83"/>
<path d="M18.5002 0.75V16.25L27.396 16.25C29.7553 16.25 32.018 15.4335 33.6863 13.9801C35.3546 12.5267 36.2918 10.5554 36.2918 8.5C36.2918 6.44457 35.3546 4.47333 33.6863 3.01992C32.018 1.56652 29.7553 0.75 27.396 0.75H18.5002Z" fill="#FF7262"/>
<path d="M0.708496 8.5C0.708496 10.5554 1.64573 12.5267 3.31403 13.9801C4.98232 15.4335 7.24501 16.25 9.60433 16.25H18.5002V0.75H9.60433C7.24501 0.75 4.98232 1.56652 3.31403 3.01992C1.64573 4.47333 0.708496 6.44457 0.708496 8.5Z" fill="#F24E1E"/>
<path d="M0.708496 24C0.708496 26.0554 1.64573 28.0267 3.31403 29.4801C4.98232 30.9335 7.24501 31.75 9.60433 31.75H18.5002L18.5002 16.25H9.60433C7.24501 16.25 4.98232 17.0665 3.31403 18.5199C1.64573 19.9733 0.708496 21.9446 0.708496 24Z" fill="#A259FF"/>
</svg>
