<svg width="52" height="53" viewBox="0 0 52 53" fill="none" xmlns="http://www.w3.org/2000/svg">
<path fill-rule="evenodd" clip-rule="evenodd" d="M26.1588 0.833496C20.1248 0.836777 14.2886 3.07656 9.69387 7.15234C5.09915 11.2281 2.04547 16.8741 1.07885 23.0808C0.112238 29.2875 1.29571 35.65 4.41768 41.0309C7.53965 46.4117 12.3965 50.4599 18.1198 52.4515C19.3825 52.6971 19.8581 51.877 19.8581 51.1796C19.8581 50.4822 19.8328 48.4603 19.8244 46.2498C12.7535 47.8507 11.2594 43.1227 11.2594 43.1227C10.1062 40.0525 8.43947 39.2455 8.43947 39.2455C6.13301 37.6051 8.61204 37.6358 8.61204 37.6358C11.1668 37.8244 12.5094 40.3683 12.5094 40.3683C14.7738 44.4165 18.4565 43.2455 19.9044 42.5613C20.1317 40.8464 20.7925 39.6797 21.5206 39.0174C15.8723 38.3508 9.93782 36.0788 9.93782 25.9298C9.90281 23.2977 10.8401 20.7523 12.5557 18.8202C12.2948 18.1535 11.4235 15.4606 12.804 11.8027C12.804 11.8027 14.938 11.0922 19.795 14.5176C23.961 13.3304 28.3565 13.3304 32.5225 14.5176C37.3753 11.0922 39.505 11.8027 39.505 11.8027C40.8897 15.4518 40.0185 18.1448 39.7575 18.8202C41.4786 20.7526 42.4179 23.3024 42.3797 25.9386C42.3797 36.1095 36.4325 38.3508 30.7758 39.0043C31.685 39.8288 32.4973 41.4384 32.4973 43.9121C32.4973 47.4559 32.4678 50.3068 32.4678 51.1796C32.4678 51.8857 32.9266 52.7103 34.2145 52.4515C39.9385 50.4596 44.7958 46.4107 47.9177 41.029C51.0396 35.6473 52.2225 29.2837 51.2548 23.0765C50.2871 16.8692 47.2319 11.2232 42.6356 7.14808C38.0394 3.073 32.2019 0.834697 26.1672 0.833496H26.1588Z" fill="black"/>
</svg>
