<svg width="52" height="42" viewBox="0 0 52 42" fill="none" xmlns="http://www.w3.org/2000/svg">
<path d="M3.8829 41.3338H11.97V20.0462L0.416992 10.6547V37.5772C0.416992 39.6559 1.97087 41.3338 3.8829 41.3338Z" fill="#4285F4"/>
<path d="M39.6973 41.3338H47.7844C49.7022 41.3338 51.2503 39.6496 51.2503 37.5772V10.6547L39.6973 20.0462" fill="#34A853"/>
<path d="M39.6973 3.76778V20.0462L51.2503 10.6547V5.64609C51.2503 1.00039 46.3576 -1.64803 42.9321 1.13813" fill="#FBBC04"/>
<path d="M11.97 20.0462L11.97 3.76751L25.8337 15.0374L39.6973 3.76778V20.0462L25.8337 31.3161" fill="#EA4335"/>
<path d="M0.416992 5.64609V10.6547L11.97 20.0462L11.97 3.76751L8.73518 1.13813C5.30392 -1.64803 0.416992 1.00039 0.416992 5.64609Z" fill="#C5221F"/>
</svg>
