<svg width="30" height="19" viewBox="0 0 30 19" fill="none" xmlns="http://www.w3.org/2000/svg">
<path d="M2.08333 0H12.5C13.0525 0 13.5824 0.191841 13.9731 0.533319C14.3638 0.874798 14.5833 1.33794 14.5833 1.82087C14.5833 2.30379 14.3638 2.76693 13.9731 3.10841C13.5824 3.44989 13.0525 3.64173 12.5 3.64173H2.08333C1.5308 3.64173 1.0009 3.44989 0.610194 3.10841C0.219493 2.76693 0 2.30379 0 1.82087C0 1.33794 0.219493 0.874798 0.610194 0.533319C1.0009 0.191841 1.5308 0 2.08333 0ZM16.6667 14.5669H27.0833C27.6359 14.5669 28.1658 14.7588 28.5565 15.1002C28.9472 15.4417 29.1667 15.9049 29.1667 16.3878C29.1667 16.8707 28.9472 17.3339 28.5565 17.6753C28.1658 18.0168 27.6359 18.2087 27.0833 18.2087H16.6667C16.1141 18.2087 15.5842 18.0168 15.1935 17.6753C14.8028 17.3339 14.5833 16.8707 14.5833 16.3878C14.5833 15.9049 14.8028 15.4417 15.1935 15.1002C15.5842 14.7588 16.1141 14.5669 16.6667 14.5669ZM2.08333 7.28346H27.0833C27.6359 7.28346 28.1658 7.47531 28.5565 7.81678C28.9472 8.15826 29.1667 8.62141 29.1667 9.10433C29.1667 9.58725 28.9472 10.0504 28.5565 10.3919C28.1658 10.7334 27.6359 10.9252 27.0833 10.9252H2.08333C1.5308 10.9252 1.0009 10.7334 0.610194 10.3919C0.219493 10.0504 0 9.58725 0 9.10433C0 8.62141 0.219493 8.15826 0.610194 7.81678C1.0009 7.47531 1.5308 7.28346 2.08333 7.28346Z" fill="black"/>
</svg>
