<svg width="43" height="43" viewBox="0 0 43 43" fill="none" xmlns="http://www.w3.org/2000/svg">
<path d="M28.6667 5.375C31.0426 5.375 33.3212 6.31882 35.0012 7.99884C36.6812 9.67885 37.625 11.9574 37.625 14.3333V28.6667C37.625 31.0426 36.6812 33.3212 35.0012 35.0012C33.3212 36.6812 31.0426 37.625 28.6667 37.625H14.3333C11.9574 37.625 9.67885 36.6812 7.99884 35.0012C6.31882 33.3212 5.375 31.0426 5.375 28.6667V14.3333C5.375 11.9574 6.31882 9.67885 7.99884 7.99884C9.67885 6.31882 11.9574 5.375 14.3333 5.375H28.6667ZM21.5 14.3333C19.5993 14.3333 17.7764 15.0884 16.4324 16.4324C15.0884 17.7764 14.3333 19.5993 14.3333 21.5C14.3333 23.4007 15.0884 25.2236 16.4324 26.5676C17.7764 27.9116 19.5993 28.6667 21.5 28.6667C23.4007 28.6667 25.2236 27.9116 26.5676 26.5676C27.9116 25.2236 28.6667 23.4007 28.6667 21.5C28.6667 19.5993 27.9116 17.7764 26.5676 16.4324C25.2236 15.0884 23.4007 14.3333 21.5 14.3333ZM21.5 17.9167C22.4504 17.9167 23.3618 18.2942 24.0338 18.9662C24.7058 19.6382 25.0833 20.5496 25.0833 21.5C25.0833 22.4504 24.7058 23.3618 24.0338 24.0338C23.3618 24.7058 22.4504 25.0833 21.5 25.0833C20.5496 25.0833 19.6382 24.7058 18.9662 24.0338C18.2942 23.3618 17.9167 22.4504 17.9167 21.5C17.9167 20.5496 18.2942 19.6382 18.9662 18.9662C19.6382 18.2942 20.5496 17.9167 21.5 17.9167ZM29.5625 11.6458C29.0873 11.6458 28.6316 11.8346 28.2956 12.1706C27.9596 12.5066 27.7708 12.9623 27.7708 13.4375C27.7708 13.9127 27.9596 14.3684 28.2956 14.7044C28.6316 15.0404 29.0873 15.2292 29.5625 15.2292C30.0377 15.2292 30.4934 15.0404 30.8294 14.7044C31.1654 14.3684 31.3542 13.9127 31.3542 13.4375C31.3542 12.9623 31.1654 12.5066 30.8294 12.1706C30.4934 11.8346 30.0377 11.6458 29.5625 11.6458Z" fill="#7140EB"/>
</svg>
