<svg width="48" height="48" viewBox="0 0 48 48" fill="none" xmlns="http://www.w3.org/2000/svg">
<path fill-rule="evenodd" clip-rule="evenodd" d="M18.4643 17.8185H24.7241V21.0092H24.7927C25.7471 19.2887 28.5659 17.5417 32.0511 17.5417C38.7405 17.5417 40.6071 21.0934 40.6071 27.672V39.9613H33.9643V28.8832C33.9643 25.9382 32.7885 23.3542 30.0383 23.3542C26.6992 23.3542 25.1071 25.615 25.1071 29.3261V39.9613H18.4643V17.8185ZM7.39286 39.9613H14.0357V17.8185H7.39286V39.9613ZM14.8661 10.0685C14.8661 12.3625 13.0083 14.2202 10.7143 14.2202C8.42029 14.2202 6.5625 12.3625 6.5625 10.0685C6.5625 7.77445 8.42029 5.91667 10.7143 5.91667C13.0083 5.91667 14.8661 7.77445 14.8661 10.0685Z" fill="white"/>
<path fill-rule="evenodd" clip-rule="evenodd" d="M43.8821 0.75H4.25521C2.35979 0.75 0.75 2.24907 0.75 4.09579V43.902C0.75 45.7509 1.80621 47.25 3.70164 47.25H43.3285C45.2261 47.25 47.25 45.7509 47.25 43.902V4.09579C47.25 2.24907 45.7797 0.75 43.8821 0.75ZM18.4643 18.4643H24.7241V21.6551H24.7927C25.7471 19.9346 28.5659 18.1875 32.0511 18.1875C38.7405 18.1875 40.6071 21.7392 40.6071 28.3179V40.6071H33.9643V29.5291C33.9643 26.5841 32.7885 24 30.0383 24C26.6992 24 25.1071 26.2608 25.1071 29.9719V40.6071H18.4643V18.4643ZM7.39286 40.6071H14.0357V18.4643H7.39286V40.6071ZM14.8661 10.7143C14.8661 13.0083 13.0083 14.8661 10.7143 14.8661C8.42029 14.8661 6.5625 13.0083 6.5625 10.7143C6.5625 8.42029 8.42029 6.5625 10.7143 6.5625C13.0083 6.5625 14.8661 8.42029 14.8661 10.7143Z" fill="#2D64BC"/>
</svg>
