<svg width="43" height="43" viewBox="0 0 43 43" fill="none" xmlns="http://www.w3.org/2000/svg">
<path fill-rule="evenodd" clip-rule="evenodd" d="M32.25 5.375C33.6755 5.375 35.0427 5.94129 36.0507 6.9493C37.0587 7.95731 37.625 9.32446 37.625 10.75V32.25C37.625 33.6755 37.0587 35.0427 36.0507 36.0507C35.0427 37.0587 33.6755 37.625 32.25 37.625H10.75C9.32446 37.625 7.95731 37.0587 6.9493 36.0507C5.94129 35.0427 5.375 33.6755 5.375 32.25V10.75C5.375 9.32446 5.94129 7.95731 6.9493 6.9493C7.95731 5.94129 9.32446 5.375 10.75 5.375H32.25ZM14.3333 17.9167C13.8582 17.9167 13.4024 18.1054 13.0664 18.4414C12.7304 18.7774 12.5417 19.2332 12.5417 19.7083V28.6667C12.5417 29.1418 12.7304 29.5976 13.0664 29.9336C13.4024 30.2696 13.8582 30.4583 14.3333 30.4583C14.8085 30.4583 15.2642 30.2696 15.6002 29.9336C15.9362 29.5976 16.125 29.1418 16.125 28.6667V19.7083C16.125 19.2332 15.9362 18.7774 15.6002 18.4414C15.2642 18.1054 14.8085 17.9167 14.3333 17.9167ZM19.7083 16.125C19.2332 16.125 18.7774 16.3138 18.4414 16.6498C18.1054 16.9858 17.9167 17.4415 17.9167 17.9167V28.6667C17.9167 29.1418 18.1054 29.5976 18.4414 29.9336C18.7774 30.2696 19.2332 30.4583 19.7083 30.4583C20.1835 30.4583 20.6392 30.2696 20.9752 29.9336C21.3112 29.5976 21.5 29.1418 21.5 28.6667V22.1092C22.0465 21.4928 22.9692 20.769 23.9958 20.33C24.5924 20.0756 25.49 19.9717 26.1135 20.1688C26.3204 20.2213 26.5046 20.3395 26.6385 20.5056C26.7317 20.631 26.875 20.9105 26.875 21.5V28.6667C26.875 29.1418 27.0638 29.5976 27.3998 29.9336C27.7358 30.2696 28.1915 30.4583 28.6667 30.4583C29.1418 30.4583 29.5976 30.2696 29.9336 29.9336C30.2696 29.5976 30.4583 29.1418 30.4583 28.6667V21.5C30.4583 20.2996 30.1537 19.2317 29.5195 18.3753C28.9359 17.5987 28.1191 17.0293 27.1885 16.7503C25.5725 16.2432 23.7826 16.5245 22.5875 17.037C22.205 17.2015 21.8323 17.3882 21.4713 17.596C21.3962 17.1831 21.1786 16.8098 20.8564 16.541C20.5342 16.2721 20.1279 16.1249 19.7083 16.125ZM14.3333 12.5417C13.8582 12.5417 13.4024 12.7304 13.0664 13.0664C12.7304 13.4024 12.5417 13.8582 12.5417 14.3333C12.5417 14.8085 12.7304 15.2642 13.0664 15.6002C13.4024 15.9362 13.8582 16.125 14.3333 16.125C14.8085 16.125 15.2642 15.9362 15.6002 15.6002C15.9362 15.2642 16.125 14.8085 16.125 14.3333C16.125 13.8582 15.9362 13.4024 15.6002 13.0664C15.2642 12.7304 14.8085 12.5417 14.3333 12.5417Z" fill="#7140EB"/>
</svg>
