<svg width="432" height="97" viewBox="0 0 432 97" fill="none" xmlns="http://www.w3.org/2000/svg">
<rect x="1" y="1" width="430" height="95" rx="11" fill="#ECECED"/>
<rect x="1" y="1" width="430" height="95" rx="11" stroke="url(#paint0_linear_2041_2664)" stroke-width="2"/>
<path d="M98.704 21.92C99.7707 21.92 100.613 22.1493 101.232 22.608C101.851 23.0667 102.16 23.712 102.16 24.544C102.16 24.8533 102.101 25.1307 101.984 25.376C101.877 25.6213 101.733 25.8347 101.552 26.016C101.381 26.1867 101.184 26.3307 100.96 26.448C100.747 26.5653 100.528 26.6507 100.304 26.704C100.603 26.7573 100.88 26.848 101.136 26.976C101.403 27.0933 101.632 27.2533 101.824 27.456C102.027 27.6587 102.181 27.904 102.288 28.192C102.405 28.4693 102.464 28.7893 102.464 29.152C102.464 29.568 102.373 29.952 102.192 30.304C102.011 30.6453 101.749 30.944 101.408 31.2C101.077 31.456 100.672 31.6533 100.192 31.792C99.7227 31.9307 99.2 32 98.624 32H95.104V21.92H98.704ZM97.296 25.952H98.336C98.816 25.952 99.1947 25.8507 99.472 25.648C99.76 25.4347 99.904 25.12 99.904 24.704C99.904 24.3307 99.7707 24.0533 99.504 23.872C99.248 23.68 98.8747 23.584 98.384 23.584H97.296V25.952ZM97.296 30.336H98.336C98.88 30.336 99.328 30.2347 99.68 30.032C100.032 29.8187 100.208 29.456 100.208 28.944C100.208 28.464 100.021 28.1227 99.648 27.92C99.2747 27.7067 98.816 27.6 98.272 27.6H97.296V30.336ZM110.885 28.736H105.813V28.8C105.813 29.408 106.026 29.8613 106.453 30.16C106.88 30.4587 107.429 30.608 108.101 30.608C108.528 30.608 108.901 30.5653 109.221 30.48C109.552 30.3947 109.85 30.2933 110.117 30.176L110.501 31.664C110.213 31.8027 109.85 31.92 109.413 32.016C108.976 32.1227 108.458 32.176 107.861 32.176C107.285 32.176 106.741 32.1013 106.229 31.952C105.728 31.792 105.285 31.552 104.901 31.232C104.528 30.912 104.229 30.5067 104.005 30.016C103.781 29.5253 103.669 28.9387 103.669 28.256C103.669 27.648 103.76 27.0987 103.941 26.608C104.122 26.1067 104.378 25.68 104.709 25.328C105.05 24.976 105.456 24.704 105.925 24.512C106.394 24.3093 106.917 24.208 107.493 24.208C108.528 24.208 109.349 24.5227 109.957 25.152C110.576 25.7813 110.885 26.6613 110.885 27.792V28.736ZM108.709 27.28C108.709 27.0773 108.682 26.88 108.629 26.688C108.586 26.496 108.512 26.3307 108.405 26.192C108.298 26.0427 108.165 25.9253 108.005 25.84C107.845 25.7547 107.648 25.712 107.413 25.712C106.986 25.712 106.634 25.856 106.357 26.144C106.08 26.432 105.914 26.8213 105.861 27.312L108.709 27.28ZM114.542 32H112.414V20.576H114.542V25.056C114.851 24.8107 115.203 24.608 115.598 24.448C116.003 24.288 116.441 24.208 116.91 24.208C117.358 24.208 117.747 24.2773 118.078 24.416C118.419 24.544 118.697 24.7307 118.91 24.976C119.134 25.2107 119.299 25.4987 119.406 25.84C119.513 26.1707 119.566 26.5333 119.566 26.928V32H117.438V27.296C117.438 26.7733 117.331 26.4 117.118 26.176C116.905 25.952 116.595 25.84 116.19 25.84C115.913 25.84 115.625 25.9093 115.326 26.048C115.038 26.176 114.777 26.352 114.542 26.576V32ZM121.651 25.04C122.109 24.7733 122.595 24.5707 123.107 24.432C123.619 24.2827 124.163 24.208 124.739 24.208C125.197 24.208 125.613 24.2613 125.987 24.368C126.371 24.4747 126.696 24.6453 126.963 24.88C127.24 25.104 127.448 25.3973 127.587 25.76C127.736 26.112 127.811 26.5387 127.811 27.04V32H126.163L125.971 31.216H125.907C125.661 31.5147 125.347 31.7493 124.963 31.92C124.589 32.0907 124.152 32.176 123.651 32.176C123.235 32.176 122.867 32.1173 122.547 32C122.227 31.872 121.955 31.7067 121.731 31.504C121.507 31.2907 121.336 31.04 121.219 30.752C121.112 30.464 121.059 30.1547 121.059 29.824C121.059 29.3867 121.149 29.0133 121.331 28.704C121.522 28.384 121.784 28.1227 122.115 27.92C122.445 27.7173 122.829 27.568 123.267 27.472C123.715 27.376 124.195 27.328 124.707 27.328H125.667V26.864C125.667 26.512 125.555 26.256 125.331 26.096C125.117 25.9253 124.813 25.84 124.419 25.84C124.109 25.84 123.789 25.888 123.459 25.984C123.139 26.08 122.781 26.2347 122.387 26.448L121.651 25.04ZM125.683 28.656L124.995 28.672C124.344 28.6933 123.891 28.8053 123.635 29.008C123.379 29.2 123.251 29.4347 123.251 29.712C123.251 30.0747 123.357 30.3253 123.571 30.464C123.795 30.592 124.045 30.656 124.323 30.656C124.6 30.656 124.861 30.576 125.107 30.416C125.363 30.256 125.555 30.0693 125.683 29.856V28.656ZM131.744 32H129.616V24.368H131.28L131.536 25.344C131.888 24.9813 132.272 24.704 132.688 24.512C133.115 24.3093 133.584 24.208 134.096 24.208C134.939 24.208 135.584 24.4373 136.032 24.896C136.48 25.3547 136.704 26.0213 136.704 26.896V32H134.576V27.12C134.576 26.7253 134.48 26.416 134.288 26.192C134.096 25.9573 133.814 25.84 133.44 25.84C133.163 25.84 132.87 25.92 132.56 26.08C132.262 26.2293 131.99 26.4373 131.744 26.704V32ZM142.648 30.608C142.989 30.608 143.288 30.5653 143.544 30.48C143.81 30.384 144.029 30.2933 144.2 30.208L144.6 31.68C144.386 31.7973 144.077 31.9093 143.672 32.016C143.266 32.1227 142.824 32.176 142.344 32.176C141.768 32.176 141.229 32.0907 140.728 31.92C140.226 31.7493 139.789 31.4987 139.416 31.168C139.053 30.8267 138.765 30.4107 138.552 29.92C138.338 29.4293 138.232 28.8587 138.232 28.208C138.232 27.6107 138.333 27.0667 138.536 26.576C138.738 26.0853 139.021 25.664 139.384 25.312C139.746 24.96 140.184 24.688 140.696 24.496C141.208 24.304 141.768 24.208 142.376 24.208C142.706 24.208 143.053 24.24 143.416 24.304C143.789 24.368 144.178 24.5067 144.584 24.72L144.136 26.192C143.912 26.064 143.666 25.9627 143.4 25.888C143.144 25.8027 142.882 25.76 142.616 25.76C141.954 25.76 141.416 25.9627 141 26.368C140.594 26.7733 140.392 27.3653 140.392 28.144C140.392 28.6027 140.456 28.992 140.584 29.312C140.722 29.6213 140.898 29.872 141.112 30.064C141.325 30.256 141.565 30.3947 141.832 30.48C142.098 30.5653 142.37 30.608 142.648 30.608ZM152.401 28.736H147.329V28.8C147.329 29.408 147.542 29.8613 147.969 30.16C148.395 30.4587 148.945 30.608 149.617 30.608C150.043 30.608 150.417 30.5653 150.737 30.48C151.067 30.3947 151.366 30.2933 151.633 30.176L152.017 31.664C151.729 31.8027 151.366 31.92 150.929 32.016C150.491 32.1227 149.974 32.176 149.377 32.176C148.801 32.176 148.257 32.1013 147.745 31.952C147.243 31.792 146.801 31.552 146.417 31.232C146.043 30.912 145.745 30.5067 145.521 30.016C145.297 29.5253 145.185 28.9387 145.185 28.256C145.185 27.648 145.275 27.0987 145.457 26.608C145.638 26.1067 145.894 25.68 146.225 25.328C146.566 24.976 146.971 24.704 147.441 24.512C147.91 24.3093 148.433 24.208 149.009 24.208C150.043 24.208 150.865 24.5227 151.473 25.152C152.091 25.7813 152.401 26.6613 152.401 27.792V28.736ZM150.225 27.28C150.225 27.0773 150.198 26.88 150.145 26.688C150.102 26.496 150.027 26.3307 149.921 26.192C149.814 26.0427 149.681 25.9253 149.521 25.84C149.361 25.7547 149.163 25.712 148.929 25.712C148.502 25.712 148.15 25.856 147.873 26.144C147.595 26.432 147.43 26.8213 147.377 27.312L150.225 27.28Z" fill="black"/>
<path d="M96.512 58H95.104V46.64H96.512V51.44C96.864 51.1307 97.2533 50.8747 97.68 50.672C98.1067 50.4693 98.576 50.368 99.088 50.368C99.504 50.368 99.8667 50.432 100.176 50.56C100.485 50.6773 100.736 50.848 100.928 51.072C101.131 51.2853 101.28 51.5413 101.376 51.84C101.483 52.1387 101.536 52.464 101.536 52.816V58H100.128V53.168C100.128 52.592 100.011 52.176 99.776 51.92C99.5413 51.6533 99.184 51.52 98.704 51.52C98.3413 51.52 97.9733 51.6107 97.6 51.792C97.2373 51.9733 96.8747 52.2293 96.512 52.56V58ZM107.681 51.536H105.473V55.904C105.473 56.2773 105.563 56.528 105.745 56.656C105.937 56.784 106.182 56.848 106.481 56.848C106.694 56.848 106.929 56.8267 107.185 56.784C107.441 56.7307 107.665 56.672 107.857 56.608L108.081 57.68C107.867 57.7653 107.595 57.84 107.265 57.904C106.934 57.968 106.587 58 106.225 58C105.478 58 104.934 57.84 104.593 57.52C104.251 57.1893 104.081 56.7147 104.081 56.096V51.536H102.961V50.48H104.081V48.08H105.473V50.48H107.681V51.536ZM113.353 51.536H111.145V55.904C111.145 56.2773 111.235 56.528 111.417 56.656C111.609 56.784 111.854 56.848 112.153 56.848C112.366 56.848 112.601 56.8267 112.857 56.784C113.113 56.7307 113.337 56.672 113.529 56.608L113.753 57.68C113.539 57.7653 113.267 57.84 112.937 57.904C112.606 57.968 112.259 58 111.897 58C111.15 58 110.606 57.84 110.265 57.52C109.923 57.1893 109.753 56.7147 109.753 56.096V51.536H108.633V50.48H109.753V48.08H111.145V50.48H113.353V51.536ZM118.349 58.144C118.007 58.144 117.677 58.096 117.357 58C117.047 57.904 116.781 57.776 116.557 57.616V61.68H115.165V50.368H116.333L116.541 51.344C116.829 51.0773 117.154 50.848 117.517 50.656C117.879 50.464 118.306 50.368 118.797 50.368C119.799 50.368 120.589 50.688 121.165 51.328C121.741 51.968 122.029 52.8853 122.029 54.08C122.029 54.784 121.922 55.392 121.709 55.904C121.506 56.416 121.229 56.8373 120.877 57.168C120.535 57.4987 120.141 57.744 119.693 57.904C119.255 58.064 118.807 58.144 118.349 58.144ZM118.493 51.52C118.045 51.52 117.655 51.632 117.325 51.856C116.994 52.0693 116.738 52.288 116.557 52.512V56.528C116.802 56.7093 117.063 56.8427 117.341 56.928C117.618 57.0133 117.895 57.056 118.173 57.056C118.461 57.056 118.749 57.008 119.037 56.912C119.325 56.8053 119.581 56.6347 119.805 56.4C120.029 56.1653 120.21 55.8613 120.349 55.488C120.487 55.1147 120.557 54.656 120.557 54.112C120.557 53.312 120.386 52.6827 120.045 52.224C119.714 51.7547 119.197 51.52 118.493 51.52ZM127.953 51.888C127.601 51.7173 127.281 51.6 126.993 51.536C126.705 51.472 126.417 51.44 126.129 51.44C125.617 51.44 125.238 51.536 124.993 51.728C124.747 51.9093 124.625 52.1547 124.625 52.464C124.625 52.688 124.71 52.8853 124.881 53.056C125.051 53.216 125.409 53.376 125.953 53.536L126.433 53.68C127.147 53.8933 127.686 54.1707 128.049 54.512C128.422 54.8427 128.609 55.296 128.609 55.872C128.609 56.5547 128.353 57.104 127.841 57.52C127.339 57.936 126.635 58.144 125.729 58.144C125.249 58.144 124.785 58.1013 124.337 58.016C123.899 57.9307 123.521 57.8133 123.201 57.664L123.537 56.56C123.846 56.7093 124.182 56.832 124.545 56.928C124.907 57.0133 125.275 57.056 125.649 57.056C126.129 57.056 126.507 56.9707 126.785 56.8C127.073 56.6293 127.217 56.3467 127.217 55.952C127.217 55.6107 127.094 55.3707 126.849 55.232C126.603 55.0827 126.251 54.9387 125.793 54.8L125.297 54.64C124.603 54.416 124.086 54.1387 123.745 53.808C123.414 53.4667 123.249 53.0293 123.249 52.496C123.249 52.176 123.318 51.8827 123.457 51.616C123.595 51.3493 123.782 51.1253 124.017 50.944C124.262 50.7627 124.55 50.624 124.881 50.528C125.211 50.4213 125.574 50.368 125.969 50.368C126.342 50.368 126.726 50.4053 127.121 50.48C127.526 50.544 127.91 50.656 128.273 50.816L127.953 51.888ZM129.972 57.136C129.972 56.8587 130.068 56.624 130.26 56.432C130.452 56.24 130.682 56.144 130.948 56.144C131.215 56.144 131.439 56.24 131.62 56.432C131.812 56.624 131.908 56.8587 131.908 57.136C131.908 57.4453 131.812 57.6907 131.62 57.872C131.439 58.0533 131.215 58.144 130.948 58.144C130.682 58.144 130.452 58.0533 130.26 57.872C130.068 57.6907 129.972 57.4453 129.972 57.136ZM129.972 52.32C129.972 52.0427 130.068 51.808 130.26 51.616C130.452 51.424 130.682 51.328 130.948 51.328C131.215 51.328 131.439 51.424 131.62 51.616C131.812 51.808 131.908 52.0427 131.908 52.32C131.908 52.6293 131.812 52.8747 131.62 53.056C131.439 53.2373 131.215 53.328 130.948 53.328C130.682 53.328 130.452 53.2373 130.26 53.056C130.068 52.8747 129.972 52.6293 129.972 52.32ZM132.703 59.744L137.567 46H138.767L133.903 59.744H132.703ZM138.703 59.744L143.567 46H144.767L139.903 59.744H138.703ZM144.895 50.48H146.399L147.679 55.216L147.967 56.896H148.031L148.383 55.216L149.679 50.48H151.199L152.527 55.216L152.863 56.896H152.927L153.279 55.216L154.527 50.48H155.967L153.679 58H152.079L150.799 53.392L150.431 51.536L150.047 53.392L148.735 58H147.215L144.895 50.48ZM156.285 50.48H157.789L159.069 55.216L159.357 56.896H159.421L159.773 55.216L161.069 50.48H162.589L163.917 55.216L164.253 56.896H164.317L164.669 55.216L165.917 50.48H167.357L165.069 58H163.469L162.189 53.392L161.821 51.536L161.437 53.392L160.125 58H158.605L156.285 50.48ZM167.676 50.48H169.18L170.46 55.216L170.748 56.896H170.812L171.164 55.216L172.46 50.48H173.98L175.308 55.216L175.644 56.896H175.708L176.06 55.216L177.308 50.48H178.748L176.46 58H174.86L173.58 53.392L173.212 51.536L172.828 53.392L171.516 58H169.996L167.676 50.48ZM178.802 57.136C178.802 56.8587 178.898 56.624 179.09 56.432C179.282 56.24 179.511 56.144 179.778 56.144C180.044 56.144 180.268 56.24 180.45 56.432C180.642 56.624 180.738 56.8587 180.738 57.136C180.738 57.4453 180.642 57.6907 180.45 57.872C180.268 58.0533 180.044 58.144 179.778 58.144C179.511 58.144 179.282 58.0533 179.09 57.872C178.898 57.6907 178.802 57.4453 178.802 57.136ZM189.345 54.24C189.345 54.8373 189.254 55.376 189.073 55.856C188.891 56.336 188.646 56.7467 188.337 57.088C188.027 57.4293 187.665 57.6907 187.249 57.872C186.833 58.0533 186.39 58.144 185.921 58.144C185.43 58.144 184.998 58.0747 184.625 57.936C184.262 57.7973 183.921 57.584 183.601 57.296H183.569L183.424 58H182.417V46.64H183.809V51.424C184.15 51.0613 184.523 50.7947 184.929 50.624C185.345 50.4533 185.777 50.368 186.225 50.368C187.185 50.368 187.942 50.7093 188.497 51.392C189.062 52.0747 189.345 53.024 189.345 54.24ZM187.873 54.256C187.873 53.424 187.697 52.7627 187.345 52.272C186.993 51.7707 186.497 51.52 185.857 51.52C185.451 51.52 185.083 51.6107 184.753 51.792C184.422 51.9733 184.107 52.2293 183.809 52.56V56.208C184.033 56.464 184.283 56.672 184.561 56.832C184.849 56.9813 185.179 57.056 185.553 57.056C185.851 57.056 186.139 57.0027 186.417 56.896C186.705 56.7893 186.955 56.624 187.169 56.4C187.382 56.1653 187.553 55.872 187.681 55.52C187.809 55.168 187.873 54.7467 187.873 54.256ZM197.441 54.4H192.049V54.464C192.049 55.296 192.273 55.936 192.721 56.384C193.18 56.832 193.798 57.056 194.577 57.056C194.982 57.056 195.34 57.024 195.649 56.96C195.969 56.896 196.316 56.7893 196.689 56.64L196.977 57.68C196.668 57.8187 196.3 57.9307 195.873 58.016C195.457 58.1013 195.009 58.144 194.529 58.144C193.985 58.144 193.473 58.0693 192.993 57.92C192.524 57.7707 192.108 57.5413 191.745 57.232C191.382 56.912 191.094 56.5067 190.881 56.016C190.678 55.5253 190.577 54.9387 190.577 54.256C190.577 53.6693 190.662 53.136 190.833 52.656C191.014 52.176 191.265 51.7707 191.585 51.44C191.905 51.0987 192.289 50.8373 192.737 50.656C193.196 50.464 193.708 50.368 194.273 50.368C194.753 50.368 195.185 50.448 195.569 50.608C195.964 50.768 196.3 50.992 196.577 51.28C196.854 51.568 197.068 51.9147 197.217 52.32C197.366 52.7253 197.441 53.1733 197.441 53.664V54.4ZM195.985 53.392C195.985 53.1147 195.948 52.8587 195.873 52.624C195.809 52.3787 195.702 52.1653 195.553 51.984C195.414 51.8027 195.233 51.6587 195.009 51.552C194.785 51.4453 194.513 51.392 194.193 51.392C193.606 51.392 193.126 51.5787 192.753 51.952C192.39 52.3253 192.166 52.816 192.081 53.424L195.985 53.392ZM200.528 58H199.12V46.64H200.528V51.44C200.88 51.1307 201.269 50.8747 201.696 50.672C202.122 50.4693 202.592 50.368 203.104 50.368C203.52 50.368 203.882 50.432 204.192 50.56C204.501 50.6773 204.752 50.848 204.944 51.072C205.146 51.2853 205.296 51.5413 205.392 51.84C205.498 52.1387 205.552 52.464 205.552 52.816V58H204.144V53.168C204.144 52.592 204.026 52.176 203.792 51.92C203.557 51.6533 203.2 51.52 202.72 51.52C202.357 51.52 201.989 51.6107 201.616 51.792C201.253 51.9733 200.89 52.2293 200.528 52.56V58ZM207.824 51.152C208.08 51.024 208.32 50.912 208.544 50.816C208.768 50.7093 208.992 50.624 209.216 50.56C209.44 50.496 209.67 50.448 209.904 50.416C210.139 50.384 210.395 50.368 210.672 50.368C211.088 50.368 211.467 50.416 211.808 50.512C212.16 50.5973 212.459 50.7467 212.704 50.96C212.96 51.1733 213.158 51.456 213.296 51.808C213.435 52.1493 213.504 52.5813 213.504 53.104V58H212.336L212.16 57.168H212.128C211.798 57.52 211.435 57.7707 211.04 57.92C210.646 58.0693 210.208 58.144 209.728 58.144C209.366 58.144 209.03 58.096 208.72 58C208.422 57.8933 208.16 57.7493 207.936 57.568C207.712 57.376 207.536 57.1467 207.408 56.88C207.291 56.6133 207.232 56.3147 207.232 55.984C207.232 55.1947 207.542 54.5973 208.16 54.192C208.79 53.776 209.616 53.568 210.64 53.568H212.08V52.928C212.08 52.384 211.942 52.016 211.664 51.824C211.387 51.6213 211.014 51.52 210.544 51.52C210.267 51.52 209.947 51.568 209.584 51.664C209.232 51.7493 208.827 51.92 208.368 52.176L207.824 51.152ZM212.096 54.528L210.912 54.56C210.112 54.5813 209.542 54.7253 209.2 54.992C208.87 55.248 208.704 55.5627 208.704 55.936C208.704 56.16 208.742 56.352 208.816 56.512C208.891 56.6613 208.987 56.7787 209.104 56.864C209.232 56.9493 209.376 57.0133 209.536 57.056C209.707 57.088 209.883 57.104 210.064 57.104C210.416 57.104 210.774 57.024 211.136 56.864C211.499 56.6933 211.819 56.4267 212.096 56.064V54.528ZM216.98 58H215.572V50.48H216.676L216.884 51.52C217.258 51.1467 217.647 50.864 218.052 50.672C218.468 50.4693 218.943 50.368 219.476 50.368C220.244 50.368 220.847 50.5867 221.284 51.024C221.722 51.4507 221.94 52.048 221.94 52.816V58H220.532V53.024C220.532 52.5653 220.41 52.2027 220.164 51.936C219.93 51.6587 219.567 51.52 219.076 51.52C218.33 51.52 217.631 51.856 216.98 52.528V58ZM227.687 57.056C228.029 57.056 228.327 57.0187 228.583 56.944C228.839 56.8693 229.09 56.7733 229.335 56.656L229.639 57.712C229.063 58 228.375 58.144 227.575 58.144C227.031 58.144 226.519 58.064 226.039 57.904C225.57 57.744 225.154 57.504 224.791 57.184C224.439 56.8533 224.162 56.448 223.959 55.968C223.757 55.4773 223.655 54.9067 223.655 54.256C223.655 53.6587 223.751 53.12 223.943 52.64C224.135 52.16 224.402 51.7547 224.743 51.424C225.085 51.0827 225.495 50.8213 225.975 50.64C226.455 50.4587 226.983 50.368 227.559 50.368C227.89 50.368 228.21 50.3947 228.519 50.448C228.839 50.4907 229.202 50.6027 229.607 50.784L229.287 51.856C228.797 51.5787 228.269 51.44 227.703 51.44C226.925 51.44 226.295 51.6853 225.815 52.176C225.335 52.656 225.095 53.3333 225.095 54.208C225.095 54.752 225.17 55.2053 225.319 55.568C225.469 55.9307 225.666 56.224 225.911 56.448C226.157 56.6613 226.434 56.816 226.743 56.912C227.053 57.008 227.367 57.056 227.687 57.056ZM237.176 54.4H231.784V54.464C231.784 55.296 232.008 55.936 232.456 56.384C232.914 56.832 233.533 57.056 234.312 57.056C234.717 57.056 235.074 57.024 235.384 56.96C235.704 56.896 236.05 56.7893 236.424 56.64L236.712 57.68C236.402 57.8187 236.034 57.9307 235.608 58.016C235.192 58.1013 234.744 58.144 234.264 58.144C233.72 58.144 233.208 58.0693 232.728 57.92C232.258 57.7707 231.842 57.5413 231.48 57.232C231.117 56.912 230.829 56.5067 230.616 56.016C230.413 55.5253 230.312 54.9387 230.312 54.256C230.312 53.6693 230.397 53.136 230.568 52.656C230.749 52.176 231 51.7707 231.32 51.44C231.64 51.0987 232.024 50.8373 232.472 50.656C232.93 50.464 233.442 50.368 234.008 50.368C234.488 50.368 234.92 50.448 235.304 50.608C235.698 50.768 236.034 50.992 236.312 51.28C236.589 51.568 236.802 51.9147 236.952 52.32C237.101 52.7253 237.176 53.1733 237.176 53.664V54.4ZM235.72 53.392C235.72 53.1147 235.682 52.8587 235.608 52.624C235.544 52.3787 235.437 52.1653 235.288 51.984C235.149 51.8027 234.968 51.6587 234.744 51.552C234.52 51.4453 234.248 51.392 233.928 51.392C233.341 51.392 232.861 51.5787 232.488 51.952C232.125 52.3253 231.901 52.816 231.816 53.424L235.72 53.392ZM237.734 59.744L242.598 46H243.798L238.934 59.744H237.734ZM249.83 46.64H251.238V58H250.054L249.878 57.168H249.83C249.499 57.5093 249.163 57.76 248.822 57.92C248.491 58.0693 248.07 58.144 247.558 58.144C247.153 58.144 246.758 58.064 246.374 57.904C246.001 57.744 245.665 57.504 245.366 57.184C245.067 56.864 244.827 56.464 244.646 55.984C244.465 55.4933 244.374 54.9173 244.374 54.256C244.374 53.6693 244.449 53.136 244.598 52.656C244.758 52.176 244.982 51.7653 245.27 51.424C245.558 51.0827 245.91 50.8213 246.326 50.64C246.742 50.4587 247.217 50.368 247.75 50.368C248.145 50.368 248.518 50.432 248.87 50.56C249.233 50.6773 249.553 50.8587 249.83 51.104V46.64ZM249.83 52.288C249.329 51.7227 248.737 51.44 248.054 51.44C247.766 51.44 247.483 51.4933 247.206 51.6C246.939 51.696 246.699 51.856 246.486 52.08C246.283 52.304 246.118 52.592 245.99 52.944C245.862 53.296 245.798 53.7173 245.798 54.208C245.798 54.72 245.857 55.1573 245.974 55.52C246.091 55.872 246.246 56.1653 246.438 56.4C246.641 56.624 246.865 56.7893 247.11 56.896C247.366 57.0027 247.622 57.056 247.878 57.056C248.678 57.056 249.329 56.7093 249.83 56.016V52.288ZM253.496 51.152C253.752 51.024 253.992 50.912 254.216 50.816C254.44 50.7093 254.664 50.624 254.888 50.56C255.112 50.496 255.341 50.448 255.576 50.416C255.811 50.384 256.067 50.368 256.344 50.368C256.76 50.368 257.139 50.416 257.48 50.512C257.832 50.5973 258.131 50.7467 258.376 50.96C258.632 51.1733 258.829 51.456 258.968 51.808C259.107 52.1493 259.176 52.5813 259.176 53.104V58H258.008L257.832 57.168H257.8C257.469 57.52 257.107 57.7707 256.712 57.92C256.317 58.0693 255.88 58.144 255.4 58.144C255.037 58.144 254.701 58.096 254.392 58C254.093 57.8933 253.832 57.7493 253.608 57.568C253.384 57.376 253.208 57.1467 253.08 56.88C252.963 56.6133 252.904 56.3147 252.904 55.984C252.904 55.1947 253.213 54.5973 253.832 54.192C254.461 53.776 255.288 53.568 256.312 53.568H257.752V52.928C257.752 52.384 257.613 52.016 257.336 51.824C257.059 51.6213 256.685 51.52 256.216 51.52C255.939 51.52 255.619 51.568 255.256 51.664C254.904 51.7493 254.499 51.92 254.04 52.176L253.496 51.152ZM257.768 54.528L256.584 54.56C255.784 54.5813 255.213 54.7253 254.872 54.992C254.541 55.248 254.376 55.5627 254.376 55.936C254.376 56.16 254.413 56.352 254.488 56.512C254.563 56.6613 254.659 56.7787 254.776 56.864C254.904 56.9493 255.048 57.0133 255.208 57.056C255.379 57.088 255.555 57.104 255.736 57.104C256.088 57.104 256.445 57.024 256.808 56.864C257.171 56.6933 257.491 56.4267 257.768 56.064V54.528ZM265.79 50.48H267.294L264.494 58H263.118L260.286 50.48H261.806L263.502 55.648L263.79 56.832H263.854L264.126 55.664L265.79 50.48ZM268.796 58V50.48H270.204V58H268.796ZM269.5 48.544C269.255 48.544 269.042 48.464 268.86 48.304C268.69 48.1333 268.604 47.9253 268.604 47.68C268.604 47.4347 268.69 47.2267 268.86 47.056C269.042 46.8853 269.255 46.8 269.5 46.8C269.735 46.8 269.943 46.8853 270.124 47.056C270.306 47.2267 270.396 47.4347 270.396 47.68C270.396 47.9253 270.306 48.1333 270.124 48.304C269.943 48.464 269.735 48.544 269.5 48.544ZM277.502 46.64H278.91V58H277.726L277.55 57.168H277.502C277.171 57.5093 276.835 57.76 276.494 57.92C276.163 58.0693 275.742 58.144 275.23 58.144C274.825 58.144 274.43 58.064 274.046 57.904C273.673 57.744 273.337 57.504 273.038 57.184C272.739 56.864 272.499 56.464 272.318 55.984C272.137 55.4933 272.046 54.9173 272.046 54.256C272.046 53.6693 272.121 53.136 272.27 52.656C272.43 52.176 272.654 51.7653 272.942 51.424C273.23 51.0827 273.582 50.8213 273.998 50.64C274.414 50.4587 274.889 50.368 275.422 50.368C275.817 50.368 276.19 50.432 276.542 50.56C276.905 50.6773 277.225 50.8587 277.502 51.104V46.64ZM277.502 52.288C277.001 51.7227 276.409 51.44 275.726 51.44C275.438 51.44 275.155 51.4933 274.878 51.6C274.611 51.696 274.371 51.856 274.158 52.08C273.955 52.304 273.79 52.592 273.662 52.944C273.534 53.296 273.47 53.7173 273.47 54.208C273.47 54.72 273.529 55.1573 273.646 55.52C273.763 55.872 273.918 56.1653 274.11 56.4C274.313 56.624 274.537 56.7893 274.782 56.896C275.038 57.0027 275.294 57.056 275.55 57.056C276.35 57.056 277.001 56.7093 277.502 56.016V52.288ZM287.984 54.16C287.984 54.7893 287.888 55.3547 287.696 55.856C287.504 56.3467 287.237 56.7627 286.896 57.104C286.565 57.4453 286.176 57.7067 285.728 57.888C285.28 58.0587 284.795 58.144 284.272 58.144C283.749 58.144 283.264 58.064 282.816 57.904C282.379 57.7333 281.995 57.488 281.664 57.168C281.344 56.8373 281.088 56.4373 280.896 55.968C280.715 55.488 280.624 54.9387 280.624 54.32C280.624 53.6907 280.72 53.1307 280.912 52.64C281.104 52.1493 281.365 51.7387 281.696 51.408C282.037 51.0667 282.432 50.8107 282.88 50.64C283.328 50.4587 283.813 50.368 284.336 50.368C284.859 50.368 285.339 50.448 285.776 50.608C286.224 50.768 286.608 51.008 286.928 51.328C287.259 51.648 287.515 52.048 287.696 52.528C287.888 52.9973 287.984 53.5413 287.984 54.16ZM286.512 54.24C286.512 53.7387 286.448 53.312 286.32 52.96C286.192 52.608 286.021 52.32 285.808 52.096C285.605 51.872 285.371 51.712 285.104 51.616C284.837 51.5093 284.565 51.456 284.288 51.456C284.011 51.456 283.739 51.4987 283.472 51.584C283.205 51.6693 282.971 51.8187 282.768 52.032C282.565 52.2453 282.4 52.5333 282.272 52.896C282.155 53.248 282.096 53.696 282.096 54.24C282.096 54.7413 282.16 55.1733 282.288 55.536C282.416 55.888 282.581 56.176 282.784 56.4C282.997 56.624 283.237 56.7893 283.504 56.896C283.771 57.0027 284.043 57.056 284.32 57.056C284.597 57.056 284.869 57.0133 285.136 56.928C285.403 56.832 285.637 56.6773 285.84 56.464C286.043 56.24 286.203 55.952 286.32 55.6C286.448 55.2373 286.512 54.784 286.512 54.24ZM293.921 51.888C293.569 51.7173 293.249 51.6 292.961 51.536C292.673 51.472 292.385 51.44 292.097 51.44C291.585 51.44 291.207 51.536 290.961 51.728C290.716 51.9093 290.593 52.1547 290.593 52.464C290.593 52.688 290.679 52.8853 290.849 53.056C291.02 53.216 291.377 53.376 291.921 53.536L292.401 53.68C293.116 53.8933 293.655 54.1707 294.017 54.512C294.391 54.8427 294.577 55.296 294.577 55.872C294.577 56.5547 294.321 57.104 293.809 57.52C293.308 57.936 292.604 58.144 291.697 58.144C291.217 58.144 290.753 58.1013 290.305 58.016C289.868 57.9307 289.489 57.8133 289.169 57.664L289.505 56.56C289.815 56.7093 290.151 56.832 290.513 56.928C290.876 57.0133 291.244 57.056 291.617 57.056C292.097 57.056 292.476 56.9707 292.753 56.8C293.041 56.6293 293.185 56.3467 293.185 55.952C293.185 55.6107 293.063 55.3707 292.817 55.232C292.572 55.0827 292.22 54.9387 291.761 54.8L291.265 54.64C290.572 54.416 290.055 54.1387 289.713 53.808C289.383 53.4667 289.217 53.0293 289.217 52.496C289.217 52.176 289.287 51.8827 289.425 51.616C289.564 51.3493 289.751 51.1253 289.985 50.944C290.231 50.7627 290.519 50.624 290.849 50.528C291.18 50.4213 291.543 50.368 291.937 50.368C292.311 50.368 292.695 50.4053 293.089 50.48C293.495 50.544 293.879 50.656 294.241 50.816L293.921 51.888ZM297.637 58H296.229V46.64H297.637V51.44C297.989 51.1307 298.378 50.8747 298.805 50.672C299.232 50.4693 299.701 50.368 300.213 50.368C300.629 50.368 300.992 50.432 301.301 50.56C301.61 50.6773 301.861 50.848 302.053 51.072C302.256 51.2853 302.405 51.5413 302.501 51.84C302.608 52.1387 302.661 52.464 302.661 52.816V58H301.253V53.168C301.253 52.592 301.136 52.176 300.901 51.92C300.666 51.6533 300.309 51.52 299.829 51.52C299.466 51.52 299.098 51.6107 298.725 51.792C298.362 51.9733 298 52.2293 297.637 52.56V58Z" fill="black"/>
<path d="M24.2515 40.3833H24.2331M33.7665 40.3833H33.7481M24.0681 49H24.0498M33.7665 49H33.7481M24.2515 57.6166H24.2331M33.7665 57.6166H33.7481" stroke="black" stroke-width="2.6" stroke-linecap="round"/>
<path d="M369.281 45.2498H367.969C367.795 45.2498 367.628 45.1807 367.505 45.0576C367.382 44.9346 367.312 44.7676 367.312 44.5936C367.312 44.4195 367.382 44.2526 367.505 44.1296C367.628 44.0065 367.795 43.9373 367.969 43.9373H373.219V41.9673C373.219 41.7932 373.288 41.6263 373.411 41.5032C373.534 41.3802 373.701 41.311 373.875 41.311H379.125C379.299 41.311 379.466 41.3802 379.589 41.5032C379.712 41.6263 379.781 41.7932 379.781 41.9673V43.9373H385.031C385.205 43.9373 385.372 44.0065 385.495 44.1296C385.618 44.2526 385.688 44.4195 385.688 44.5936C385.688 44.7676 385.618 44.9346 385.495 45.0576C385.372 45.1807 385.205 45.2498 385.031 45.2498H383.719V59.0311C383.719 59.2051 383.65 59.3721 383.527 59.4951C383.403 59.6182 383.237 59.6873 383.062 59.6873H369.938C369.763 59.6873 369.597 59.6182 369.473 59.4951C369.35 59.3721 369.281 59.2051 369.281 59.0311V45.2498ZM378.469 43.9373V42.6248H374.531V43.9373H378.469ZM370.594 58.3748H382.406V45.2498H370.594V58.3748ZM374.531 55.7498C374.357 55.7498 374.19 55.6807 374.067 55.5576C373.944 55.4346 373.875 55.2676 373.875 55.0936V48.5311C373.875 48.357 373.944 48.1901 374.067 48.0671C374.19 47.944 374.357 47.8748 374.531 47.8748C374.705 47.8748 374.872 47.944 374.995 48.0671C375.118 48.1901 375.188 48.357 375.188 48.5311V55.0936C375.188 55.2676 375.118 55.4346 374.995 55.5576C374.872 55.6807 374.705 55.7498 374.531 55.7498ZM378.469 55.7498C378.295 55.7498 378.128 55.6807 378.005 55.5576C377.882 55.4346 377.812 55.2676 377.812 55.0936V48.5311C377.812 48.357 377.882 48.1901 378.005 48.0671C378.128 47.944 378.295 47.8748 378.469 47.8748C378.643 47.8748 378.81 47.944 378.933 48.0671C379.056 48.1901 379.125 48.357 379.125 48.5311V55.0936C379.125 55.2676 379.056 55.4346 378.933 55.5576C378.81 55.6807 378.643 55.7498 378.469 55.7498Z" fill="black"/>
<path d="M97.75 73.25H107.5C108.097 73.25 108.669 73.4871 109.091 73.909C109.513 74.331 109.75 74.9033 109.75 75.5V85.25C109.75 85.8467 109.513 86.419 109.091 86.841C108.669 87.2629 108.097 87.5 107.5 87.5H97.75C97.1533 87.5 96.581 87.2629 96.159 86.841C95.7371 86.419 95.5 85.8467 95.5 85.25V75.5C95.5 74.9033 95.7371 74.331 96.159 73.909C96.581 73.4871 97.1533 73.25 97.75 73.25ZM97.75 74C97.3522 74 96.9706 74.158 96.6893 74.4393C96.408 74.7206 96.25 75.1022 96.25 75.5V84.1925L99.4675 80.9675L101.342 82.8425L105.092 79.0925L109 83V75.5C109 75.1022 108.842 74.7206 108.561 74.4393C108.279 74.158 107.898 74 107.5 74H97.75ZM101.342 83.9075L99.4675 82.0325L96.25 85.25C96.25 85.6478 96.408 86.0294 96.6893 86.3107C96.9706 86.592 97.3522 86.75 97.75 86.75H107.5C107.898 86.75 108.279 86.592 108.561 86.3107C108.842 86.0294 109 85.6478 109 85.25V84.0575L105.092 80.1575L101.342 83.9075ZM99.625 75.5C100.122 75.5 100.599 75.6975 100.951 76.0492C101.302 76.4008 101.5 76.8777 101.5 77.375C101.5 77.8723 101.302 78.3492 100.951 78.7008C100.599 79.0525 100.122 79.25 99.625 79.25C99.1277 79.25 98.6508 79.0525 98.2992 78.7008C97.9475 78.3492 97.75 77.8723 97.75 77.375C97.75 76.8777 97.9475 76.4008 98.2992 76.0492C98.6508 75.6975 99.1277 75.5 99.625 75.5ZM99.625 76.25C99.3266 76.25 99.0405 76.3685 98.8295 76.5795C98.6185 76.7905 98.5 77.0766 98.5 77.375C98.5 77.6734 98.6185 77.9595 98.8295 78.1705C99.0405 78.3815 99.3266 78.5 99.625 78.5C99.9234 78.5 100.21 78.3815 100.42 78.1705C100.631 77.9595 100.75 77.6734 100.75 77.375C100.75 77.0766 100.631 76.7905 100.42 76.5795C100.21 76.3685 99.9234 76.25 99.625 76.25Z" fill="black"/>
<path d="M162.125 29.7733V31.4169C162.125 31.5384 162.173 31.655 162.259 31.7409C162.345 31.8269 162.462 31.8752 162.583 31.8752H164.227C164.348 31.8752 164.465 31.827 164.55 31.7414L172.342 23.9497L170.05 21.658L162.259 29.4497C162.173 29.5356 162.125 29.6519 162.125 29.7733ZM171.832 19.876L174.124 22.1677L175.227 21.0649C175.399 20.893 175.495 20.6599 175.495 20.4169C175.495 20.1738 175.399 19.9407 175.227 19.7688L174.231 18.7733C174.06 18.6014 173.826 18.5049 173.583 18.5049C173.34 18.5049 173.107 18.6014 172.935 18.7733L171.832 19.876Z" stroke="black"/>
<path d="M314.125 54.7733V56.4169C314.125 56.5384 314.173 56.655 314.259 56.7409C314.345 56.8269 314.462 56.8752 314.583 56.8752H316.227C316.348 56.8752 316.465 56.827 316.55 56.7414L324.342 48.9497L322.05 46.658L314.259 54.4497C314.173 54.5356 314.125 54.6519 314.125 54.7733ZM323.832 44.876L326.124 47.1677L327.227 46.0649C327.399 45.893 327.495 45.6599 327.495 45.4169C327.495 45.1738 327.399 44.9407 327.227 44.7688L326.231 43.7733C326.06 43.6014 325.826 43.5049 325.583 43.5049C325.34 43.5049 325.107 43.6014 324.935 43.7733L323.832 44.876Z" stroke="black"/>
<path d="M77.1605 56.8019C77.5528 57.1653 78.0149 57.4453 78.5187 57.6247C79.0225 57.8041 79.5575 57.8792 80.0913 57.8456C80.9371 57.8672 81.7665 57.6098 82.4515 57.1133C83.0096 56.751 83.432 56.213 83.6525 55.587H87.6377C87.212 57.3714 86.1759 58.9508 84.7085 60.0517C83.2988 60.9862 81.6338 61.4603 79.9432 61.4084C78.7365 61.4258 77.5387 61.1987 76.4221 60.7408C75.4118 60.3184 74.5054 59.6814 73.7658 58.8739C73.0315 58.0259 72.4663 57.0453 72.1008 55.9848C71.691 54.7987 71.4912 53.5503 71.5103 52.2956C71.5026 51.0622 71.7092 49.8366 72.1208 48.6742C72.6754 47.0393 73.7327 45.6215 75.1415 44.6236C76.5503 43.6257 78.2385 43.0987 79.9648 43.118C81.2395 43.0936 82.4996 43.3922 83.6278 43.986C84.6469 44.5441 85.5256 45.3272 86.1993 46.2754C86.8876 47.2697 87.3809 48.3855 87.6531 49.5637C87.9522 50.8295 88.0586 52.1322 87.9692 53.4302H76.0999C76.0028 54.6482 76.3835 55.8568 77.1605 56.8019ZM61.71 37.0022C62.7094 36.9832 63.7075 37.0857 64.6823 37.3075C65.5034 37.4868 66.283 37.8206 66.9794 38.2911C67.6238 38.7582 68.1325 39.3872 68.4563 40.1133C68.8278 41.006 69.0067 41.968 68.982 42.9346C69.0256 43.9972 68.7542 45.0489 68.2019 45.9578C67.624 46.8173 66.823 47.5032 65.8848 47.9419C67.1563 48.2861 68.264 49.0714 69.0098 50.1573C69.7251 51.3089 70.0843 52.6471 70.0427 54.0022C70.0668 55.0825 69.8437 56.154 69.3905 57.1349C68.9717 57.9913 68.3575 58.7375 67.5976 59.3132C66.8166 59.884 65.937 60.3058 65.003 60.5574C64.0356 60.8282 63.0352 60.9626 62.0306 60.9567H51V37.0022H61.71ZM61.3477 56.8897C61.8246 56.8959 62.2953 56.845 62.7598 56.7371C63.1825 56.6434 63.5834 56.4697 63.9408 56.2253C64.2922 55.9817 64.5744 55.6533 64.764 55.271C64.9829 54.7823 65.0847 54.2489 65.0585 53.7155C65.1062 53.2284 65.0418 52.737 64.8702 52.2787C64.6986 51.8204 64.4245 51.4075 64.0687 51.0715C63.3138 50.5166 62.3895 50.2414 61.454 50.293H55.9965V56.8897H61.3477ZM82.3683 47.6906C82.0362 47.3585 81.6368 47.1014 81.1969 46.9368C80.757 46.7721 80.2869 46.7038 79.8184 46.7363C79.1963 46.7125 78.5786 46.85 78.0254 47.1356C77.5878 47.3774 77.2013 47.7021 76.8877 48.0915C76.6102 48.4571 76.4032 48.8711 76.2772 49.3125C76.1631 49.6825 76.0927 50.0597 76.066 50.444H83.4182C83.3536 49.4424 82.9889 48.4834 82.3714 47.6922L82.3683 47.6906ZM61.0732 46.6916C61.859 46.7242 62.6326 46.4889 63.267 46.0241C63.8822 45.4768 64.2028 44.6674 64.1304 43.8457C64.1513 43.3724 64.0572 42.901 63.856 42.4721C63.685 42.1311 63.4202 41.8461 63.0928 41.6504C62.7607 41.435 62.3874 41.2912 61.9967 41.228C61.5727 41.1455 61.1413 41.1077 60.7094 41.1154H55.9965V46.7132H61.0732V46.6916ZM84.3308 38.6025H75.1178V40.9566H84.3308V38.6025Z" fill="black"/>
<defs>
<linearGradient id="paint0_linear_2041_2664" x1="2" y1="48.5" x2="430" y2="48.5" gradientUnits="userSpaceOnUse">
<stop stop-color="#7E4FF3"/>
<stop offset="1" stop-color="#FB8E8E"/>
</linearGradient>
</defs>
</svg>
