<svg width="432" height="97" viewBox="0 0 432 97" fill="none" xmlns="http://www.w3.org/2000/svg">
<rect x="1" y="1" width="430" height="95" rx="11" fill="#ECECED"/>
<rect x="1" y="1" width="430" height="95" rx="11" stroke="url(#paint0_linear_2041_2673)" stroke-width="2"/>
<path d="M98.368 21.744C99.0187 21.744 99.5947 21.808 100.096 21.936C100.597 22.064 101.045 22.2293 101.44 22.432L100.944 24.064C100.507 23.8507 100.085 23.6907 99.68 23.584C99.2747 23.4667 98.88 23.408 98.496 23.408C97.984 23.408 97.584 23.5093 97.296 23.712C97.0187 23.9147 96.88 24.1867 96.88 24.528C96.88 24.88 97.0027 25.1467 97.248 25.328C97.4933 25.5093 97.888 25.6853 98.432 25.856L99.392 26.16C100.192 26.4267 100.816 26.8053 101.264 27.296C101.723 27.7867 101.952 28.3893 101.952 29.104C101.952 29.5307 101.872 29.9307 101.712 30.304C101.552 30.6773 101.312 31.0027 100.992 31.28C100.672 31.5573 100.272 31.776 99.792 31.936C99.312 32.096 98.752 32.176 98.112 32.176C96.9067 32.176 95.8027 31.9307 94.8 31.44L95.296 29.808C95.7547 30.032 96.2027 30.208 96.64 30.336C97.0773 30.4533 97.536 30.512 98.016 30.512C98.5813 30.512 99.008 30.4107 99.296 30.208C99.584 29.9947 99.728 29.7013 99.728 29.328C99.728 29.2 99.7013 29.0773 99.648 28.96C99.6053 28.832 99.52 28.7147 99.392 28.608C99.264 28.4907 99.088 28.3787 98.864 28.272C98.6507 28.1547 98.368 28.0427 98.016 27.936L97.168 27.648C96.7947 27.52 96.4533 27.3707 96.144 27.2C95.8347 27.0293 95.568 26.832 95.344 26.608C95.1307 26.384 94.96 26.1227 94.832 25.824C94.7147 25.5147 94.656 25.1573 94.656 24.752C94.656 24.3147 94.736 23.9147 94.896 23.552C95.056 23.1787 95.2907 22.8587 95.6 22.592C95.92 22.3253 96.3093 22.1173 96.768 21.968C97.2373 21.8187 97.7707 21.744 98.368 21.744ZM105.666 32H103.538V24.368H105.202L105.458 25.344C105.81 24.9813 106.194 24.704 106.61 24.512C107.037 24.3093 107.506 24.208 108.018 24.208C108.861 24.208 109.506 24.4373 109.954 24.896C110.402 25.3547 110.626 26.0213 110.626 26.896V32H108.498V27.12C108.498 26.7253 108.402 26.416 108.21 26.192C108.018 25.9573 107.735 25.84 107.362 25.84C107.085 25.84 106.791 25.92 106.482 26.08C106.183 26.2293 105.911 26.4373 105.666 26.704V32ZM112.619 25.04C113.078 24.7733 113.563 24.5707 114.075 24.432C114.587 24.2827 115.131 24.208 115.707 24.208C116.166 24.208 116.582 24.2613 116.955 24.368C117.339 24.4747 117.665 24.6453 117.931 24.88C118.209 25.104 118.417 25.3973 118.555 25.76C118.705 26.112 118.779 26.5387 118.779 27.04V32H117.131L116.939 31.216H116.875C116.63 31.5147 116.315 31.7493 115.931 31.92C115.558 32.0907 115.121 32.176 114.619 32.176C114.203 32.176 113.835 32.1173 113.515 32C113.195 31.872 112.923 31.7067 112.699 31.504C112.475 31.2907 112.305 31.04 112.187 30.752C112.081 30.464 112.027 30.1547 112.027 29.824C112.027 29.3867 112.118 29.0133 112.299 28.704C112.491 28.384 112.753 28.1227 113.083 27.92C113.414 27.7173 113.798 27.568 114.235 27.472C114.683 27.376 115.163 27.328 115.675 27.328H116.635V26.864C116.635 26.512 116.523 26.256 116.299 26.096C116.086 25.9253 115.782 25.84 115.387 25.84C115.078 25.84 114.758 25.888 114.427 25.984C114.107 26.08 113.75 26.2347 113.355 26.448L112.619 25.04ZM116.651 28.656L115.963 28.672C115.313 28.6933 114.859 28.8053 114.603 29.008C114.347 29.2 114.219 29.4347 114.219 29.712C114.219 30.0747 114.326 30.3253 114.539 30.464C114.763 30.592 115.014 30.656 115.291 30.656C115.569 30.656 115.83 30.576 116.075 30.416C116.331 30.256 116.523 30.0693 116.651 29.856V28.656ZM124.185 32.176C123.908 32.176 123.63 32.1387 123.353 32.064C123.086 32 122.862 31.9147 122.681 31.808V35.68H120.569V24.336H122.185L122.409 25.184C122.718 24.8853 123.07 24.6507 123.465 24.48C123.86 24.2987 124.302 24.208 124.793 24.208C125.796 24.208 126.585 24.5493 127.161 25.232C127.748 25.904 128.041 26.8373 128.041 28.032C128.041 28.704 127.94 29.3013 127.737 29.824C127.534 30.336 127.257 30.768 126.905 31.12C126.553 31.472 126.142 31.7387 125.673 31.92C125.204 32.0907 124.708 32.176 124.185 32.176ZM124.217 25.808C123.865 25.808 123.556 25.8933 123.289 26.064C123.022 26.224 122.82 26.3893 122.681 26.56V30.208C123.012 30.4747 123.422 30.608 123.913 30.608C124.148 30.608 124.377 30.5653 124.601 30.48C124.836 30.384 125.044 30.24 125.225 30.048C125.417 29.8453 125.566 29.584 125.673 29.264C125.79 28.944 125.849 28.5547 125.849 28.096C125.849 27.7653 125.812 27.4613 125.737 27.184C125.673 26.9067 125.572 26.6667 125.433 26.464C125.294 26.2613 125.124 26.1013 124.921 25.984C124.718 25.8667 124.484 25.808 124.217 25.808ZM133.538 30.608C133.879 30.608 134.178 30.5653 134.434 30.48C134.701 30.384 134.919 30.2933 135.09 30.208L135.49 31.68C135.277 31.7973 134.967 31.9093 134.562 32.016C134.157 32.1227 133.714 32.176 133.234 32.176C132.658 32.176 132.119 32.0907 131.618 31.92C131.117 31.7493 130.679 31.4987 130.306 31.168C129.943 30.8267 129.655 30.4107 129.442 29.92C129.229 29.4293 129.122 28.8587 129.122 28.208C129.122 27.6107 129.223 27.0667 129.426 26.576C129.629 26.0853 129.911 25.664 130.274 25.312C130.637 24.96 131.074 24.688 131.586 24.496C132.098 24.304 132.658 24.208 133.266 24.208C133.597 24.208 133.943 24.24 134.306 24.304C134.679 24.368 135.069 24.5067 135.474 24.72L135.026 26.192C134.802 26.064 134.557 25.9627 134.29 25.888C134.034 25.8027 133.773 25.76 133.506 25.76C132.845 25.76 132.306 25.9627 131.89 26.368C131.485 26.7733 131.282 27.3653 131.282 28.144C131.282 28.6027 131.346 28.992 131.474 29.312C131.613 29.6213 131.789 29.872 132.002 30.064C132.215 30.256 132.455 30.3947 132.722 30.48C132.989 30.5653 133.261 30.608 133.538 30.608ZM139.073 32H136.945V20.576H139.073V25.056C139.382 24.8107 139.734 24.608 140.129 24.448C140.534 24.288 140.972 24.208 141.441 24.208C141.889 24.208 142.278 24.2773 142.609 24.416C142.95 24.544 143.228 24.7307 143.441 24.976C143.665 25.2107 143.83 25.4987 143.937 25.84C144.044 26.1707 144.097 26.5333 144.097 26.928V32H141.969V27.296C141.969 26.7733 141.862 26.4 141.649 26.176C141.436 25.952 141.126 25.84 140.721 25.84C140.444 25.84 140.156 25.9093 139.857 26.048C139.569 26.176 139.308 26.352 139.073 26.576V32ZM146.182 25.04C146.64 24.7733 147.126 24.5707 147.638 24.432C148.15 24.2827 148.694 24.208 149.27 24.208C149.728 24.208 150.144 24.2613 150.518 24.368C150.902 24.4747 151.227 24.6453 151.494 24.88C151.771 25.104 151.979 25.3973 152.118 25.76C152.267 26.112 152.342 26.5387 152.342 27.04V32H150.694L150.502 31.216H150.438C150.192 31.5147 149.878 31.7493 149.494 31.92C149.12 32.0907 148.683 32.176 148.182 32.176C147.766 32.176 147.398 32.1173 147.078 32C146.758 31.872 146.486 31.7067 146.262 31.504C146.038 31.2907 145.867 31.04 145.75 30.752C145.643 30.464 145.59 30.1547 145.59 29.824C145.59 29.3867 145.68 29.0133 145.862 28.704C146.054 28.384 146.315 28.1227 146.646 27.92C146.976 27.7173 147.36 27.568 147.798 27.472C148.246 27.376 148.726 27.328 149.238 27.328H150.198V26.864C150.198 26.512 150.086 26.256 149.862 26.096C149.648 25.9253 149.344 25.84 148.95 25.84C148.64 25.84 148.32 25.888 147.99 25.984C147.67 26.08 147.312 26.2347 146.918 26.448L146.182 25.04ZM150.214 28.656L149.526 28.672C148.875 28.6933 148.422 28.8053 148.166 29.008C147.91 29.2 147.782 29.4347 147.782 29.712C147.782 30.0747 147.888 30.3253 148.102 30.464C148.326 30.592 148.576 30.656 148.854 30.656C149.131 30.656 149.392 30.576 149.638 30.416C149.894 30.256 150.086 30.0693 150.214 29.856V28.656ZM158.864 25.904H156.832V29.424C156.832 29.7867 156.912 30.0373 157.072 30.176C157.242 30.304 157.466 30.368 157.744 30.368C157.957 30.368 158.176 30.3467 158.4 30.304C158.624 30.2613 158.805 30.2027 158.944 30.128L159.264 31.616C159.082 31.7013 158.81 31.7867 158.448 31.872C158.085 31.9573 157.701 32 157.296 32C156.368 32 155.706 31.8187 155.312 31.456C154.917 31.0827 154.72 30.528 154.72 29.792V25.904H153.536V24.368H154.72V22.016H156.832V24.368H158.864V25.904Z" fill="black"/>
<path d="M96.512 58H95.104V46.64H96.512V51.44C96.864 51.1307 97.2533 50.8747 97.68 50.672C98.1067 50.4693 98.576 50.368 99.088 50.368C99.504 50.368 99.8667 50.432 100.176 50.56C100.485 50.6773 100.736 50.848 100.928 51.072C101.131 51.2853 101.28 51.5413 101.376 51.84C101.483 52.1387 101.536 52.464 101.536 52.816V58H100.128V53.168C100.128 52.592 100.011 52.176 99.776 51.92C99.5413 51.6533 99.184 51.52 98.704 51.52C98.3413 51.52 97.9733 51.6107 97.6 51.792C97.2373 51.9733 96.8747 52.2293 96.512 52.56V58ZM107.681 51.536H105.473V55.904C105.473 56.2773 105.563 56.528 105.745 56.656C105.937 56.784 106.182 56.848 106.481 56.848C106.694 56.848 106.929 56.8267 107.185 56.784C107.441 56.7307 107.665 56.672 107.857 56.608L108.081 57.68C107.867 57.7653 107.595 57.84 107.265 57.904C106.934 57.968 106.587 58 106.225 58C105.478 58 104.934 57.84 104.593 57.52C104.251 57.1893 104.081 56.7147 104.081 56.096V51.536H102.961V50.48H104.081V48.08H105.473V50.48H107.681V51.536ZM113.353 51.536H111.145V55.904C111.145 56.2773 111.235 56.528 111.417 56.656C111.609 56.784 111.854 56.848 112.153 56.848C112.366 56.848 112.601 56.8267 112.857 56.784C113.113 56.7307 113.337 56.672 113.529 56.608L113.753 57.68C113.539 57.7653 113.267 57.84 112.937 57.904C112.606 57.968 112.259 58 111.897 58C111.15 58 110.606 57.84 110.265 57.52C109.923 57.1893 109.753 56.7147 109.753 56.096V51.536H108.633V50.48H109.753V48.08H111.145V50.48H113.353V51.536ZM118.349 58.144C118.007 58.144 117.677 58.096 117.357 58C117.047 57.904 116.781 57.776 116.557 57.616V61.68H115.165V50.368H116.333L116.541 51.344C116.829 51.0773 117.154 50.848 117.517 50.656C117.879 50.464 118.306 50.368 118.797 50.368C119.799 50.368 120.589 50.688 121.165 51.328C121.741 51.968 122.029 52.8853 122.029 54.08C122.029 54.784 121.922 55.392 121.709 55.904C121.506 56.416 121.229 56.8373 120.877 57.168C120.535 57.4987 120.141 57.744 119.693 57.904C119.255 58.064 118.807 58.144 118.349 58.144ZM118.493 51.52C118.045 51.52 117.655 51.632 117.325 51.856C116.994 52.0693 116.738 52.288 116.557 52.512V56.528C116.802 56.7093 117.063 56.8427 117.341 56.928C117.618 57.0133 117.895 57.056 118.173 57.056C118.461 57.056 118.749 57.008 119.037 56.912C119.325 56.8053 119.581 56.6347 119.805 56.4C120.029 56.1653 120.21 55.8613 120.349 55.488C120.487 55.1147 120.557 54.656 120.557 54.112C120.557 53.312 120.386 52.6827 120.045 52.224C119.714 51.7547 119.197 51.52 118.493 51.52ZM127.953 51.888C127.601 51.7173 127.281 51.6 126.993 51.536C126.705 51.472 126.417 51.44 126.129 51.44C125.617 51.44 125.238 51.536 124.993 51.728C124.747 51.9093 124.625 52.1547 124.625 52.464C124.625 52.688 124.71 52.8853 124.881 53.056C125.051 53.216 125.409 53.376 125.953 53.536L126.433 53.68C127.147 53.8933 127.686 54.1707 128.049 54.512C128.422 54.8427 128.609 55.296 128.609 55.872C128.609 56.5547 128.353 57.104 127.841 57.52C127.339 57.936 126.635 58.144 125.729 58.144C125.249 58.144 124.785 58.1013 124.337 58.016C123.899 57.9307 123.521 57.8133 123.201 57.664L123.537 56.56C123.846 56.7093 124.182 56.832 124.545 56.928C124.907 57.0133 125.275 57.056 125.649 57.056C126.129 57.056 126.507 56.9707 126.785 56.8C127.073 56.6293 127.217 56.3467 127.217 55.952C127.217 55.6107 127.094 55.3707 126.849 55.232C126.603 55.0827 126.251 54.9387 125.793 54.8L125.297 54.64C124.603 54.416 124.086 54.1387 123.745 53.808C123.414 53.4667 123.249 53.0293 123.249 52.496C123.249 52.176 123.318 51.8827 123.457 51.616C123.595 51.3493 123.782 51.1253 124.017 50.944C124.262 50.7627 124.55 50.624 124.881 50.528C125.211 50.4213 125.574 50.368 125.969 50.368C126.342 50.368 126.726 50.4053 127.121 50.48C127.526 50.544 127.91 50.656 128.273 50.816L127.953 51.888ZM129.972 57.136C129.972 56.8587 130.068 56.624 130.26 56.432C130.452 56.24 130.682 56.144 130.948 56.144C131.215 56.144 131.439 56.24 131.62 56.432C131.812 56.624 131.908 56.8587 131.908 57.136C131.908 57.4453 131.812 57.6907 131.62 57.872C131.439 58.0533 131.215 58.144 130.948 58.144C130.682 58.144 130.452 58.0533 130.26 57.872C130.068 57.6907 129.972 57.4453 129.972 57.136ZM129.972 52.32C129.972 52.0427 130.068 51.808 130.26 51.616C130.452 51.424 130.682 51.328 130.948 51.328C131.215 51.328 131.439 51.424 131.62 51.616C131.812 51.808 131.908 52.0427 131.908 52.32C131.908 52.6293 131.812 52.8747 131.62 53.056C131.439 53.2373 131.215 53.328 130.948 53.328C130.682 53.328 130.452 53.2373 130.26 53.056C130.068 52.8747 129.972 52.6293 129.972 52.32ZM132.703 59.744L137.567 46H138.767L133.903 59.744H132.703ZM138.703 59.744L143.567 46H144.767L139.903 59.744H138.703ZM144.895 50.48H146.399L147.679 55.216L147.967 56.896H148.031L148.383 55.216L149.679 50.48H151.199L152.527 55.216L152.863 56.896H152.927L153.279 55.216L154.527 50.48H155.967L153.679 58H152.079L150.799 53.392L150.431 51.536L150.047 53.392L148.735 58H147.215L144.895 50.48ZM156.285 50.48H157.789L159.069 55.216L159.357 56.896H159.421L159.773 55.216L161.069 50.48H162.589L163.917 55.216L164.253 56.896H164.317L164.669 55.216L165.917 50.48H167.357L165.069 58H163.469L162.189 53.392L161.821 51.536L161.437 53.392L160.125 58H158.605L156.285 50.48ZM167.676 50.48H169.18L170.46 55.216L170.748 56.896H170.812L171.164 55.216L172.46 50.48H173.98L175.308 55.216L175.644 56.896H175.708L176.06 55.216L177.308 50.48H178.748L176.46 58H174.86L173.58 53.392L173.212 51.536L172.828 53.392L171.516 58H169.996L167.676 50.48ZM178.802 57.136C178.802 56.8587 178.898 56.624 179.09 56.432C179.282 56.24 179.511 56.144 179.778 56.144C180.044 56.144 180.268 56.24 180.45 56.432C180.642 56.624 180.738 56.8587 180.738 57.136C180.738 57.4453 180.642 57.6907 180.45 57.872C180.268 58.0533 180.044 58.144 179.778 58.144C179.511 58.144 179.282 58.0533 179.09 57.872C178.898 57.6907 178.802 57.4453 178.802 57.136ZM186.625 51.888C186.273 51.7173 185.953 51.6 185.665 51.536C185.377 51.472 185.089 51.44 184.801 51.44C184.289 51.44 183.91 51.536 183.664 51.728C183.419 51.9093 183.297 52.1547 183.297 52.464C183.297 52.688 183.382 52.8853 183.553 53.056C183.723 53.216 184.081 53.376 184.625 53.536L185.105 53.68C185.819 53.8933 186.358 54.1707 186.721 54.512C187.094 54.8427 187.281 55.296 187.281 55.872C187.281 56.5547 187.025 57.104 186.513 57.52C186.011 57.936 185.307 58.144 184.401 58.144C183.921 58.144 183.457 58.1013 183.009 58.016C182.571 57.9307 182.193 57.8133 181.873 57.664L182.209 56.56C182.518 56.7093 182.854 56.832 183.217 56.928C183.579 57.0133 183.947 57.056 184.321 57.056C184.801 57.056 185.179 56.9707 185.457 56.8C185.745 56.6293 185.889 56.3467 185.889 55.952C185.889 55.6107 185.766 55.3707 185.521 55.232C185.275 55.0827 184.923 54.9387 184.465 54.8L183.969 54.64C183.275 54.416 182.758 54.1387 182.417 53.808C182.086 53.4667 181.921 53.0293 181.921 52.496C181.921 52.176 181.99 51.8827 182.129 51.616C182.267 51.3493 182.454 51.1253 182.689 50.944C182.934 50.7627 183.222 50.624 183.553 50.528C183.883 50.4213 184.246 50.368 184.641 50.368C185.014 50.368 185.398 50.4053 185.793 50.48C186.198 50.544 186.582 50.656 186.945 50.816L186.625 51.888ZM190.324 58H188.916V50.48H190.02L190.228 51.52C190.601 51.1467 190.991 50.864 191.396 50.672C191.812 50.4693 192.287 50.368 192.82 50.368C193.588 50.368 194.191 50.5867 194.628 51.024C195.065 51.4507 195.284 52.048 195.284 52.816V58H193.876V53.024C193.876 52.5653 193.753 52.2027 193.508 51.936C193.273 51.6587 192.911 51.52 192.42 51.52C191.673 51.52 190.975 51.856 190.324 52.528V58ZM197.465 51.152C197.721 51.024 197.961 50.912 198.185 50.816C198.409 50.7093 198.633 50.624 198.857 50.56C199.081 50.496 199.31 50.448 199.545 50.416C199.78 50.384 200.036 50.368 200.313 50.368C200.729 50.368 201.108 50.416 201.449 50.512C201.801 50.5973 202.1 50.7467 202.345 50.96C202.601 51.1733 202.798 51.456 202.937 51.808C203.076 52.1493 203.145 52.5813 203.145 53.104V58H201.977L201.801 57.168H201.769C201.438 57.52 201.076 57.7707 200.681 57.92C200.286 58.0693 199.849 58.144 199.369 58.144C199.006 58.144 198.67 58.096 198.361 58C198.062 57.8933 197.801 57.7493 197.577 57.568C197.353 57.376 197.177 57.1467 197.049 56.88C196.932 56.6133 196.873 56.3147 196.873 55.984C196.873 55.1947 197.182 54.5973 197.801 54.192C198.43 53.776 199.257 53.568 200.281 53.568H201.721V52.928C201.721 52.384 201.582 52.016 201.305 51.824C201.028 51.6213 200.654 51.52 200.185 51.52C199.908 51.52 199.588 51.568 199.225 51.664C198.873 51.7493 198.468 51.92 198.009 52.176L197.465 51.152ZM201.737 54.528L200.553 54.56C199.753 54.5813 199.182 54.7253 198.841 54.992C198.51 55.248 198.345 55.5627 198.345 55.936C198.345 56.16 198.382 56.352 198.457 56.512C198.532 56.6613 198.628 56.7787 198.745 56.864C198.873 56.9493 199.017 57.0133 199.177 57.056C199.348 57.088 199.524 57.104 199.705 57.104C200.057 57.104 200.414 57.024 200.777 56.864C201.14 56.6933 201.46 56.4267 201.737 56.064V54.528ZM208.333 58.144C207.992 58.144 207.661 58.096 207.341 58C207.032 57.904 206.765 57.776 206.541 57.616V61.68H205.149V50.368H206.317L206.525 51.344C206.813 51.0773 207.138 50.848 207.501 50.656C207.864 50.464 208.29 50.368 208.781 50.368C209.784 50.368 210.573 50.688 211.149 51.328C211.725 51.968 212.013 52.8853 212.013 54.08C212.013 54.784 211.906 55.392 211.693 55.904C211.49 56.416 211.213 56.8373 210.861 57.168C210.52 57.4987 210.125 57.744 209.677 57.904C209.24 58.064 208.792 58.144 208.333 58.144ZM208.477 51.52C208.029 51.52 207.64 51.632 207.309 51.856C206.978 52.0693 206.722 52.288 206.541 52.512V56.528C206.786 56.7093 207.048 56.8427 207.325 56.928C207.602 57.0133 207.88 57.056 208.157 57.056C208.445 57.056 208.733 57.008 209.021 56.912C209.309 56.8053 209.565 56.6347 209.789 56.4C210.013 56.1653 210.194 55.8613 210.333 55.488C210.472 55.1147 210.541 54.656 210.541 54.112C210.541 53.312 210.37 52.6827 210.029 52.224C209.698 51.7547 209.181 51.52 208.477 51.52ZM217.281 57.056C217.622 57.056 217.921 57.0187 218.177 56.944C218.433 56.8693 218.684 56.7733 218.929 56.656L219.233 57.712C218.657 58 217.969 58.144 217.169 58.144C216.625 58.144 216.113 58.064 215.633 57.904C215.164 57.744 214.748 57.504 214.385 57.184C214.033 56.8533 213.756 56.448 213.553 55.968C213.35 55.4773 213.249 54.9067 213.249 54.256C213.249 53.6587 213.345 53.12 213.537 52.64C213.729 52.16 213.996 51.7547 214.337 51.424C214.678 51.0827 215.089 50.8213 215.569 50.64C216.049 50.4587 216.577 50.368 217.153 50.368C217.484 50.368 217.804 50.3947 218.113 50.448C218.433 50.4907 218.796 50.6027 219.201 50.784L218.881 51.856C218.39 51.5787 217.862 51.44 217.297 51.44C216.518 51.44 215.889 51.6853 215.409 52.176C214.929 52.656 214.689 53.3333 214.689 54.208C214.689 54.752 214.764 55.2053 214.913 55.568C215.062 55.9307 215.26 56.224 215.505 56.448C215.75 56.6613 216.028 56.816 216.337 56.912C216.646 57.008 216.961 57.056 217.281 57.056ZM222.215 58H220.807V46.64H222.215V51.44C222.567 51.1307 222.956 50.8747 223.383 50.672C223.81 50.4693 224.279 50.368 224.791 50.368C225.207 50.368 225.57 50.432 225.879 50.56C226.188 50.6773 226.439 50.848 226.631 51.072C226.834 51.2853 226.983 51.5413 227.079 51.84C227.186 52.1387 227.239 52.464 227.239 52.816V58H225.831V53.168C225.831 52.592 225.714 52.176 225.479 51.92C225.244 51.6533 224.887 51.52 224.407 51.52C224.044 51.52 223.676 51.6107 223.303 51.792C222.94 51.9733 222.578 52.2293 222.215 52.56V58ZM229.512 51.152C229.768 51.024 230.008 50.912 230.232 50.816C230.456 50.7093 230.68 50.624 230.904 50.56C231.128 50.496 231.357 50.448 231.592 50.416C231.826 50.384 232.082 50.368 232.36 50.368C232.776 50.368 233.154 50.416 233.496 50.512C233.848 50.5973 234.146 50.7467 234.392 50.96C234.648 51.1733 234.845 51.456 234.984 51.808C235.122 52.1493 235.192 52.5813 235.192 53.104V58H234.024L233.848 57.168H233.816C233.485 57.52 233.122 57.7707 232.728 57.92C232.333 58.0693 231.896 58.144 231.416 58.144C231.053 58.144 230.717 58.096 230.408 58C230.109 57.8933 229.848 57.7493 229.624 57.568C229.4 57.376 229.224 57.1467 229.096 56.88C228.978 56.6133 228.92 56.3147 228.92 55.984C228.92 55.1947 229.229 54.5973 229.848 54.192C230.477 53.776 231.304 53.568 232.328 53.568H233.768V52.928C233.768 52.384 233.629 52.016 233.352 51.824C233.074 51.6213 232.701 51.52 232.232 51.52C231.954 51.52 231.634 51.568 231.272 51.664C230.92 51.7493 230.514 51.92 230.056 52.176L229.512 51.152ZM233.784 54.528L232.6 54.56C231.8 54.5813 231.229 54.7253 230.888 54.992C230.557 55.248 230.392 55.5627 230.392 55.936C230.392 56.16 230.429 56.352 230.504 56.512C230.578 56.6613 230.674 56.7787 230.792 56.864C230.92 56.9493 231.064 57.0133 231.224 57.056C231.394 57.088 231.57 57.104 231.752 57.104C232.104 57.104 232.461 57.024 232.824 56.864C233.186 56.6933 233.506 56.4267 233.784 56.064V54.528ZM241.29 51.536H239.082V55.904C239.082 56.2773 239.173 56.528 239.354 56.656C239.546 56.784 239.791 56.848 240.09 56.848C240.303 56.848 240.538 56.8267 240.794 56.784C241.05 56.7307 241.274 56.672 241.466 56.608L241.69 57.68C241.477 57.7653 241.205 57.84 240.874 57.904C240.543 57.968 240.197 58 239.834 58C239.087 58 238.543 57.84 238.202 57.52C237.861 57.1893 237.69 56.7147 237.69 56.096V51.536H236.57V50.48H237.69V48.08H239.082V50.48H241.29V51.536ZM242.062 59.744L246.926 46H248.126L243.262 59.744H242.062ZM254.158 46.64H255.566V58H254.382L254.206 57.168H254.158C253.827 57.5093 253.491 57.76 253.15 57.92C252.819 58.0693 252.398 58.144 251.886 58.144C251.481 58.144 251.086 58.064 250.702 57.904C250.329 57.744 249.993 57.504 249.694 57.184C249.395 56.864 249.155 56.464 248.974 55.984C248.793 55.4933 248.702 54.9173 248.702 54.256C248.702 53.6693 248.777 53.136 248.926 52.656C249.086 52.176 249.31 51.7653 249.598 51.424C249.886 51.0827 250.238 50.8213 250.654 50.64C251.07 50.4587 251.545 50.368 252.078 50.368C252.473 50.368 252.846 50.432 253.198 50.56C253.561 50.6773 253.881 50.8587 254.158 51.104V46.64ZM254.158 52.288C253.657 51.7227 253.065 51.44 252.382 51.44C252.094 51.44 251.811 51.4933 251.534 51.6C251.267 51.696 251.027 51.856 250.814 52.08C250.611 52.304 250.446 52.592 250.318 52.944C250.19 53.296 250.126 53.7173 250.126 54.208C250.126 54.72 250.185 55.1573 250.302 55.52C250.419 55.872 250.574 56.1653 250.766 56.4C250.969 56.624 251.193 56.7893 251.438 56.896C251.694 57.0027 251.95 57.056 252.206 57.056C253.006 57.056 253.657 56.7093 254.158 56.016V52.288ZM257.824 51.152C258.08 51.024 258.32 50.912 258.544 50.816C258.768 50.7093 258.992 50.624 259.216 50.56C259.44 50.496 259.67 50.448 259.904 50.416C260.139 50.384 260.395 50.368 260.672 50.368C261.088 50.368 261.467 50.416 261.808 50.512C262.16 50.5973 262.459 50.7467 262.704 50.96C262.96 51.1733 263.158 51.456 263.296 51.808C263.435 52.1493 263.504 52.5813 263.504 53.104V58H262.336L262.16 57.168H262.128C261.798 57.52 261.435 57.7707 261.04 57.92C260.646 58.0693 260.208 58.144 259.728 58.144C259.366 58.144 259.03 58.096 258.72 58C258.422 57.8933 258.16 57.7493 257.936 57.568C257.712 57.376 257.536 57.1467 257.408 56.88C257.291 56.6133 257.232 56.3147 257.232 55.984C257.232 55.1947 257.542 54.5973 258.16 54.192C258.79 53.776 259.616 53.568 260.64 53.568H262.08V52.928C262.08 52.384 261.942 52.016 261.664 51.824C261.387 51.6213 261.014 51.52 260.544 51.52C260.267 51.52 259.947 51.568 259.584 51.664C259.232 51.7493 258.827 51.92 258.368 52.176L257.824 51.152ZM262.096 54.528L260.912 54.56C260.112 54.5813 259.542 54.7253 259.2 54.992C258.87 55.248 258.704 55.5627 258.704 55.936C258.704 56.16 258.742 56.352 258.816 56.512C258.891 56.6613 258.987 56.7787 259.104 56.864C259.232 56.9493 259.376 57.0133 259.536 57.056C259.707 57.088 259.883 57.104 260.064 57.104C260.416 57.104 260.774 57.024 261.136 56.864C261.499 56.6933 261.819 56.4267 262.096 56.064V54.528ZM270.118 50.48H271.622L268.822 58H267.446L264.614 50.48H266.134L267.83 55.648L268.118 56.832H268.182L268.454 55.664L270.118 50.48ZM273.125 58V50.48H274.533V58H273.125ZM273.829 48.544C273.583 48.544 273.37 48.464 273.189 48.304C273.018 48.1333 272.933 47.9253 272.933 47.68C272.933 47.4347 273.018 47.2267 273.189 47.056C273.37 46.8853 273.583 46.8 273.829 46.8C274.063 46.8 274.271 46.8853 274.453 47.056C274.634 47.2267 274.725 47.4347 274.725 47.68C274.725 47.9253 274.634 48.1333 274.453 48.304C274.271 48.464 274.063 48.544 273.829 48.544ZM281.83 46.64H283.238V58H282.054L281.878 57.168H281.83C281.499 57.5093 281.163 57.76 280.822 57.92C280.491 58.0693 280.07 58.144 279.558 58.144C279.153 58.144 278.758 58.064 278.374 57.904C278.001 57.744 277.665 57.504 277.366 57.184C277.067 56.864 276.827 56.464 276.646 55.984C276.465 55.4933 276.374 54.9173 276.374 54.256C276.374 53.6693 276.449 53.136 276.598 52.656C276.758 52.176 276.982 51.7653 277.27 51.424C277.558 51.0827 277.91 50.8213 278.326 50.64C278.742 50.4587 279.217 50.368 279.75 50.368C280.145 50.368 280.518 50.432 280.87 50.56C281.233 50.6773 281.553 50.8587 281.83 51.104V46.64ZM281.83 52.288C281.329 51.7227 280.737 51.44 280.054 51.44C279.766 51.44 279.483 51.4933 279.206 51.6C278.939 51.696 278.699 51.856 278.486 52.08C278.283 52.304 278.118 52.592 277.99 52.944C277.862 53.296 277.798 53.7173 277.798 54.208C277.798 54.72 277.857 55.1573 277.974 55.52C278.091 55.872 278.246 56.1653 278.438 56.4C278.641 56.624 278.865 56.7893 279.11 56.896C279.366 57.0027 279.622 57.056 279.878 57.056C280.678 57.056 281.329 56.7093 281.83 56.016V52.288ZM292.312 54.16C292.312 54.7893 292.216 55.3547 292.024 55.856C291.832 56.3467 291.565 56.7627 291.224 57.104C290.893 57.4453 290.504 57.7067 290.056 57.888C289.608 58.0587 289.123 58.144 288.6 58.144C288.077 58.144 287.592 58.064 287.144 57.904C286.707 57.7333 286.323 57.488 285.992 57.168C285.672 56.8373 285.416 56.4373 285.224 55.968C285.043 55.488 284.952 54.9387 284.952 54.32C284.952 53.6907 285.048 53.1307 285.24 52.64C285.432 52.1493 285.693 51.7387 286.024 51.408C286.365 51.0667 286.76 50.8107 287.208 50.64C287.656 50.4587 288.141 50.368 288.664 50.368C289.187 50.368 289.667 50.448 290.104 50.608C290.552 50.768 290.936 51.008 291.256 51.328C291.587 51.648 291.843 52.048 292.024 52.528C292.216 52.9973 292.312 53.5413 292.312 54.16ZM290.84 54.24C290.84 53.7387 290.776 53.312 290.648 52.96C290.52 52.608 290.349 52.32 290.136 52.096C289.933 51.872 289.699 51.712 289.432 51.616C289.165 51.5093 288.893 51.456 288.616 51.456C288.339 51.456 288.067 51.4987 287.8 51.584C287.533 51.6693 287.299 51.8187 287.096 52.032C286.893 52.2453 286.728 52.5333 286.6 52.896C286.483 53.248 286.424 53.696 286.424 54.24C286.424 54.7413 286.488 55.1733 286.616 55.536C286.744 55.888 286.909 56.176 287.112 56.4C287.325 56.624 287.565 56.7893 287.832 56.896C288.099 57.0027 288.371 57.056 288.648 57.056C288.925 57.056 289.197 57.0133 289.464 56.928C289.731 56.832 289.965 56.6773 290.168 56.464C290.371 56.24 290.531 55.952 290.648 55.6C290.776 55.2373 290.84 54.784 290.84 54.24ZM298.25 51.888C297.898 51.7173 297.578 51.6 297.29 51.536C297.002 51.472 296.714 51.44 296.426 51.44C295.914 51.44 295.535 51.536 295.289 51.728C295.044 51.9093 294.922 52.1547 294.922 52.464C294.922 52.688 295.007 52.8853 295.178 53.056C295.348 53.216 295.706 53.376 296.25 53.536L296.73 53.68C297.444 53.8933 297.983 54.1707 298.346 54.512C298.719 54.8427 298.906 55.296 298.906 55.872C298.906 56.5547 298.65 57.104 298.138 57.52C297.636 57.936 296.932 58.144 296.026 58.144C295.546 58.144 295.082 58.1013 294.634 58.016C294.196 57.9307 293.818 57.8133 293.498 57.664L293.834 56.56C294.143 56.7093 294.479 56.832 294.842 56.928C295.204 57.0133 295.572 57.056 295.946 57.056C296.426 57.056 296.804 56.9707 297.082 56.8C297.37 56.6293 297.514 56.3467 297.514 55.952C297.514 55.6107 297.391 55.3707 297.146 55.232C296.9 55.0827 296.548 54.9387 296.09 54.8L295.594 54.64C294.9 54.416 294.383 54.1387 294.042 53.808C293.711 53.4667 293.546 53.0293 293.546 52.496C293.546 52.176 293.615 51.8827 293.754 51.616C293.892 51.3493 294.079 51.1253 294.314 50.944C294.559 50.7627 294.847 50.624 295.178 50.528C295.508 50.4213 295.871 50.368 296.266 50.368C296.639 50.368 297.023 50.4053 297.418 50.48C297.823 50.544 298.207 50.656 298.57 50.816L298.25 51.888ZM301.965 58H300.557V46.64H301.965V51.44C302.317 51.1307 302.706 50.8747 303.133 50.672C303.56 50.4693 304.029 50.368 304.541 50.368C304.957 50.368 305.32 50.432 305.629 50.56C305.938 50.6773 306.189 50.848 306.381 51.072C306.584 51.2853 306.733 51.5413 306.829 51.84C306.936 52.1387 306.989 52.464 306.989 52.816V58H305.581V53.168C305.581 52.592 305.464 52.176 305.229 51.92C304.994 51.6533 304.637 51.52 304.157 51.52C303.794 51.52 303.426 51.6107 303.053 51.792C302.69 51.9733 302.328 52.2293 301.965 52.56V58Z" fill="black"/>
<path d="M24.2515 40.3833H24.2331M33.7665 40.3833H33.7481M24.0681 49H24.0498M33.7665 49H33.7481M24.2515 57.6166H24.2331M33.7665 57.6166H33.7481" stroke="black" stroke-width="2.6" stroke-linecap="round"/>
<path d="M382.281 45.2498H380.969C380.795 45.2498 380.628 45.1807 380.505 45.0576C380.382 44.9346 380.312 44.7676 380.312 44.5936C380.312 44.4195 380.382 44.2526 380.505 44.1296C380.628 44.0065 380.795 43.9373 380.969 43.9373H386.219V41.9673C386.219 41.7932 386.288 41.6263 386.411 41.5032C386.534 41.3802 386.701 41.311 386.875 41.311H392.125C392.299 41.311 392.466 41.3802 392.589 41.5032C392.712 41.6263 392.781 41.7932 392.781 41.9673V43.9373H398.031C398.205 43.9373 398.372 44.0065 398.495 44.1296C398.618 44.2526 398.688 44.4195 398.688 44.5936C398.688 44.7676 398.618 44.9346 398.495 45.0576C398.372 45.1807 398.205 45.2498 398.031 45.2498H396.719V59.0311C396.719 59.2051 396.65 59.3721 396.527 59.4951C396.403 59.6182 396.237 59.6873 396.062 59.6873H382.938C382.763 59.6873 382.597 59.6182 382.473 59.4951C382.35 59.3721 382.281 59.2051 382.281 59.0311V45.2498ZM391.469 43.9373V42.6248H387.531V43.9373H391.469ZM383.594 58.3748H395.406V45.2498H383.594V58.3748ZM387.531 55.7498C387.357 55.7498 387.19 55.6807 387.067 55.5576C386.944 55.4346 386.875 55.2676 386.875 55.0936V48.5311C386.875 48.357 386.944 48.1901 387.067 48.0671C387.19 47.944 387.357 47.8748 387.531 47.8748C387.705 47.8748 387.872 47.944 387.995 48.0671C388.118 48.1901 388.188 48.357 388.188 48.5311V55.0936C388.188 55.2676 388.118 55.4346 387.995 55.5576C387.872 55.6807 387.705 55.7498 387.531 55.7498ZM391.469 55.7498C391.295 55.7498 391.128 55.6807 391.005 55.5576C390.882 55.4346 390.812 55.2676 390.812 55.0936V48.5311C390.812 48.357 390.882 48.1901 391.005 48.0671C391.128 47.944 391.295 47.8748 391.469 47.8748C391.643 47.8748 391.81 47.944 391.933 48.0671C392.056 48.1901 392.125 48.357 392.125 48.5311V55.0936C392.125 55.2676 392.056 55.4346 391.933 55.5576C391.81 55.6807 391.643 55.7498 391.469 55.7498Z" fill="black"/>
<path d="M97.75 73.25H107.5C108.097 73.25 108.669 73.4871 109.091 73.909C109.513 74.331 109.75 74.9033 109.75 75.5V85.25C109.75 85.8467 109.513 86.419 109.091 86.841C108.669 87.2629 108.097 87.5 107.5 87.5H97.75C97.1533 87.5 96.581 87.2629 96.159 86.841C95.7371 86.419 95.5 85.8467 95.5 85.25V75.5C95.5 74.9033 95.7371 74.331 96.159 73.909C96.581 73.4871 97.1533 73.25 97.75 73.25ZM97.75 74C97.3522 74 96.9706 74.158 96.6893 74.4393C96.408 74.7206 96.25 75.1022 96.25 75.5V84.1925L99.4675 80.9675L101.342 82.8425L105.092 79.0925L109 83V75.5C109 75.1022 108.842 74.7206 108.561 74.4393C108.279 74.158 107.898 74 107.5 74H97.75ZM101.342 83.9075L99.4675 82.0325L96.25 85.25C96.25 85.6478 96.408 86.0294 96.6893 86.3107C96.9706 86.592 97.3522 86.75 97.75 86.75H107.5C107.898 86.75 108.279 86.592 108.561 86.3107C108.842 86.0294 109 85.6478 109 85.25V84.0575L105.092 80.1575L101.342 83.9075ZM99.625 75.5C100.122 75.5 100.599 75.6975 100.951 76.0492C101.302 76.4008 101.5 76.8777 101.5 77.375C101.5 77.8723 101.302 78.3492 100.951 78.7008C100.599 79.0525 100.122 79.25 99.625 79.25C99.1277 79.25 98.6508 79.0525 98.2992 78.7008C97.9475 78.3492 97.75 77.8723 97.75 77.375C97.75 76.8777 97.9475 76.4008 98.2992 76.0492C98.6508 75.6975 99.1277 75.5 99.625 75.5ZM99.625 76.25C99.3266 76.25 99.0405 76.3685 98.8295 76.5795C98.6185 76.7905 98.5 77.0766 98.5 77.375C98.5 77.6734 98.6185 77.9595 98.8295 78.1705C99.0405 78.3815 99.3266 78.5 99.625 78.5C99.9234 78.5 100.21 78.3815 100.42 78.1705C100.631 77.9595 100.75 77.6734 100.75 77.375C100.75 77.0766 100.631 76.7905 100.42 76.5795C100.21 76.3685 99.9234 76.25 99.625 76.25Z" fill="black"/>
<path d="M168.125 29.7733V31.4169C168.125 31.5384 168.173 31.655 168.259 31.7409C168.345 31.8269 168.462 31.8752 168.583 31.8752H170.227C170.348 31.8752 170.465 31.827 170.55 31.7414L178.342 23.9497L176.05 21.658L168.259 29.4497C168.173 29.5356 168.125 29.6519 168.125 29.7733ZM177.832 19.876L180.124 22.1677L181.227 21.0649C181.399 20.893 181.495 20.6599 181.495 20.4169C181.495 20.1738 181.399 19.9407 181.227 19.7688L180.231 18.7733C180.06 18.6014 179.826 18.5049 179.583 18.5049C179.34 18.5049 179.107 18.6014 178.935 18.7733L177.832 19.876Z" stroke="black"/>
<path d="M316.125 54.7733V56.4169C316.125 56.5384 316.173 56.655 316.259 56.7409C316.345 56.8269 316.462 56.8752 316.583 56.8752H318.227C318.348 56.8752 318.465 56.827 318.55 56.7414L326.342 48.9497L324.05 46.658L316.259 54.4497C316.173 54.5356 316.125 54.6519 316.125 54.7733ZM325.832 44.876L328.124 47.1677L329.227 46.0649C329.399 45.893 329.495 45.6599 329.495 45.4169C329.495 45.1738 329.399 44.9407 329.227 44.7688L328.231 43.7733C328.06 43.6014 327.826 43.5049 327.583 43.5049C327.34 43.5049 327.107 43.6014 326.935 43.7733L325.832 44.876Z" stroke="black"/>
<path d="M66.5196 32.0053C64.9136 32.0295 63.3283 32.3639 61.8556 32.9891C59.8312 33.8393 57.6377 35.4739 56.2794 38.3787C55.2103 40.6685 55.5349 43.5283 55.7025 45.8767C55.4564 45.8302 55.2518 45.8527 54.8857 45.6892C54.5552 45.5355 54.1936 45.4555 53.8274 45.4553C53.2028 45.4553 52.6691 45.6202 52.146 45.9232C51.623 46.2276 51.0154 46.7194 50.8477 47.5637C50.7462 48.0916 50.9016 48.8759 51.3769 49.4382C51.8522 50.0006 52.5537 50.398 53.492 50.7504C53.7135 50.8329 53.8827 50.9258 54.0689 50.9843C54.4658 51.1013 54.898 51.2198 55.1734 51.3592C55.4502 51.5002 55.4933 51.6112 55.4626 51.5467C55.4337 51.678 55.385 51.8043 55.318 51.9216L55.2703 51.9696C55.2287 52.0565 53.0536 56.6663 48.6357 57.3576C48.1633 57.4345 47.7363 57.6775 47.4352 58.0406C47.1342 58.4037 46.9801 58.8617 47.0021 59.3281C47.0205 59.5921 47.1036 59.826 47.1943 60.0299C47.5374 60.7977 48.2158 61.2896 49.1172 61.6705C49.8448 61.9749 51.0093 62.1924 52.2906 62.4203C52.3137 62.5028 52.3137 62.4968 52.3368 62.6078C52.3983 62.8717 52.4706 63.2061 52.5783 63.545C52.7167 63.9904 53.089 64.4763 53.5397 64.7177C53.9904 64.9576 54.3811 64.9516 54.598 64.9516C55.0595 64.9516 55.3487 64.8692 55.6548 64.8107C56.24 64.6922 56.8355 64.6294 57.4331 64.6232C57.8361 64.6232 58.2991 64.6472 58.7314 64.7177C59.3313 64.8107 60.0051 65.2561 60.9434 65.8874C62.3002 66.8022 64.1153 67.9973 66.7581 67.9973H66.855C66.9334 67.9973 67.035 68.0033 67.095 67.9973H67.2396C69.8838 67.9973 71.6928 66.8022 73.0573 65.8889C73.9941 65.2621 74.7155 64.8107 75.3155 64.7162C75.7291 64.6521 76.1473 64.621 76.5661 64.6232C77.2814 64.6232 77.7921 64.7117 78.3443 64.8107C78.7289 64.8812 79.0366 64.9516 79.4027 64.9516H79.4488C79.8041 64.9516 80.2979 64.8572 80.6994 64.5767C81.1025 64.2948 81.3193 63.8389 81.4209 63.4985C81.5102 63.2041 81.5902 62.907 81.6608 62.6078C81.6855 62.4908 81.6855 62.5028 81.7101 62.4203C82.9899 62.1924 84.1559 61.9749 84.882 61.6705C85.7834 61.2896 86.4618 60.7977 86.8048 60.0314C86.9078 59.8083 86.9728 59.5702 86.9971 59.3266C87.0509 58.3789 86.348 57.5121 85.4111 57.3591H85.3619C83.1514 57.0127 81.5362 55.7591 80.4133 54.4994C79.2904 53.2397 78.7243 51.9981 78.7304 52.0161L78.6827 51.9216C78.6157 51.8043 78.567 51.678 78.5382 51.5467C78.5074 51.6112 78.5505 51.5002 78.8273 51.3592C79.1042 51.2198 79.535 51.1013 79.9318 50.9843C80.1318 50.9258 80.3349 50.8329 80.5579 50.7504C81.3809 50.44 81.9639 50.1355 82.4315 49.6722C82.9007 49.2103 83.213 48.5175 83.2007 47.9386C83.1776 46.697 82.2392 46.0116 81.327 45.6892C81.3209 45.6892 81.3316 45.6427 81.327 45.6427C81.3086 45.6367 81.2963 45.6487 81.2778 45.6427C80.9091 45.5089 80.5174 45.4453 80.1241 45.4553C79.8472 45.4553 79.4396 45.4613 78.9227 45.6892C78.6581 45.8062 78.5028 45.7777 78.2982 45.8302C78.4674 43.4923 78.7904 40.6565 77.7213 38.3787C76.363 35.4724 74.1756 33.7974 72.1451 32.9426C70.6403 32.317 69.0201 31.9981 67.3842 32.0053H66.615C66.6027 32.0053 66.6581 31.9933 66.5196 32.0053ZM66.615 35.0045H67.3842C67.9964 35.0045 69.4085 35.087 70.8929 35.7079C72.3774 36.3287 73.8972 37.4414 74.9309 39.6443C75.4062 40.664 75.4293 43.6213 75.2678 46.0176L75.2201 46.1106C75.1955 46.445 75.1893 46.7794 75.1709 47.0944C75.1597 47.3008 75.1925 47.5074 75.2672 47.7009C75.3418 47.8945 75.4567 48.0709 75.6047 48.2191C75.7846 48.396 76.4876 48.7124 77.2383 48.8759C76.6799 49.1863 76.0492 49.5912 75.7 50.3755C75.3155 51.2423 75.4908 52.145 75.8446 52.9533C75.8582 53.0005 75.8741 53.0471 75.8923 53.0928C75.8985 53.1048 75.8862 53.1288 75.8923 53.1408V53.1872C75.9046 53.2052 75.9292 53.2172 75.9416 53.2337C76.0615 53.5037 76.6984 54.8923 78.1044 56.4684C79.0427 57.5166 80.4425 58.4943 82.0931 59.2801C81.5701 59.4076 81.3363 59.5306 80.5087 59.655C79.7626 59.766 79.1981 60.4213 79.0166 60.8247C78.8489 61.1951 78.8074 61.5115 78.7289 61.8565C78.129 61.7515 77.4552 61.6225 76.5661 61.6225C75.9892 61.6225 75.3693 61.669 74.7863 61.7635C73.3034 61.9974 72.2574 62.7772 71.3252 63.4025C69.9561 64.3173 68.9716 64.9966 67.2396 64.9966C67.1796 64.9966 67.1196 65.0026 67.0473 64.9966C66.9832 64.9927 66.919 64.9927 66.855 64.9966H66.7596C65.0291 64.9966 64.0307 64.3173 62.674 63.4025C61.7356 62.7772 60.7019 61.9974 59.2129 61.7635C58.6246 61.6685 58.0293 61.6214 57.4331 61.6225C56.5024 61.6225 55.8348 61.717 55.318 61.81C55.2541 61.4891 55.1577 61.1751 55.0303 60.8727C54.8549 60.4738 54.3212 59.778 53.492 59.6535C52.686 59.5366 52.4706 59.4076 51.9538 59.2786C56.004 57.3696 57.8776 53.6791 58.0576 53.2802V53.2352C58.0576 53.2277 58.1007 53.1992 58.1068 53.1872C58.1299 53.1468 58.1607 53.1168 58.2022 52.9533L58.1068 52.9053C58.4483 52.097 58.6837 51.2303 58.2991 50.3755C57.9376 49.5657 57.2839 49.1398 56.7132 48.8294C57.4269 48.6824 58.1438 48.471 58.3945 48.2206C58.5422 48.0722 58.6568 47.8958 58.7312 47.7022C58.8056 47.5087 58.8381 47.3022 58.8267 47.0958C58.8098 46.7434 58.8037 46.391 58.7806 46.0161C58.6237 43.6168 58.5929 40.6625 59.0683 39.6428C60.102 37.4414 61.6279 36.3287 63.1062 35.7079C64.2175 35.2523 65.4095 35.0133 66.615 35.0045Z" fill="black"/>
<defs>
<linearGradient id="paint0_linear_2041_2673" x1="2" y1="48.5" x2="430" y2="48.5" gradientUnits="userSpaceOnUse">
<stop stop-color="#7E4FF3"/>
<stop offset="1" stop-color="#FB8E8E"/>
</linearGradient>
</defs>
</svg>
