<svg width="485" height="97" viewBox="0 0 485 97" fill="none" xmlns="http://www.w3.org/2000/svg">
<rect x="1" y="1" width="483" height="95" rx="11" fill="#ECECED"/>
<rect x="1" y="1" width="483" height="95" rx="11" stroke="url(#paint0_linear_2041_2655)" stroke-width="2"/>
<path d="M97.296 21.92V32H95.104V21.92H97.296ZM101.51 32H99.3819V24.368H101.046L101.302 25.344C101.654 24.9813 102.038 24.704 102.454 24.512C102.881 24.3093 103.35 24.208 103.862 24.208C104.705 24.208 105.35 24.4373 105.798 24.896C106.246 25.3547 106.47 26.0213 106.47 26.896V32H104.342V27.12C104.342 26.7253 104.246 26.416 104.054 26.192C103.862 25.9573 103.579 25.84 103.206 25.84C102.929 25.84 102.635 25.92 102.326 26.08C102.027 26.2293 101.755 26.4373 101.51 26.704V32ZM113.021 26.192C112.392 25.8933 111.784 25.744 111.197 25.744C110.856 25.744 110.589 25.8027 110.397 25.92C110.216 26.0373 110.125 26.1973 110.125 26.4C110.125 26.6027 110.205 26.768 110.365 26.896C110.536 27.024 110.872 27.1627 111.373 27.312L111.853 27.456C112.514 27.648 113.016 27.9253 113.357 28.288C113.698 28.6507 113.869 29.12 113.869 29.696C113.869 30.4533 113.576 31.056 112.989 31.504C112.413 31.952 111.629 32.176 110.637 32.176C109.624 32.176 108.754 31.9947 108.029 31.632L108.509 30.064C108.818 30.224 109.144 30.3573 109.485 30.464C109.826 30.56 110.173 30.608 110.525 30.608C110.952 30.608 111.261 30.544 111.453 30.416C111.656 30.2773 111.757 30.1013 111.757 29.888C111.757 29.664 111.661 29.4933 111.469 29.376C111.277 29.248 110.914 29.1093 110.381 28.96L109.885 28.816C109.245 28.6027 108.776 28.32 108.477 27.968C108.178 27.616 108.029 27.1467 108.029 26.56C108.029 25.8667 108.29 25.3013 108.813 24.864C109.336 24.4267 110.066 24.208 111.005 24.208C111.933 24.208 112.754 24.3733 113.469 24.704L113.021 26.192ZM119.926 25.904H117.894V29.424C117.894 29.7867 117.974 30.0373 118.134 30.176C118.305 30.304 118.529 30.368 118.806 30.368C119.02 30.368 119.238 30.3467 119.462 30.304C119.686 30.2613 119.868 30.2027 120.006 30.128L120.326 31.616C120.145 31.7013 119.873 31.7867 119.51 31.872C119.148 31.9573 118.764 32 118.358 32C117.43 32 116.769 31.8187 116.374 31.456C115.98 31.0827 115.782 30.528 115.782 29.792V25.904H114.598V24.368H115.782V22.016H117.894V24.368H119.926V25.904ZM121.604 25.04C122.062 24.7733 122.548 24.5707 123.06 24.432C123.572 24.2827 124.116 24.208 124.692 24.208C125.15 24.208 125.566 24.2613 125.94 24.368C126.324 24.4747 126.649 24.6453 126.916 24.88C127.193 25.104 127.401 25.3973 127.54 25.76C127.689 26.112 127.764 26.5387 127.764 27.04V32H126.116L125.924 31.216H125.86C125.614 31.5147 125.3 31.7493 124.916 31.92C124.542 32.0907 124.105 32.176 123.604 32.176C123.188 32.176 122.82 32.1173 122.5 32C122.18 31.872 121.908 31.7067 121.684 31.504C121.46 31.2907 121.289 31.04 121.172 30.752C121.065 30.464 121.012 30.1547 121.012 29.824C121.012 29.3867 121.102 29.0133 121.284 28.704C121.476 28.384 121.737 28.1227 122.068 27.92C122.398 27.7173 122.782 27.568 123.22 27.472C123.668 27.376 124.148 27.328 124.66 27.328H125.62V26.864C125.62 26.512 125.508 26.256 125.284 26.096C125.07 25.9253 124.766 25.84 124.372 25.84C124.062 25.84 123.742 25.888 123.412 25.984C123.092 26.08 122.734 26.2347 122.34 26.448L121.604 25.04ZM125.636 28.656L124.948 28.672C124.297 28.6933 123.844 28.8053 123.588 29.008C123.332 29.2 123.204 29.4347 123.204 29.712C123.204 30.0747 123.31 30.3253 123.524 30.464C123.748 30.592 123.998 30.656 124.276 30.656C124.553 30.656 124.814 30.576 125.06 30.416C125.316 30.256 125.508 30.0693 125.636 29.856V28.656ZM129.521 26.96C129.521 26.544 129.601 26.1653 129.761 25.824C129.931 25.4827 130.161 25.1947 130.449 24.96C130.747 24.7147 131.094 24.528 131.489 24.4C131.894 24.272 132.337 24.208 132.817 24.208C132.998 24.208 133.195 24.224 133.409 24.256C133.622 24.2773 133.819 24.3147 134.001 24.368H137.265V25.712H136.577L135.585 25.568C135.723 25.7387 135.835 25.952 135.921 26.208C136.017 26.464 136.065 26.72 136.065 26.976C136.065 27.7867 135.771 28.4427 135.185 28.944C134.609 29.4347 133.814 29.68 132.801 29.68C132.534 29.68 132.299 29.6587 132.097 29.616C131.83 29.7227 131.697 29.8987 131.697 30.144C131.697 30.3147 131.755 30.4427 131.873 30.528C131.99 30.6133 132.198 30.656 132.497 30.656H134.209C135.051 30.656 135.723 30.8427 136.225 31.216C136.737 31.5787 136.993 32.1653 136.993 32.976C136.993 33.392 136.891 33.7707 136.689 34.112C136.497 34.464 136.219 34.7627 135.857 35.008C135.494 35.264 135.057 35.4613 134.545 35.6C134.033 35.7387 133.462 35.808 132.833 35.808C131.67 35.808 130.747 35.6 130.065 35.184C129.393 34.7787 129.057 34.192 129.057 33.424C129.057 33.072 129.174 32.7627 129.409 32.496C129.643 32.24 129.969 32.0373 130.385 31.888C130.235 31.7813 130.086 31.632 129.937 31.44C129.787 31.2373 129.713 30.9867 129.713 30.688C129.713 30.336 129.819 30.032 130.033 29.776C130.246 29.52 130.518 29.3173 130.849 29.168C130.689 29.0827 130.529 28.976 130.369 28.848C130.219 28.7093 130.081 28.5493 129.953 28.368C129.825 28.1867 129.718 27.9787 129.633 27.744C129.558 27.5093 129.521 27.248 129.521 26.96ZM131.569 32.256C131.409 32.3413 131.275 32.4533 131.169 32.592C131.062 32.7307 131.009 32.9067 131.009 33.12C131.009 33.4293 131.147 33.6853 131.425 33.888C131.713 34.1013 132.203 34.208 132.897 34.208C133.59 34.208 134.097 34.0907 134.417 33.856C134.737 33.6213 134.897 33.3547 134.897 33.056C134.897 32.7573 134.795 32.5493 134.593 32.432C134.39 32.3147 134.075 32.256 133.649 32.256H131.569ZM133.985 26.944C133.985 26.528 133.873 26.2133 133.649 26C133.425 25.7867 133.142 25.68 132.801 25.68C132.449 25.68 132.161 25.7867 131.937 26C131.723 26.2133 131.617 26.5227 131.617 26.928C131.617 27.3547 131.729 27.6747 131.953 27.888C132.177 28.1013 132.459 28.208 132.801 28.208C133.153 28.208 133.435 28.1013 133.649 27.888C133.873 27.6747 133.985 27.36 133.985 26.944ZM138.679 32V24.368H140.327L140.567 25.744C140.748 25.3387 141.036 24.9813 141.431 24.672C141.825 24.3627 142.321 24.208 142.919 24.208C143.164 24.208 143.383 24.2347 143.575 24.288C143.767 24.3413 143.927 24.4053 144.055 24.48L143.703 26.16C143.585 26.096 143.436 26.0427 143.255 26C143.073 25.9467 142.86 25.92 142.615 25.92C142.092 25.92 141.655 26.096 141.303 26.448C140.961 26.7893 140.791 27.3547 140.791 28.144V32H138.679ZM144.807 25.04C145.265 24.7733 145.751 24.5707 146.263 24.432C146.775 24.2827 147.319 24.208 147.895 24.208C148.353 24.208 148.769 24.2613 149.143 24.368C149.527 24.4747 149.852 24.6453 150.119 24.88C150.396 25.104 150.604 25.3973 150.743 25.76C150.892 26.112 150.967 26.5387 150.967 27.04V32H149.319L149.127 31.216H149.063C148.817 31.5147 148.503 31.7493 148.119 31.92C147.745 32.0907 147.308 32.176 146.807 32.176C146.391 32.176 146.023 32.1173 145.703 32C145.383 31.872 145.111 31.7067 144.887 31.504C144.663 31.2907 144.492 31.04 144.375 30.752C144.268 30.464 144.215 30.1547 144.215 29.824C144.215 29.3867 144.305 29.0133 144.487 28.704C144.679 28.384 144.94 28.1227 145.271 27.92C145.601 27.7173 145.985 27.568 146.423 27.472C146.871 27.376 147.351 27.328 147.863 27.328H148.823V26.864C148.823 26.512 148.711 26.256 148.487 26.096C148.273 25.9253 147.969 25.84 147.575 25.84C147.265 25.84 146.945 25.888 146.615 25.984C146.295 26.08 145.937 26.2347 145.543 26.448L144.807 25.04ZM148.839 28.656L148.151 28.672C147.5 28.6933 147.047 28.8053 146.791 29.008C146.535 29.2 146.407 29.4347 146.407 29.712C146.407 30.0747 146.513 30.3253 146.727 30.464C146.951 30.592 147.201 30.656 147.479 30.656C147.756 30.656 148.017 30.576 148.263 30.416C148.519 30.256 148.711 30.0693 148.839 29.856V28.656ZM154.901 32H152.773V24.368H154.437L154.693 25.344C155.034 24.992 155.407 24.7147 155.812 24.512C156.218 24.3093 156.677 24.208 157.189 24.208C158.277 24.208 159.018 24.6027 159.413 25.392C159.754 25.0187 160.143 24.7307 160.581 24.528C161.018 24.3147 161.487 24.208 161.989 24.208C162.799 24.208 163.418 24.4267 163.845 24.864C164.282 25.3013 164.501 25.936 164.501 26.768V32H162.373V27.008C162.373 26.6453 162.282 26.3627 162.101 26.16C161.93 25.9467 161.674 25.84 161.333 25.84C161.045 25.84 160.751 25.9093 160.453 26.048C160.165 26.1867 159.914 26.384 159.701 26.64V32H157.573V27.008C157.573 26.6453 157.482 26.3627 157.301 26.16C157.13 25.9467 156.874 25.84 156.533 25.84C156.245 25.84 155.951 25.92 155.653 26.08C155.365 26.2293 155.114 26.4373 154.901 26.704V32Z" fill="black"/>
<path d="M96.512 58H95.104V46.64H96.512V51.44C96.864 51.1307 97.2533 50.8747 97.68 50.672C98.1067 50.4693 98.576 50.368 99.088 50.368C99.504 50.368 99.8667 50.432 100.176 50.56C100.485 50.6773 100.736 50.848 100.928 51.072C101.131 51.2853 101.28 51.5413 101.376 51.84C101.483 52.1387 101.536 52.464 101.536 52.816V58H100.128V53.168C100.128 52.592 100.011 52.176 99.776 51.92C99.5413 51.6533 99.184 51.52 98.704 51.52C98.3413 51.52 97.9733 51.6107 97.6 51.792C97.2373 51.9733 96.8747 52.2293 96.512 52.56V58ZM107.681 51.536H105.473V55.904C105.473 56.2773 105.563 56.528 105.745 56.656C105.937 56.784 106.182 56.848 106.481 56.848C106.694 56.848 106.929 56.8267 107.185 56.784C107.441 56.7307 107.665 56.672 107.857 56.608L108.081 57.68C107.867 57.7653 107.595 57.84 107.265 57.904C106.934 57.968 106.587 58 106.225 58C105.478 58 104.934 57.84 104.593 57.52C104.251 57.1893 104.081 56.7147 104.081 56.096V51.536H102.961V50.48H104.081V48.08H105.473V50.48H107.681V51.536ZM113.353 51.536H111.145V55.904C111.145 56.2773 111.235 56.528 111.417 56.656C111.609 56.784 111.854 56.848 112.153 56.848C112.366 56.848 112.601 56.8267 112.857 56.784C113.113 56.7307 113.337 56.672 113.529 56.608L113.753 57.68C113.539 57.7653 113.267 57.84 112.937 57.904C112.606 57.968 112.259 58 111.897 58C111.15 58 110.606 57.84 110.265 57.52C109.923 57.1893 109.753 56.7147 109.753 56.096V51.536H108.633V50.48H109.753V48.08H111.145V50.48H113.353V51.536ZM118.349 58.144C118.007 58.144 117.677 58.096 117.357 58C117.047 57.904 116.781 57.776 116.557 57.616V61.68H115.165V50.368H116.333L116.541 51.344C116.829 51.0773 117.154 50.848 117.517 50.656C117.879 50.464 118.306 50.368 118.797 50.368C119.799 50.368 120.589 50.688 121.165 51.328C121.741 51.968 122.029 52.8853 122.029 54.08C122.029 54.784 121.922 55.392 121.709 55.904C121.506 56.416 121.229 56.8373 120.877 57.168C120.535 57.4987 120.141 57.744 119.693 57.904C119.255 58.064 118.807 58.144 118.349 58.144ZM118.493 51.52C118.045 51.52 117.655 51.632 117.325 51.856C116.994 52.0693 116.738 52.288 116.557 52.512V56.528C116.802 56.7093 117.063 56.8427 117.341 56.928C117.618 57.0133 117.895 57.056 118.173 57.056C118.461 57.056 118.749 57.008 119.037 56.912C119.325 56.8053 119.581 56.6347 119.805 56.4C120.029 56.1653 120.21 55.8613 120.349 55.488C120.487 55.1147 120.557 54.656 120.557 54.112C120.557 53.312 120.386 52.6827 120.045 52.224C119.714 51.7547 119.197 51.52 118.493 51.52ZM127.953 51.888C127.601 51.7173 127.281 51.6 126.993 51.536C126.705 51.472 126.417 51.44 126.129 51.44C125.617 51.44 125.238 51.536 124.993 51.728C124.747 51.9093 124.625 52.1547 124.625 52.464C124.625 52.688 124.71 52.8853 124.881 53.056C125.051 53.216 125.409 53.376 125.953 53.536L126.433 53.68C127.147 53.8933 127.686 54.1707 128.049 54.512C128.422 54.8427 128.609 55.296 128.609 55.872C128.609 56.5547 128.353 57.104 127.841 57.52C127.339 57.936 126.635 58.144 125.729 58.144C125.249 58.144 124.785 58.1013 124.337 58.016C123.899 57.9307 123.521 57.8133 123.201 57.664L123.537 56.56C123.846 56.7093 124.182 56.832 124.545 56.928C124.907 57.0133 125.275 57.056 125.649 57.056C126.129 57.056 126.507 56.9707 126.785 56.8C127.073 56.6293 127.217 56.3467 127.217 55.952C127.217 55.6107 127.094 55.3707 126.849 55.232C126.603 55.0827 126.251 54.9387 125.793 54.8L125.297 54.64C124.603 54.416 124.086 54.1387 123.745 53.808C123.414 53.4667 123.249 53.0293 123.249 52.496C123.249 52.176 123.318 51.8827 123.457 51.616C123.595 51.3493 123.782 51.1253 124.017 50.944C124.262 50.7627 124.55 50.624 124.881 50.528C125.211 50.4213 125.574 50.368 125.969 50.368C126.342 50.368 126.726 50.4053 127.121 50.48C127.526 50.544 127.91 50.656 128.273 50.816L127.953 51.888ZM129.972 57.136C129.972 56.8587 130.068 56.624 130.26 56.432C130.452 56.24 130.682 56.144 130.948 56.144C131.215 56.144 131.439 56.24 131.62 56.432C131.812 56.624 131.908 56.8587 131.908 57.136C131.908 57.4453 131.812 57.6907 131.62 57.872C131.439 58.0533 131.215 58.144 130.948 58.144C130.682 58.144 130.452 58.0533 130.26 57.872C130.068 57.6907 129.972 57.4453 129.972 57.136ZM129.972 52.32C129.972 52.0427 130.068 51.808 130.26 51.616C130.452 51.424 130.682 51.328 130.948 51.328C131.215 51.328 131.439 51.424 131.62 51.616C131.812 51.808 131.908 52.0427 131.908 52.32C131.908 52.6293 131.812 52.8747 131.62 53.056C131.439 53.2373 131.215 53.328 130.948 53.328C130.682 53.328 130.452 53.2373 130.26 53.056C130.068 52.8747 129.972 52.6293 129.972 52.32ZM132.703 59.744L137.567 46H138.767L133.903 59.744H132.703ZM138.703 59.744L143.567 46H144.767L139.903 59.744H138.703ZM144.895 50.48H146.399L147.679 55.216L147.967 56.896H148.031L148.383 55.216L149.679 50.48H151.199L152.527 55.216L152.863 56.896H152.927L153.279 55.216L154.527 50.48H155.967L153.679 58H152.079L150.799 53.392L150.431 51.536L150.047 53.392L148.735 58H147.215L144.895 50.48ZM156.285 50.48H157.789L159.069 55.216L159.357 56.896H159.421L159.773 55.216L161.069 50.48H162.589L163.917 55.216L164.253 56.896H164.317L164.669 55.216L165.917 50.48H167.357L165.069 58H163.469L162.189 53.392L161.821 51.536L161.437 53.392L160.125 58H158.605L156.285 50.48ZM167.676 50.48H169.18L170.46 55.216L170.748 56.896H170.812L171.164 55.216L172.46 50.48H173.98L175.308 55.216L175.644 56.896H175.708L176.06 55.216L177.308 50.48H178.748L176.46 58H174.86L173.58 53.392L173.212 51.536L172.828 53.392L171.516 58H169.996L167.676 50.48ZM178.802 57.136C178.802 56.8587 178.898 56.624 179.09 56.432C179.282 56.24 179.511 56.144 179.778 56.144C180.044 56.144 180.268 56.24 180.45 56.432C180.642 56.624 180.738 56.8587 180.738 57.136C180.738 57.4453 180.642 57.6907 180.45 57.872C180.268 58.0533 180.044 58.144 179.778 58.144C179.511 58.144 179.282 58.0533 179.09 57.872C178.898 57.6907 178.802 57.4453 178.802 57.136ZM182.625 58V50.48H184.033V58H182.625ZM183.329 48.544C183.083 48.544 182.87 48.464 182.689 48.304C182.518 48.1333 182.433 47.9253 182.433 47.68C182.433 47.4347 182.518 47.2267 182.689 47.056C182.87 46.8853 183.083 46.8 183.329 46.8C183.563 46.8 183.771 46.8853 183.953 47.056C184.134 47.2267 184.225 47.4347 184.225 47.68C184.225 47.9253 184.134 48.1333 183.953 48.304C183.771 48.464 183.563 48.544 183.329 48.544ZM187.746 58H186.338V50.48H187.442L187.65 51.52C188.023 51.1467 188.413 50.864 188.818 50.672C189.234 50.4693 189.709 50.368 190.242 50.368C191.01 50.368 191.613 50.5867 192.05 51.024C192.487 51.4507 192.706 52.048 192.706 52.816V58H191.298V53.024C191.298 52.5653 191.175 52.2027 190.93 51.936C190.695 51.6587 190.333 51.52 189.842 51.52C189.095 51.52 188.397 51.856 187.746 52.528V58ZM199.109 51.888C198.757 51.7173 198.437 51.6 198.149 51.536C197.861 51.472 197.573 51.44 197.285 51.44C196.773 51.44 196.394 51.536 196.149 51.728C195.904 51.9093 195.781 52.1547 195.781 52.464C195.781 52.688 195.866 52.8853 196.037 53.056C196.208 53.216 196.565 53.376 197.109 53.536L197.589 53.68C198.304 53.8933 198.842 54.1707 199.205 54.512C199.578 54.8427 199.765 55.296 199.765 55.872C199.765 56.5547 199.509 57.104 198.997 57.52C198.496 57.936 197.792 58.144 196.885 58.144C196.405 58.144 195.941 58.1013 195.493 58.016C195.056 57.9307 194.677 57.8133 194.357 57.664L194.693 56.56C195.002 56.7093 195.338 56.832 195.701 56.928C196.064 57.0133 196.432 57.056 196.805 57.056C197.285 57.056 197.664 56.9707 197.941 56.8C198.229 56.6293 198.373 56.3467 198.373 55.952C198.373 55.6107 198.25 55.3707 198.005 55.232C197.76 55.0827 197.408 54.9387 196.949 54.8L196.453 54.64C195.76 54.416 195.242 54.1387 194.901 53.808C194.57 53.4667 194.405 53.0293 194.405 52.496C194.405 52.176 194.474 51.8827 194.613 51.616C194.752 51.3493 194.938 51.1253 195.173 50.944C195.418 50.7627 195.706 50.624 196.037 50.528C196.368 50.4213 196.73 50.368 197.125 50.368C197.498 50.368 197.882 50.4053 198.277 50.48C198.682 50.544 199.066 50.656 199.429 50.816L199.109 51.888ZM205.353 51.536H203.145V55.904C203.145 56.2773 203.235 56.528 203.417 56.656C203.609 56.784 203.854 56.848 204.153 56.848C204.366 56.848 204.601 56.8267 204.857 56.784C205.113 56.7307 205.337 56.672 205.529 56.608L205.753 57.68C205.539 57.7653 205.267 57.84 204.937 57.904C204.606 57.968 204.259 58 203.897 58C203.15 58 202.606 57.84 202.265 57.52C201.923 57.1893 201.753 56.7147 201.753 56.096V51.536H200.633V50.48H201.753V48.08H203.145V50.48H205.353V51.536ZM207.309 51.152C207.565 51.024 207.805 50.912 208.029 50.816C208.253 50.7093 208.477 50.624 208.701 50.56C208.925 50.496 209.154 50.448 209.389 50.416C209.623 50.384 209.879 50.368 210.157 50.368C210.573 50.368 210.951 50.416 211.293 50.512C211.645 50.5973 211.943 50.7467 212.189 50.96C212.445 51.1733 212.642 51.456 212.781 51.808C212.919 52.1493 212.989 52.5813 212.989 53.104V58H211.821L211.645 57.168H211.613C211.282 57.52 210.919 57.7707 210.525 57.92C210.13 58.0693 209.693 58.144 209.213 58.144C208.85 58.144 208.514 58.096 208.205 58C207.906 57.8933 207.645 57.7493 207.421 57.568C207.197 57.376 207.021 57.1467 206.893 56.88C206.775 56.6133 206.717 56.3147 206.717 55.984C206.717 55.1947 207.026 54.5973 207.645 54.192C208.274 53.776 209.101 53.568 210.125 53.568H211.565V52.928C211.565 52.384 211.426 52.016 211.149 51.824C210.871 51.6213 210.498 51.52 210.029 51.52C209.751 51.52 209.431 51.568 209.069 51.664C208.717 51.7493 208.311 51.92 207.853 52.176L207.309 51.152ZM211.581 54.528L210.397 54.56C209.597 54.5813 209.026 54.7253 208.685 54.992C208.354 55.248 208.189 55.5627 208.189 55.936C208.189 56.16 208.226 56.352 208.301 56.512C208.375 56.6613 208.471 56.7787 208.589 56.864C208.717 56.9493 208.861 57.0133 209.021 57.056C209.191 57.088 209.367 57.104 209.549 57.104C209.901 57.104 210.258 57.024 210.621 56.864C210.983 56.6933 211.303 56.4267 211.581 56.064V54.528ZM214.945 52.976C214.945 52.56 215.019 52.192 215.169 51.872C215.318 51.5413 215.526 51.264 215.793 51.04C216.07 50.816 216.395 50.6507 216.769 50.544C217.142 50.4267 217.547 50.368 217.985 50.368C218.145 50.368 218.299 50.3787 218.449 50.4C218.598 50.4213 218.747 50.448 218.897 50.48H222.145V51.52H221.649L220.369 51.344C220.571 51.5573 220.726 51.8027 220.833 52.08C220.95 52.3573 221.009 52.6507 221.009 52.96C221.009 53.376 220.934 53.7493 220.785 54.08C220.635 54.4 220.427 54.672 220.161 54.896C219.894 55.12 219.574 55.2907 219.201 55.408C218.827 55.5147 218.422 55.568 217.985 55.568C217.654 55.568 217.366 55.5467 217.121 55.504C216.875 55.5893 216.705 55.7013 216.609 55.84C216.513 55.968 216.465 56.1067 216.465 56.256C216.465 56.5013 216.545 56.6667 216.705 56.752C216.875 56.8373 217.099 56.88 217.377 56.88H219.361C220.193 56.88 220.827 57.072 221.265 57.456C221.713 57.8293 221.937 58.3413 221.937 58.992C221.937 59.408 221.846 59.7813 221.665 60.112C221.483 60.4427 221.222 60.7253 220.881 60.96C220.55 61.1947 220.145 61.3707 219.665 61.488C219.185 61.616 218.646 61.68 218.049 61.68C216.961 61.68 216.091 61.4827 215.441 61.088C214.801 60.704 214.481 60.1333 214.481 59.376C214.481 58.9813 214.603 58.6507 214.849 58.384C215.105 58.1173 215.435 57.9147 215.841 57.776C215.627 57.6267 215.467 57.472 215.361 57.312C215.254 57.1413 215.201 56.9173 215.201 56.64C215.201 56.3093 215.297 56.0267 215.489 55.792C215.691 55.5573 215.963 55.3707 216.305 55.232C215.878 55.04 215.542 54.7627 215.297 54.4C215.062 54.0267 214.945 53.552 214.945 52.976ZM216.657 58C216.113 58.2453 215.841 58.6293 215.841 59.152C215.841 60.0907 216.598 60.56 218.113 60.56C218.561 60.56 218.939 60.5173 219.249 60.432C219.558 60.3467 219.809 60.2347 220.001 60.096C220.193 59.9573 220.331 59.8027 220.417 59.632C220.513 59.4613 220.561 59.2853 220.561 59.104C220.561 58.656 220.406 58.3573 220.097 58.208C219.798 58.0693 219.419 58 218.961 58H216.657ZM219.585 53.008C219.585 52.4427 219.435 52.0267 219.137 51.76C218.849 51.4933 218.465 51.36 217.985 51.36C217.505 51.36 217.115 51.4933 216.817 51.76C216.529 52.0267 216.385 52.4213 216.385 52.944C216.385 53.4987 216.529 53.9093 216.817 54.176C217.115 54.432 217.505 54.56 217.985 54.56C218.465 54.56 218.849 54.432 219.137 54.176C219.435 53.92 219.585 53.5307 219.585 53.008ZM223.681 58V50.48H224.737L224.977 51.984C225.158 51.504 225.457 51.1147 225.873 50.816C226.289 50.5173 226.769 50.368 227.313 50.368C227.59 50.368 227.82 50.3893 228.001 50.432C228.182 50.4747 228.348 50.528 228.497 50.592L228.225 51.824C228.097 51.76 227.953 51.7067 227.793 51.664C227.644 51.6213 227.462 51.6 227.249 51.6C226.94 51.6 226.652 51.6533 226.385 51.76C226.129 51.8667 225.9 52.0267 225.697 52.24C225.505 52.4533 225.35 52.72 225.233 53.04C225.126 53.3493 225.073 53.7067 225.073 54.112V58H223.681ZM229.512 51.152C229.768 51.024 230.008 50.912 230.232 50.816C230.456 50.7093 230.68 50.624 230.904 50.56C231.128 50.496 231.357 50.448 231.592 50.416C231.826 50.384 232.082 50.368 232.36 50.368C232.776 50.368 233.154 50.416 233.496 50.512C233.848 50.5973 234.146 50.7467 234.392 50.96C234.648 51.1733 234.845 51.456 234.984 51.808C235.122 52.1493 235.192 52.5813 235.192 53.104V58H234.024L233.848 57.168H233.816C233.485 57.52 233.122 57.7707 232.728 57.92C232.333 58.0693 231.896 58.144 231.416 58.144C231.053 58.144 230.717 58.096 230.408 58C230.109 57.8933 229.848 57.7493 229.624 57.568C229.4 57.376 229.224 57.1467 229.096 56.88C228.978 56.6133 228.92 56.3147 228.92 55.984C228.92 55.1947 229.229 54.5973 229.848 54.192C230.477 53.776 231.304 53.568 232.328 53.568H233.768V52.928C233.768 52.384 233.629 52.016 233.352 51.824C233.074 51.6213 232.701 51.52 232.232 51.52C231.954 51.52 231.634 51.568 231.272 51.664C230.92 51.7493 230.514 51.92 230.056 52.176L229.512 51.152ZM233.784 54.528L232.6 54.56C231.8 54.5813 231.229 54.7253 230.888 54.992C230.557 55.248 230.392 55.5627 230.392 55.936C230.392 56.16 230.429 56.352 230.504 56.512C230.578 56.6613 230.674 56.7787 230.792 56.864C230.92 56.9493 231.064 57.0133 231.224 57.056C231.394 57.088 231.57 57.104 231.752 57.104C232.104 57.104 232.461 57.024 232.824 56.864C233.186 56.6933 233.506 56.4267 233.784 56.064V54.528ZM238.668 58H237.26V50.48H238.348L238.556 51.52C238.908 51.168 239.287 50.8907 239.692 50.688C240.097 50.4747 240.583 50.368 241.148 50.368C241.681 50.368 242.119 50.48 242.46 50.704C242.801 50.9173 243.057 51.216 243.228 51.6C243.601 51.2053 244.012 50.9013 244.46 50.688C244.908 50.4747 245.404 50.368 245.948 50.368C246.716 50.368 247.292 50.5867 247.676 51.024C248.071 51.4507 248.268 52.048 248.268 52.816V58H246.86V53.072C246.86 52.5707 246.753 52.1867 246.54 51.92C246.327 51.6533 245.975 51.52 245.484 51.52C244.759 51.52 244.081 51.8453 243.452 52.496C243.463 52.5493 243.468 52.6027 243.468 52.656C243.468 52.7093 243.468 52.7627 243.468 52.816V58H242.06V53.072C242.06 52.5707 241.953 52.1867 241.74 51.92C241.527 51.6533 241.175 51.52 240.684 51.52C239.959 51.52 239.287 51.8613 238.668 52.544V58ZM250.223 57.136C250.223 56.8587 250.319 56.624 250.511 56.432C250.703 56.24 250.933 56.144 251.199 56.144C251.466 56.144 251.69 56.24 251.871 56.432C252.063 56.624 252.159 56.8587 252.159 57.136C252.159 57.4453 252.063 57.6907 251.871 57.872C251.69 58.0533 251.466 58.144 251.199 58.144C250.933 58.144 250.703 58.0533 250.511 57.872C250.319 57.6907 250.223 57.4453 250.223 57.136ZM257.39 57.056C257.732 57.056 258.03 57.0187 258.286 56.944C258.542 56.8693 258.793 56.7733 259.038 56.656L259.342 57.712C258.766 58 258.078 58.144 257.278 58.144C256.734 58.144 256.222 58.064 255.742 57.904C255.273 57.744 254.857 57.504 254.494 57.184C254.142 56.8533 253.865 56.448 253.662 55.968C253.46 55.4773 253.358 54.9067 253.358 54.256C253.358 53.6587 253.454 53.12 253.646 52.64C253.838 52.16 254.105 51.7547 254.446 51.424C254.788 51.0827 255.198 50.8213 255.678 50.64C256.158 50.4587 256.686 50.368 257.262 50.368C257.593 50.368 257.913 50.3947 258.222 50.448C258.542 50.4907 258.905 50.6027 259.31 50.784L258.99 51.856C258.5 51.5787 257.972 51.44 257.406 51.44C256.628 51.44 255.998 51.6853 255.518 52.176C255.038 52.656 254.798 53.3333 254.798 54.208C254.798 54.752 254.873 55.2053 255.022 55.568C255.172 55.9307 255.369 56.224 255.614 56.448C255.86 56.6613 256.137 56.816 256.446 56.912C256.756 57.008 257.07 57.056 257.39 57.056ZM267.312 54.16C267.312 54.7893 267.216 55.3547 267.024 55.856C266.832 56.3467 266.565 56.7627 266.224 57.104C265.893 57.4453 265.504 57.7067 265.056 57.888C264.608 58.0587 264.123 58.144 263.6 58.144C263.077 58.144 262.592 58.064 262.144 57.904C261.707 57.7333 261.323 57.488 260.992 57.168C260.672 56.8373 260.416 56.4373 260.224 55.968C260.043 55.488 259.952 54.9387 259.952 54.32C259.952 53.6907 260.048 53.1307 260.24 52.64C260.432 52.1493 260.693 51.7387 261.024 51.408C261.365 51.0667 261.76 50.8107 262.208 50.64C262.656 50.4587 263.141 50.368 263.664 50.368C264.187 50.368 264.667 50.448 265.104 50.608C265.552 50.768 265.936 51.008 266.256 51.328C266.587 51.648 266.843 52.048 267.024 52.528C267.216 52.9973 267.312 53.5413 267.312 54.16ZM265.84 54.24C265.84 53.7387 265.776 53.312 265.648 52.96C265.52 52.608 265.349 52.32 265.136 52.096C264.933 51.872 264.699 51.712 264.432 51.616C264.165 51.5093 263.893 51.456 263.616 51.456C263.339 51.456 263.067 51.4987 262.8 51.584C262.533 51.6693 262.299 51.8187 262.096 52.032C261.893 52.2453 261.728 52.5333 261.6 52.896C261.483 53.248 261.424 53.696 261.424 54.24C261.424 54.7413 261.488 55.1733 261.616 55.536C261.744 55.888 261.909 56.176 262.112 56.4C262.325 56.624 262.565 56.7893 262.832 56.896C263.099 57.0027 263.371 57.056 263.648 57.056C263.925 57.056 264.197 57.0133 264.464 56.928C264.731 56.832 264.965 56.6773 265.168 56.464C265.371 56.24 265.531 55.952 265.648 55.6C265.776 55.2373 265.84 54.784 265.84 54.24ZM270.434 58H269.026V50.48H270.114L270.322 51.52C270.674 51.168 271.052 50.8907 271.458 50.688C271.863 50.4747 272.348 50.368 272.914 50.368C273.447 50.368 273.884 50.48 274.226 50.704C274.567 50.9173 274.823 51.216 274.994 51.6C275.367 51.2053 275.778 50.9013 276.226 50.688C276.674 50.4747 277.17 50.368 277.714 50.368C278.482 50.368 279.058 50.5867 279.442 51.024C279.836 51.4507 280.034 52.048 280.034 52.816V58H278.626V53.072C278.626 52.5707 278.519 52.1867 278.306 51.92C278.092 51.6533 277.74 51.52 277.25 51.52C276.524 51.52 275.847 51.8453 275.218 52.496C275.228 52.5493 275.234 52.6027 275.234 52.656C275.234 52.7093 275.234 52.7627 275.234 52.816V58H273.826V53.072C273.826 52.5707 273.719 52.1867 273.506 51.92C273.292 51.6533 272.94 51.52 272.45 51.52C271.724 51.52 271.052 51.8613 270.434 52.544V58ZM281.109 59.744L285.973 46H287.173L282.309 59.744H281.109ZM293.205 46.64H294.613V58H293.429L293.253 57.168H293.205C292.874 57.5093 292.538 57.76 292.197 57.92C291.866 58.0693 291.445 58.144 290.933 58.144C290.528 58.144 290.133 58.064 289.749 57.904C289.376 57.744 289.04 57.504 288.741 57.184C288.442 56.864 288.202 56.464 288.021 55.984C287.84 55.4933 287.749 54.9173 287.749 54.256C287.749 53.6693 287.824 53.136 287.973 52.656C288.133 52.176 288.357 51.7653 288.645 51.424C288.933 51.0827 289.285 50.8213 289.701 50.64C290.117 50.4587 290.592 50.368 291.125 50.368C291.52 50.368 291.893 50.432 292.245 50.56C292.608 50.6773 292.928 50.8587 293.205 51.104V46.64ZM293.205 52.288C292.704 51.7227 292.112 51.44 291.429 51.44C291.141 51.44 290.858 51.4933 290.581 51.6C290.314 51.696 290.074 51.856 289.861 52.08C289.658 52.304 289.493 52.592 289.365 52.944C289.237 53.296 289.173 53.7173 289.173 54.208C289.173 54.72 289.232 55.1573 289.349 55.52C289.466 55.872 289.621 56.1653 289.813 56.4C290.016 56.624 290.24 56.7893 290.485 56.896C290.741 57.0027 290.997 57.056 291.253 57.056C292.053 57.056 292.704 56.7093 293.205 56.016V52.288ZM296.871 51.152C297.127 51.024 297.367 50.912 297.591 50.816C297.815 50.7093 298.039 50.624 298.263 50.56C298.487 50.496 298.716 50.448 298.951 50.416C299.186 50.384 299.442 50.368 299.719 50.368C300.135 50.368 300.514 50.416 300.855 50.512C301.207 50.5973 301.506 50.7467 301.751 50.96C302.007 51.1733 302.204 51.456 302.343 51.808C302.482 52.1493 302.551 52.5813 302.551 53.104V58H301.383L301.207 57.168H301.175C300.844 57.52 300.482 57.7707 300.087 57.92C299.692 58.0693 299.255 58.144 298.775 58.144C298.412 58.144 298.076 58.096 297.767 58C297.468 57.8933 297.207 57.7493 296.983 57.568C296.759 57.376 296.583 57.1467 296.455 56.88C296.338 56.6133 296.279 56.3147 296.279 55.984C296.279 55.1947 296.588 54.5973 297.207 54.192C297.836 53.776 298.663 53.568 299.687 53.568H301.127V52.928C301.127 52.384 300.988 52.016 300.711 51.824C300.434 51.6213 300.06 51.52 299.591 51.52C299.314 51.52 298.994 51.568 298.631 51.664C298.279 51.7493 297.874 51.92 297.415 52.176L296.871 51.152ZM301.143 54.528L299.959 54.56C299.159 54.5813 298.588 54.7253 298.247 54.992C297.916 55.248 297.751 55.5627 297.751 55.936C297.751 56.16 297.788 56.352 297.863 56.512C297.938 56.6613 298.034 56.7787 298.151 56.864C298.279 56.9493 298.423 57.0133 298.583 57.056C298.754 57.088 298.93 57.104 299.111 57.104C299.463 57.104 299.82 57.024 300.183 56.864C300.546 56.6933 300.866 56.4267 301.143 56.064V54.528ZM309.165 50.48H310.669L307.869 58H306.493L303.661 50.48H305.181L306.877 55.648L307.165 56.832H307.229L307.501 55.664L309.165 50.48ZM312.171 58V50.48H313.579V58H312.171ZM312.875 48.544C312.63 48.544 312.417 48.464 312.235 48.304C312.065 48.1333 311.979 47.9253 311.979 47.68C311.979 47.4347 312.065 47.2267 312.235 47.056C312.417 46.8853 312.63 46.8 312.875 46.8C313.11 46.8 313.318 46.8853 313.499 47.056C313.681 47.2267 313.771 47.4347 313.771 47.68C313.771 47.9253 313.681 48.1333 313.499 48.304C313.318 48.464 313.11 48.544 312.875 48.544ZM320.877 46.64H322.285V58H321.101L320.925 57.168H320.877C320.546 57.5093 320.21 57.76 319.869 57.92C319.538 58.0693 319.117 58.144 318.605 58.144C318.2 58.144 317.805 58.064 317.421 57.904C317.048 57.744 316.712 57.504 316.413 57.184C316.114 56.864 315.874 56.464 315.693 55.984C315.512 55.4933 315.421 54.9173 315.421 54.256C315.421 53.6693 315.496 53.136 315.645 52.656C315.805 52.176 316.029 51.7653 316.317 51.424C316.605 51.0827 316.957 50.8213 317.373 50.64C317.789 50.4587 318.264 50.368 318.797 50.368C319.192 50.368 319.565 50.432 319.917 50.56C320.28 50.6773 320.6 50.8587 320.877 51.104V46.64ZM320.877 52.288C320.376 51.7227 319.784 51.44 319.101 51.44C318.813 51.44 318.53 51.4933 318.253 51.6C317.986 51.696 317.746 51.856 317.533 52.08C317.33 52.304 317.165 52.592 317.037 52.944C316.909 53.296 316.845 53.7173 316.845 54.208C316.845 54.72 316.904 55.1573 317.021 55.52C317.138 55.872 317.293 56.1653 317.485 56.4C317.688 56.624 317.912 56.7893 318.157 56.896C318.413 57.0027 318.669 57.056 318.925 57.056C319.725 57.056 320.376 56.7093 320.877 56.016V52.288ZM331.359 54.16C331.359 54.7893 331.263 55.3547 331.071 55.856C330.879 56.3467 330.612 56.7627 330.271 57.104C329.94 57.4453 329.551 57.7067 329.103 57.888C328.655 58.0587 328.17 58.144 327.647 58.144C327.124 58.144 326.639 58.064 326.191 57.904C325.754 57.7333 325.37 57.488 325.039 57.168C324.719 56.8373 324.463 56.4373 324.271 55.968C324.09 55.488 323.999 54.9387 323.999 54.32C323.999 53.6907 324.095 53.1307 324.287 52.64C324.479 52.1493 324.74 51.7387 325.071 51.408C325.412 51.0667 325.807 50.8107 326.255 50.64C326.703 50.4587 327.188 50.368 327.711 50.368C328.234 50.368 328.714 50.448 329.151 50.608C329.599 50.768 329.983 51.008 330.303 51.328C330.634 51.648 330.89 52.048 331.071 52.528C331.263 52.9973 331.359 53.5413 331.359 54.16ZM329.887 54.24C329.887 53.7387 329.823 53.312 329.695 52.96C329.567 52.608 329.396 52.32 329.183 52.096C328.98 51.872 328.746 51.712 328.479 51.616C328.212 51.5093 327.94 51.456 327.663 51.456C327.386 51.456 327.114 51.4987 326.847 51.584C326.58 51.6693 326.346 51.8187 326.143 52.032C325.94 52.2453 325.775 52.5333 325.647 52.896C325.53 53.248 325.471 53.696 325.471 54.24C325.471 54.7413 325.535 55.1733 325.663 55.536C325.791 55.888 325.956 56.176 326.159 56.4C326.372 56.624 326.612 56.7893 326.879 56.896C327.146 57.0027 327.418 57.056 327.695 57.056C327.972 57.056 328.244 57.0133 328.511 56.928C328.778 56.832 329.012 56.6773 329.215 56.464C329.418 56.24 329.578 55.952 329.695 55.6C329.823 55.2373 329.887 54.784 329.887 54.24ZM337.296 51.888C336.944 51.7173 336.624 51.6 336.336 51.536C336.048 51.472 335.76 51.44 335.472 51.44C334.96 51.44 334.582 51.536 334.336 51.728C334.091 51.9093 333.968 52.1547 333.968 52.464C333.968 52.688 334.054 52.8853 334.224 53.056C334.395 53.216 334.752 53.376 335.296 53.536L335.776 53.68C336.491 53.8933 337.03 54.1707 337.392 54.512C337.766 54.8427 337.952 55.296 337.952 55.872C337.952 56.5547 337.696 57.104 337.184 57.52C336.683 57.936 335.979 58.144 335.072 58.144C334.592 58.144 334.128 58.1013 333.68 58.016C333.243 57.9307 332.864 57.8133 332.544 57.664L332.88 56.56C333.19 56.7093 333.526 56.832 333.888 56.928C334.251 57.0133 334.619 57.056 334.992 57.056C335.472 57.056 335.851 56.9707 336.128 56.8C336.416 56.6293 336.56 56.3467 336.56 55.952C336.56 55.6107 336.438 55.3707 336.192 55.232C335.947 55.0827 335.595 54.9387 335.136 54.8L334.64 54.64C333.947 54.416 333.43 54.1387 333.088 53.808C332.758 53.4667 332.592 53.0293 332.592 52.496C332.592 52.176 332.662 51.8827 332.8 51.616C332.939 51.3493 333.126 51.1253 333.36 50.944C333.606 50.7627 333.894 50.624 334.224 50.528C334.555 50.4213 334.918 50.368 335.312 50.368C335.686 50.368 336.07 50.4053 336.464 50.48C336.87 50.544 337.254 50.656 337.616 50.816L337.296 51.888ZM341.012 58H339.604V46.64H341.012V51.44C341.364 51.1307 341.753 50.8747 342.18 50.672C342.607 50.4693 343.076 50.368 343.588 50.368C344.004 50.368 344.367 50.432 344.676 50.56C344.985 50.6773 345.236 50.848 345.428 51.072C345.631 51.2853 345.78 51.5413 345.876 51.84C345.983 52.1387 346.036 52.464 346.036 52.816V58H344.628V53.168C344.628 52.592 344.511 52.176 344.276 51.92C344.041 51.6533 343.684 51.52 343.204 51.52C342.841 51.52 342.473 51.6107 342.1 51.792C341.737 51.9733 341.375 52.2293 341.012 52.56V58Z" fill="black"/>
<path d="M24.2515 40.3833H24.2331M33.7665 40.3833H33.7481M24.0681 49H24.0498M33.7665 49H33.7481M24.2515 57.6166H24.2331M33.7665 57.6166H33.7481" stroke="black" stroke-width="2.6" stroke-linecap="round"/>
<path d="M419.281 45.2498H417.969C417.795 45.2498 417.628 45.1807 417.505 45.0576C417.382 44.9346 417.312 44.7676 417.312 44.5936C417.312 44.4195 417.382 44.2526 417.505 44.1296C417.628 44.0065 417.795 43.9373 417.969 43.9373H423.219V41.9673C423.219 41.7932 423.288 41.6263 423.411 41.5032C423.534 41.3802 423.701 41.311 423.875 41.311H429.125C429.299 41.311 429.466 41.3802 429.589 41.5032C429.712 41.6263 429.781 41.7932 429.781 41.9673V43.9373H435.031C435.205 43.9373 435.372 44.0065 435.495 44.1296C435.618 44.2526 435.688 44.4195 435.688 44.5936C435.688 44.7676 435.618 44.9346 435.495 45.0576C435.372 45.1807 435.205 45.2498 435.031 45.2498H433.719V59.0311C433.719 59.2051 433.65 59.3721 433.527 59.4951C433.403 59.6182 433.237 59.6873 433.062 59.6873H419.938C419.763 59.6873 419.597 59.6182 419.473 59.4951C419.35 59.3721 419.281 59.2051 419.281 59.0311V45.2498ZM428.469 43.9373V42.6248H424.531V43.9373H428.469ZM420.594 58.3748H432.406V45.2498H420.594V58.3748ZM424.531 55.7498C424.357 55.7498 424.19 55.6807 424.067 55.5576C423.944 55.4346 423.875 55.2676 423.875 55.0936V48.5311C423.875 48.357 423.944 48.1901 424.067 48.0671C424.19 47.944 424.357 47.8748 424.531 47.8748C424.705 47.8748 424.872 47.944 424.995 48.0671C425.118 48.1901 425.188 48.357 425.188 48.5311V55.0936C425.188 55.2676 425.118 55.4346 424.995 55.5576C424.872 55.6807 424.705 55.7498 424.531 55.7498ZM428.469 55.7498C428.295 55.7498 428.128 55.6807 428.005 55.5576C427.882 55.4346 427.812 55.2676 427.812 55.0936V48.5311C427.812 48.357 427.882 48.1901 428.005 48.0671C428.128 47.944 428.295 47.8748 428.469 47.8748C428.643 47.8748 428.81 47.944 428.933 48.0671C429.056 48.1901 429.125 48.357 429.125 48.5311V55.0936C429.125 55.2676 429.056 55.4346 428.933 55.5576C428.81 55.6807 428.643 55.7498 428.469 55.7498Z" fill="black"/>
<path d="M97.75 73.25H107.5C108.097 73.25 108.669 73.4871 109.091 73.909C109.513 74.331 109.75 74.9033 109.75 75.5V85.25C109.75 85.8467 109.513 86.419 109.091 86.841C108.669 87.2629 108.097 87.5 107.5 87.5H97.75C97.1533 87.5 96.581 87.2629 96.159 86.841C95.7371 86.419 95.5 85.8467 95.5 85.25V75.5C95.5 74.9033 95.7371 74.331 96.159 73.909C96.581 73.4871 97.1533 73.25 97.75 73.25ZM97.75 74C97.3522 74 96.9706 74.158 96.6893 74.4393C96.408 74.7206 96.25 75.1022 96.25 75.5V84.1925L99.4675 80.9675L101.342 82.8425L105.092 79.0925L109 83V75.5C109 75.1022 108.842 74.7206 108.561 74.4393C108.279 74.158 107.898 74 107.5 74H97.75ZM101.342 83.9075L99.4675 82.0325L96.25 85.25C96.25 85.6478 96.408 86.0294 96.6893 86.3107C96.9706 86.592 97.3522 86.75 97.75 86.75H107.5C107.898 86.75 108.279 86.592 108.561 86.3107C108.842 86.0294 109 85.6478 109 85.25V84.0575L105.092 80.1575L101.342 83.9075ZM99.625 75.5C100.122 75.5 100.599 75.6975 100.951 76.0492C101.302 76.4008 101.5 76.8777 101.5 77.375C101.5 77.8723 101.302 78.3492 100.951 78.7008C100.599 79.0525 100.122 79.25 99.625 79.25C99.1277 79.25 98.6508 79.0525 98.2992 78.7008C97.9475 78.3492 97.75 77.8723 97.75 77.375C97.75 76.8777 97.9475 76.4008 98.2992 76.0492C98.6508 75.6975 99.1277 75.5 99.625 75.5ZM99.625 76.25C99.3266 76.25 99.0405 76.3685 98.8295 76.5795C98.6185 76.7905 98.5 77.0766 98.5 77.375C98.5 77.6734 98.6185 77.9595 98.8295 78.1705C99.0405 78.3815 99.3266 78.5 99.625 78.5C99.9234 78.5 100.21 78.3815 100.42 78.1705C100.631 77.9595 100.75 77.6734 100.75 77.375C100.75 77.0766 100.631 76.7905 100.42 76.5795C100.21 76.3685 99.9234 76.25 99.625 76.25Z" fill="black"/>
<path d="M172.125 29.7733V31.4169C172.125 31.5384 172.173 31.655 172.259 31.7409C172.345 31.8269 172.462 31.8752 172.583 31.8752H174.227C174.348 31.8752 174.465 31.827 174.55 31.7414L182.342 23.9497L180.05 21.658L172.259 29.4497C172.173 29.5356 172.125 29.6519 172.125 29.7733ZM181.832 19.876L184.124 22.1677L185.227 21.0649C185.399 20.893 185.495 20.6599 185.495 20.4169C185.495 20.1738 185.399 19.9407 185.227 19.7688L184.231 18.7733C184.06 18.6014 183.826 18.5049 183.583 18.5049C183.34 18.5049 183.107 18.6014 182.935 18.7733L181.832 19.876Z" stroke="black"/>
<path d="M355.125 54.7733V56.4169C355.125 56.5384 355.173 56.655 355.259 56.7409C355.345 56.8269 355.462 56.8752 355.583 56.8752H357.227C357.348 56.8752 357.465 56.827 357.55 56.7414L365.342 48.9497L363.05 46.658L355.259 54.4497C355.173 54.5356 355.125 54.6519 355.125 54.7733ZM364.832 44.876L367.124 47.1677L368.227 46.0649C368.399 45.893 368.495 45.6599 368.495 45.4169C368.495 45.1738 368.399 44.9407 368.227 44.7688L367.231 43.7733C367.06 43.6014 366.826 43.5049 366.583 43.5049C366.34 43.5049 366.107 43.6014 365.935 43.7733L364.832 44.876Z" stroke="black"/>
<path d="M66 56C67.8565 56 69.637 55.2625 70.9497 53.9497C72.2625 52.637 73 50.8565 73 49C73 47.1435 72.2625 45.363 70.9497 44.0503C69.637 42.7375 67.8565 42 66 42C64.1435 42 62.363 42.7375 61.0503 44.0503C59.7375 45.363 59 47.1435 59 49C59 50.8565 59.7375 52.637 61.0503 53.9497C62.363 55.2625 64.1435 56 66 56Z" stroke="black" stroke-width="1.5" stroke-linecap="round" stroke-linejoin="round"/>
<path d="M50.25 56V42C50.25 39.6794 51.1719 37.4538 52.8128 35.8128C54.4538 34.1719 56.6794 33.25 59 33.25H73C75.3206 33.25 77.5462 34.1719 79.1872 35.8128C80.8281 37.4538 81.75 39.6794 81.75 42V56C81.75 58.3206 80.8281 60.5462 79.1872 62.1872C77.5462 63.8281 75.3206 64.75 73 64.75H59C56.6794 64.75 54.4538 63.8281 52.8128 62.1872C51.1719 60.5462 50.25 58.3206 50.25 56Z" stroke="black" stroke-width="1.5"/>
<path d="M75.625 39.3923L75.6425 39.373" stroke="black" stroke-width="1.5" stroke-linecap="round" stroke-linejoin="round"/>
<defs>
<linearGradient id="paint0_linear_2041_2655" x1="2" y1="48.5" x2="483" y2="48.5" gradientUnits="userSpaceOnUse">
<stop stop-color="#7E4FF3"/>
<stop offset="1" stop-color="#FB8E8E"/>
</linearGradient>
</defs>
</svg>
