<svg width="432" height="97" viewBox="0 0 432 97" fill="none" xmlns="http://www.w3.org/2000/svg">
<rect x="1" y="1" width="430" height="95" rx="11" fill="#ECECED"/>
<rect x="1" y="1" width="430" height="95" rx="11" stroke="url(#paint0_linear_2041_2682)" stroke-width="2"/>
<path d="M98.368 21.744C99.0187 21.744 99.5947 21.808 100.096 21.936C100.597 22.064 101.045 22.2293 101.44 22.432L100.944 24.064C100.507 23.8507 100.085 23.6907 99.68 23.584C99.2747 23.4667 98.88 23.408 98.496 23.408C97.984 23.408 97.584 23.5093 97.296 23.712C97.0187 23.9147 96.88 24.1867 96.88 24.528C96.88 24.88 97.0027 25.1467 97.248 25.328C97.4933 25.5093 97.888 25.6853 98.432 25.856L99.392 26.16C100.192 26.4267 100.816 26.8053 101.264 27.296C101.723 27.7867 101.952 28.3893 101.952 29.104C101.952 29.5307 101.872 29.9307 101.712 30.304C101.552 30.6773 101.312 31.0027 100.992 31.28C100.672 31.5573 100.272 31.776 99.792 31.936C99.312 32.096 98.752 32.176 98.112 32.176C96.9067 32.176 95.8027 31.9307 94.8 31.44L95.296 29.808C95.7547 30.032 96.2027 30.208 96.64 30.336C97.0773 30.4533 97.536 30.512 98.016 30.512C98.5813 30.512 99.008 30.4107 99.296 30.208C99.584 29.9947 99.728 29.7013 99.728 29.328C99.728 29.2 99.7013 29.0773 99.648 28.96C99.6053 28.832 99.52 28.7147 99.392 28.608C99.264 28.4907 99.088 28.3787 98.864 28.272C98.6507 28.1547 98.368 28.0427 98.016 27.936L97.168 27.648C96.7947 27.52 96.4533 27.3707 96.144 27.2C95.8347 27.0293 95.568 26.832 95.344 26.608C95.1307 26.384 94.96 26.1227 94.832 25.824C94.7147 25.5147 94.656 25.1573 94.656 24.752C94.656 24.3147 94.736 23.9147 94.896 23.552C95.056 23.1787 95.2907 22.8587 95.6 22.592C95.92 22.3253 96.3093 22.1173 96.768 21.968C97.2373 21.8187 97.7707 21.744 98.368 21.744ZM105.666 32H103.538V24.368H105.202L105.458 25.344C105.81 24.9813 106.194 24.704 106.61 24.512C107.037 24.3093 107.506 24.208 108.018 24.208C108.861 24.208 109.506 24.4373 109.954 24.896C110.402 25.3547 110.626 26.0213 110.626 26.896V32H108.498V27.12C108.498 26.7253 108.402 26.416 108.21 26.192C108.018 25.9573 107.735 25.84 107.362 25.84C107.085 25.84 106.791 25.92 106.482 26.08C106.183 26.2293 105.911 26.4373 105.666 26.704V32ZM112.619 25.04C113.078 24.7733 113.563 24.5707 114.075 24.432C114.587 24.2827 115.131 24.208 115.707 24.208C116.166 24.208 116.582 24.2613 116.955 24.368C117.339 24.4747 117.665 24.6453 117.931 24.88C118.209 25.104 118.417 25.3973 118.555 25.76C118.705 26.112 118.779 26.5387 118.779 27.04V32H117.131L116.939 31.216H116.875C116.63 31.5147 116.315 31.7493 115.931 31.92C115.558 32.0907 115.121 32.176 114.619 32.176C114.203 32.176 113.835 32.1173 113.515 32C113.195 31.872 112.923 31.7067 112.699 31.504C112.475 31.2907 112.305 31.04 112.187 30.752C112.081 30.464 112.027 30.1547 112.027 29.824C112.027 29.3867 112.118 29.0133 112.299 28.704C112.491 28.384 112.753 28.1227 113.083 27.92C113.414 27.7173 113.798 27.568 114.235 27.472C114.683 27.376 115.163 27.328 115.675 27.328H116.635V26.864C116.635 26.512 116.523 26.256 116.299 26.096C116.086 25.9253 115.782 25.84 115.387 25.84C115.078 25.84 114.758 25.888 114.427 25.984C114.107 26.08 113.75 26.2347 113.355 26.448L112.619 25.04ZM116.651 28.656L115.963 28.672C115.313 28.6933 114.859 28.8053 114.603 29.008C114.347 29.2 114.219 29.4347 114.219 29.712C114.219 30.0747 114.326 30.3253 114.539 30.464C114.763 30.592 115.014 30.656 115.291 30.656C115.569 30.656 115.83 30.576 116.075 30.416C116.331 30.256 116.523 30.0693 116.651 29.856V28.656ZM124.185 32.176C123.908 32.176 123.63 32.1387 123.353 32.064C123.086 32 122.862 31.9147 122.681 31.808V35.68H120.569V24.336H122.185L122.409 25.184C122.718 24.8853 123.07 24.6507 123.465 24.48C123.86 24.2987 124.302 24.208 124.793 24.208C125.796 24.208 126.585 24.5493 127.161 25.232C127.748 25.904 128.041 26.8373 128.041 28.032C128.041 28.704 127.94 29.3013 127.737 29.824C127.534 30.336 127.257 30.768 126.905 31.12C126.553 31.472 126.142 31.7387 125.673 31.92C125.204 32.0907 124.708 32.176 124.185 32.176ZM124.217 25.808C123.865 25.808 123.556 25.8933 123.289 26.064C123.022 26.224 122.82 26.3893 122.681 26.56V30.208C123.012 30.4747 123.422 30.608 123.913 30.608C124.148 30.608 124.377 30.5653 124.601 30.48C124.836 30.384 125.044 30.24 125.225 30.048C125.417 29.8453 125.566 29.584 125.673 29.264C125.79 28.944 125.849 28.5547 125.849 28.096C125.849 27.7653 125.812 27.4613 125.737 27.184C125.673 26.9067 125.572 26.6667 125.433 26.464C125.294 26.2613 125.124 26.1013 124.921 25.984C124.718 25.8667 124.484 25.808 124.217 25.808ZM133.538 30.608C133.879 30.608 134.178 30.5653 134.434 30.48C134.701 30.384 134.919 30.2933 135.09 30.208L135.49 31.68C135.277 31.7973 134.967 31.9093 134.562 32.016C134.157 32.1227 133.714 32.176 133.234 32.176C132.658 32.176 132.119 32.0907 131.618 31.92C131.117 31.7493 130.679 31.4987 130.306 31.168C129.943 30.8267 129.655 30.4107 129.442 29.92C129.229 29.4293 129.122 28.8587 129.122 28.208C129.122 27.6107 129.223 27.0667 129.426 26.576C129.629 26.0853 129.911 25.664 130.274 25.312C130.637 24.96 131.074 24.688 131.586 24.496C132.098 24.304 132.658 24.208 133.266 24.208C133.597 24.208 133.943 24.24 134.306 24.304C134.679 24.368 135.069 24.5067 135.474 24.72L135.026 26.192C134.802 26.064 134.557 25.9627 134.29 25.888C134.034 25.8027 133.773 25.76 133.506 25.76C132.845 25.76 132.306 25.9627 131.89 26.368C131.485 26.7733 131.282 27.3653 131.282 28.144C131.282 28.6027 131.346 28.992 131.474 29.312C131.613 29.6213 131.789 29.872 132.002 30.064C132.215 30.256 132.455 30.3947 132.722 30.48C132.989 30.5653 133.261 30.608 133.538 30.608ZM139.073 32H136.945V20.576H139.073V25.056C139.382 24.8107 139.734 24.608 140.129 24.448C140.534 24.288 140.972 24.208 141.441 24.208C141.889 24.208 142.278 24.2773 142.609 24.416C142.95 24.544 143.228 24.7307 143.441 24.976C143.665 25.2107 143.83 25.4987 143.937 25.84C144.044 26.1707 144.097 26.5333 144.097 26.928V32H141.969V27.296C141.969 26.7733 141.862 26.4 141.649 26.176C141.436 25.952 141.126 25.84 140.721 25.84C140.444 25.84 140.156 25.9093 139.857 26.048C139.569 26.176 139.308 26.352 139.073 26.576V32ZM146.182 25.04C146.64 24.7733 147.126 24.5707 147.638 24.432C148.15 24.2827 148.694 24.208 149.27 24.208C149.728 24.208 150.144 24.2613 150.518 24.368C150.902 24.4747 151.227 24.6453 151.494 24.88C151.771 25.104 151.979 25.3973 152.118 25.76C152.267 26.112 152.342 26.5387 152.342 27.04V32H150.694L150.502 31.216H150.438C150.192 31.5147 149.878 31.7493 149.494 31.92C149.12 32.0907 148.683 32.176 148.182 32.176C147.766 32.176 147.398 32.1173 147.078 32C146.758 31.872 146.486 31.7067 146.262 31.504C146.038 31.2907 145.867 31.04 145.75 30.752C145.643 30.464 145.59 30.1547 145.59 29.824C145.59 29.3867 145.68 29.0133 145.862 28.704C146.054 28.384 146.315 28.1227 146.646 27.92C146.976 27.7173 147.36 27.568 147.798 27.472C148.246 27.376 148.726 27.328 149.238 27.328H150.198V26.864C150.198 26.512 150.086 26.256 149.862 26.096C149.648 25.9253 149.344 25.84 148.95 25.84C148.64 25.84 148.32 25.888 147.99 25.984C147.67 26.08 147.312 26.2347 146.918 26.448L146.182 25.04ZM150.214 28.656L149.526 28.672C148.875 28.6933 148.422 28.8053 148.166 29.008C147.91 29.2 147.782 29.4347 147.782 29.712C147.782 30.0747 147.888 30.3253 148.102 30.464C148.326 30.592 148.576 30.656 148.854 30.656C149.131 30.656 149.392 30.576 149.638 30.416C149.894 30.256 150.086 30.0693 150.214 29.856V28.656ZM158.864 25.904H156.832V29.424C156.832 29.7867 156.912 30.0373 157.072 30.176C157.242 30.304 157.466 30.368 157.744 30.368C157.957 30.368 158.176 30.3467 158.4 30.304C158.624 30.2613 158.805 30.2027 158.944 30.128L159.264 31.616C159.082 31.7013 158.81 31.7867 158.448 31.872C158.085 31.9573 157.701 32 157.296 32C156.368 32 155.706 31.8187 155.312 31.456C154.917 31.0827 154.72 30.528 154.72 29.792V25.904H153.536V24.368H154.72V22.016H156.832V24.368H158.864V25.904Z" fill="black"/>
<path d="M96.512 58H95.104V46.64H96.512V51.44C96.864 51.1307 97.2533 50.8747 97.68 50.672C98.1067 50.4693 98.576 50.368 99.088 50.368C99.504 50.368 99.8667 50.432 100.176 50.56C100.485 50.6773 100.736 50.848 100.928 51.072C101.131 51.2853 101.28 51.5413 101.376 51.84C101.483 52.1387 101.536 52.464 101.536 52.816V58H100.128V53.168C100.128 52.592 100.011 52.176 99.776 51.92C99.5413 51.6533 99.184 51.52 98.704 51.52C98.3413 51.52 97.9733 51.6107 97.6 51.792C97.2373 51.9733 96.8747 52.2293 96.512 52.56V58ZM107.681 51.536H105.473V55.904C105.473 56.2773 105.563 56.528 105.745 56.656C105.937 56.784 106.182 56.848 106.481 56.848C106.694 56.848 106.929 56.8267 107.185 56.784C107.441 56.7307 107.665 56.672 107.857 56.608L108.081 57.68C107.867 57.7653 107.595 57.84 107.265 57.904C106.934 57.968 106.587 58 106.225 58C105.478 58 104.934 57.84 104.593 57.52C104.251 57.1893 104.081 56.7147 104.081 56.096V51.536H102.961V50.48H104.081V48.08H105.473V50.48H107.681V51.536ZM113.353 51.536H111.145V55.904C111.145 56.2773 111.235 56.528 111.417 56.656C111.609 56.784 111.854 56.848 112.153 56.848C112.366 56.848 112.601 56.8267 112.857 56.784C113.113 56.7307 113.337 56.672 113.529 56.608L113.753 57.68C113.539 57.7653 113.267 57.84 112.937 57.904C112.606 57.968 112.259 58 111.897 58C111.15 58 110.606 57.84 110.265 57.52C109.923 57.1893 109.753 56.7147 109.753 56.096V51.536H108.633V50.48H109.753V48.08H111.145V50.48H113.353V51.536ZM118.349 58.144C118.007 58.144 117.677 58.096 117.357 58C117.047 57.904 116.781 57.776 116.557 57.616V61.68H115.165V50.368H116.333L116.541 51.344C116.829 51.0773 117.154 50.848 117.517 50.656C117.879 50.464 118.306 50.368 118.797 50.368C119.799 50.368 120.589 50.688 121.165 51.328C121.741 51.968 122.029 52.8853 122.029 54.08C122.029 54.784 121.922 55.392 121.709 55.904C121.506 56.416 121.229 56.8373 120.877 57.168C120.535 57.4987 120.141 57.744 119.693 57.904C119.255 58.064 118.807 58.144 118.349 58.144ZM118.493 51.52C118.045 51.52 117.655 51.632 117.325 51.856C116.994 52.0693 116.738 52.288 116.557 52.512V56.528C116.802 56.7093 117.063 56.8427 117.341 56.928C117.618 57.0133 117.895 57.056 118.173 57.056C118.461 57.056 118.749 57.008 119.037 56.912C119.325 56.8053 119.581 56.6347 119.805 56.4C120.029 56.1653 120.21 55.8613 120.349 55.488C120.487 55.1147 120.557 54.656 120.557 54.112C120.557 53.312 120.386 52.6827 120.045 52.224C119.714 51.7547 119.197 51.52 118.493 51.52ZM127.953 51.888C127.601 51.7173 127.281 51.6 126.993 51.536C126.705 51.472 126.417 51.44 126.129 51.44C125.617 51.44 125.238 51.536 124.993 51.728C124.747 51.9093 124.625 52.1547 124.625 52.464C124.625 52.688 124.71 52.8853 124.881 53.056C125.051 53.216 125.409 53.376 125.953 53.536L126.433 53.68C127.147 53.8933 127.686 54.1707 128.049 54.512C128.422 54.8427 128.609 55.296 128.609 55.872C128.609 56.5547 128.353 57.104 127.841 57.52C127.339 57.936 126.635 58.144 125.729 58.144C125.249 58.144 124.785 58.1013 124.337 58.016C123.899 57.9307 123.521 57.8133 123.201 57.664L123.537 56.56C123.846 56.7093 124.182 56.832 124.545 56.928C124.907 57.0133 125.275 57.056 125.649 57.056C126.129 57.056 126.507 56.9707 126.785 56.8C127.073 56.6293 127.217 56.3467 127.217 55.952C127.217 55.6107 127.094 55.3707 126.849 55.232C126.603 55.0827 126.251 54.9387 125.793 54.8L125.297 54.64C124.603 54.416 124.086 54.1387 123.745 53.808C123.414 53.4667 123.249 53.0293 123.249 52.496C123.249 52.176 123.318 51.8827 123.457 51.616C123.595 51.3493 123.782 51.1253 124.017 50.944C124.262 50.7627 124.55 50.624 124.881 50.528C125.211 50.4213 125.574 50.368 125.969 50.368C126.342 50.368 126.726 50.4053 127.121 50.48C127.526 50.544 127.91 50.656 128.273 50.816L127.953 51.888ZM129.972 57.136C129.972 56.8587 130.068 56.624 130.26 56.432C130.452 56.24 130.682 56.144 130.948 56.144C131.215 56.144 131.439 56.24 131.62 56.432C131.812 56.624 131.908 56.8587 131.908 57.136C131.908 57.4453 131.812 57.6907 131.62 57.872C131.439 58.0533 131.215 58.144 130.948 58.144C130.682 58.144 130.452 58.0533 130.26 57.872C130.068 57.6907 129.972 57.4453 129.972 57.136ZM129.972 52.32C129.972 52.0427 130.068 51.808 130.26 51.616C130.452 51.424 130.682 51.328 130.948 51.328C131.215 51.328 131.439 51.424 131.62 51.616C131.812 51.808 131.908 52.0427 131.908 52.32C131.908 52.6293 131.812 52.8747 131.62 53.056C131.439 53.2373 131.215 53.328 130.948 53.328C130.682 53.328 130.452 53.2373 130.26 53.056C130.068 52.8747 129.972 52.6293 129.972 52.32ZM132.703 59.744L137.567 46H138.767L133.903 59.744H132.703ZM138.703 59.744L143.567 46H144.767L139.903 59.744H138.703ZM144.895 50.48H146.399L147.679 55.216L147.967 56.896H148.031L148.383 55.216L149.679 50.48H151.199L152.527 55.216L152.863 56.896H152.927L153.279 55.216L154.527 50.48H155.967L153.679 58H152.079L150.799 53.392L150.431 51.536L150.047 53.392L148.735 58H147.215L144.895 50.48ZM156.285 50.48H157.789L159.069 55.216L159.357 56.896H159.421L159.773 55.216L161.069 50.48H162.589L163.917 55.216L164.253 56.896H164.317L164.669 55.216L165.917 50.48H167.357L165.069 58H163.469L162.189 53.392L161.821 51.536L161.437 53.392L160.125 58H158.605L156.285 50.48ZM167.676 50.48H169.18L170.46 55.216L170.748 56.896H170.812L171.164 55.216L172.46 50.48H173.98L175.308 55.216L175.644 56.896H175.708L176.06 55.216L177.308 50.48H178.748L176.46 58H174.86L173.58 53.392L173.212 51.536L172.828 53.392L171.516 58H169.996L167.676 50.48ZM178.802 57.136C178.802 56.8587 178.898 56.624 179.09 56.432C179.282 56.24 179.511 56.144 179.778 56.144C180.044 56.144 180.268 56.24 180.45 56.432C180.642 56.624 180.738 56.8587 180.738 57.136C180.738 57.4453 180.642 57.6907 180.45 57.872C180.268 58.0533 180.044 58.144 179.778 58.144C179.511 58.144 179.282 58.0533 179.09 57.872C178.898 57.6907 178.802 57.4453 178.802 57.136ZM185.424 47.776C185.915 47.776 186.39 47.8187 186.849 47.904C187.307 47.9787 187.761 48.1227 188.209 48.336L187.857 49.552C187.398 49.3387 186.982 49.1893 186.609 49.104C186.246 49.008 185.873 48.96 185.489 48.96C184.881 48.96 184.401 49.0933 184.049 49.36C183.697 49.6267 183.521 50 183.521 50.48C183.521 50.8853 183.649 51.2107 183.905 51.456C184.171 51.7013 184.603 51.9147 185.201 52.096L186.209 52.416C187.126 52.704 187.771 53.0987 188.145 53.6C188.529 54.0907 188.721 54.6453 188.721 55.264C188.721 55.7013 188.63 56.1013 188.449 56.464C188.278 56.816 188.033 57.12 187.713 57.376C187.403 57.6213 187.035 57.8133 186.609 57.952C186.182 58.08 185.713 58.144 185.201 58.144C184.689 58.144 184.166 58.096 183.633 58C183.11 57.9147 182.587 57.7493 182.065 57.504L182.417 56.304C182.875 56.528 183.323 56.6933 183.761 56.8C184.198 56.9067 184.657 56.96 185.137 56.96C185.713 56.96 186.203 56.8267 186.609 56.56C187.014 56.2933 187.217 55.8987 187.217 55.376C187.217 55.184 187.185 55.008 187.121 54.848C187.067 54.6773 186.966 54.5173 186.817 54.368C186.678 54.2187 186.486 54.08 186.241 53.952C185.995 53.824 185.686 53.7013 185.312 53.584L184.305 53.264C183.569 53.0293 183.003 52.7093 182.609 52.304C182.214 51.8987 182.017 51.3493 182.017 50.656C182.017 49.7707 182.305 49.072 182.881 48.56C183.467 48.0373 184.315 47.776 185.424 47.776ZM191.887 58H190.479V50.48H191.583L191.791 51.52C192.164 51.1467 192.553 50.864 192.959 50.672C193.375 50.4693 193.849 50.368 194.383 50.368C195.151 50.368 195.753 50.5867 196.191 51.024C196.628 51.4507 196.847 52.048 196.847 52.816V58H195.439V53.024C195.439 52.5653 195.316 52.2027 195.071 51.936C194.836 51.6587 194.473 51.52 193.983 51.52C193.236 51.52 192.537 51.856 191.887 52.528V58ZM199.027 51.152C199.283 51.024 199.523 50.912 199.747 50.816C199.971 50.7093 200.195 50.624 200.419 50.56C200.643 50.496 200.873 50.448 201.107 50.416C201.342 50.384 201.598 50.368 201.875 50.368C202.291 50.368 202.67 50.416 203.011 50.512C203.363 50.5973 203.662 50.7467 203.907 50.96C204.163 51.1733 204.361 51.456 204.499 51.808C204.638 52.1493 204.707 52.5813 204.707 53.104V58H203.539L203.363 57.168H203.331C203.001 57.52 202.638 57.7707 202.243 57.92C201.849 58.0693 201.411 58.144 200.931 58.144C200.569 58.144 200.233 58.096 199.923 58C199.625 57.8933 199.363 57.7493 199.139 57.568C198.915 57.376 198.739 57.1467 198.611 56.88C198.494 56.6133 198.435 56.3147 198.435 55.984C198.435 55.1947 198.745 54.5973 199.363 54.192C199.993 53.776 200.819 53.568 201.843 53.568H203.283V52.928C203.283 52.384 203.145 52.016 202.867 51.824C202.59 51.6213 202.217 51.52 201.747 51.52C201.47 51.52 201.15 51.568 200.787 51.664C200.435 51.7493 200.03 51.92 199.571 52.176L199.027 51.152ZM203.299 54.528L202.115 54.56C201.315 54.5813 200.745 54.7253 200.403 54.992C200.073 55.248 199.907 55.5627 199.907 55.936C199.907 56.16 199.945 56.352 200.019 56.512C200.094 56.6613 200.19 56.7787 200.307 56.864C200.435 56.9493 200.579 57.0133 200.739 57.056C200.91 57.088 201.086 57.104 201.267 57.104C201.619 57.104 201.977 57.024 202.339 56.864C202.702 56.6933 203.022 56.4267 203.299 56.064V54.528ZM209.896 58.144C209.554 58.144 209.224 58.096 208.904 58C208.594 57.904 208.328 57.776 208.104 57.616V61.68H206.712V50.368H207.88L208.088 51.344C208.376 51.0773 208.701 50.848 209.064 50.656C209.426 50.464 209.853 50.368 210.344 50.368C211.346 50.368 212.136 50.688 212.712 51.328C213.288 51.968 213.576 52.8853 213.576 54.08C213.576 54.784 213.469 55.392 213.256 55.904C213.053 56.416 212.776 56.8373 212.424 57.168C212.082 57.4987 211.688 57.744 211.24 57.904C210.802 58.064 210.354 58.144 209.896 58.144ZM210.04 51.52C209.592 51.52 209.202 51.632 208.872 51.856C208.541 52.0693 208.285 52.288 208.104 52.512V56.528C208.349 56.7093 208.61 56.8427 208.888 56.928C209.165 57.0133 209.442 57.056 209.72 57.056C210.008 57.056 210.296 57.008 210.584 56.912C210.872 56.8053 211.128 56.6347 211.352 56.4C211.576 56.1653 211.757 55.8613 211.896 55.488C212.034 55.1147 212.104 54.656 212.104 54.112C212.104 53.312 211.933 52.6827 211.592 52.224C211.261 51.7547 210.744 51.52 210.04 51.52ZM218.844 57.056C219.185 57.056 219.484 57.0187 219.74 56.944C219.996 56.8693 220.246 56.7733 220.492 56.656L220.796 57.712C220.22 58 219.532 58.144 218.732 58.144C218.188 58.144 217.676 58.064 217.196 57.904C216.726 57.744 216.31 57.504 215.948 57.184C215.596 56.8533 215.318 56.448 215.116 55.968C214.913 55.4773 214.812 54.9067 214.812 54.256C214.812 53.6587 214.908 53.12 215.1 52.64C215.292 52.16 215.558 51.7547 215.9 51.424C216.241 51.0827 216.652 50.8213 217.132 50.64C217.612 50.4587 218.14 50.368 218.716 50.368C219.046 50.368 219.366 50.3947 219.676 50.448C219.996 50.4907 220.358 50.6027 220.764 50.784L220.444 51.856C219.953 51.5787 219.425 51.44 218.86 51.44C218.081 51.44 217.452 51.6853 216.972 52.176C216.492 52.656 216.252 53.3333 216.252 54.208C216.252 54.752 216.326 55.2053 216.476 55.568C216.625 55.9307 216.822 56.224 217.068 56.448C217.313 56.6613 217.59 56.816 217.9 56.912C218.209 57.008 218.524 57.056 218.844 57.056ZM223.778 58H222.37V46.64H223.778V51.44C224.13 51.1307 224.519 50.8747 224.946 50.672C225.372 50.4693 225.842 50.368 226.354 50.368C226.77 50.368 227.132 50.432 227.442 50.56C227.751 50.6773 228.002 50.848 228.194 51.072C228.396 51.2853 228.546 51.5413 228.642 51.84C228.748 52.1387 228.802 52.464 228.802 52.816V58H227.394V53.168C227.394 52.592 227.276 52.176 227.042 51.92C226.807 51.6533 226.45 51.52 225.97 51.52C225.607 51.52 225.239 51.6107 224.866 51.792C224.503 51.9733 224.14 52.2293 223.778 52.56V58ZM231.074 51.152C231.33 51.024 231.57 50.912 231.794 50.816C232.018 50.7093 232.242 50.624 232.466 50.56C232.69 50.496 232.92 50.448 233.154 50.416C233.389 50.384 233.645 50.368 233.922 50.368C234.338 50.368 234.717 50.416 235.058 50.512C235.41 50.5973 235.709 50.7467 235.954 50.96C236.21 51.1733 236.408 51.456 236.546 51.808C236.685 52.1493 236.754 52.5813 236.754 53.104V58H235.586L235.41 57.168H235.378C235.048 57.52 234.685 57.7707 234.29 57.92C233.896 58.0693 233.458 58.144 232.978 58.144C232.616 58.144 232.28 58.096 231.97 58C231.672 57.8933 231.41 57.7493 231.186 57.568C230.962 57.376 230.786 57.1467 230.658 56.88C230.541 56.6133 230.482 56.3147 230.482 55.984C230.482 55.1947 230.792 54.5973 231.41 54.192C232.04 53.776 232.866 53.568 233.89 53.568H235.33V52.928C235.33 52.384 235.192 52.016 234.914 51.824C234.637 51.6213 234.264 51.52 233.794 51.52C233.517 51.52 233.197 51.568 232.834 51.664C232.482 51.7493 232.077 51.92 231.618 52.176L231.074 51.152ZM235.346 54.528L234.162 54.56C233.362 54.5813 232.792 54.7253 232.45 54.992C232.12 55.248 231.954 55.5627 231.954 55.936C231.954 56.16 231.992 56.352 232.066 56.512C232.141 56.6613 232.237 56.7787 232.354 56.864C232.482 56.9493 232.626 57.0133 232.786 57.056C232.957 57.088 233.133 57.104 233.314 57.104C233.666 57.104 234.024 57.024 234.386 56.864C234.749 56.6933 235.069 56.4267 235.346 56.064V54.528ZM242.853 51.536H240.645V55.904C240.645 56.2773 240.735 56.528 240.917 56.656C241.109 56.784 241.354 56.848 241.653 56.848C241.866 56.848 242.101 56.8267 242.357 56.784C242.613 56.7307 242.837 56.672 243.029 56.608L243.253 57.68C243.039 57.7653 242.767 57.84 242.437 57.904C242.106 57.968 241.759 58 241.397 58C240.65 58 240.106 57.84 239.765 57.52C239.423 57.1893 239.253 56.7147 239.253 56.096V51.536H238.133V50.48H239.253V48.08H240.645V50.48H242.853V51.536ZM244.661 57.136C244.661 56.8587 244.757 56.624 244.949 56.432C245.141 56.24 245.37 56.144 245.637 56.144C245.904 56.144 246.128 56.24 246.309 56.432C246.501 56.624 246.597 56.8587 246.597 57.136C246.597 57.4453 246.501 57.6907 246.309 57.872C246.128 58.0533 245.904 58.144 245.637 58.144C245.37 58.144 245.141 58.0533 244.949 57.872C244.757 57.6907 244.661 57.4453 244.661 57.136ZM251.828 57.056C252.169 57.056 252.468 57.0187 252.724 56.944C252.98 56.8693 253.231 56.7733 253.476 56.656L253.78 57.712C253.204 58 252.516 58.144 251.716 58.144C251.172 58.144 250.66 58.064 250.18 57.904C249.711 57.744 249.295 57.504 248.932 57.184C248.58 56.8533 248.303 56.448 248.1 55.968C247.897 55.4773 247.796 54.9067 247.796 54.256C247.796 53.6587 247.892 53.12 248.084 52.64C248.276 52.16 248.543 51.7547 248.884 51.424C249.225 51.0827 249.636 50.8213 250.116 50.64C250.596 50.4587 251.124 50.368 251.7 50.368C252.031 50.368 252.351 50.3947 252.66 50.448C252.98 50.4907 253.343 50.6027 253.748 50.784L253.428 51.856C252.937 51.5787 252.409 51.44 251.844 51.44C251.065 51.44 250.436 51.6853 249.956 52.176C249.476 52.656 249.236 53.3333 249.236 54.208C249.236 54.752 249.311 55.2053 249.46 55.568C249.609 55.9307 249.807 56.224 250.052 56.448C250.297 56.6613 250.575 56.816 250.884 56.912C251.193 57.008 251.508 57.056 251.828 57.056ZM261.75 54.16C261.75 54.7893 261.654 55.3547 261.462 55.856C261.27 56.3467 261.003 56.7627 260.662 57.104C260.331 57.4453 259.942 57.7067 259.494 57.888C259.046 58.0587 258.56 58.144 258.038 58.144C257.515 58.144 257.03 58.064 256.582 57.904C256.144 57.7333 255.76 57.488 255.43 57.168C255.11 56.8373 254.854 56.4373 254.662 55.968C254.48 55.488 254.39 54.9387 254.39 54.32C254.39 53.6907 254.486 53.1307 254.678 52.64C254.87 52.1493 255.131 51.7387 255.462 51.408C255.803 51.0667 256.198 50.8107 256.646 50.64C257.094 50.4587 257.579 50.368 258.102 50.368C258.624 50.368 259.104 50.448 259.542 50.608C259.99 50.768 260.374 51.008 260.694 51.328C261.024 51.648 261.28 52.048 261.462 52.528C261.654 52.9973 261.75 53.5413 261.75 54.16ZM260.278 54.24C260.278 53.7387 260.214 53.312 260.086 52.96C259.958 52.608 259.787 52.32 259.574 52.096C259.371 51.872 259.136 51.712 258.87 51.616C258.603 51.5093 258.331 51.456 258.054 51.456C257.776 51.456 257.504 51.4987 257.238 51.584C256.971 51.6693 256.736 51.8187 256.534 52.032C256.331 52.2453 256.166 52.5333 256.038 52.896C255.92 53.248 255.862 53.696 255.862 54.24C255.862 54.7413 255.926 55.1733 256.054 55.536C256.182 55.888 256.347 56.176 256.55 56.4C256.763 56.624 257.003 56.7893 257.27 56.896C257.536 57.0027 257.808 57.056 258.086 57.056C258.363 57.056 258.635 57.0133 258.902 56.928C259.168 56.832 259.403 56.6773 259.606 56.464C259.808 56.24 259.968 55.952 260.086 55.6C260.214 55.2373 260.278 54.784 260.278 54.24ZM264.871 58H263.463V50.48H264.551L264.759 51.52C265.111 51.168 265.49 50.8907 265.895 50.688C266.3 50.4747 266.786 50.368 267.351 50.368C267.884 50.368 268.322 50.48 268.663 50.704C269.004 50.9173 269.26 51.216 269.431 51.6C269.804 51.2053 270.215 50.9013 270.663 50.688C271.111 50.4747 271.607 50.368 272.151 50.368C272.919 50.368 273.495 50.5867 273.879 51.024C274.274 51.4507 274.471 52.048 274.471 52.816V58H273.063V53.072C273.063 52.5707 272.956 52.1867 272.743 51.92C272.53 51.6533 272.178 51.52 271.687 51.52C270.962 51.52 270.284 51.8453 269.655 52.496C269.666 52.5493 269.671 52.6027 269.671 52.656C269.671 52.7093 269.671 52.7627 269.671 52.816V58H268.263V53.072C268.263 52.5707 268.156 52.1867 267.943 51.92C267.73 51.6533 267.378 51.52 266.887 51.52C266.162 51.52 265.49 51.8613 264.871 52.544V58ZM275.546 59.744L280.411 46H281.611L276.747 59.744H275.546ZM287.643 46.64H289.051V58H287.867L287.691 57.168H287.643C287.312 57.5093 286.976 57.76 286.635 57.92C286.304 58.0693 285.883 58.144 285.371 58.144C284.965 58.144 284.571 58.064 284.187 57.904C283.813 57.744 283.477 57.504 283.179 57.184C282.88 56.864 282.64 56.464 282.459 55.984C282.277 55.4933 282.187 54.9173 282.187 54.256C282.187 53.6693 282.261 53.136 282.411 52.656C282.571 52.176 282.795 51.7653 283.083 51.424C283.371 51.0827 283.723 50.8213 284.139 50.64C284.555 50.4587 285.029 50.368 285.562 50.368C285.957 50.368 286.331 50.432 286.683 50.56C287.045 50.6773 287.365 50.8587 287.643 51.104V46.64ZM287.643 52.288C287.141 51.7227 286.549 51.44 285.867 51.44C285.579 51.44 285.296 51.4933 285.019 51.6C284.752 51.696 284.512 51.856 284.299 52.08C284.096 52.304 283.931 52.592 283.803 52.944C283.675 53.296 283.611 53.7173 283.611 54.208C283.611 54.72 283.669 55.1573 283.787 55.52C283.904 55.872 284.059 56.1653 284.251 56.4C284.453 56.624 284.677 56.7893 284.923 56.896C285.179 57.0027 285.435 57.056 285.691 57.056C286.491 57.056 287.141 56.7093 287.643 56.016V52.288ZM291.309 51.152C291.565 51.024 291.805 50.912 292.029 50.816C292.253 50.7093 292.477 50.624 292.701 50.56C292.925 50.496 293.154 50.448 293.389 50.416C293.623 50.384 293.879 50.368 294.157 50.368C294.573 50.368 294.951 50.416 295.293 50.512C295.645 50.5973 295.943 50.7467 296.189 50.96C296.445 51.1733 296.642 51.456 296.781 51.808C296.919 52.1493 296.989 52.5813 296.989 53.104V58H295.821L295.645 57.168H295.613C295.282 57.52 294.919 57.7707 294.525 57.92C294.13 58.0693 293.693 58.144 293.213 58.144C292.85 58.144 292.514 58.096 292.205 58C291.906 57.8933 291.645 57.7493 291.421 57.568C291.197 57.376 291.021 57.1467 290.893 56.88C290.775 56.6133 290.717 56.3147 290.717 55.984C290.717 55.1947 291.026 54.5973 291.645 54.192C292.274 53.776 293.101 53.568 294.125 53.568H295.565V52.928C295.565 52.384 295.426 52.016 295.149 51.824C294.871 51.6213 294.498 51.52 294.029 51.52C293.751 51.52 293.431 51.568 293.069 51.664C292.717 51.7493 292.311 51.92 291.853 52.176L291.309 51.152ZM295.581 54.528L294.397 54.56C293.597 54.5813 293.026 54.7253 292.685 54.992C292.354 55.248 292.189 55.5627 292.189 55.936C292.189 56.16 292.226 56.352 292.301 56.512C292.375 56.6613 292.471 56.7787 292.589 56.864C292.717 56.9493 292.861 57.0133 293.021 57.056C293.191 57.088 293.367 57.104 293.549 57.104C293.901 57.104 294.258 57.024 294.621 56.864C294.983 56.6933 295.303 56.4267 295.581 56.064V54.528ZM303.603 50.48H305.107L302.307 58H300.931L298.099 50.48H299.619L301.315 55.648L301.603 56.832H301.667L301.939 55.664L303.603 50.48ZM306.609 58V50.48H308.017V58H306.609ZM307.313 48.544C307.068 48.544 306.854 48.464 306.673 48.304C306.502 48.1333 306.417 47.9253 306.417 47.68C306.417 47.4347 306.502 47.2267 306.673 47.056C306.854 46.8853 307.068 46.8 307.313 46.8C307.548 46.8 307.756 46.8853 307.937 47.056C308.118 47.2267 308.209 47.4347 308.209 47.68C308.209 47.9253 308.118 48.1333 307.937 48.304C307.756 48.464 307.548 48.544 307.313 48.544ZM315.314 46.64H316.722V58H315.538L315.362 57.168H315.314C314.984 57.5093 314.648 57.76 314.306 57.92C313.976 58.0693 313.554 58.144 313.042 58.144C312.637 58.144 312.242 58.064 311.858 57.904C311.485 57.744 311.149 57.504 310.85 57.184C310.552 56.864 310.312 56.464 310.13 55.984C309.949 55.4933 309.858 54.9173 309.858 54.256C309.858 53.6693 309.933 53.136 310.082 52.656C310.242 52.176 310.466 51.7653 310.754 51.424C311.042 51.0827 311.394 50.8213 311.81 50.64C312.226 50.4587 312.701 50.368 313.234 50.368C313.629 50.368 314.002 50.432 314.354 50.56C314.717 50.6773 315.037 50.8587 315.314 51.104V46.64ZM315.314 52.288C314.813 51.7227 314.221 51.44 313.538 51.44C313.25 51.44 312.968 51.4933 312.69 51.6C312.424 51.696 312.184 51.856 311.97 52.08C311.768 52.304 311.602 52.592 311.474 52.944C311.346 53.296 311.282 53.7173 311.282 54.208C311.282 54.72 311.341 55.1573 311.458 55.52C311.576 55.872 311.73 56.1653 311.922 56.4C312.125 56.624 312.349 56.7893 312.594 56.896C312.85 57.0027 313.106 57.056 313.362 57.056C314.162 57.056 314.813 56.7093 315.314 56.016V52.288ZM325.797 54.16C325.797 54.7893 325.701 55.3547 325.509 55.856C325.317 56.3467 325.05 56.7627 324.709 57.104C324.378 57.4453 323.989 57.7067 323.541 57.888C323.093 58.0587 322.607 58.144 322.085 58.144C321.562 58.144 321.077 58.064 320.629 57.904C320.191 57.7333 319.807 57.488 319.477 57.168C319.157 56.8373 318.901 56.4373 318.709 55.968C318.527 55.488 318.437 54.9387 318.437 54.32C318.437 53.6907 318.533 53.1307 318.725 52.64C318.917 52.1493 319.178 51.7387 319.509 51.408C319.85 51.0667 320.245 50.8107 320.693 50.64C321.141 50.4587 321.626 50.368 322.149 50.368C322.671 50.368 323.151 50.448 323.589 50.608C324.037 50.768 324.421 51.008 324.741 51.328C325.071 51.648 325.327 52.048 325.509 52.528C325.701 52.9973 325.797 53.5413 325.797 54.16ZM324.325 54.24C324.325 53.7387 324.261 53.312 324.133 52.96C324.005 52.608 323.834 52.32 323.621 52.096C323.418 51.872 323.183 51.712 322.917 51.616C322.65 51.5093 322.378 51.456 322.101 51.456C321.823 51.456 321.551 51.4987 321.285 51.584C321.018 51.6693 320.783 51.8187 320.581 52.032C320.378 52.2453 320.213 52.5333 320.085 52.896C319.967 53.248 319.909 53.696 319.909 54.24C319.909 54.7413 319.973 55.1733 320.101 55.536C320.229 55.888 320.394 56.176 320.597 56.4C320.81 56.624 321.05 56.7893 321.317 56.896C321.583 57.0027 321.855 57.056 322.133 57.056C322.41 57.056 322.682 57.0133 322.949 56.928C323.215 56.832 323.45 56.6773 323.653 56.464C323.855 56.24 324.015 55.952 324.133 55.6C324.261 55.2373 324.325 54.784 324.325 54.24ZM331.734 51.888C331.382 51.7173 331.062 51.6 330.774 51.536C330.486 51.472 330.198 51.44 329.91 51.44C329.398 51.44 329.019 51.536 328.774 51.728C328.529 51.9093 328.406 52.1547 328.406 52.464C328.406 52.688 328.491 52.8853 328.662 53.056C328.833 53.216 329.19 53.376 329.734 53.536L330.214 53.68C330.929 53.8933 331.467 54.1707 331.83 54.512C332.203 54.8427 332.39 55.296 332.39 55.872C332.39 56.5547 332.134 57.104 331.622 57.52C331.121 57.936 330.417 58.144 329.51 58.144C329.03 58.144 328.566 58.1013 328.118 58.016C327.681 57.9307 327.302 57.8133 326.982 57.664L327.318 56.56C327.627 56.7093 327.963 56.832 328.326 56.928C328.689 57.0133 329.057 57.056 329.43 57.056C329.91 57.056 330.289 56.9707 330.566 56.8C330.854 56.6293 330.998 56.3467 330.998 55.952C330.998 55.6107 330.875 55.3707 330.63 55.232C330.385 55.0827 330.033 54.9387 329.574 54.8L329.078 54.64C328.385 54.416 327.867 54.1387 327.526 53.808C327.195 53.4667 327.03 53.0293 327.03 52.496C327.03 52.176 327.099 51.8827 327.238 51.616C327.377 51.3493 327.563 51.1253 327.798 50.944C328.043 50.7627 328.331 50.624 328.662 50.528C328.993 50.4213 329.355 50.368 329.75 50.368C330.123 50.368 330.507 50.4053 330.902 50.48C331.307 50.544 331.691 50.656 332.054 50.816L331.734 51.888ZM335.45 58H334.042V46.64H335.45V51.44C335.802 51.1307 336.191 50.8747 336.618 50.672C337.044 50.4693 337.514 50.368 338.026 50.368C338.442 50.368 338.804 50.432 339.114 50.56C339.423 50.6773 339.674 50.848 339.866 51.072C340.068 51.2853 340.218 51.5413 340.314 51.84C340.42 52.1387 340.474 52.464 340.474 52.816V58H339.066V53.168C339.066 52.592 338.948 52.176 338.714 51.92C338.479 51.6533 338.122 51.52 337.641 51.52C337.279 51.52 336.911 51.6107 336.538 51.792C336.175 51.9733 335.812 52.2293 335.45 52.56V58Z" fill="black"/>
<path d="M24.2515 40.3833H24.2331M33.7665 40.3833H33.7481M24.0681 49H24.0498M33.7665 49H33.7481M24.2515 57.6166H24.2331M33.7665 57.6166H33.7481" stroke="black" stroke-width="2.6" stroke-linecap="round"/>
<path d="M382.281 45.2498H380.969C380.795 45.2498 380.628 45.1807 380.505 45.0576C380.382 44.9346 380.312 44.7676 380.312 44.5936C380.312 44.4195 380.382 44.2526 380.505 44.1296C380.628 44.0065 380.795 43.9373 380.969 43.9373H386.219V41.9673C386.219 41.7932 386.288 41.6263 386.411 41.5032C386.534 41.3802 386.701 41.311 386.875 41.311H392.125C392.299 41.311 392.466 41.3802 392.589 41.5032C392.712 41.6263 392.781 41.7932 392.781 41.9673V43.9373H398.031C398.205 43.9373 398.372 44.0065 398.495 44.1296C398.618 44.2526 398.688 44.4195 398.688 44.5936C398.688 44.7676 398.618 44.9346 398.495 45.0576C398.372 45.1807 398.205 45.2498 398.031 45.2498H396.719V59.0311C396.719 59.2051 396.65 59.3721 396.527 59.4951C396.403 59.6182 396.237 59.6873 396.062 59.6873H382.938C382.763 59.6873 382.597 59.6182 382.473 59.4951C382.35 59.3721 382.281 59.2051 382.281 59.0311V45.2498ZM391.469 43.9373V42.6248H387.531V43.9373H391.469ZM383.594 58.3748H395.406V45.2498H383.594V58.3748ZM387.531 55.7498C387.357 55.7498 387.19 55.6807 387.067 55.5576C386.944 55.4346 386.875 55.2676 386.875 55.0936V48.5311C386.875 48.357 386.944 48.1901 387.067 48.0671C387.19 47.944 387.357 47.8748 387.531 47.8748C387.705 47.8748 387.872 47.944 387.995 48.0671C388.118 48.1901 388.188 48.357 388.188 48.5311V55.0936C388.188 55.2676 388.118 55.4346 387.995 55.5576C387.872 55.6807 387.705 55.7498 387.531 55.7498ZM391.469 55.7498C391.295 55.7498 391.128 55.6807 391.005 55.5576C390.882 55.4346 390.812 55.2676 390.812 55.0936V48.5311C390.812 48.357 390.882 48.1901 391.005 48.0671C391.128 47.944 391.295 47.8748 391.469 47.8748C391.643 47.8748 391.81 47.944 391.933 48.0671C392.056 48.1901 392.125 48.357 392.125 48.5311V55.0936C392.125 55.2676 392.056 55.4346 391.933 55.5576C391.81 55.6807 391.643 55.7498 391.469 55.7498Z" fill="black"/>
<path d="M126.75 73.25H136.5C137.097 73.25 137.669 73.4871 138.091 73.909C138.513 74.331 138.75 74.9033 138.75 75.5V85.25C138.75 85.8467 138.513 86.419 138.091 86.841C137.669 87.2629 137.097 87.5 136.5 87.5H126.75C126.153 87.5 125.581 87.2629 125.159 86.841C124.737 86.419 124.5 85.8467 124.5 85.25V75.5C124.5 74.9033 124.737 74.331 125.159 73.909C125.581 73.4871 126.153 73.25 126.75 73.25ZM126.75 74C126.352 74 125.971 74.158 125.689 74.4393C125.408 74.7206 125.25 75.1022 125.25 75.5V84.1925L128.467 80.9675L130.342 82.8425L134.092 79.0925L138 83V75.5C138 75.1022 137.842 74.7206 137.561 74.4393C137.279 74.158 136.898 74 136.5 74H126.75ZM130.342 83.9075L128.467 82.0325L125.25 85.25C125.25 85.6478 125.408 86.0294 125.689 86.3107C125.971 86.592 126.352 86.75 126.75 86.75H136.5C136.898 86.75 137.279 86.592 137.561 86.3107C137.842 86.0294 138 85.6478 138 85.25V84.0575L134.092 80.1575L130.342 83.9075ZM128.625 75.5C129.122 75.5 129.599 75.6975 129.951 76.0492C130.302 76.4008 130.5 76.8777 130.5 77.375C130.5 77.8723 130.302 78.3492 129.951 78.7008C129.599 79.0525 129.122 79.25 128.625 79.25C128.128 79.25 127.651 79.0525 127.299 78.7008C126.948 78.3492 126.75 77.8723 126.75 77.375C126.75 76.8777 126.948 76.4008 127.299 76.0492C127.651 75.6975 128.128 75.5 128.625 75.5ZM128.625 76.25C128.327 76.25 128.04 76.3685 127.83 76.5795C127.619 76.7905 127.5 77.0766 127.5 77.375C127.5 77.6734 127.619 77.9595 127.83 78.1705C128.04 78.3815 128.327 78.5 128.625 78.5C128.923 78.5 129.21 78.3815 129.42 78.1705C129.631 77.9595 129.75 77.6734 129.75 77.375C129.75 77.0766 129.631 76.7905 129.42 76.5795C129.21 76.3685 128.923 76.25 128.625 76.25Z" fill="black"/>
<path d="M164.125 29.7733V31.4169C164.125 31.5384 164.173 31.655 164.259 31.7409C164.345 31.8269 164.462 31.8752 164.583 31.8752H166.227C166.348 31.8752 166.465 31.827 166.55 31.7414L174.342 23.9497L172.05 21.658L164.259 29.4497C164.173 29.5356 164.125 29.6519 164.125 29.7733ZM173.832 19.876L176.124 22.1677L177.227 21.0649C177.399 20.893 177.495 20.6599 177.495 20.4169C177.495 20.1738 177.399 19.9407 177.227 19.7688L176.231 18.7733C176.06 18.6014 175.826 18.5049 175.583 18.5049C175.34 18.5049 175.107 18.6014 174.935 18.7733L173.832 19.876Z" stroke="black"/>
<path d="M346.125 54.7733V56.4169C346.125 56.5384 346.173 56.655 346.259 56.7409C346.345 56.8269 346.462 56.8752 346.583 56.8752H348.227C348.348 56.8752 348.465 56.827 348.55 56.7414L356.342 48.9497L354.05 46.658L346.259 54.4497C346.173 54.5356 346.125 54.6519 346.125 54.7733ZM355.832 44.876L358.124 47.1677L359.227 46.0649C359.399 45.893 359.495 45.6599 359.495 45.4169C359.495 45.1738 359.399 44.9407 359.227 44.7688L358.231 43.7733C358.06 43.6014 357.826 43.5049 357.583 43.5049C357.34 43.5049 357.107 43.6014 356.935 43.7733L355.832 44.876Z" stroke="black"/>
<mask id="mask0_2041_2682" style="mask-type:luminance" maskUnits="userSpaceOnUse" x="51" y="31" width="38" height="38">
<path d="M51 31H89V69H51V31Z" fill="white"/>
</mask>
<g mask="url(#mask0_2041_2682)">
<path d="M80.925 32.7808H86.7526L74.0226 47.3673L89 67.2196H77.2743L68.0837 55.1818L57.5794 67.2196H51.7464L65.3613 51.6125L51 32.7835H63.0243L71.3191 43.7845L80.925 32.7808ZM78.8757 63.7236H82.1057L61.26 36.0949H57.7966L78.8757 63.7236Z" fill="black"/>
</g>
<defs>
<linearGradient id="paint0_linear_2041_2682" x1="2" y1="48.5" x2="430" y2="48.5" gradientUnits="userSpaceOnUse">
<stop stop-color="#7E4FF3"/>
<stop offset="1" stop-color="#FB8E8E"/>
</linearGradient>
</defs>
</svg>
