<svg width="26" height="28" viewBox="0 0 26 28" fill="none" xmlns="http://www.w3.org/2000/svg">
<path d="M12.9821 0C10.2856 0 7.6996 1.07448 5.79291 2.98706C3.88622 4.89964 2.81505 7.49365 2.81505 10.1984V15.3385C2.81526 15.5645 2.76305 15.7874 2.66255 15.9897L0.168719 20.9913C0.046898 21.2357 -0.0106248 21.5072 0.00161407 21.7801C0.0138529 22.0531 0.0954468 22.3183 0.238646 22.5507C0.381846 22.7831 0.581896 22.9749 0.819797 23.108C1.0577 23.241 1.32555 23.3108 1.59791 23.3107H24.3663C24.6386 23.3108 24.9065 23.241 25.1444 23.108C25.3823 22.9749 25.5823 22.7831 25.7255 22.5507C25.8687 22.3183 25.9503 22.0531 25.9626 21.7801C25.9748 21.5072 25.9173 21.2357 25.7955 20.9913L23.3031 15.9897C23.2021 15.7876 23.1494 15.5646 23.1491 15.3385V10.1984C23.1491 7.49365 22.078 4.89964 20.1713 2.98706C18.2646 1.07448 15.6786 0 12.9821 0ZM12.9821 27.6815C12.0806 27.682 11.2012 27.402 10.4651 26.8801C9.72888 26.3582 9.17219 25.6202 8.87171 24.7677H17.0925C16.792 25.6202 16.2353 26.3582 15.4991 26.8801C14.763 27.402 13.8836 27.682 12.9821 27.6815Z" fill="#9747FF"/>
</svg>
