<svg width="56" height="56" viewBox="0 0 56 56" fill="none" xmlns="http://www.w3.org/2000/svg">
<path d="M42 18.6665C45.866 18.6665 49 15.5325 49 11.6665C49 7.80051 45.866 4.6665 42 4.6665C38.134 4.6665 35 7.80051 35 11.6665C35 15.5325 38.134 18.6665 42 18.6665Z" stroke="white" stroke-width="2" stroke-linecap="round" stroke-linejoin="round"/>
<path d="M14 35C17.866 35 21 31.866 21 28C21 24.134 17.866 21 14 21C10.134 21 7 24.134 7 28C7 31.866 10.134 35 14 35Z" stroke="white" stroke-width="2" stroke-linecap="round" stroke-linejoin="round"/>
<path d="M42 51.333C45.866 51.333 49 48.199 49 44.333C49 40.467 45.866 37.333 42 37.333C38.134 37.333 35 40.467 35 44.333C35 48.199 38.134 51.333 42 51.333Z" stroke="white" stroke-width="2" stroke-linecap="round" stroke-linejoin="round"/>
<path d="M19.8335 31.4998L36.1668 40.8332M36.1668 15.1665L19.8335 24.4998" stroke="white" stroke-width="2" stroke-linecap="round" stroke-linejoin="round"/>
</svg>
