<svg width="48" height="48" viewBox="0 0 48 48" fill="none" xmlns="http://www.w3.org/2000/svg">
<path d="M15.5455 2.41071L22.1779 0.75H24.7288L31.8715 4.625L35.4428 12.9286V19.0179L40.0345 18.4643V22.8929L36.9734 24L35.953 25.6607L38.5039 31.1964L45.1364 35.0714L43.6058 37.2857L39.0141 38.9464L37.9937 41.1607L36.9734 42.8214H31.3613L28.8103 43.9286L23.1983 47.25L19.627 46.1429L15.5455 43.9286L12.4843 42.8214H8.40282L6.87226 41.7143L5.34169 38.9464L2.79075 38.3929L0.75 36.7321V35.0714L3.30094 33.4107L7.89263 29.5357L8.91301 25.6607L4.8315 22.8929L5.34169 20.125L6.87226 18.4643L9.93338 19.0179L11.464 9.05357L15.5455 2.41071Z" fill="#FFFC00"/>
<path d="M23.9794 3.32823C30.2203 3.3304 35.4189 8.72716 35.4264 15.2252C35.4282 16.7472 35.4734 18.1487 35.5561 19.4398C35.6071 20.2364 36.2449 20.8267 36.9764 20.8267C37.0841 20.8267 37.1938 20.8139 37.304 20.7871L39.2591 20.3111C39.3423 20.2907 39.4258 20.2811 39.5083 20.2811C40.0048 20.2811 40.462 20.6334 40.5735 21.1554C40.7311 21.893 40.3333 22.6382 39.6452 22.8888L36.6775 24.1331C35.9283 24.4473 35.5259 25.2943 35.7369 26.1045C38.1178 35.2473 44.7679 34.2964 44.7679 35.4876C44.7679 36.9834 39.7554 37.1946 39.3026 37.6651C38.8497 38.1355 39.2829 40.4187 38.2711 40.8607C38.0803 40.9441 37.8094 40.973 37.4789 40.973C36.7167 40.973 35.6389 40.8185 34.5028 40.8185C33.5174 40.8185 32.4882 40.9348 31.5834 41.3689C29.183 42.5207 26.8688 44.672 24 44.672C21.1312 44.672 18.8171 42.5207 16.4167 41.3689C15.5117 40.9347 14.4828 40.8185 13.4973 40.8185C12.3613 40.8185 11.2833 40.973 10.5212 40.973C10.1909 40.973 9.91965 40.944 9.72902 40.8607C8.71719 40.4187 9.15038 38.1355 8.69753 37.6651C8.24468 37.1946 3.23218 36.9833 3.23218 35.4875C3.23218 34.2962 9.88232 35.2471 12.2632 26.1044C12.4742 25.2943 12.0718 24.4473 11.3225 24.133L8.35479 22.8887C7.66663 22.6381 7.26879 21.8929 7.42646 21.1553C7.53796 20.6332 7.99517 20.2808 8.49171 20.2809C8.57412 20.2809 8.65772 20.2906 8.74092 20.311L10.696 20.787C10.8062 20.8138 10.9159 20.8266 11.0236 20.8266C11.755 20.8266 12.3929 20.2362 12.4439 19.4397C12.5266 18.1486 12.5719 16.7471 12.5737 15.2251C12.5812 8.72716 17.7384 3.3305 23.9794 3.32823ZM23.9802 0.75C22.1174 0.750619 20.3009 1.13942 18.585 1.90567C16.938 2.64108 15.4556 3.6897 14.1792 5.02244C12.9044 6.35343 11.9012 7.89862 11.1975 9.6151C10.4657 11.4 10.0936 13.2864 10.0913 15.222C10.0902 16.1724 10.0713 17.0947 10.0347 17.9779L9.30735 17.8007C9.04047 17.7357 8.76604 17.7027 8.49191 17.7026C7.70029 17.7025 6.9194 17.9804 6.2931 18.4852C5.63969 19.0117 5.18148 19.7616 5.00306 20.5966C4.57841 22.5842 5.63502 24.5908 7.46607 25.2964L9.64413 26.2097C8.20189 30.8078 5.54249 31.6889 3.75165 32.2824C3.27646 32.4399 2.86601 32.5759 2.47521 32.7773C0.918093 33.5801 0.75 34.9401 0.75 35.4875C0.75 36.536 1.22777 37.4928 2.09544 38.1816C2.52744 38.5246 3.06259 38.8076 3.73139 39.0468C4.64295 39.3728 5.69966 39.5797 6.55849 39.7455C6.59999 40.076 6.66086 40.4311 6.76342 40.7889C7.18926 42.2751 8.08791 42.9406 8.76683 43.2371C9.41101 43.5186 10.0766 43.5511 10.5212 43.5511C10.9561 43.5511 11.4158 43.5157 11.9025 43.4783C12.4247 43.438 12.9646 43.3966 13.4973 43.3966C14.3227 43.3966 14.9372 43.4989 15.3758 43.7093C15.978 43.9982 16.6166 44.3879 17.2927 44.8003C19.175 45.9485 21.3084 47.25 24 47.25C26.6917 47.25 28.825 45.9485 30.7073 44.8003C31.3834 44.3877 32.022 43.9982 32.6243 43.7093C33.0629 43.4988 33.6774 43.3966 34.5028 43.3966C35.0355 43.3966 35.5754 43.4381 36.0975 43.4783C36.5842 43.5157 37.0439 43.5511 37.4788 43.5511C37.9234 43.5511 38.5889 43.5186 39.2332 43.2371C39.9121 42.9406 40.8107 42.2751 41.2366 40.7889C41.3391 40.4311 41.4001 40.076 41.4415 39.7455C42.3003 39.5795 43.3572 39.3728 44.2686 39.0468C44.9375 38.8076 45.4726 38.5246 45.9046 38.1816C46.7721 37.4928 47.25 36.536 47.25 35.4875C47.25 34.9401 47.0819 33.5801 45.5246 32.7774C45.1338 32.576 44.7233 32.44 44.2482 32.2825C42.4573 31.6891 39.7979 30.8079 38.3557 26.2098L40.5336 25.2965C42.3647 24.5909 43.4214 22.5842 42.9967 20.5966C42.8183 19.7616 42.3601 19.0117 41.7067 18.4852C41.0804 17.9805 40.2997 17.7026 39.5083 17.7026C39.2342 17.7026 38.9597 17.7356 38.6926 17.8006L37.9652 17.9778C37.9286 17.0947 37.9097 16.1724 37.9086 15.2219C37.9063 13.2848 37.5312 11.3965 36.7936 9.60922C36.0856 7.89356 35.0769 6.34879 33.7957 5.0177C32.5146 3.68671 31.0281 2.63923 29.3776 1.90443C27.6585 1.13911 25.8425 0.750722 23.9802 0.75Z" fill="#050505"/>
</svg>
