<svg width="24" height="24" viewBox="0 0 24 24" fill="none" xmlns="http://www.w3.org/2000/svg">
<path d="M5.634 5.63779C3.96894 7.33032 3.04014 9.61223 3.0499 11.9865C3.05966 14.3607 4.0072 16.6349 5.68611 18.3137C7.36503 19.9925 9.6393 20.9398 12.0135 20.9494C14.3878 20.959 16.6696 20.03 18.362 18.3648M20.042 16.0448C20.8942 14.3537 21.1912 12.437 20.8909 10.5673C20.5906 8.69763 19.7082 6.97032 18.3693 5.6312C17.0304 4.29209 15.3032 3.40941 13.4336 3.10878C11.564 2.80815 9.6472 3.1049 7.956 3.95679M16 11.9998H18M13 14.9998H15M13 17.9998H14M13 8.99978H17M13 5.99979H14M3 2.99979L21 20.9998" stroke="black" stroke-width="2" stroke-linecap="round" stroke-linejoin="round"/>
</svg>
