<svg width="20" height="22" viewBox="0 0 20 22" fill="none" xmlns="http://www.w3.org/2000/svg">
<path fill-rule="evenodd" clip-rule="evenodd" d="M10 0C15.523 0 20 4.477 20 10C20 15.523 15.523 20 10 20C4.477 20 0 15.523 0 10C0 4.477 4.477 0 10 0ZM15 15H10C9.73478 15 9.48043 15.1054 9.29289 15.2929C9.10536 15.4804 9 15.7348 9 16C9 16.2652 9.10536 16.5196 9.29289 16.7071C9.48043 16.8946 9.73478 17 10 17H15C15.2652 17 15.5196 16.8946 15.7071 16.7071C15.8946 16.5196 16 16.2652 16 16C16 15.7348 15.8946 15.4804 15.7071 15.2929C15.5196 15.1054 15.2652 15 15 15ZM17 12H10C9.74512 12.0003 9.49997 12.0979 9.31463 12.2728C9.1293 12.4478 9.01777 12.687 9.00283 12.9414C8.98789 13.1958 9.07067 13.4464 9.23426 13.6418C9.39785 13.8373 9.6299 13.9629 9.883 13.993L10 14H17C17.2549 13.9997 17.5 13.9021 17.6854 13.7272C17.8707 13.5522 17.9822 13.313 17.9972 13.0586C18.0121 12.8042 17.9293 12.5536 17.7657 12.3582C17.6021 12.1627 17.3701 12.0371 17.117 12.007L17 12ZM18 9H10C9.73478 9 9.48043 9.10536 9.29289 9.29289C9.10536 9.48043 9 9.73478 9 10C9 10.2652 9.10536 10.5196 9.29289 10.7071C9.48043 10.8946 9.73478 11 10 11H18C18.2652 11 18.5196 10.8946 18.7071 10.7071C18.8946 10.5196 19 10.2652 19 10C19 9.73478 18.8946 9.48043 18.7071 9.29289C18.5196 9.10536 18.2652 9 18 9ZM17 6H10C9.74512 6.00028 9.49997 6.09788 9.31463 6.27285C9.1293 6.44782 9.01777 6.68695 9.00283 6.94139C8.98789 7.19584 9.07067 7.44638 9.23426 7.64183C9.39785 7.83729 9.6299 7.9629 9.883 7.993L10 8H17C17.2549 7.99972 17.5 7.90212 17.6854 7.72715C17.8707 7.55218 17.9822 7.31305 17.9972 7.05861C18.0121 6.80416 17.9293 6.55362 17.7657 6.35817C17.6021 6.16271 17.3701 6.0371 17.117 6.007L17 6ZM15 3H10C9.73478 3 9.48043 3.10536 9.29289 3.29289C9.10536 3.48043 9 3.73478 9 4C9 4.26522 9.10536 4.51957 9.29289 4.70711C9.48043 4.89464 9.73478 5 10 5H15C15.2652 5 15.5196 4.89464 15.7071 4.70711C15.8946 4.51957 16 4.26522 16 4C16 3.73478 15.8946 3.48043 15.7071 3.29289C15.5196 3.10536 15.2652 3 15 3Z" fill="black"/>
</svg>
