<svg width="52" height="53" viewBox="0 0 52 53" fill="none" xmlns="http://www.w3.org/2000/svg">
<path d="M46.5005 26.3328C46.5005 37.7467 37.3969 46.9995 26.1672 46.9995C14.9374 46.9995 5.83382 37.7467 5.83382 26.3328C5.83382 14.919 14.9374 5.66618 26.1672 5.66618C37.3969 5.66618 46.5005 14.919 46.5005 26.3328Z" fill="white"/>
<path fill-rule="evenodd" clip-rule="evenodd" d="M51.5838 26.3328C51.5838 40.6002 40.2044 52.1662 26.1672 52.1662C12.1299 52.1662 0.750488 40.6002 0.750488 26.3328C0.750488 12.0655 12.1299 0.499512 26.1672 0.499512C40.2044 0.499512 51.5838 12.0655 51.5838 26.3328ZM27.0779 19.5708C24.6058 20.616 19.665 22.7791 12.2555 26.0602C11.0523 26.5465 10.422 27.0222 10.3647 27.4874C10.2677 28.2736 11.2363 28.5832 12.5554 29.0047C12.7348 29.0621 12.9207 29.1215 13.1113 29.1845C14.409 29.6132 16.1547 30.1148 17.0622 30.1348C17.8854 30.1528 18.8042 29.8079 19.8185 29.0999C26.7414 24.3502 30.3151 21.9494 30.5394 21.8977C30.6977 21.8611 30.9171 21.8152 31.0657 21.9495C31.2143 22.0837 31.1997 22.338 31.1839 22.4062C31.088 22.822 27.2857 26.4149 25.318 28.2742C24.7046 28.8538 24.2695 29.265 24.1805 29.3589C23.9813 29.5693 23.7782 29.7682 23.583 29.9595C22.3774 31.1408 21.4733 32.0266 23.6331 33.4732C24.671 34.1684 25.5015 34.7432 26.3301 35.3167C27.2349 35.9431 28.1375 36.5678 29.3052 37.3458C29.6028 37.544 29.8869 37.7499 30.1636 37.9504C31.2167 38.7135 32.1628 39.399 33.3316 39.2897C34.0108 39.2262 34.7123 38.5771 35.0686 36.6412C35.9106 32.066 37.5657 22.1532 37.9482 18.0683C37.9817 17.7104 37.9395 17.2524 37.9057 17.0513C37.8718 16.8503 37.8011 16.5638 37.544 16.3517C37.2394 16.1006 36.7693 16.0476 36.5591 16.0514C35.6031 16.0685 34.1364 16.5868 27.0779 19.5708Z" fill="url(#paint0_linear_2463_1327)"/>
<defs>
<linearGradient id="paint0_linear_2463_1327" x1="51.5838" y1="0.499509" x2="-0.0760111" y2="51.3261" gradientUnits="userSpaceOnUse">
<stop stop-color="#29AAEB"/>
<stop offset="1" stop-color="#23A0DC"/>
</linearGradient>
</defs>
</svg>
