<svg width="52" height="58" viewBox="0 0 52 58" fill="none" xmlns="http://www.w3.org/2000/svg">
<path d="M39.5221 5.41716H30.3475V40.6103C30.3475 44.8037 26.8189 48.2481 22.4276 48.2481C18.0364 48.2481 14.5077 44.8037 14.5077 40.6103C14.5077 36.4921 17.958 33.1224 22.1924 32.9727V24.137C12.861 24.2867 5.33317 31.55 5.33317 40.6103C5.33317 49.7457 13.0178 57.0838 22.5061 57.0838C31.9942 57.0838 39.6788 49.6708 39.6788 40.6103V22.5645C43.1291 24.9606 47.3635 26.3833 51.8332 26.4583V17.6225C44.9327 17.3978 39.5221 12.0065 39.5221 5.41716Z" fill="#FF0050"/>
<path d="M34.3554 0.250488H25.1808V35.4437C25.1808 39.637 21.6522 43.0814 17.261 43.0814C12.8697 43.0814 9.34104 39.637 9.34104 35.4437C9.34104 31.3254 12.7913 27.9557 17.0258 27.806V18.9703C7.69433 19.12 0.166504 26.3833 0.166504 35.4437C0.166504 44.5791 7.85115 51.9172 17.3394 51.9172C26.8275 51.9172 34.5121 44.5041 34.5121 35.4437V17.3978C37.9625 19.794 42.1968 21.2167 46.6665 21.2916V12.4558C39.7661 12.2312 34.3554 6.83985 34.3554 0.250488Z" fill="#00F2EA"/>
<path d="M36.9387 2.83382H27.7641V38.027C27.7641 42.2203 24.2355 45.6648 19.8443 45.6648C15.453 45.6648 11.9244 42.2203 11.9244 38.027C11.9244 33.9087 15.3746 30.5391 19.6091 30.3894V21.5537C10.2777 21.7034 2.74984 28.9667 2.74984 38.027C2.74984 47.1624 10.4345 54.5005 19.9227 54.5005C29.4108 54.5005 37.0955 47.0875 37.0955 38.027V19.9811C40.5458 22.3773 44.7801 23.8 49.2498 23.8749V15.0391C42.3494 14.8145 36.9387 9.42319 36.9387 2.83382Z" fill="black"/>
</svg>
