<svg width="28" height="28" viewBox="0 0 28 28" fill="none" xmlns="http://www.w3.org/2000/svg">
<rect width="28" height="28" rx="14" fill="black"/>
<path d="M17.9042 11.2756C19.1646 12.1798 20.7087 12.7118 22.3763 12.7118V9.49127C22.0607 9.49134 21.7459 9.45831 21.4372 9.39266V11.9276C19.7697 11.9276 18.2258 11.3956 16.9651 10.4915V17.0636C16.9651 20.3513 14.3093 23.0163 11.0335 23.0163C9.81124 23.0163 8.67517 22.6455 7.73145 22.0095C8.80856 23.1147 10.3107 23.8004 11.9725 23.8004C15.2485 23.8004 17.9044 21.1354 17.9044 17.8475V11.2756H17.9042ZM19.0628 8.02648C18.4187 7.32026 17.9958 6.40759 17.9042 5.3986V4.98438H17.0142C17.2383 6.2668 18.0024 7.36243 19.0628 8.02648ZM9.8034 19.4866C9.44351 19.013 9.24903 18.4338 9.2499 17.8381C9.2499 16.3344 10.4646 15.1152 11.9632 15.1152C12.2425 15.1152 12.5202 15.1581 12.7863 15.2429V11.9504C12.4753 11.9076 12.1613 11.8894 11.8476 11.8961V14.4588C11.5812 14.374 11.3034 14.331 11.0241 14.3313C9.52545 14.3313 8.3108 15.5503 8.3108 17.0542C8.3108 18.1175 8.91796 19.0381 9.8034 19.4866Z" fill="#FF004F"/>
<path d="M16.9652 10.4914C18.2259 11.3956 19.7698 11.9276 21.4373 11.9276V9.39259C20.5065 9.19362 19.6825 8.70547 19.0629 8.02648C18.0024 7.36237 17.2384 6.26674 17.0144 4.98438H14.6766V17.8474C14.6713 19.347 13.4587 20.5612 11.9632 20.5612C11.082 20.5612 10.2991 20.1396 9.80333 19.4866C8.91796 19.0381 8.3108 18.1175 8.3108 17.0543C8.3108 15.5505 9.52545 14.3313 11.0241 14.3313C11.3112 14.3313 11.588 14.3762 11.8476 14.4589V11.8962C8.62928 11.9629 6.04102 14.6019 6.04102 17.8475C6.04102 19.4676 6.68555 20.9364 7.73165 22.0096C8.67537 22.6455 9.81144 23.0164 11.0337 23.0164C14.3096 23.0164 16.9653 20.3512 16.9653 17.0636V10.4914H16.9652Z" fill="white"/>
<path d="M21.437 9.3924V8.70695C20.5976 8.70823 19.7747 8.47233 19.0626 8.02622C19.693 8.71886 20.5231 9.19645 21.437 9.3924ZM17.014 4.98418C16.9927 4.86162 16.9762 4.73826 16.9649 4.61442V4.2002H13.737V17.0634C13.7318 18.5627 12.5193 19.7769 11.0237 19.7769C10.5847 19.7769 10.1701 19.6723 9.80298 19.4865C10.2988 20.1394 11.0817 20.5609 11.9629 20.5609C13.4582 20.5609 14.671 19.3468 14.6762 17.8473V4.98418H17.014ZM11.8473 11.896V11.1663C11.5776 11.1293 11.3057 11.1107 11.0334 11.1108C7.75729 11.1108 5.10156 13.7759 5.10156 17.0634C5.10156 19.1244 6.14531 20.9408 7.73137 22.0092C6.68527 20.9361 6.04073 19.4673 6.04073 17.8472C6.04073 14.6017 8.62894 11.9627 11.8473 11.896Z" fill="#00F2EA"/>
</svg>
