<svg width="330" height="75" viewBox="0 0 330 75" fill="none" xmlns="http://www.w3.org/2000/svg">
<path d="M0.666667 67.8071C0.666667 70.7526 3.05448 73.1404 6 73.1404C8.94552 73.1404 11.3333 70.7526 11.3333 67.8071C11.3333 64.8615 8.94552 62.4737 6 62.4737C3.05448 62.4737 0.666667 64.8615 0.666667 67.8071ZM330 8.36372L321.703 0.332921L318.897 11.5337L330 8.36372ZM6 67.8071L5.59083 68.7195C7.2388 69.4585 8.88519 70.1255 10.5297 70.724L10.8717 69.7843L11.2137 68.8446C9.61486 68.2627 8.01327 67.6139 6.40917 66.8946L6 67.8071ZM20.9653 72.6212L20.7684 73.6016C24.2984 74.3107 27.8142 74.7339 31.3127 74.9077L31.3623 73.9089L31.4119 72.9101C28.0082 72.7411 24.5911 72.3295 21.1623 71.6408L20.9653 72.6212ZM41.8391 73.7061L41.9243 74.7025C45.4432 74.4017 48.9401 73.8814 52.4118 73.1803L52.2139 72.2001L52.0159 71.2199C48.6113 71.9074 45.1899 72.4161 41.7539 72.7098L41.8391 73.7061ZM62.3842 69.6388L62.6705 70.5969C66.031 69.5927 69.3657 68.4506 72.6718 67.207L72.3197 66.271L71.9676 65.335C68.6984 66.5648 65.4078 67.6915 62.0979 68.6806L62.3842 69.6388ZM82.038 62.3191L82.4362 63.2364C85.6593 61.8373 88.8532 60.3729 92.0146 58.8787L91.5873 57.9746L91.16 57.0705C88.0122 58.5582 84.8384 60.0133 81.6398 61.4018L82.038 62.3191ZM101.035 53.4067L101.476 54.3043C104.654 52.7439 107.79 51.1922 110.893 49.68L110.455 48.781L110.017 47.8821C106.911 49.3957 103.764 50.9527 100.594 52.509L101.035 53.4067ZM119.935 44.2789L120.351 45.1881C123.598 43.7009 126.794 42.3086 129.939 41.0563L129.569 40.1273L129.2 39.1982C126.015 40.4662 122.786 41.8728 119.518 43.3698L119.935 44.2789ZM139.457 36.6492L139.743 37.6075C143.182 36.5816 146.544 35.8002 149.828 35.3266L149.685 34.3369L149.542 33.3471C146.144 33.8373 142.684 34.643 139.171 35.6909L139.457 36.6492ZM160.144 33.9428L160.062 34.9394C161.767 35.0796 163.446 35.3324 165.101 35.7084L165.322 34.7332L165.544 33.7581C163.793 33.3602 162.02 33.0936 160.226 32.9462L160.144 33.9428ZM165.322 34.7332L165.101 35.7084C166.762 36.0859 168.381 36.353 169.964 36.5186L170.068 35.524L170.172 34.5294C168.67 34.3724 167.13 34.1186 165.544 33.7581L165.322 34.7332ZM179.62 35.2736L179.777 36.2613C183.014 35.7485 186.129 34.8343 189.198 33.6323L188.834 32.7011L188.469 31.77C185.507 32.9299 182.533 33.7998 179.464 34.2859L179.62 35.2736ZM197.497 28.5995L197.973 29.4793C200.706 28.0023 203.472 26.3752 206.32 24.6796L205.808 23.8204L205.297 22.9612C202.451 24.6556 199.715 26.2642 197.022 27.7198L197.497 28.5995ZM214.073 18.933L214.573 19.799C217.242 18.2579 220.019 16.7139 222.942 15.2143L222.485 14.3246L222.029 13.4348C219.068 14.954 216.261 16.515 213.573 18.0669L214.073 18.933ZM231.164 10.2434L231.556 11.1635C234.371 9.96549 237.326 8.83509 240.444 7.80431L240.13 6.85484L239.816 5.90538C236.641 6.95485 233.635 8.10519 230.773 9.32323L231.164 10.2434ZM249.336 4.24485L249.567 5.21776C252.534 4.51262 255.641 3.90318 258.905 3.41016L258.755 2.42138L258.606 1.4326C255.287 1.93401 252.125 2.55408 249.104 3.27195L249.336 4.24485ZM268.275 1.36181L268.348 2.35915C271.4 2.13604 274.578 2.01223 277.892 2.00086L277.889 1.00087L277.885 0.000872791C274.526 0.0124009 271.301 0.137917 268.202 0.364469L268.275 1.36181ZM287.436 1.26602L287.378 2.26435C290.432 2.44073 293.593 2.70814 296.867 3.07481L296.978 2.08102L297.089 1.08723C293.781 0.716686 290.585 0.446188 287.493 0.26768L287.436 1.26602ZM306.477 3.37814L306.319 4.36555C309.358 4.8524 312.488 5.4204 315.711 6.075L315.91 5.09501L316.109 4.11501C312.859 3.45507 309.703 2.88209 306.636 2.39073L306.477 3.37814ZM0.666667 67.8071C0.666667 70.7526 3.05448 73.1404 6 73.1404C8.94552 73.1404 11.3333 70.7526 11.3333 67.8071C11.3333 64.8615 8.94552 62.4737 6 62.4737C3.05448 62.4737 0.666667 64.8615 0.666667 67.8071ZM330 8.36372L321.703 0.332921L318.897 11.5337L330 8.36372ZM6 67.8071L5.59083 68.7195C7.2388 69.4585 8.88519 70.1255 10.5297 70.724L10.8717 69.7843L11.2137 68.8446C9.61486 68.2627 8.01327 67.6139 6.40917 66.8946L6 67.8071ZM20.9653 72.6212L20.7684 73.6016C24.2984 74.3107 27.8142 74.7339 31.3127 74.9077L31.3623 73.9089L31.4119 72.9101C28.0082 72.7411 24.5911 72.3295 21.1623 71.6408L20.9653 72.6212ZM41.8391 73.7061L41.9243 74.7025C45.4432 74.4017 48.9401 73.8814 52.4118 73.1803L52.2139 72.2001L52.0159 71.2199C48.6113 71.9074 45.1899 72.4161 41.7539 72.7098L41.8391 73.7061ZM62.3842 69.6388L62.6705 70.5969C66.031 69.5927 69.3657 68.4506 72.6718 67.207L72.3197 66.271L71.9676 65.335C68.6984 66.5648 65.4078 67.6915 62.0979 68.6806L62.3842 69.6388ZM82.038 62.3191L82.4362 63.2364C85.6593 61.8373 88.8532 60.3729 92.0146 58.8787L91.5873 57.9746L91.16 57.0705C88.0122 58.5582 84.8384 60.0133 81.6398 61.4018L82.038 62.3191ZM101.035 53.4067L101.476 54.3043C104.654 52.7439 107.79 51.1922 110.893 49.68L110.455 48.781L110.017 47.8821C106.911 49.3957 103.764 50.9527 100.594 52.509L101.035 53.4067ZM119.935 44.2789L120.351 45.1881C123.598 43.7009 126.794 42.3086 129.939 41.0563L129.569 40.1273L129.2 39.1982C126.015 40.4662 122.786 41.8728 119.518 43.3698L119.935 44.2789ZM139.457 36.6492L139.743 37.6075C143.182 36.5816 146.544 35.8002 149.828 35.3266L149.685 34.3369L149.542 33.3471C146.144 33.8373 142.684 34.643 139.171 35.6909L139.457 36.6492ZM160.144 33.9428L160.062 34.9394C161.767 35.0796 163.446 35.3324 165.101 35.7084L165.322 34.7332L165.544 33.7581C163.793 33.3602 162.02 33.0936 160.226 32.9462L160.144 33.9428ZM165.322 34.7332L165.101 35.7084C166.762 36.0859 168.381 36.353 169.964 36.5186L170.068 35.524L170.172 34.5294C168.67 34.3724 167.13 34.1186 165.544 33.7581L165.322 34.7332ZM179.62 35.2736L179.777 36.2613C183.014 35.7485 186.129 34.8343 189.198 33.6323L188.834 32.7011L188.469 31.77C185.507 32.9299 182.533 33.7998 179.464 34.2859L179.62 35.2736ZM197.497 28.5995L197.973 29.4793C200.706 28.0023 203.472 26.3752 206.32 24.6796L205.808 23.8204L205.297 22.9612C202.451 24.6556 199.715 26.2642 197.022 27.7198L197.497 28.5995ZM214.073 18.933L214.573 19.799C217.242 18.2579 220.019 16.7139 222.942 15.2143L222.485 14.3246L222.029 13.4348C219.068 14.954 216.261 16.515 213.573 18.0669L214.073 18.933ZM231.164 10.2434L231.556 11.1635C234.371 9.96549 237.326 8.83509 240.444 7.80431L240.13 6.85484L239.816 5.90538C236.641 6.95485 233.635 8.10519 230.773 9.32323L231.164 10.2434ZM249.336 4.24485L249.567 5.21776C252.534 4.51262 255.641 3.90318 258.905 3.41016L258.755 2.42138L258.606 1.4326C255.287 1.93401 252.125 2.55408 249.104 3.27195L249.336 4.24485ZM268.275 1.36181L268.348 2.35915C271.4 2.13604 274.578 2.01223 277.892 2.00086L277.889 1.00087L277.885 0.000872791C274.526 0.0124009 271.301 0.137917 268.202 0.364469L268.275 1.36181ZM287.436 1.26602L287.378 2.26435C290.432 2.44073 293.593 2.70814 296.867 3.07481L296.978 2.08102L297.089 1.08723C293.781 0.716686 290.585 0.446188 287.493 0.26768L287.436 1.26602ZM306.477 3.37814L306.319 4.36555C309.358 4.8524 312.488 5.4204 315.711 6.075L315.91 5.09501L316.109 4.11501C312.859 3.45507 309.703 2.88209 306.636 2.39073L306.477 3.37814Z" fill="#5D2D2B"/>
</svg>
