<svg width="315" height="83" viewBox="0 0 315 83" fill="none" xmlns="http://www.w3.org/2000/svg">
<path d="M0.21552 73.6048C0.403239 76.5443 2.93838 78.7751 5.87791 78.5874C8.81744 78.3997 11.0482 75.8645 10.8605 72.925C10.6728 69.9855 8.13765 67.7547 5.19812 67.9424C2.25859 68.1301 0.0278014 70.6652 0.21552 73.6048ZM314.504 21.0338L308.923 10.925L302.959 20.8126L314.504 21.0338ZM5.53801 73.2649L5.33387 74.2438C7.03228 74.598 8.70789 74.939 10.3611 75.2671L10.5557 74.2863L10.7504 73.3054C9.10368 72.9786 7.43437 72.6388 5.74215 72.2859L5.53801 73.2649ZM20.2184 76.1036L20.0439 77.0883C23.4583 77.6935 26.7692 78.2396 29.9801 78.7291L30.1308 77.7406L30.2815 76.752C27.0872 76.265 23.7922 75.7215 20.3929 75.119L20.2184 76.1036ZM40.0271 79.1116L39.9041 80.104C43.3358 80.5293 46.642 80.8842 49.828 81.1725L49.9181 80.1766L50.0083 79.1807C46.8453 78.8944 43.561 78.5419 40.1501 78.1192L40.0271 79.1116ZM59.8335 80.8825L59.7829 81.8812C63.274 82.058 66.6032 82.1463 69.7793 82.1524L69.7812 81.1524L69.7831 80.1524C66.6414 80.1463 63.3447 80.059 59.8841 79.8837L59.8335 80.8825ZM79.7344 80.8804L79.7933 81.8787C83.3266 81.6701 86.6401 81.3459 89.7508 80.9182L89.6146 79.9275L89.4784 78.9368C86.4223 79.357 83.1605 79.6764 79.6754 79.8822L79.7344 80.8804ZM99.3721 78.1019L99.6077 79.0737C103.121 78.222 106.316 77.2149 109.234 76.0799L108.871 75.148L108.508 74.216C105.679 75.3169 102.568 76.2979 99.1364 77.13L99.3721 78.1019ZM117.814 70.794L118.329 71.6511C121.43 69.7876 124.107 67.7568 126.452 65.628L125.78 64.8875L125.108 64.147C122.856 66.1911 120.284 68.143 117.299 69.9368L117.814 70.794ZM132.483 57.5214L133.28 58.1261C135.425 55.3013 137.214 52.4544 138.83 49.7348L137.97 49.2239L137.111 48.713C135.511 51.4046 133.766 54.1786 131.687 56.9166L132.483 57.5214ZM143.068 40.6648L143.908 41.2075C145.833 38.2278 147.788 35.7738 150.179 34.0483L149.594 33.2373L149.009 32.4264C146.317 34.3684 144.201 37.0678 142.228 40.1222L143.068 40.6648ZM158.898 30.2715L158.921 31.2712C160.376 31.2375 161.976 31.3522 163.748 31.6379L163.907 30.6507L164.066 29.6634C162.191 29.3611 160.468 29.2348 158.875 29.2718L158.898 30.2715ZM163.907 30.6507L163.748 31.6379C165.482 31.9176 167.192 32.0702 168.883 32.1091L168.906 31.1094L168.929 30.1097C167.328 30.0728 165.709 29.9283 164.066 29.6634L163.907 30.6507ZM178.848 30.0564L179.07 31.0314C182.334 30.2885 185.548 29.2017 188.746 27.8869L188.366 26.962L187.986 26.0371C184.863 27.3208 181.757 28.3687 178.626 29.0813L178.848 30.0564ZM197.446 22.7044L197.903 23.5937C200.821 22.0934 203.77 20.4865 206.764 18.8618L206.287 17.9828L205.811 17.1039C202.809 18.7324 199.883 20.3271 196.989 21.815L197.446 22.7044ZM215.149 13.281L215.603 14.1719C218.526 12.6823 221.519 11.2416 224.609 9.91332L224.214 8.99463L223.819 8.07593C220.678 9.42601 217.644 10.8868 214.695 12.39L215.149 13.281ZM233.592 5.47111L233.895 6.42409C236.981 5.4429 240.171 4.61503 243.486 3.99304L243.301 3.0102L243.117 2.02735C239.714 2.66583 236.445 3.51468 233.289 4.51813L233.592 5.47111ZM253.245 1.82361L253.296 2.8223C256.471 2.65957 259.762 2.69912 263.183 2.97884L263.264 1.98217L263.346 0.985491C259.836 0.698486 256.457 0.657696 253.194 0.824922L253.245 1.82361ZM273.197 3.417L272.996 4.3965C276.076 5.02995 279.259 5.85724 282.551 6.9012L282.853 5.94797L283.156 4.99474C279.799 3.93052 276.55 3.08543 273.399 2.4375L273.197 3.417ZM292.297 9.42239L291.912 10.3453C294.83 11.5628 297.829 12.9454 300.915 14.5062L301.366 13.6138L301.818 12.7215C298.69 11.1398 295.647 9.73668 292.682 8.49953L292.297 9.42239ZM0.21552 73.6048C0.403239 76.5443 2.93838 78.7751 5.87791 78.5874C8.81744 78.3997 11.0482 75.8645 10.8605 72.925C10.6728 69.9855 8.13765 67.7547 5.19812 67.9424C2.25859 68.1301 0.0278014 70.6652 0.21552 73.6048ZM314.504 21.0338L308.923 10.925L302.959 20.8126L314.504 21.0338ZM5.53801 73.2649L5.33387 74.2438C7.03228 74.598 8.70789 74.939 10.3611 75.2671L10.5557 74.2863L10.7504 73.3054C9.10368 72.9786 7.43437 72.6388 5.74215 72.2859L5.53801 73.2649ZM20.2184 76.1036L20.0439 77.0883C23.4583 77.6935 26.7692 78.2396 29.9801 78.7291L30.1308 77.7406L30.2815 76.752C27.0872 76.265 23.7922 75.7215 20.3929 75.119L20.2184 76.1036ZM40.0271 79.1116L39.9041 80.104C43.3358 80.5293 46.642 80.8842 49.828 81.1725L49.9181 80.1766L50.0083 79.1807C46.8453 78.8944 43.561 78.5419 40.1501 78.1192L40.0271 79.1116ZM59.8335 80.8825L59.7829 81.8812C63.274 82.058 66.6032 82.1463 69.7793 82.1524L69.7812 81.1524L69.7831 80.1524C66.6414 80.1463 63.3447 80.059 59.8841 79.8837L59.8335 80.8825ZM79.7344 80.8804L79.7933 81.8787C83.3266 81.6701 86.6401 81.3459 89.7508 80.9182L89.6146 79.9275L89.4784 78.9368C86.4223 79.357 83.1605 79.6764 79.6754 79.8822L79.7344 80.8804ZM99.3721 78.1019L99.6077 79.0737C103.121 78.222 106.316 77.2149 109.234 76.0799L108.871 75.148L108.508 74.216C105.679 75.3169 102.568 76.2979 99.1364 77.13L99.3721 78.1019ZM117.814 70.794L118.329 71.6511C121.43 69.7876 124.107 67.7568 126.452 65.628L125.78 64.8875L125.108 64.147C122.856 66.1911 120.284 68.143 117.299 69.9368L117.814 70.794ZM132.483 57.5214L133.28 58.1261C135.425 55.3013 137.214 52.4544 138.83 49.7348L137.97 49.2239L137.111 48.713C135.511 51.4046 133.766 54.1786 131.687 56.9166L132.483 57.5214ZM143.068 40.6648L143.908 41.2075C145.833 38.2278 147.788 35.7738 150.179 34.0483L149.594 33.2373L149.009 32.4264C146.317 34.3684 144.201 37.0678 142.228 40.1222L143.068 40.6648ZM158.898 30.2715L158.921 31.2712C160.376 31.2375 161.976 31.3522 163.748 31.6379L163.907 30.6507L164.066 29.6634C162.191 29.3611 160.468 29.2348 158.875 29.2718L158.898 30.2715ZM163.907 30.6507L163.748 31.6379C165.482 31.9176 167.192 32.0702 168.883 32.1091L168.906 31.1094L168.929 30.1097C167.328 30.0728 165.709 29.9283 164.066 29.6634L163.907 30.6507ZM178.848 30.0564L179.07 31.0314C182.334 30.2885 185.548 29.2017 188.746 27.8869L188.366 26.962L187.986 26.0371C184.863 27.3208 181.757 28.3687 178.626 29.0813L178.848 30.0564ZM197.446 22.7044L197.903 23.5937C200.821 22.0934 203.77 20.4865 206.764 18.8618L206.287 17.9828L205.811 17.1039C202.809 18.7324 199.883 20.3271 196.989 21.815L197.446 22.7044ZM215.149 13.281L215.603 14.1719C218.526 12.6823 221.519 11.2416 224.609 9.91332L224.214 8.99463L223.819 8.07593C220.678 9.42601 217.644 10.8868 214.695 12.39L215.149 13.281ZM233.592 5.47111L233.895 6.42409C236.981 5.4429 240.171 4.61503 243.486 3.99304L243.301 3.0102L243.117 2.02735C239.714 2.66583 236.445 3.51468 233.289 4.51813L233.592 5.47111ZM253.245 1.82361L253.296 2.8223C256.471 2.65957 259.762 2.69912 263.183 2.97884L263.264 1.98217L263.346 0.985491C259.836 0.698486 256.457 0.657696 253.194 0.824922L253.245 1.82361ZM273.197 3.417L272.996 4.3965C276.076 5.02995 279.259 5.85724 282.551 6.9012L282.853 5.94797L283.156 4.99474C279.799 3.93052 276.55 3.08543 273.399 2.4375L273.197 3.417ZM292.297 9.42239L291.912 10.3453C294.83 11.5628 297.829 12.9454 300.915 14.5062L301.366 13.6138L301.818 12.7215C298.69 11.1398 295.647 9.73668 292.682 8.49953L292.297 9.42239Z" fill="#5D2D2B"/>
</svg>
