<svg width="298" height="322" viewBox="0 0 298 322" fill="none" xmlns="http://www.w3.org/2000/svg">
<path d="M210.012 -29.4113C210.202 -29.1045 212.716 -25.6554 215.615 -21.7228C235.804 5.78225 253.691 37.5941 265.902 67.9118C279.141 100.647 288.067 133.887 293.448 170.59C295.241 182.754 296.999 200.834 297.549 213.046C299.385 254.105 295.094 286.695 285.734 303.127C283.689 306.681 279.724 311.592 276.834 314.057C272.758 317.553 266.137 320.502 260.694 321.238C254.294 322.142 246.927 320.591 241.2 317.093C235.766 313.795 232.266 310.192 228.313 303.731C223.837 296.491 220.714 288.627 214.045 268.028C205.422 241.385 201.042 229.634 194.607 215.59C191.486 208.827 181.168 192.138 177.631 188.134C169.063 178.463 161.713 173.508 152.343 171.118C136.6 167.07 116.139 171.792 90.3724 185.433C83.3344 189.149 64.3497 201.269 56.9508 206.734C38.6472 220.299 22.24 234.048 3.81787 251.333C-3.21963 257.932 -15.2975 269.556 -16.4748 270.877C-16.8711 271.334 -17.6605 270.126 -30.9381 248.652L-44.9555 225.982L-43.2022 224.219C-21.2394 202.71 4.50494 180.728 27.7147 163.705C36.0155 157.64 62.616 141.023 69.8292 137.454C101.455 121.758 125.869 115.949 150.828 118.157C157.347 118.749 169.557 121.546 175.119 123.747C187.449 128.59 198.452 135.611 207.991 144.725C221.234 157.358 233.026 174.577 242.048 194.314C242.997 196.399 243.882 198.311 244.053 198.587C245.101 200.144 241.8 175.385 239.041 160.765C229.488 110.315 211.749 66.1143 184.364 24.5697C178.94 16.3466 172.161 6.75618 167.951 1.38747C166.875 0.0595202 165.842 -1.33705 165.595 -1.73585L165.178 -2.41074L187.434 -16.1717C208.431 -29.1545 209.709 -29.9021 210.012 -29.4113Z" fill="#FED45C"/>
</svg>
