<svg width="28" height="28" viewBox="0 0 28 28" fill="none" xmlns="http://www.w3.org/2000/svg">
<rect width="28" height="28" rx="14" fill="url(#paint0_linear_6252_3208)"/>
<path d="M5.50781 22.145L6.70824 17.7859C5.96608 16.5064 5.57676 15.0574 5.58081 13.5761C5.58081 8.9345 9.37674 5.16064 14.0365 5.16064C16.2994 5.16064 18.4245 6.0365 20.0183 7.62677C21.6162 9.21704 22.4962 11.332 22.4922 13.5802C22.4922 18.2218 18.6962 21.9957 14.0324 21.9957H14.0284C12.613 21.9957 11.222 21.6405 9.98506 20.9705L5.50781 22.145ZM10.2 19.4488L10.4555 19.6022C11.5343 20.2399 12.7712 20.5749 14.0324 20.579H14.0365C17.9095 20.579 21.0646 17.4428 21.0646 13.5842C21.0646 11.7155 20.3347 9.9597 19.0085 8.63582C17.6824 7.31194 15.9142 6.58543 14.0365 6.58543C10.1635 6.58139 7.00834 9.71753 7.00834 13.5761C7.00834 14.896 7.37739 16.1835 8.08304 17.2975L8.24932 17.5639L7.53961 20.1431L10.2 19.4488Z" fill="white"/>
<path d="M5.80371 21.8502L6.96358 17.6404C6.24576 16.4094 5.8686 15.0088 5.8686 13.58C5.87265 9.09978 9.53475 5.45508 14.0363 5.45508C16.2222 5.45508 18.2703 6.30268 19.8113 7.83644C21.3524 9.3702 22.2 11.4125 22.2 13.584C22.2 18.0642 18.5339 21.7089 14.0363 21.7089H14.0323C12.6656 21.7089 11.3232 21.3658 10.1309 20.72L5.80371 21.8502Z" fill="url(#paint1_linear_6252_3208)"/>
<path d="M5.50781 22.145L6.70824 17.7859C5.96608 16.5064 5.57676 15.0574 5.58081 13.5761C5.58081 8.9345 9.37674 5.16064 14.0365 5.16064C16.2994 5.16064 18.4245 6.0365 20.0183 7.62677C21.6162 9.21704 22.4962 11.332 22.4922 13.5802C22.4922 18.2218 18.6962 21.9957 14.0324 21.9957H14.0284C12.613 21.9957 11.222 21.6405 9.98506 20.9705L5.50781 22.145ZM10.2 19.4488L10.4555 19.6022C11.5343 20.2399 12.7712 20.5749 14.0324 20.579H14.0365C17.9095 20.579 21.0646 17.4428 21.0646 13.5842C21.0646 11.7155 20.3347 9.9597 19.0085 8.63582C17.6824 7.31194 15.9142 6.58543 14.0365 6.58543C10.1635 6.58139 7.00834 9.71753 7.00834 13.5761C7.00834 14.896 7.37739 16.1835 8.08304 17.2975L8.24932 17.5639L7.53961 20.1431L10.2 19.4488Z" fill="url(#paint2_linear_6252_3208)"/>
<path fill-rule="evenodd" clip-rule="evenodd" d="M11.924 10.0567C11.7659 9.7056 11.5996 9.69753 11.4495 9.69349C11.3279 9.68945 11.1859 9.68945 11.044 9.68945C10.9021 9.68945 10.6749 9.74192 10.4803 9.95181C10.2856 10.1617 9.74219 10.6703 9.74219 11.7076C9.74219 12.7408 10.5006 13.7418 10.606 13.8831C10.7114 14.0243 12.07 16.216 14.2154 17.0596C15.9998 17.7619 16.3648 17.6206 16.7501 17.5843C17.1353 17.548 17.9991 17.0757 18.1776 16.5833C18.352 16.0909 18.352 15.6711 18.2993 15.5823C18.2465 15.4935 18.1046 15.4411 17.8937 15.3361C17.6828 15.2312 16.6446 14.7226 16.45 14.65C16.2553 14.5813 16.1133 14.545 15.9755 14.7549C15.8335 14.9648 15.428 15.437 15.3063 15.5783C15.1846 15.7196 15.0589 15.7357 14.848 15.6308C14.6372 15.5258 13.9558 15.3038 13.1488 14.5854C12.5202 14.0284 12.0944 13.3382 11.9727 13.1283C11.851 12.9184 11.9605 12.8054 12.066 12.7005C12.1593 12.6076 12.2769 12.4543 12.3823 12.3332C12.4877 12.2121 12.5242 12.1233 12.5932 11.982C12.6621 11.8408 12.6297 11.7197 12.577 11.6147C12.5242 11.5138 12.1106 10.4725 11.924 10.0567Z" fill="white"/>
<defs>
<linearGradient id="paint0_linear_6252_3208" x1="13.9993" y1="27.9986" x2="13.9993" y2="-0.000979647" gradientUnits="userSpaceOnUse">
<stop stop-color="#20B038"/>
<stop offset="1" stop-color="#60D66A"/>
</linearGradient>
<linearGradient id="paint1_linear_6252_3208" x1="14.0014" y1="21.8494" x2="14.0014" y2="5.4545" gradientUnits="userSpaceOnUse">
<stop stop-color="#20B038"/>
<stop offset="1" stop-color="#60D66A"/>
</linearGradient>
<linearGradient id="paint2_linear_6252_3208" x1="14.0016" y1="22.1434" x2="14.0016" y2="5.16064" gradientUnits="userSpaceOnUse">
<stop stop-color="#F9F9F9"/>
<stop offset="1" stop-color="white"/>
</linearGradient>
</defs>
</svg>
