<svg width="741" height="338" viewBox="0 0 741 338" fill="none" xmlns="http://www.w3.org/2000/svg">
<path d="M336 1C355 108 814 -106.5 381.5 210C329.944 247.728 278.929 276.182 231.797 296.478M231.797 296.478C56.3028 372.05 -65.3438 334.519 39.5003 241.5C252.712 52.3367 225.36 236.537 229.812 228.385M231.797 296.478C219.402 279.504 220.598 254.143 229.812 228.385M231.797 296.478C251.805 323.876 307.225 329.42 421.502 279.5C608.302 197.9 716.833 134.167 726.5 120.5M229.812 228.385C229.987 228.065 230.211 227.448 230.5 226.5C230.266 227.129 230.037 227.757 229.812 228.385ZM740.033 174.351L734.464 113.364L676 106.438" stroke="black" stroke-dasharray="15 15"/>
</svg>
