<svg width="641" height="318" viewBox="0 0 641 318" fill="none" xmlns="http://www.w3.org/2000/svg">
<path d="M487.867 19.174C492.117 20.0381 496.207 20.414 496.885 26.5011C497.231 29.6016 501.409 29.9187 504.493 30.0024C510.026 30.1535 511.472 31.0487 511.143 35.9872C510.878 39.9754 512.165 41.1554 515.889 41.4838C520.793 41.9158 525.388 43.3155 530.548 41.3289C535.193 39.5421 537.85 41.9008 540.055 47.501C540.522 48.6872 541.192 50.2693 542.577 49.414C548.887 45.5157 556.423 48.5524 563.184 45.1123C567.675 42.8273 574.075 43.8624 578.581 48.1978C580.76 50.2943 583.345 51.3019 586.049 49.4589C588.917 47.5048 591.291 49.3028 592.767 50.8225C597.454 55.6485 602.746 54.2138 608.124 53.1874C608.843 53.05 609.54 52.7903 610.248 52.588C613.169 51.7502 610.431 58.4617 613.705 55.601C615.44 54.0852 616.653 53.768 618.615 53.5295C627.554 52.442 634.145 57.5177 641 62.0166L637.721 69.7271C637.484 69.6667 637.246 69.6113 637.006 69.561C635.062 69.1552 633.287 65.7489 632.701 66.6804C631.489 68.6033 629.051 70.2478 629.367 72.9374C629.774 76.3886 628.069 77.204 625.016 77.3501C622.297 77.48 619.519 77.9619 617.414 80.1134C615.699 81.8677 613.667 81.9027 611.235 81.809C604.952 81.5668 601.57 84.5536 600.784 90.9305C599.977 97.4709 593.877 99.8184 590.65 104.425C589.608 105.913 588.672 103.984 588.112 102.991C585.552 98.4486 587.138 94.2257 589.422 90.24C590.527 88.312 592.303 86.7787 593.705 85.0094C594.555 83.9368 596.768 83.2475 595.76 81.5793C594.868 80.1034 592.819 79.7026 591.043 79.7488C588.824 79.8075 587.323 81.3308 586.3 83.0602C584.518 86.0744 582.417 85.6312 579.329 85.0768C571.279 83.6321 562.943 82.7867 557.336 90.8755C555.852 93.017 551.258 93.3291 552.659 96.8066C553.977 100.079 558.037 97.9142 560.787 98.762C562.819 99.3876 565.558 98.6859 565.649 101.424C565.746 104.376 568.747 107.68 565.399 110.31C564.36 111.126 563.422 111.623 563.281 113.013C563.21 113.713 563.234 114.774 562.378 114.771C561.569 114.769 561.658 113.722 561.574 113.049C561.513 112.552 561.555 112.044 561.498 111.546C561.338 110.148 561.953 108.633 560.869 107.375C560.491 108.79 560.362 110.338 559.692 111.598C556.503 117.613 553.103 123.294 545.648 125.105C538.819 126.763 538.14 128.163 539.783 135.068C540.382 137.585 540.395 139.729 537.699 140.619C535.092 141.48 534.28 139.056 533.381 137.378C532.687 136.084 532.298 134.563 532.073 133.099C531.742 130.954 530.552 130.76 528.882 131.374C527.583 131.853 526.203 133.473 525.017 131.553C524.199 130.228 523.678 129.352 522.497 131.014C521.789 132.009 520.676 133.235 520.814 134.204C521.115 136.312 522.676 134.606 523.691 134.705C526.594 134.989 529.329 135.335 525.515 138.76C523.785 140.313 524.302 142.346 524.699 144.374C526.725 154.73 522.291 162.381 512.473 165.892C510.019 166.77 506.955 166.62 505.896 170.083C505.221 172.289 504.214 172.102 503.233 169.893C502.049 167.222 500.275 168.931 498.945 169.863C497.141 171.129 497.111 172.715 498.786 174.234C499.529 174.909 500.325 175.531 501.02 176.251C505.76 181.164 504.091 188.043 497.641 190.609C495.862 191.317 495.589 190.101 494.877 189.09C492.94 186.339 489.598 183.092 487.111 185.345C483.902 188.252 487.295 191.704 489.848 194.15C491.727 195.95 493.938 198.116 493.462 200.454C492.37 205.8 497.101 209.052 497.401 213.788C497.537 215.923 499.592 216.243 501.301 216.717C506.316 218.11 510.986 220.987 516.529 220.121C517.482 219.973 518.882 220.356 518.952 221.382C519.052 222.838 517.541 222.419 516.658 222.499C510.336 223.067 503.865 222 498.178 220.181C493.795 218.779 490.085 213.731 487.237 209.518C484.872 206.008 482.278 202.659 479.472 199.492C478.651 198.567 477.117 197.983 478.108 196.583C479.227 195.005 480.86 195.625 482.02 196.648C483.703 198.132 485.173 199.861 486.753 201.465C487.277 201.997 488.026 202.579 488.66 202.043C489.403 201.416 488.607 200.735 488.218 200.19C484.104 194.426 482.561 188.032 483.126 180.986C483.337 178.359 482.908 175.729 479.014 176.571C475.664 177.295 475.752 174.095 474.589 172.446C469.706 165.529 467.893 165.351 461.62 170.959C460.18 172.247 458.601 173.379 457.026 174.498C451.608 178.348 450.18 184.05 452.963 190.381C453.533 191.678 454.93 193.114 453.388 194.428C451.966 195.639 450.767 194.107 449.413 193.644C443.162 191.505 440.807 186.29 439.948 180.68C438.667 172.323 432.383 167.492 427.892 161.37C426.74 159.797 425.019 159.465 423.213 159.434C420.956 159.394 418.681 159.194 416.448 159.413C415.057 159.549 413.734 159.347 412.429 159.061C410.204 158.574 408.885 161.436 410.699 162.813C411.565 163.47 412.504 164.068 413.305 164.78C414.747 166.061 413.262 166.837 412.843 167.924C410.194 174.798 403.588 176.567 397.912 179.178C394.362 180.81 391.001 183.277 386.849 183.522C386.078 183.567 385.311 183.973 385.311 184.854C385.311 186.044 386.252 186.619 387.252 186.708C389.795 186.938 392.035 185.55 394.467 185.161C397.854 184.622 399.488 186.922 397.978 190.005C394.998 196.09 391.167 201.702 385.679 205.98C377.275 212.532 376.475 215.208 379.626 225.021C382.096 232.711 381.806 233.871 375.108 238.958C372.552 240.9 370.362 242.679 371.633 246.354C372.136 247.808 372.259 249.794 371.057 250.625C366.251 253.947 364.679 259.474 361.662 263.969C356.811 271.195 349.378 270.848 342.226 271.392C339.985 271.563 338.295 269.338 338.068 267.599C337.25 261.339 334.149 255.642 332 250.121C328.694 241.627 326.213 234.303 329.526 225.347C330.476 222.776 329.224 218.529 327.534 216.032C324.703 211.848 323.357 207.632 323.488 202.71C323.529 201.142 322.678 199.189 321.099 199.419C316.793 200.045 313.301 196.075 309.694 196.888C305.647 197.8 301.216 197.002 297.496 199.319C294.998 200.874 292.788 200.249 290.513 198.752C284.801 194.993 281.565 188.845 276.581 184.385C276.058 183.916 275.743 182.997 275.867 182.307C277.581 172.807 274.303 161.883 283.257 154.43C287.61 150.806 289.329 145.253 293.517 141.54C295.275 139.98 295.356 137.869 292.684 136.825C290.901 136.128 289.043 135.125 289.623 133.199C290.589 129.988 288.729 126.605 290.354 123.666C291.813 121.031 294.647 121.509 297.129 121.641C304.526 122.036 305.202 121.468 303.887 113.916C303.331 110.717 304.092 109.224 306.822 107.247C309.989 104.952 313.014 102.283 316.233 100.007C321.412 96.3434 321.997 94.9199 318.299 89.3559C317.141 87.6153 316.39 85.9121 315.934 83.9517C314.664 78.4901 315.52 76.1402 320.67 73.7178C324.263 72.0283 326.957 69.817 328.537 66.1222C331.282 59.7029 336.57 56.0643 342.83 53.6519C345.399 52.6617 348.083 51.9712 350.67 51.021C355.278 49.3278 359.215 48.5449 363.393 52.9714C366.143 55.8845 371.39 55.4362 375.03 57.7987C376.268 58.6028 378.191 58.7414 378.965 59.7978C381.996 63.9271 384.217 66.0648 385.939 58.9212C386.334 57.2817 388.952 56.7348 390.364 58.418C392.509 60.9765 394.441 60.3771 396.875 58.9699C400.959 56.61 405.695 57.8062 410.093 56.9483C414.76 56.0381 411.698 54.024 411.097 52.2871L411.181 52.1835C414.853 52.9364 418.507 53.7942 422.202 54.3986C424.158 54.7183 425.536 54.7657 426.143 51.7002C427.462 45.0462 430.446 43.7913 437.744 44.4793C440.355 44.7253 442.88 44.2745 445.525 45.4445C447.053 46.12 449.793 45.8228 450.217 43.1058C450.808 39.3161 452.743 39.8043 455.594 40.6409C458.23 41.4138 461.829 42.7362 461.791 37.4081C461.781 36.0121 463.505 35.7574 464.716 35.4927C470.035 34.3315 474.997 31.8866 480.731 32.1426C485.997 32.3773 487.418 28.8773 484.588 23.8515C486.139 22.6203 487.032 20.9184 487.867 19.174ZM319.123 122.946C313.572 123.927 309.805 127.28 307.544 132.111C306.439 134.472 305.476 136.59 303.033 137.753C302.218 138.14 300.567 137.917 300.767 138.981C300.923 139.81 302.589 139.637 303.482 139.325C307.957 137.762 312.411 136.3 317.207 135.883C319.828 135.655 322.18 136.032 324.464 137.078C326.709 138.107 326.42 140.232 326.544 142.25C326.641 143.818 327.867 145.126 329.435 145.207C334.459 145.465 339.246 149.73 344.567 146.014C345.388 145.44 347.173 145.559 348.173 146.05C353.708 148.771 359.629 146.883 365.317 147.666C368.103 148.049 369.094 145.318 369.627 143.293C370.28 140.815 368.272 140.765 366.345 140.632C364.676 140.516 362.945 139.117 361.428 139.377C356.205 140.271 353.905 138.1 353.575 133.08C353.509 132.066 352.894 131.1 351.635 131.273C350.788 131.391 350.862 132.321 350.541 132.938C348.692 136.501 343.904 137.113 341.614 134.081C340.919 133.162 340.858 130.724 339.849 131.231C334.65 133.843 332.35 129.009 328.885 127.331C326.61 126.229 325.196 125.824 324.967 129.131C324.847 130.89 323.864 133.111 321.882 132.527C319.035 131.688 321.561 129.711 321.684 128.219C321.872 125.983 323.488 123.006 319.123 122.946ZM338.964 95.553C342.43 95.734 342.143 95.5517 343.551 93.3304C346.857 88.1123 345.546 82.9541 343.82 77.7572C343.335 76.295 343.528 73.5942 340.852 74.5494C338.814 75.2773 337.538 77.6523 338.859 79.4491C343.323 85.5275 337.45 88.4619 335.047 92.1379C333.546 94.4367 330.528 96.7679 327.978 92.4264C327.605 91.7908 326.746 91.2763 326.142 91.8757C325.71 92.3052 325.537 93.2829 325.658 93.941C326.454 98.2538 329.848 97.3348 332.749 97.3423C334.986 97.3485 336.404 94.4617 338.964 95.553ZM380.203 125.897C379.145 121.77 373.298 122.127 372.434 117.392C372.237 116.312 370.762 119.05 369.714 119.844C368.052 121.102 366.375 121.478 365.346 119.41C364.504 117.718 363.599 116.701 362.134 118.246C360.461 120.012 358.479 121.835 358.8 124.685C359.005 126.497 360.397 127.531 361.926 127.198C366.725 126.151 371.17 126.823 375.701 128.609C377.6 129.355 379.679 128.459 380.203 125.897ZM375.472 165.068C373.902 165.408 373.841 166.55 373.758 167.8C373.516 171.444 376.133 173.563 378.057 176.044C378.93 177.169 379.827 179.18 381.27 178.565C383.353 177.676 382.041 175.628 381.647 174.082C380.9 171.145 378.737 168.998 377.222 166.49C376.875 165.913 376.124 165.581 375.472 165.068ZM0 100.655C6.27221 96.8041 12.623 93.1219 19.6435 90.7494C20.539 90.4472 21.7837 89.8916 21.6865 88.8077C21.5742 87.5528 20.0613 88.0985 19.2681 87.6315C16.0366 85.7286 12.6866 83.9917 9.62346 81.8452C5.83943 79.1931 6.01528 76.998 9.91156 74.6218C10.7522 74.1086 11.7412 73.8426 12.6567 73.4481C13.7056 72.9948 15.8408 73.307 15.4217 71.7574C15.0538 70.3963 13.2291 71.6825 12.0555 71.6163C11.069 71.5613 10.0088 71.6175 9.11959 71.2692C7.40467 70.5974 5.89181 69.3175 6.19862 67.3646C6.589 64.8785 8.79406 64.6863 10.8607 64.6625C11.7811 64.6513 13.1007 65.7314 13.5098 64.5776C13.8902 63.5063 12.3137 63.3352 11.5192 62.8195C5.58375 58.9612 5.6062 58.0172 11.5853 54.5422C13.0982 53.6631 14.515 52.583 16.1027 51.8801C20.6163 49.8822 24.8581 48.6723 30.1849 50.5477C35.9583 52.5806 42.4512 52.4619 48.5413 53.7193C56.0969 55.2789 63.2709 55.3151 70.9761 53.3547C78.377 51.4718 86.3105 52.8727 93.7339 55.4862C94.6257 55.7996 95.7694 56.5887 96.4628 55.5523C97.0901 54.6146 96.3244 53.597 95.485 53.0313C94.2316 52.1885 93.0854 51.4805 92.7673 49.7324C92.4069 47.752 91.237 47.31 89.7117 48.952C87.9032 50.8986 85.7268 50.8637 83.5068 49.8959C81.2344 48.9058 79.497 47.4523 81.0698 44.7078C81.9503 43.1707 82.9144 41.7672 82.8084 39.8705C82.6587 37.2096 84.9823 36.624 86.3068 37.4756C90.5685 40.2126 95.9115 38.6955 100.241 42.0444C103.8 44.7989 108.715 45.6068 113.411 42.7412C116.121 41.0879 118.981 40.7221 118.389 45.6006C118.159 47.4948 118.794 49.5626 120.196 50.3055C124.045 52.3446 127.274 53.9166 121.795 57.9061C120.646 58.7426 121.501 60.3185 122.93 60.7243C124.633 61.2075 127.077 61.5434 127.273 59.3682C127.502 56.8197 128.385 55.4362 130.372 53.9665C133.613 51.5691 133.068 50.1057 128.905 50.062C125.523 50.0258 124.364 46.5171 121.819 45.1198C124.783 44.5854 125.948 41.0255 129.145 40.8057C130.884 40.6859 132.608 40.3088 134.336 40.0241C136.8 39.6183 138.487 38.3896 138.85 35.7399C139.035 34.3964 138.938 33.1577 137.353 32.8418C135.091 32.3923 133.103 31.0463 131.063 34.324C128.182 38.9502 122.473 35.0782 118.484 37.1971L117.45 34.4563C118.074 33.792 118.144 33.129 117.447 32.466C117.96 29.8014 116.028 27.3989 117.319 24.4109C119.484 19.3988 120.028 18.8869 124.393 21.6564C125.695 22.483 127.361 23.4145 126.852 25.019C126.17 27.1642 124.355 25.3461 123.058 25.4336C121.448 25.5422 119.898 25.687 119.88 27.7099C119.863 29.7002 121.331 30.0536 122.992 30.0436C124.742 30.0336 126.497 30.2059 128.24 30.1123C131.457 29.9399 133.337 28.8474 130.751 25.5122C129.626 24.06 128.182 22.4568 130.036 20.9908C131.967 19.4637 133.307 21.6826 134.242 22.8638C135.176 24.0438 138.453 24.0426 136.513 27.2853C135.926 28.268 139.035 28.9385 140.623 29.3306C141.382 29.5179 142.129 29.0534 142.319 28.2056C142.703 26.4837 141.884 25.3362 140.414 24.5557C140.182 24.4377 139.959 24.3016 139.747 24.1487C130.468 17.3211 130.579 15.1796 140.543 9.30843C142.267 8.29025 144.135 7.53922 146.083 7.08084C156.283 4.64596 166.735 3.94298 177.087 2.73053C181.414 2.22358 185.997 3.70697 190.435 4.46241C192.121 4.7496 195.068 5.44635 195.109 6.10439C195.23 8.01733 192.576 7.9474 191.39 9.16858C190.717 9.86284 189.461 10.3573 190.131 11.5235C190.895 12.8534 192.588 12.917 193.318 11.9356C197.672 6.09565 203.745 7.5728 209.718 7.2007C214.578 6.89853 219.487 6.25797 224.482 4.53733C229.983 2.64187 236.543 2.09247 242.723 1.59675C243.961 1.49811 245.554 2.20235 246.42 1.65044C253.895 -3.10943 260.146 3.97419 267.126 3.63706C267.958 3.5971 268.599 4.30133 268.332 5.13667C268.132 5.761 267.486 6.65755 266.979 6.69875C263.491 6.98469 259.987 7.05961 256.49 7.24816C255.769 7.28687 255.058 7.52411 254.342 7.6702C254.766 8.89513 255.853 8.47684 256.643 8.47559C264.112 8.45811 271.568 9.51447 279.062 8.61544C280.881 8.39692 283.519 8.1372 283.877 10.878C284.159 13.0344 281.869 13.4427 280.38 14.2606C275.027 17.2024 269.058 19.7896 273.158 27.8185C273.671 28.8212 272.34 29.7476 272.363 30.5268C272.565 37.4506 266.52 42.8623 267.81 50.0807C268.173 52.1111 266.9 54.2288 264.838 54.8656C260.335 56.2566 256.831 60.2311 251.688 59.9102C251.201 59.8802 250.599 59.9139 250.222 60.1724C242.859 65.2144 233.053 67.6069 230.588 78.0069C229.651 81.9564 227.341 82.4496 223.818 81.4407C218.236 79.8424 215.476 75.5907 212.673 71.0007C209.768 66.2446 208.508 61.9392 212.957 57.4728C213.652 56.776 213.603 55.902 212.632 54.9917C210.413 52.9139 206.491 46.1063 205.903 43.8425C204.098 36.8974 197.191 31.2273 190.348 33.0578C182.786 35.0807 180.064 30.0411 176.267 26.0529C174.723 24.4321 176.076 23.2984 177.471 22.6004C179.468 21.6002 181.82 21.6064 183.755 20.2242C185.323 19.1041 185.429 18.1477 184.629 16.4994C183.786 14.7601 182.753 15.3719 181.611 15.8302C174.815 18.5547 168.783 21.8924 166.552 29.8076C165.805 32.461 163.712 34.6262 163.026 37.6654C162.436 40.2801 158.859 39.6845 156.447 40.0765C155.568 40.2201 154.045 39.3873 153.968 40.606C153.91 41.51 155.738 41.0779 156.521 41.5287C161.941 44.6429 168.664 42.7474 174.074 46.6694C178.382 49.7923 183.458 51.4293 185.555 57.3005C186.577 60.1661 190.542 61.2025 193.528 62.4587C194.924 63.0455 196.948 63.4988 195.424 65.3056C194.23 66.7203 193.664 70.1129 190.471 68.4272C189.396 67.8591 188.595 66.779 187.646 65.9599C187.095 65.4841 186.348 64.8486 185.735 65.3855C185.059 65.9774 185.718 66.7141 186.188 67.2497C186.849 68.0039 187.657 68.642 188.244 69.4449C189.314 70.9108 192.117 72.2818 189.924 74.3009C188.269 75.8255 186.184 78.2791 183.382 76.963C177.861 74.3721 172.914 70.1991 166.151 71.4028C165.509 71.5164 164.88 70.6661 164.868 69.8482C164.855 68.9329 165.506 68.5583 166.32 68.4934C167.566 68.3935 168.884 68.5758 170.049 68.2287C173.247 67.2747 175.212 63.3177 174.073 60.4658C172.75 57.1531 164.732 53.301 160.937 53.7368C158.247 54.0465 160.003 55.1066 159.821 56.2516C159.308 59.4781 161.876 64.5913 155.017 64.8673C152.581 64.9659 154.509 66.975 155.491 67.8853C157.274 69.5398 161.446 69.8007 160.957 72.2106C160.492 74.5082 156.425 71.168 154.363 73.508C153.505 74.4819 151.905 74.5831 150.88 73.7452C146.856 70.4588 144.427 73.8701 141.857 75.9079C134.215 81.9714 134.53 85.3228 143.403 89.6031C145.409 90.5709 147.259 92.0268 149.407 92.55C155.002 93.9147 159.769 96.0025 161.174 102.411C161.422 103.539 162.814 105.585 164.497 104.004C165.422 103.134 165.428 101.683 164.714 100.633C162.522 97.411 162.936 95.2733 166.696 93.6263C168.373 92.8921 167.863 90.9579 167.161 89.6156C165.912 87.2307 166.391 84.7147 166.277 82.2386C165.985 75.8892 169.547 73.5654 175.258 76.5822C177.429 77.7297 179.927 79.0757 181.143 81.0349C183.184 84.3226 184.788 86.027 188.736 83.5759C191.303 81.9826 193.129 84.4287 193.958 86.4191C195.773 90.7731 199.092 93.5776 202.469 96.5831C205.041 98.8719 209.111 100.927 206.689 105.826C205.905 107.408 207.674 107.757 208.643 108.412C210.327 109.549 211.902 110.809 212.276 112.979C212.448 113.977 211.803 115.736 211.681 115.641C208.925 113.505 205.633 115.539 202.922 114.45C201.094 113.716 200.991 111.775 201.676 109.883C202.727 106.974 201.205 107.049 199.039 107.586C197.6 107.943 196.014 108.172 194.568 107.953C189.357 107.168 189.65 108.941 191.234 113.102C192.64 116.794 194.079 116.505 196.701 115.023C197.927 114.33 199.218 114.486 199.791 115.926C200.337 117.293 199.486 118.893 198.445 119.061C194.537 119.696 191.347 124.409 186.705 121.095C185.308 120.099 182.96 120.856 182.721 121.968C181.773 126.384 178.056 127.546 174.991 129.573C174.412 129.955 173.989 130.738 173.736 131.424C171.48 137.515 168.256 142.728 162.91 146.823C160.194 148.903 160.018 152.52 162.806 155.511C164.174 156.978 164.56 159.003 162.717 160.06C160.891 161.105 160.634 158.481 159.538 157.67C158.369 156.804 157.381 155.548 156.641 154.273C154.457 150.517 151.103 150.113 147.531 151.259C145.345 151.961 143.233 152.492 140.954 152.493C136.469 152.495 132.466 152.273 133.506 159.301C133.894 161.921 130.15 164.866 133.575 168.212C136.069 170.648 138.323 171.805 141.47 169.838C142.531 169.175 143.524 168.397 144.598 167.754C146.162 166.816 148.107 166.097 149.599 167.022C151.887 168.443 149.646 170.23 149.041 171.462C147.096 175.434 147.479 177.492 152.459 177.451C155.115 177.43 156.598 179.208 156.659 181.823C156.717 184.272 155.679 187.353 158.808 188.299C162.072 189.286 166.215 189.62 168.762 187.583C174.245 183.196 179.647 184.125 185.541 185.974C187.126 186.471 188.772 186.706 190.43 186.815C199.991 187.446 205.253 196.487 214.031 198.622C217.024 208.993 227.721 207.39 234.609 211.697C236.393 212.813 238.686 213.386 240.616 214.578C244.339 216.881 245.366 219.837 242.541 223.307C239.716 226.777 238.985 230.841 237.783 234.95C235.806 241.704 234.589 249.506 224.89 250.12C222.276 250.286 220.918 252.749 220.145 255.377C217.042 265.926 215.92 267.038 204.537 271.441C203.654 271.783 203.398 272.133 203.688 272.944C205.476 277.956 202.048 279.321 198.42 279.661C195.028 279.979 194.855 282.802 193.509 284.64C191.09 287.946 190.526 292.447 186.919 295.072C186.695 295.235 186.946 296.687 187.377 297.018C189.709 298.81 188.675 299.965 187.192 301.831C182.273 308.024 182.362 308.364 186.779 314.807C187.485 315.836 188.85 316.602 186.633 317.349C180.642 319.367 175.017 316.577 172.747 310.605C170.976 305.947 170.871 300.858 172.108 296.504C174.691 287.411 174.315 277.963 176.51 268.743C178.19 261.684 179.546 253.831 179.658 246.147C179.729 241.338 177.813 237.636 174.009 235.385C169.799 232.892 167.439 229.391 165.852 225.028C165.431 223.87 164.674 222.836 164.141 221.712C162.736 218.746 157.151 217.766 160.356 212.516C162.09 209.676 161.328 205.544 164.522 203.197C166.578 201.686 166.683 199.488 166.802 197.152C166.929 194.656 166.328 193.627 163.585 193.36C158.625 192.878 153.425 192.342 152.203 185.854C151.937 184.445 150.251 184.29 149.135 184.064C143.373 182.891 138.828 179.062 132.168 178.818C126.547 178.613 118.971 175.758 116.119 168.262C114.859 164.952 113.45 162.546 108.238 163.602C103.975 164.466 101.208 159.098 99.7617 155.209C97.5055 149.146 94.2889 144.491 89.0793 140.317C83.4482 135.806 81.9016 128.394 82.0438 121.19C82.1411 116.268 82.514 111.609 77.2259 108.931C76.0996 108.36 75.6382 107.443 75.4823 105.969C74.8624 100.126 74.3835 99.7984 68.1849 99.3052C66.1906 99.1466 66.2691 97.4509 65.5358 96.2148C61.0271 88.6205 55.3012 82.9978 45.7339 81.9626C42.2666 81.5868 40.1376 83.3774 37.3701 83.913C34.4329 84.4812 30.937 83.1101 32.8677 88.5755C33.4376 90.1913 30.9096 92.6374 28.8417 91.9681C25.0614 90.7432 23.2604 92.771 21.3223 95.1759C20.8608 95.749 20.2721 96.6318 19.7146 96.653C12.8649 96.914 7.20263 101.462 0.439017 101.957L0 100.655ZM142.392 44.5954C141.164 44.8027 139.937 45.0449 139.085 46.0676C138.113 47.2338 138.479 48.4575 139.291 49.4339C141.92 52.5943 143.874 56.5101 148.525 57.4515C149.428 57.6338 148.291 60.3846 150.237 59.9039C151.188 59.6704 152.167 58.2594 152.511 57.1818C152.955 55.7921 151.692 54.8231 150.514 54.5322C146.48 53.5358 145.055 50.6751 144.622 46.9341C144.474 45.6567 144.085 44.4681 142.392 44.5954Z" fill="#B698FF"/>
<path d="M561.52 230.439C561.454 226.755 561.593 223.601 557.642 222.646C557.16 222.53 556.281 222.268 556.295 222.155C557.17 214.537 550.464 215.766 546.571 213.702C545.711 213.245 544.987 212.468 544.31 211.738C543.099 210.43 541.691 208.825 543.089 207.144C544.727 205.174 547.345 205.83 548.221 207.602C550.056 211.311 552.331 210.209 555.479 209.931C562.45 209.313 568.041 213.05 571.84 218.557C573.315 220.696 577.46 223.092 576.175 224.51C574.128 226.77 571.496 223.317 569.171 222.143C567.3 221.199 565.67 221.668 564.435 223.102C563.057 224.703 563.972 226.288 564.754 227.953C568.561 236.062 574.161 242.947 579.508 250.009C584.484 256.582 584.763 260.212 580.772 267.374C580.035 268.696 579.279 270.011 578.652 271.388C573.834 281.973 565.848 283.278 557.658 275.512C553.783 271.837 549.114 268.959 544.627 265.992C541.828 264.141 538.96 265.029 536.135 266.602C531.541 269.162 526.728 270.98 521.35 271.513C515.472 272.095 515.404 272.429 514.577 266.474C513.866 261.353 510.808 256.884 511.516 251.24C512.081 246.734 513.776 244.496 517.938 243.312C521.378 242.335 524.602 241.708 526.268 237.03C527.192 234.437 532.068 231.835 536.124 232.026C538.486 232.137 539.809 231.771 540.991 229.758C542.846 226.6 546.035 226.953 549.056 227.18C551.021 227.327 552.67 228.226 552.186 230.458C551.095 235.488 554.328 237.168 558.021 236.966C562.263 236.732 561.119 232.622 561.52 230.439ZM333.352 16.7991C330.937 17.396 327.648 14.8138 326.114 18.5235C324.538 22.3332 328.921 23.3271 329.986 25.933C330.58 27.3839 331.856 28.2018 333.034 29.1396C335.16 30.8302 337.412 31.09 338.785 28.6676C340.901 24.9341 343.197 24.8692 346.286 27.2753C347.087 27.8984 348.205 27.7636 349.052 27.0631C349.685 26.5399 350.031 25.5796 349.4 25.1077C342.749 20.138 348.699 20.9809 351.557 20.2029C352.714 19.887 353.768 19.1041 354.796 18.4224C355.374 18.039 356.181 17.4447 356.208 16.914C356.246 16.1173 355.255 16.005 354.561 15.9588C351.079 15.729 347.81 14.0271 343.865 14.594C340.299 13.8448 336.958 15.9076 333.352 16.7991ZM112.267 30.0174C111.101 28.7113 109.303 28.4016 108.586 30.161C105.789 37.0186 102.385 31.8217 100.262 30.1947C94.6007 25.8581 92.1637 25.6246 87.3582 30.2821C85.2753 32.3011 85.1444 33.5673 88.2624 34.1916C92.4181 35.0232 96.3244 36.2194 100.083 38.457C104.637 41.1679 113.803 38.6655 117.45 34.4563C118.074 33.792 118.144 33.129 117.447 32.466C115.248 32.6483 113.687 31.6069 112.267 30.0174ZM502.996 203.839C502.727 204.031 502.68 204.809 502.802 205.239C503.766 208.637 504.789 212.047 508.841 213.028C512.344 213.875 514.909 212.924 517.136 209.759C519.926 205.793 518.658 201.085 520.254 196.926C520.844 195.39 518.877 194.576 516.29 194.559C512.268 197.348 507.609 200.56 502.996 203.839ZM395.633 228.999C392.511 231.196 388.184 232.914 386.58 236.255C384.732 240.105 384.066 244.762 384.333 249.269C384.427 250.851 385.26 252.114 386.972 252.419C389.045 252.788 391.507 252.652 392.1 250.525C393.742 244.631 396.925 239.224 397.736 233.453C397.039 231.493 397.691 227.551 395.633 228.999ZM411.185 52.196C406.022 46.4571 406.029 45.2472 411.884 40.3812C415.339 37.5106 419.108 35.1219 423.6 34.0605C425.519 33.6072 427.392 32.8755 429.19 32.0589C429.669 31.8417 430.057 30.8315 430.026 30.2097C429.965 29.0322 428.988 28.4216 427.926 28.6826C418.251 31.0513 408.57 33.4324 402.303 42.2717C399.797 45.8054 400.659 49.6475 404.493 51.5592C406.595 52.6068 408.873 52.2721 411.101 52.2984L411.185 52.196ZM614.912 294.254C616.717 289.895 620.003 287.163 623.658 284.446C628.093 281.148 627.775 278.766 623.199 275.136C622.232 274.369 621.263 273.112 620.012 273.683C618.502 274.374 619.463 275.821 619.663 276.971C620.238 280.295 619.792 282.568 616.147 284.497C613.05 286.136 610.847 289.626 608.523 292.517C606.692 294.794 607.681 297.204 610.529 297.369C612.484 297.395 614.165 296.058 614.912 294.254ZM561.469 128.715C560.464 128.135 559.408 128.339 558.881 129.287C555.692 135.038 550.372 137.847 544.578 140.215C542.21 141.183 540.56 143.178 540.682 146.052C540.729 147.164 541.347 148.144 542.508 147.627C547.804 145.272 553.268 143.155 558.202 140.175C561.171 138.382 562.175 134.606 562.864 131.677C562.943 130.018 562.379 129.238 561.469 128.715ZM480.739 12.751C477.149 10.4048 474.936 12.6386 473.594 15.4168C472.197 18.3062 473.216 20.856 476.601 21.8274C479.242 22.5854 481.926 23.1922 484.591 23.8665C486.139 22.6216 487.032 20.9184 487.867 19.174C486.219 16.221 483.451 14.5228 480.739 12.751ZM554.329 34.0043C552.851 36.6003 556.008 36.9961 557.125 38.3696C557.594 38.9465 558.122 39.4834 558.522 40.104C559.646 41.8459 560.998 43.6714 563.239 42.9372C566.01 42.0294 562.584 39.9691 563.666 38.5582C564.261 37.7815 564.763 36.9274 565.396 36.1845C566.891 34.4251 565.902 33.4624 564.257 33.0091C562.842 32.6196 561.322 32.6146 560.337 32.4985C557.891 32.7082 555.413 32.1001 554.329 34.0043ZM526.168 186.143C528.594 188.241 530.798 186.572 532.025 185.089C533.352 183.484 531.888 181.621 529.946 181.236C526.431 180.538 526.219 178.817 527.439 175.871C527.957 174.622 526.478 173.549 525.294 173.228C523.713 172.798 523.146 174.228 522.752 175.381C522.435 176.307 522.472 177.356 522.351 178.35C522.105 181.706 523.772 184.07 526.168 186.143ZM520.263 210.35C520.446 212.578 520.763 215.767 523.18 216.322C524.485 216.621 527.821 215.443 527.601 212.506C527.442 210.355 526.935 207.977 523.93 207.661C522.139 207.748 520.099 208.359 520.263 210.35Z" fill="#B698FF"/>
</svg>
