<svg width="20" height="20" viewBox="0 0 20 20" fill="none" xmlns="http://www.w3.org/2000/svg">
<path d="M14.4798 11.0598L7.40981 3.98978L8.90981 2.48978C9.40981 1.92978 11.2098 2.01978 12.4198 2.80978C13.6298 3.60978 13.8498 4.08978 15.3298 4.90978C16.5098 5.54978 17.7798 6.16978 19.7798 5.75978L14.4798 11.0598ZM13.7698 11.7698L6.69981 4.69978L4.92981 6.46978C4.83711 6.56229 4.76356 6.67218 4.71338 6.79316C4.6632 6.91413 4.63737 7.04381 4.63737 7.17478C4.63737 7.30575 4.6632 7.43543 4.71338 7.55641C4.76356 7.67738 4.83711 7.78727 4.92981 7.87978L5.98981 8.93978C6.37981 9.32978 6.37981 9.96978 5.98981 10.3598C5.38981 10.9598 4.55981 11.4698 3.77981 12.0498C3.42982 12.3098 3.07981 12.5798 2.76981 12.8898C1.42981 14.2298 0.399815 16.0798 1.39982 17.0698C2.38982 18.0698 4.23981 17.0398 5.57981 15.7098C5.88981 15.3998 6.15981 15.0498 6.42981 14.6898C6.99981 13.9098 7.50981 13.0798 8.11981 12.4798C8.21233 12.3871 8.32222 12.3135 8.44319 12.2633C8.56416 12.2132 8.69385 12.1873 8.82481 12.1873C8.95578 12.1873 9.08547 12.2132 9.20644 12.2633C9.32741 12.3135 9.4373 12.3871 9.52981 12.4798L10.5898 13.5398C10.9798 13.9298 11.6098 13.9298 11.9998 13.5398L13.7698 11.7698Z" fill="black"/>
</svg>
