<svg width="21" height="12" viewBox="0 0 21 12" fill="none" xmlns="http://www.w3.org/2000/svg">
<path d="M16.4062 6.66683H4.59375C4.22625 6.66683 3.9375 6.3735 3.9375 6.00016C3.9375 5.62683 4.22625 5.3335 4.59375 5.3335H16.4062C16.7738 5.3335 17.0625 5.62683 17.0625 6.00016C17.0625 6.3735 16.7738 6.66683 16.4062 6.66683Z" fill="#7140EB"/>
<path d="M13.125 11.3335C13.0389 11.3345 12.9536 11.3173 12.8745 11.2828C12.7954 11.2484 12.7242 11.1975 12.6656 11.1335C12.4031 10.8668 12.4031 10.4535 12.6656 10.1868L16.8 5.9868L12.6656 1.7868C12.4031 1.52014 12.4031 1.1068 12.6656 0.840137C12.9281 0.57347 13.335 0.57347 13.5975 0.840137L18.1913 5.5068C18.4538 5.77347 18.4538 6.1868 18.1913 6.45347L13.5975 11.1201C13.4663 11.2535 13.2956 11.3201 13.1381 11.3201L13.125 11.3335Z" fill="#7140EB"/>
</svg>
