<svg width="26" height="12" viewBox="0 0 26 12" fill="none" xmlns="http://www.w3.org/2000/svg">
<path d="M11.0009 11.9985H5.889C4.25967 11.9985 2.87107 11.4139 1.72322 10.2447C0.575371 9.07553 0.000964172 7.66062 1.20874e-06 6C-0.000961754 4.33938 0.573445 2.92447 1.72322 1.75527C2.873 0.586071 4.26159 0.000980873 5.889 0H11.0009V1.47131H5.889C4.66604 1.47131 3.61978 1.91466 2.75022 2.80137C1.8797 3.68906 1.44445 4.75527 1.44445 6C1.44445 7.24473 1.8797 8.31045 2.75022 9.19716C3.62074 10.0839 4.667 10.5272 5.889 10.5272H11.0009V11.9985ZM7.94445 6.73566V5.26435H18.0556V6.73566H7.94445ZM15.0006 11.9985V10.5272H20.111C21.334 10.5272 22.3802 10.0839 23.2498 9.19716C24.1203 8.31045 24.5556 7.24473 24.5556 6C24.5556 4.75527 24.1203 3.68955 23.2498 2.80284C22.3793 1.91614 21.333 1.47278 20.111 1.47278H15.0006V0.0014712H20.111C21.7403 0.0014712 23.1294 0.586071 24.2782 1.75527C25.427 2.92447 26.001 4.33938 26 6C25.999 7.66062 25.4246 9.07553 24.2768 10.2447C23.1289 11.4139 21.7403 11.999 20.111 12L15.0006 11.9985Z" fill="#7140EB"/>
</svg>
