<svg width="18" height="18" viewBox="0 0 18 18" fill="none" xmlns="http://www.w3.org/2000/svg">
<path d="M12.5 11.2549H11.71L11.43 10.9849C12.444 9.80895 13.0012 8.3076 13 6.75489C13 5.46931 12.6188 4.2126 11.9046 3.14368C11.1903 2.07476 10.1752 1.24164 8.98744 0.749669C7.79973 0.257699 6.49279 0.128977 5.23192 0.379781C3.97104 0.630585 2.81285 1.24965 1.90381 2.15869C0.994767 3.06773 0.375703 4.22592 0.124899 5.4868C-0.125905 6.74767 0.00281635 8.05461 0.494786 9.24233C0.986756 10.43 1.81988 11.4452 2.8888 12.1594C3.95772 12.8737 5.21442 13.2549 6.5 13.2549C8.11 13.2549 9.59 12.6649 10.73 11.6849L11 11.9649V12.7549L16 17.7449L17.49 16.2549L12.5 11.2549ZM6.5 11.2549C4.01 11.2549 2 9.24489 2 6.75489C2 4.26489 4.01 2.25489 6.5 2.25489C8.99 2.25489 11 4.26489 11 6.75489C11 9.24489 8.99 11.2549 6.5 11.2549Z" fill="#9F9F9F" fill-opacity="0.8"/>
</svg>
