<?xml version="1.0" encoding="UTF-8"?>
<svg id="Layer_1" data-name="Layer 1" xmlns="http://www.w3.org/2000/svg" viewBox="0 0 1080 1080">
  <defs>
    <style>
      .cls-1 {
        fill: #231f20;
        stroke: #231f20;
        stroke-linejoin: round;
        stroke-width: 20px;
      }
    </style>
  </defs>
  <path class="cls-1" d="M245.27,517.95h.4c-.12.35-.25.34-.4,0Z"/>
  <path class="cls-1" d="M246.07,515.15l-.4,2.81c.03-.89-.31-2.26.4-2.81Z"/>
  <path class="cls-1" d="M485.6,252.12c7.24-4.27,14.8-5.76,23.12-6.35l-1.44.92c-31.44,2.57-39.52,22.06-39.73,50.23.57,10.64.65,21.26.26,31.86-7.4,4.2-15.1,7.61-23.13,10.23-8.54-7.79-16.71-16-24.5-24.62-26.9-25.08-49.31-14.85-72.8,7.48-12.36,11.74-24.25,24.69-35.71,37.31-16.26,18.65-14.94,38.13.72,56.44,8.74,8.85,17.47,17.49,26.19,25.93,2.17,1.91,1.89,3.93.84,6.33-3.14,6.31-6.01,12.69-8.62,19.13l-.93.69c-10.14.49-20.33.27-30.56-.69-17.46-.32-34.5,2.11-45.26,17.4-6.08,8.65-6.7,19.21-7.11,29.44l-.86,1.29c.64-13.36.89-24.37,10.22-34.88,11.22-12.65,27.69-14.34,43.73-14.04,8.99.17,20.07,1.85,28.88.84.7-.08.89-.03,1.34-.66.74-1.02,2.35-6.27,3.17-8.05,1.28-2.77,6.58-11.88,6-14.25-.32-1.31-6.32-6.98-7.73-8.34-16.71-16.21-37.73-31.51-31.22-58.44,3.38-13.96,21.22-30.38,31.4-40.77,18.87-19.25,41.64-46.93,72.05-34.33,16.81,6.96,27.26,24.88,40.88,36.06,7.83-2.33,15.05-6.61,22.41-9.93,1.51-25.16-8-60.71,18.37-76.24Z"/>
  <path class="cls-1" d="M508.97,245.59c-.02.06-.1.12-.25.18v-.4c.2.07.28.14.25.22Z"/>
  <path class="cls-1" d="M245.82,561.5l.25,3.75c0-.06-.37-.46-.42-.97-.1-.97.41-2.41-.38-3.04.19-.08.34-.09.43-.02.08.04.12.13.12.28Z"/>
  <path class="cls-1" d="M498,832.97l1.09,1.26c-6.89-2.52-13.85-5.56-19.44-10.43-20.18-17.59-10.2-49.05-12.49-72.19l-22.76-8.7c-19.16,16.24-31.83,42.23-60.95,39.56-12.59-1.15-22.2-10.51-31.14-18.58-11.94-10.79-24.69-23.17-35.49-35.08-4.62-5.1-9.39-10.49-12.69-16.57-17.89-32.94,15.6-54.4,34.89-75.51l-8.41-22.92c-3.89-.56-7.85-.53-11.8-.47-23.53.33-49.1,5.96-64.67-15.89-7.79-10.92-7.11-19.53-8.1-32.2l.89,1.19c.49,10.79.96,20.89,7.48,30,10.61,14.85,24.17,17,41.29,16.97l19.7-.79c5.22-.36,10.41-.17,15.56.57,3.29,7.62,6.21,15.81,8.75,23.73-9.07,9.18-18.05,18.45-26.95,27.82-18.07,21.65-17.01,39.19,1.88,60.44,12.97,14.59,27.06,27.98,41.47,41.07,11.4,10.36,21.12,17.56,37.4,15.15,12.53-1.85,22.31-10.28,30.74-19.18,6.22-7.11,12.86-13.77,19.92-19.99,7.89,2.55,15.96,5.68,23.58,9,.64,10.94.55,21.94-.28,32.98-.1,24.23,5.45,40.54,30.51,48.75Z"/>
  <path class="cls-1" d="M499.1,834.63v-.4c.35.12.34.25,0,.4Z"/>
  <path class="cls-1" d="M534.39,245.37v.4c-.05-.03-.1-.05-.16-.07,0,0-.02,0-.03,0,0,0,0,0,0,0-.13-.09-.07-.2.19-.32Z"/>
  <path class="cls-1" d="M834.33,497.51l-1.07-.99c-4.25-15.76-17.84-29.01-34.75-29.22-12.26.07-24.5.34-36.76.8-3.59.41-6.73,0-9.43-1.26-3.03-7.59-5.84-15.26-8.42-22.99,5.29-5.66,10.77-11.16,16.43-16.51,18.7-19.31,33.76-38.81,14.59-64.14-4.03-5.33-8.55-10.26-13.14-15.12-10.03-10.63-21.45-21.68-32.23-31.5-13.53-12.33-25.8-22.76-45.42-16.23-9.15,3.04-16.75,9.6-23.56,16.22l-14.21,14.66c-2.54,2.97-5.34,5.34-8.41,7.14-7.89-2.48-15.86-5.62-23.55-8.68l-.85-.93c-.26-9.04-.15-18.09.33-27.14,1.24-22.27-3.33-47.91-28.5-53.51-15.52.21-31.96-.43-47.9-1.44-.52-.03-1.03-.17-1.55-.32-.53-.16-1.04-.36-1.54-.58,14.02.38,27.88,1.93,41.92,1.62,7.37-.17,8.25-1.14,15.56,2.05,30.79,13.43,21.08,52.36,22.38,79.05l.84.76,21.94,8.15c.57.23,1.03.24,1.6-.02.27-.13,3.86-3.46,4.43-4.01,18.06-17.48,35.05-43.12,64.46-33.58,10.43,3.38,23.44,17.13,31.58,24.95,11.52,11.06,37.61,34.95,43.01,48.8,11.5,29.53-20.08,51.98-37.52,70.52l8.43,22.5c.93.39,1.9.44,2.9.51,14.68,1.01,30.33-1.48,44.94-.43,16.58,1.19,29.86,15.29,33.47,30.88Z"/>
  <path class="cls-1" d="M834.73,497.51c-.12.35-.25.34-.4,0h.4Z"/>
  <path class="cls-1" d="M584.91,834.23v.4c-.35-.12-.34-.25,0-.4Z"/>
  <path class="cls-1" d="M833.22,584.39l1.11-1.1c-3.98,16.68-17.49,29.77-35.07,30.88-12.94.82-26.96-1.09-40.1-.4-1.55.08-5.36-.54-6.2.62l-8.39,21.95,31.78,33.57c11.31,16.93,9.82,35.87-3.17,51.28-10.25,12.16-23.36,25.01-34.89,36.08-15.12,14.54-27.38,28.85-50.75,24.66-21.87-3.93-33.07-26.17-49.16-39.01l-24.14,8.79c-1.45,23.67,6.94,56.86-13.68,74.31-4.55,3.85-10.09,6.23-15.65,8.21l1-1.22c24.31-7.69,27.98-28.01,28.02-50.53-.59-10.39-.69-20.76-.31-31.1,7.98-3.48,16.62-6.45,24.95-9.17,7.32,6.23,14.09,13.03,20.33,20.42,10.55,10.79,19.47,18.63,35.37,19.22,14.38.53,24.13-6.94,34.16-16.16,13.84-12.71,28.14-26.81,40.64-40.95,15.71-17.78,18.96-33.52,6.64-54.35-10.72-11.18-21.33-22.46-31.83-33.84,2.56-7.69,5.49-15.75,8.91-23.07l.72-.34c12-.43,24.17-.29,36.48.43,20.19,2.08,38.04-9.56,43.23-29.18Z"/>
  <path class="cls-1" d="M834.73,583.29h-.4c.12-.35.25-.34.4,0Z"/>
  <path class="cls-1" d="M834.33,497.51c-3.61-15.6-16.88-29.69-33.47-30.88-14.61-1.04-30.27,1.45-44.94.43-.99-.07-1.97-.12-2.9-.51l-8.43-22.5c17.43-18.54,49.02-40.99,37.52-70.52-5.4-13.85-31.49-37.74-43.01-48.8-8.14-7.83-21.14-21.57-31.58-24.95-29.41-9.54-46.4,16.1-64.46,33.58-.57.55-4.16,3.88-4.43,4.01-.58.27-1.04.26-1.6.02l-21.94-8.15-.84-.76c-1.3-26.68,8.41-65.62-22.38-79.05-7.31-3.19-8.2-2.21-15.56-2.05-14.04.31-27.9-1.24-41.92-1.62-.05-.03-.1-.05-.16-.07,0,0-.02,0-.03,0,0,0,0,0,0,0-.57-.23-1.27-.19-1.81.08-.89-.33-1.93-.31-2.81,0-.07-.04-.14-.08-.21-.1-.42-.18-.85-.16-1.28.04-.03.03-.08.04-.12.06-.48-.27-.99-.29-1.49-.06-.03.03-.08.04-.12.06-.77-.12-1.57-.25-2.41-.4h-7.75c-.73,0-1.35.13-1.87.4-.08-.05-.15-.1-.24-.13-.43-.18-1.01-.13-1.36.13-.08-.07-.16-.13-.25-.16-.22-.09-.48-.1-.71,0h0c-.08.04-.17.1-.23.17-.38-.3-1.19-.33-1.6,0-.07-.04-.14-.08-.22-.11-.24-.11-.52-.15-.74-.08-.1.04-.18.1-.25.18-8.33.58-15.88,2.08-23.12,6.35-26.37,15.53-16.86,51.08-18.37,76.24-7.37,3.32-14.59,7.6-22.41,9.93-13.63-11.19-24.08-29.11-40.88-36.06-30.42-12.61-53.18,15.08-72.05,34.33-10.18,10.38-28.03,26.81-31.4,40.77-6.51,26.93,14.51,42.24,31.22,58.44,1.4,1.36,7.41,7.03,7.73,8.34.58,2.37-4.72,11.49-6,14.25-.83,1.78-2.44,7.03-3.17,8.05-.45.63-.64.58-1.34.66-8.81,1.01-19.89-.68-28.88-.84-16.04-.29-32.51,1.4-43.73,14.04-9.32,10.51-9.57,21.52-10.22,34.88-.17,1.24-.29,2.47-.36,3.71v.02c-.03.43-.06.86-.08,1.29,0,0,0,0,0,.02-.04,1.4-.03,2.79.03,4.19-.02.05-.03.1-.05.13-.28.7-.24,1.59.05,2.27-.33.89-.32,1.93,0,2.81-.11,1.31-.24,2.65-.4,4v17.64c.16.99.29,1.91.4,2.77v.03s-.03.08-.04.11c-.28.68-.28,1.6.04,2.29-.07,1.59-.06,3.19.03,4.79.07,1.34.18,2.69.37,4.03.99,12.66.31,21.28,8.1,32.2,15.57,21.85,41.14,16.22,64.67,15.89,3.94-.06,7.9-.09,11.8.47l8.41,22.92c-19.3,21.11-52.78,42.57-34.89,75.51,3.3,6.08,8.07,11.48,12.69,16.57,10.8,11.9,23.55,24.29,35.49,35.08,8.94,8.07,18.55,17.43,31.14,18.58,29.12,2.67,41.8-23.32,60.95-39.56l22.76,8.7c2.29,23.14-7.69,54.59,12.49,72.19,5.59,4.87,12.55,7.91,19.44,10.43,28.12.35,57.84.35,85.81,0,5.56-1.98,11.09-4.36,15.65-8.21,20.63-17.45,12.23-50.64,13.68-74.31l24.14-8.79c16.09,12.84,27.29,35.09,49.16,39.01,23.37,4.19,35.63-10.13,50.75-24.66,11.53-11.07,24.64-23.92,34.89-36.08,12.98-15.4,14.48-34.35,3.17-51.28l-31.78-33.57,8.39-21.95c.84-1.16,4.64-.53,6.2-.62,13.14-.69,27.16,1.22,40.1.4,17.59-1.12,31.09-14.2,35.07-30.88.35-28.11.35-57.82,0-85.78ZM583.51,827.82l-83.72-.1c-31.21-9.23-26.62-34.79-25.94-60.62.1-3.73.68-18.35-2.04-20.44l-28.6-10.99c-10.73,8.11-18.64,19.48-28.52,28.41-16.13,14.59-31.32,17.43-48.92,3.19-11.19-9.06-22.97-20.74-33.1-31.05-23.59-23.99-40.81-40.67-12.83-71.37,8.32-9.14,18.22-17.28,26.32-26.64v-1.22l-10.47-27.25c-.71-2.03-3.32-2.27-5.2-2.41-19.36-1.5-49.86,5.77-65.19-7-11.78-9.82-12.2-20.18-12.82-34.47-.7-15.78-.97-33.11-.42-48.93.4-11.58.89-23.63,9.03-32.66,17.81-19.73,51.34-7.7,74.37-11.65.58-8.72,6.76-15.66,9.36-23.72,1.86-5.76,1.77-6.53-2.11-10.94-15.4-17.56-43.12-31.94-35.98-60,2.51-9.86,13.74-20.39,20.73-27.79,10.06-10.67,21.47-22.47,32.48-32.06,26.06-22.71,43.76-12.99,64.78,8.61,4.54,4.68,11.39,13.79,16.65,17.03,3.26,2.01,8.6-.34,11.88-1.71,6.52-2.74,12.55-6.94,19.6-8.48.19-.99.48-2.02.58-3.02,3.02-32.66-12.66-75.9,36.7-78.76,22.62-1.3,46.76,1.79,69.79,1.62,4.02-.03,4.61-.23,8.6,1.4,29.3,11.9,17.03,52.79,19.66,76.96.07.6.13,1.21.49,1.7l30.89,11.26c16.32-12.15,32.31-39.91,54.61-40.84,16.9-.71,31.19,16.32,42.53,27.26,10.37,10,22.98,21.9,32.08,32.88,27.48,33.16-11.24,54.52-29.89,76.76-.61.73-1.62,1.65-1.45,2.62l10.47,27.26c.61,1.55,2.95,2.16,4.46,2.36,14.17,1.82,30.22-.97,44.49-.38,16.56.68,27.03,10.81,31.46,26.27l-.09,83.69c-3.58,12.46-14.2,24.17-27.76,25.16-14.74,1.09-30.54-1.45-45.33-.41-2.05.14-5.82.46-6.97,2.26l-10.83,28.32,34.36,36.23c10.8,18.02,6.45,31.99-6.53,46.63-8.76,9.88-19,20.02-28.47,29.27-8.86,8.64-21.71,22.73-33.81,25.52-27.82,6.42-41.08-21.08-58.62-36.16-1.44-1.24-4.15-3.66-6.12-3.32l-28.89,10.84c-2.11,1.32-.47,6.95-1.5,9.31-.03,25.08,7.86,63.04-24.24,71.58ZM631.59,597.29c45.21-70.93-8.14-165.92-92.08-163.4-75.64,2.26-125.76,79.79-95.02,149.67,34.01,77.33,141.73,84.87,187.1,13.73ZM446.96,572.68c-21.29-62.48,23.42-128.44,88.95-132.38,79.82-4.8,133.54,83.97,91.28,152.18-44.52,71.85-152.95,60.23-180.22-19.8Z"/>
  <rect class="cls-1" x="834.33" y="497.51" width=".4" height="85.78"/>
  <rect class="cls-1" x="499.1" y="834.23" width="85.81" height=".4"/>
  <path class="cls-1" d="M246.07,565.25c0-.06-.37-.46-.42-.97-.1-.97.41-2.41-.38-3.04v-4.81c.12-.34.25-.34.4,0,.15,2.93.68,5.85.4,8.82Z"/>
  <path class="cls-1" d="M246.07,515.15c-.15,3.06-.31,6.18-.4,9.22-.02.05-.03.1-.05.13-.11.21-.23.16-.35-.13v-3.61c.16-.97.29-1.9.4-2.81.03-.89-.31-2.26.4-2.81Z"/>
  <path class="cls-1" d="M245.27,533.59v-4.01c.11-.35.25-.34.4,0,0,1.26.33,3.09-.4,4.01Z"/>
  <path class="cls-1" d="M532.38,245.37c.35.11.35.25,0,.4-.93-.02-1.87,0-2.81,0-.35-.11-.35-.25,0-.4h2.81Z"/>
  <path class="cls-1" d="M245.64,520.17s0,0,0,.02c-.07.23-.18.43-.37.58v-2.81h.4c0,.27.02.58.04.9v.02c.03.45.03.91-.08,1.29Z"/>
  <path class="cls-1" d="M245.67,529.58h-.4v-2.81c.11-.35.25-.34.4,0-.03.93,0,1.87,0,2.81Z"/>
  <path class="cls-1" d="M245.67,554.03c-.11.35-.25.34-.4,0v-2.81c.7.55.39,1.93.4,2.81Z"/>
  <path class="cls-1" d="M526.37,245.37c.35.11.35.25,0,.4-.76-.01-1.97.27-2.41-.4h2.41Z"/>
  <path class="cls-1" d="M245.67,526.77h-.4v-2.41h.4c-.03.8.02,1.61,0,2.41Z"/>
  <path class="cls-1" d="M245.67,556.44h-.4v-2.41h.4c0,.8-.04,1.61,0,2.41Z"/>
  <path class="cls-1" d="M516.34,245.37l-2,.4c-.35-.11-.35-.25,0-.4h2Z"/>
  <path class="cls-1" d="M534.39,245.37v.4c-.67-.02-1.34.02-2,0v-.4h2Z"/>
  <path class="cls-1" d="M511.53,245.37c.35.11.35.25,0,.4-.53.03-1.07-.04-1.6,0-.35-.11-.35-.25,0-.4h1.6Z"/>
  <path class="cls-1" d="M514.34,245.37v.4c-.53.02-1.07-.03-1.6,0-.35-.11-.35-.25,0-.4h1.6Z"/>
  <path class="cls-1" d="M527.97,245.37c.35.11.35.25,0,.4-.53,0-1.07,0-1.6,0v-.4h1.6Z"/>
  <path class="cls-1" d="M529.57,245.37v.4c-.53,0-1.07,0-1.6,0v-.4h1.6Z"/>
  <path class="cls-1" d="M509.93,245.37v.4c-.4.03-.8-.03-1.2,0v-.4h1.2Z"/>
  <path class="cls-1" d="M512.73,245.37v.4c-.4.02-.8-.02-1.2,0v-.4h1.2Z"/>
  <path class="cls-1" d="M539.52,433.9c-75.64,2.26-125.76,79.79-95.02,149.67,34.01,77.33,141.73,84.87,187.1,13.73,45.21-70.93-8.14-165.92-92.08-163.4ZM627.18,592.48c-44.52,71.85-152.95,60.23-180.22-19.8-21.29-62.48,23.42-128.44,88.95-132.38,79.82-4.8,133.54,83.97,91.28,152.18Z"/>
  <path class="cls-1" d="M539.52,433.9c-75.64,2.26-125.76,79.79-95.02,149.67,34.01,77.33,141.73,84.87,187.1,13.73,45.21-70.93-8.14-165.92-92.08-163.4ZM627.18,592.48c-44.52,71.85-152.95,60.23-180.22-19.8-21.29-62.48,23.42-128.44,88.95-132.38,79.82-4.8,133.54,83.97,91.28,152.18Z"/>
</svg>