<svg width="18" height="18" viewBox="0 0 18 18" fill="none" xmlns="http://www.w3.org/2000/svg">
<path d="M17 14.5C17 14.7652 16.8946 15.0196 16.7071 15.2071C16.5196 15.3946 16.2652 15.5 16 15.5H2C1.73478 15.5 1.48043 15.3946 1.29289 15.2071C1.10536 15.0196 1 14.7652 1 14.5V3.5C1 3.23478 1.10536 2.98043 1.29289 2.79289C1.48043 2.60536 1.73478 2.5 2 2.5H10.979L8.8125 6.1975C8.3975 6.8005 8.797 7.6225 9.532 7.6755C9.56667 7.6785 9.601 7.6795 9.635 7.6785H13.726L11.19 11.03L7.815 6L4.64 10.64L3.375 9.52L2.71 10.265L4.825 12.14L7.805 7.78L11.14 12.75L14.9795 7.6785H17V14.5Z" fill="black"/>
<path d="M13.4271 0.57186L10.5671 5.50186C10.5006 5.59952 10.4624 5.71371 10.4568 5.83175C10.4512 5.94979 10.4783 6.06709 10.5353 6.17064C10.5922 6.27418 10.6767 6.35994 10.7794 6.41841C10.8821 6.47687 10.999 6.50575 11.1171 6.50186H16.8421C16.9603 6.50575 17.0771 6.47687 17.1798 6.41841C17.2825 6.35994 17.3671 6.27418 17.424 6.17064C17.481 6.06709 17.5081 5.94979 17.5025 5.83175C17.4969 5.71371 17.4587 5.59952 17.3921 5.50186L14.5321 0.57186C14.4757 0.475388 14.3951 0.395365 14.2981 0.339755C14.2012 0.284144 14.0914 0.254883 13.9796 0.254883C13.8679 0.254883 13.7581 0.284144 13.6612 0.339755C13.5642 0.395365 13.4835 0.475388 13.4271 0.57186Z" fill="black"/>
</svg>
