<?xml version="1.0" encoding="UTF-8"?>
<svg id="Layer_1" data-name="Layer 1" xmlns="http://www.w3.org/2000/svg" viewBox="0 0 1080 1080">
  <defs>
    <style>
      .cls-1 {
        fill: #00aeef;
      }

      .cls-2 {
        stroke-width: 10px;
      }

      .cls-2, .cls-3, .cls-4 {
        stroke: #231f20;
        stroke-miterlimit: 10;
      }

      .cls-3 {
        fill: #f8aeb4;
      }

      .cls-3, .cls-4 {
        stroke-width: 35px;
      }

      .cls-4 {
        fill: #ffe7a3;
      }
    </style>
  </defs>
  <polygon class="cls-1" points="905.31 350.27 802.36 701.3 423.9 701.3 298.36 285.69 311.42 281.74 428.68 669.95 782.16 669.95 867.58 378.68 422.76 376.48 422.9 347.89 905.31 350.27"/>
  <circle class="cls-3" cx="493.44" cy="810.62" r="55.36"/>
  <circle class="cls-4" cx="718.23" cy="807.47" r="55.36"/>
  <polygon class="cls-2" points="918.25 340.93 810.61 707.95 400.46 707.95 262.35 250.7 86 250.7 86 212.7 290.57 212.7 311.42 281.74 428.68 669.95 782.16 669.95 867.58 378.68 422.76 376.48 398.87 376.36 387.38 338.3 918.25 340.93"/>
  <polygon points="808.38 441.83 797.53 478.83 426.87 478.83 415.69 441.83 808.38 441.83"/>
  <polygon points="773.59 550.66 762.74 587.66 462.7 587.66 451.52 550.66 773.59 550.66"/>
</svg>