<?xml version="1.0" encoding="UTF-8"?>
<svg id="Layer_1" data-name="Layer 1" xmlns="http://www.w3.org/2000/svg" viewBox="0 0 1080 1080">
  <g id="TxPzGn.tif">
    <path d="M838.14,762.93c-.64-.87-6.36-4.62-6.82-4.62h-37.27v-282.72c35.23-4.7,67.11-39.16,65.06-75.53-.36-6.41-2.65-10.82-4.42-16.64-13.94-45.92-38.14-108.51-57.31-152.82-2.43-5.56-3.7-12.15-9.11-15.72H257.3l-5.26,6.18c-17.38,54.09-44.75,108.38-61.13,162.37-1.79,5.82-4.06,10.24-4.42,16.64-2.04,36.45,30.2,70.32,65.04,75.53v282.72h-39.16c-1.25,0-6.15,6.13-6.64,8.63-1.86,9.78-1.53,59.96-.15,70.73.71,5.36,3.32,8.99,8.76,10.36l613.28.18c5.08.51,8.6-1.86,11.28-5.9-.2-12.81,4.31-72.31-.77-79.38ZM774.96,236.8l61.11,165.41c-6.76,72.54-108.64,64.84-107.41-7.35l-58.76-158.05h105.06ZM617.44,551.91c-62.05-4.82-130.31,3.78-193.02.08-5.13-.74-16.23,5.56-16.23,10.52v195.81h-133.73v-282.72c20.29-3.01,43.04-15.09,51.61-34.38,6.43,4.19,9.6,11.1,15.24,16.23,34.71,31.65,89.37,23.53,115.76-14.27,2.76-.59,11.46,11.97,15.16,15.16,30.84,26.7,74.36,24.05,104.09-2.76,3.32-2.99,8.86-13.12,12.2-12.41,26.42,37.8,81.07,45.92,115.78,14.27,5.64-5.13,8.81-12.05,15.21-16.23,8.83,18.94,31.27,31.55,51.61,34.38v282.72h-133.7v-195.81c0-8.04-14.01-10.13-19.99-10.59ZM614.51,576.83v181.49h-183.4v-181.49h183.4ZM645.06,236.8l61.18,167.07c-9.27,72.62-109.33,64.45-107.49-9.01l-58.76-158.05h105.06ZM524.68,261.64l51.69,144.12c-9.27,66.55-100.34,64.91-107.18-1.79l51.54-139.63,3.96-2.71ZM505.62,236.8l-57.89,155.12c1.58,74.61-96.95,86.74-108.36,11.95l61.18-167.07h105.06ZM209.39,403.97l62.21-167.17h104.12c-15.62,48.22-38.36,96.05-53.53,144.19-5.77,18.28-6.1,37.91-18.1,52.58-30.66,37.52-90.79,18.17-94.7-29.61ZM816.98,825.17H228.61v-43.93h588.37v43.93Z"/>
  </g>
</svg>