<svg xmlns="http://www.w3.org/2000/svg" viewBox="0 0 24 24" fill="#25D1DA"><path d="M5.483 11.532l-.173.214c-.718.921-1.108 2.07-1.108 3.254 0 1.67.755 3.214 2.07 4.229.094.07.188.14.284.205a8.517 8.517 0 004.905 1.537 8.566 8.566 0 004.15-1.07c.134-.077.264-.158.394-.243l.058-.038c.195-.132.21-.41.026-.558l-.068-.052c-.197-.152-.47-.13-.642.053a7.032 7.032 0 01-1.048.845 7.09 7.09 0 01-2.87.804 7.16 7.16 0 01-4.027-1.022 7.033 7.033 0 01-2.42-2.695 7.09 7.09 0 01-.798-3.018 7.04 7.04 0 01.78-3.47c.076-.146.057-.325-.054-.446l-.06-.067a.373.373 0 00-.399-.082zm13.226 1.476c-.128-.144-.34-.176-.504-.075l-.07.044c-.16.099-.214.3-.13.468.371.754.557 1.588.543 2.43a6.51 6.51 0 01-.547 2.544.39.39 0 00.11.464l.068.054c.177.14.433.107.567-.074a7.92 7.92 0 00.67-3.103 7.98 7.98 0 00-.707-3.752zM12 2C6.477 2 2 6.477 2 12s4.477 10 10 10S22 17.523 22 12 17.523 2 12 2zm0 4l2.5 4.5H9.5L12 6zm-3.5 5h7l-1 5H9.5l-1-5z"/></svg>
