<svg xmlns="http://www.w3.org/2000/svg" viewBox="0 0 24 24" fill="#FC3C44"><path d="M23.994 6.124a9.23 9.23 0 00-.24-2.19c-.317-1.31-1.062-2.31-2.18-3.043a5.022 5.022 0 00-1.769-.75c-.55-.115-1.11-.157-1.67-.2-.i0-.004-.03-.006-.045-.008H5.91c-.105.006-.21.012-.315.018C4.92.199 4.238.288 3.59.484a5.06 5.06 0 00-2.37 1.717A4.98 4.98 0 00.51 4.05a8.944 8.944 0 00-.246 1.811c-.016.27-.023.54-.028.81-.004.07-.004.14-.004.21V17.1c0 .07.003.14.006.21.01.29.02.58.052.87.064.59.192 1.17.437 1.72a4.97 4.97 0 002.88 2.76c.535.19 1.09.3 1.657.35.402.034.806.05 1.21.055.083.003.166.003.25.003h11.853c.078 0 .155 0 .233-.003.36-.005.72-.02 1.08-.05a5.617 5.617 0 001.65-.35 4.97 4.97 0 002.88-2.76c.244-.55.373-1.13.437-1.72.03-.29.042-.58.052-.87.003-.07.006-.14.006-.21V6.834c-.003-.237-.006-.474-.012-.71zM12 17.5a5.5 5.5 0 110-11 5.5 5.5 0 010 11zm0-9.5a4 4 0 100 8 4 4 0 000-8zm4.5-4a1.5 1.5 0 110 3 1.5 1.5 0 010-3z"/></svg>
