<svg width="32" height="32" viewBox="0 0 32 32" fill="none" xmlns="http://www.w3.org/2000/svg">
<path d="M5.33358 13.3339L4.39091 14.2766L3.44824 13.3339L4.39091 12.3913L5.33358 13.3339ZM28.0002 24.0006C28.0002 24.3542 27.8598 24.6934 27.6097 24.9434C27.3597 25.1935 27.0205 25.3339 26.6669 25.3339C26.3133 25.3339 25.9741 25.1935 25.7241 24.9434C25.4741 24.6934 25.3336 24.3542 25.3336 24.0006H28.0002ZM11.0576 20.9433L4.39091 14.2766L6.27624 12.3913L12.9429 19.0579L11.0576 20.9433ZM4.39091 12.3913L11.0576 5.72461L12.9429 7.60994L6.27624 14.2766L4.39091 12.3913ZM5.33358 12.0006H18.6669V14.6673H5.33358V12.0006ZM28.0002 21.3339V24.0006H25.3336V21.3339H28.0002ZM18.6669 12.0006C21.1423 12.0006 23.5162 12.9839 25.2666 14.7343C27.0169 16.4846 28.0002 18.8586 28.0002 21.3339H25.3336C25.3336 19.5658 24.6312 17.8701 23.381 16.6199C22.1307 15.3697 20.435 14.6673 18.6669 14.6673V12.0006Z" fill="#7140EB"/>
</svg>
