<svg width="61" height="62" viewBox="0 0 61 62" fill="none" xmlns="http://www.w3.org/2000/svg">
<path d="M55.9163 30.9993C55.9163 45.2667 44.5369 56.8327 30.4997 56.8327C16.4624 56.8327 5.08301 45.2667 5.08301 30.9993C5.08301 16.732 16.4624 5.16602 30.4997 5.16602C44.5369 5.16602 55.9163 16.732 55.9163 30.9993Z" fill="white"/>
<path d="M55.9163 31.1572C55.9163 16.8027 44.5369 5.16602 30.4997 5.16602C16.4624 5.16602 5.08301 16.8027 5.08301 31.1572C5.08301 44.13 14.3775 54.8828 26.5283 56.8327V38.6703H20.0749V31.1572H26.5283V25.431C26.5283 18.917 30.3229 15.3188 36.1286 15.3188C38.9085 15.3188 41.818 15.8265 41.818 15.8265V22.2227H38.6131C35.4559 22.2227 34.471 24.2264 34.471 26.2839V31.1572H41.5202L40.3933 38.6703H34.471V56.8327C46.6219 54.8828 55.9163 44.13 55.9163 31.1572Z" fill="url(#paint0_linear_1553_757)"/>
<defs>
<linearGradient id="paint0_linear_1553_757" x1="30.4997" y1="5.16602" x2="30.4997" y2="56.8327" gradientUnits="userSpaceOnUse">
<stop stop-color="#50AAF7"/>
<stop offset="1" stop-color="#2961D8"/>
</linearGradient>
</defs>
</svg>
