<svg width="62" height="62" viewBox="0 0 62 62" fill="none" xmlns="http://www.w3.org/2000/svg">
<path fill-rule="evenodd" clip-rule="evenodd" d="M31.0136 19.0571C24.4162 19.0571 19.0638 24.4064 19.0638 31C19.0638 37.5936 24.4162 42.9429 31.0136 42.9429C37.611 42.9429 42.9635 37.5936 42.9635 31C42.9635 24.4064 37.611 19.0571 31.0136 19.0571ZM31.0136 38.747C26.7335 38.747 23.2621 35.2776 23.2621 31C23.2621 26.7224 26.7335 23.253 31.0136 23.253C35.2938 23.253 38.7651 26.7224 38.7651 31C38.7651 35.2776 35.2938 38.747 31.0136 38.747Z" fill="url(#paint0_linear_1553_772)"/>
<path d="M43.436 21.3731C44.9718 21.3731 46.2259 20.1288 46.2259 18.5849C46.2259 17.05 44.9718 15.7967 43.436 15.7967C41.9003 15.7967 40.6462 17.0409 40.6462 18.5849C40.6462 20.1198 41.8912 21.3731 43.436 21.3731Z" fill="url(#paint1_linear_1553_772)"/>
<path fill-rule="evenodd" clip-rule="evenodd" d="M31.0136 7.75C24.6979 7.75 23.9073 7.77725 21.4265 7.88623C18.9547 7.99521 17.2554 8.39482 15.7832 8.96699C14.2475 9.56641 12.948 10.3565 11.6576 11.6553C10.3581 12.9449 9.56747 14.2437 8.96771 15.7694C8.3952 17.2498 7.99536 18.9391 7.88631 21.4094C7.77726 23.8979 7.75 24.688 7.75 31C7.75 37.312 7.77726 38.1021 7.88631 40.5815C7.99536 43.0519 8.3952 44.7502 8.96771 46.2215C9.56747 47.7563 10.3581 49.0551 11.6576 50.3447C12.948 51.6344 14.2475 52.4336 15.7741 53.0239C17.2554 53.5961 18.9456 53.9957 21.4174 54.1047C23.8982 54.2137 24.6888 54.2409 31.0045 54.2409C37.3203 54.2409 38.1109 54.2137 40.5917 54.1047C43.0635 53.9957 44.7628 53.5961 46.235 53.0239C47.7616 52.4336 49.0611 51.6344 50.3515 50.3447C51.6419 49.0551 52.4416 47.7563 53.0323 46.2306C53.6048 44.7502 54.0046 43.0609 54.1137 40.5906C54.2227 38.1112 54.25 37.3211 54.25 31.0091C54.25 24.6971 54.2227 23.9069 54.1137 21.4275C54.0046 18.9572 53.6048 17.2589 53.0323 15.7876C52.4598 14.2437 51.6692 12.9449 50.3697 11.6553C49.0793 10.3656 47.7798 9.56641 46.2531 8.97607C44.7719 8.40391 43.0816 8.0043 40.6099 7.89531C38.1199 7.77725 37.3293 7.75 31.0136 7.75ZM31.0136 11.9368C37.2294 11.9368 37.9655 11.9641 40.41 12.073C42.6818 12.1729 43.9086 12.5544 44.7265 12.8723C45.8078 13.29 46.5894 13.7986 47.3981 14.6069C48.216 15.4243 48.7158 16.1963 49.1338 17.2771C49.4519 18.0944 49.8335 19.3296 49.9335 21.591C50.0426 24.0432 50.0698 24.7788 50.0698 30.9818C50.0698 37.1939 50.0426 37.9296 49.9335 40.3727C49.8335 42.6432 49.4519 43.8692 49.1338 44.6866C48.7158 45.7674 48.2069 46.5484 47.3981 47.3567C46.5803 48.1741 45.8078 48.6736 44.7265 49.0914C43.9086 49.4093 42.6727 49.7907 40.41 49.8906C37.9564 49.9996 37.2203 50.0269 31.0136 50.0269C24.7979 50.0269 24.0618 49.9996 21.6173 49.8906C19.3455 49.7907 18.1187 49.4093 17.3008 49.0914C16.2194 48.6736 15.4379 48.165 14.6291 47.3567C13.8113 46.5394 13.3115 45.7674 12.8934 44.6866C12.5754 43.8692 12.1937 42.6341 12.0938 40.3727C11.9847 37.9205 11.9574 37.1849 11.9574 30.9818C11.9574 24.7697 11.9847 24.0341 12.0938 21.591C12.1937 19.3205 12.5754 18.0944 12.8934 17.2771C13.3115 16.1963 13.8204 15.4152 14.6291 14.6069C15.447 13.7896 16.2194 13.29 17.3008 12.8723C18.1187 12.5544 19.3546 12.1729 21.6173 12.073C24.0618 11.9641 24.7979 11.9368 31.0136 11.9368Z" fill="url(#paint2_linear_1553_772)"/>
<defs>
<linearGradient id="paint0_linear_1553_772" x1="41.3333" y1="7.75" x2="16.7917" y2="54.25" gradientUnits="userSpaceOnUse">
<stop stop-color="#6E3BF1"/>
<stop offset="0.241314" stop-color="#C128BF"/>
<stop offset="0.475694" stop-color="#EA336B"/>
<stop offset="0.715281" stop-color="#EE8131"/>
<stop offset="0.913202" stop-color="#F8D849"/>
</linearGradient>
<linearGradient id="paint1_linear_1553_772" x1="41.3333" y1="7.75" x2="16.7917" y2="54.25" gradientUnits="userSpaceOnUse">
<stop stop-color="#6E3BF1"/>
<stop offset="0.241314" stop-color="#C128BF"/>
<stop offset="0.475694" stop-color="#EA336B"/>
<stop offset="0.715281" stop-color="#EE8131"/>
<stop offset="0.913202" stop-color="#F8D849"/>
</linearGradient>
<linearGradient id="paint2_linear_1553_772" x1="41.3333" y1="7.75" x2="16.7917" y2="54.25" gradientUnits="userSpaceOnUse">
<stop stop-color="#6E3BF1"/>
<stop offset="0.241314" stop-color="#C128BF"/>
<stop offset="0.475694" stop-color="#EA336B"/>
<stop offset="0.715281" stop-color="#EE8131"/>
<stop offset="0.913202" stop-color="#F8D849"/>
</linearGradient>
</defs>
</svg>
