<svg width="62" height="62" viewBox="0 0 62 62" fill="none" xmlns="http://www.w3.org/2000/svg">
<path fill-rule="evenodd" clip-rule="evenodd" d="M25.4643 24.8185H31.7241V28.0092H31.7927C32.7471 26.2887 35.5659 24.5417 39.0511 24.5417C45.7405 24.5417 47.6071 28.0934 47.6071 34.672V46.9613H40.9643V35.8832C40.9643 32.9382 39.7885 30.3542 37.0383 30.3542C33.6992 30.3542 32.1071 32.615 32.1071 36.3261V46.9613H25.4643V24.8185ZM14.3929 46.9613H21.0357V24.8185H14.3929V46.9613ZM21.8661 17.0685C21.8661 19.3625 20.0083 21.2202 17.7143 21.2202C15.4203 21.2202 13.5625 19.3625 13.5625 17.0685C13.5625 14.7745 15.4203 12.9167 17.7143 12.9167C20.0083 12.9167 21.8661 14.7745 21.8661 17.0685Z" fill="white"/>
<path fill-rule="evenodd" clip-rule="evenodd" d="M50.8821 7.75H11.2552C9.35979 7.75 7.75 9.24907 7.75 11.0958V50.902C7.75 52.7509 8.80621 54.25 10.7016 54.25H50.3285C52.2261 54.25 54.25 52.7509 54.25 50.902V11.0958C54.25 9.24907 52.7797 7.75 50.8821 7.75ZM25.4643 25.4643H31.7241V28.6551H31.7927C32.7471 26.9346 35.5659 25.1875 39.0511 25.1875C45.7405 25.1875 47.6071 28.7392 47.6071 35.3179V47.6071H40.9643V36.5291C40.9643 33.5841 39.7885 31 37.0383 31C33.6992 31 32.1071 33.2608 32.1071 36.9719V47.6071H25.4643V25.4643ZM14.3929 47.6071H21.0357V25.4643H14.3929V47.6071ZM21.8661 17.7143C21.8661 20.0083 20.0083 21.8661 17.7143 21.8661C15.4203 21.8661 13.5625 20.0083 13.5625 17.7143C13.5625 15.4203 15.4203 13.5625 17.7143 13.5625C20.0083 13.5625 21.8661 15.4203 21.8661 17.7143Z" fill="#2D64BC"/>
</svg>
