<svg width="45" height="45" viewBox="0 0 45 45" fill="none" xmlns="http://www.w3.org/2000/svg">
<path fill-rule="evenodd" clip-rule="evenodd" d="M24.75 36C25.9435 36 27.0881 36.4741 27.932 37.318C28.7759 38.1619 29.25 39.3065 29.25 40.5C29.25 41.6935 28.7759 42.8381 27.932 43.682C27.0881 44.5259 25.9435 45 24.75 45C23.5565 45 22.4119 44.5259 21.568 43.682C20.7241 42.8381 20.25 41.6935 20.25 40.5C20.25 39.3065 20.7241 38.1619 21.568 37.318C22.4119 36.4741 23.5565 36 24.75 36ZM10.6673 29.25C12.1591 29.25 13.5898 29.8426 14.6447 30.8975C15.6996 31.9524 16.2922 33.3832 16.2922 34.875C16.2922 36.3668 15.6996 37.7976 14.6447 38.8525C13.5898 39.9074 12.1591 40.5 10.6673 40.5C9.17541 40.5 7.74467 39.9074 6.68977 38.8525C5.63488 37.7976 5.04225 36.3668 5.04225 34.875C5.04225 33.3832 5.63488 31.9524 6.68977 30.8975C7.74467 29.8426 9.17541 29.25 10.6673 29.25ZM36.7178 30.375C37.9112 30.375 39.0558 30.8491 39.8997 31.693C40.7436 32.5369 41.2178 33.6815 41.2178 34.875C41.2178 36.0685 40.7436 37.2131 39.8997 38.057C39.0558 38.9009 37.9112 39.375 36.7178 39.375C35.5243 39.375 34.3797 38.9009 33.5358 38.057C32.6919 37.2131 32.2178 36.0685 32.2178 34.875C32.2178 33.6815 32.6919 32.5369 33.5358 31.693C34.3797 30.8491 35.5243 30.375 36.7178 30.375ZM41.625 20.9678C42.5201 20.9678 43.3785 21.3233 44.0115 21.9563C44.6444 22.5892 45 23.4476 45 24.3428C45 25.2379 44.6444 26.0963 44.0115 26.7292C43.3785 27.3622 42.5201 27.7178 41.625 27.7178C40.7299 27.7178 39.8715 27.3622 39.2385 26.7292C38.6056 26.0963 38.25 25.2379 38.25 24.3428C38.25 23.4476 38.6056 22.5892 39.2385 21.9563C39.8715 21.3233 40.7299 20.9678 41.625 20.9678ZM5.625 13.5C7.11684 13.5 8.54758 14.0926 9.60248 15.1475C10.6574 16.2024 11.25 17.6332 11.25 19.125C11.25 20.6168 10.6574 22.0476 9.60248 23.1025C8.54758 24.1574 7.11684 24.75 5.625 24.75C4.13316 24.75 2.70242 24.1574 1.64752 23.1025C0.592632 22.0476 0 20.6168 0 19.125C0 17.6332 0.592632 16.2024 1.64752 15.1475C2.70242 14.0926 4.13316 13.5 5.625 13.5ZM40.0185 11.7157C40.6152 11.7157 41.1875 11.9528 41.6095 12.3748C42.0314 12.7967 42.2685 13.369 42.2685 13.9657C42.2685 14.5625 42.0314 15.1348 41.6095 15.5567C41.1875 15.9787 40.6152 16.2157 40.0185 16.2157C39.4218 16.2157 38.8495 15.9787 38.4275 15.5567C38.0056 15.1348 37.7685 14.5625 37.7685 13.9657C37.7685 13.369 38.0056 12.7967 38.4275 12.3748C38.8495 11.9528 39.4218 11.7157 40.0185 11.7157ZM18 0C19.7902 0 21.5071 0.711159 22.773 1.97703C24.0388 3.2429 24.75 4.95979 24.75 6.75C24.75 8.54021 24.0388 10.2571 22.773 11.523C21.5071 12.7888 19.7902 13.5 18 13.5C16.2098 13.5 14.4929 12.7888 13.227 11.523C11.9612 10.2571 11.25 8.54021 11.25 6.75C11.25 4.95979 11.9612 3.2429 13.227 1.97703C14.4929 0.711159 16.2098 0 18 0ZM34.875 6.75C35.1734 6.75 35.4595 6.86853 35.6705 7.0795C35.8815 7.29048 36 7.57663 36 7.875C36 8.17337 35.8815 8.45952 35.6705 8.6705C35.4595 8.88147 35.1734 9 34.875 9C34.5766 9 34.2905 8.88147 34.0795 8.6705C33.8685 8.45952 33.75 8.17337 33.75 7.875C33.75 7.57663 33.8685 7.29048 34.0795 7.0795C34.2905 6.86853 34.5766 6.75 34.875 6.75Z" fill="#7140EB"/>
</svg>
