<svg width="62" height="62" viewBox="0 0 62 62" fill="none" xmlns="http://www.w3.org/2000/svg">
<path d="M56.8337 30.9993C56.8337 45.2667 45.2677 56.8327 31.0003 56.8327C16.733 56.8327 5.16699 45.2667 5.16699 30.9993C5.16699 16.732 16.733 5.16602 31.0003 5.16602C45.2677 5.16602 56.8337 16.732 56.8337 30.9993Z" fill="white"/>
<path d="M30.9897 5.16602C16.7075 5.16602 5.16699 16.7278 5.16699 30.9887C5.16699 41.9341 11.968 51.2856 21.5745 55.0474C21.3407 53.0071 21.1495 49.8616 21.6595 47.63C22.1271 45.6109 24.6775 34.7931 24.6775 34.7931C24.6775 34.7931 23.9124 33.2416 23.9124 30.9675C23.9124 27.3757 25.9952 24.6978 28.5881 24.6978C30.7984 24.6978 31.8611 26.3555 31.8611 28.3321C31.8611 30.5424 30.4583 33.8579 29.7145 36.9396C29.0982 39.5113 31.011 41.6153 33.5401 41.6153C38.1308 41.6153 41.6588 36.7696 41.6588 29.7986C41.6588 23.6139 37.2169 19.2994 30.8622 19.2994C23.5086 19.2994 19.1941 24.804 19.1941 30.4999C19.1941 32.7102 20.0443 35.0906 21.1069 36.387C21.3195 36.6421 21.3407 36.8759 21.277 37.1309C21.0857 37.9385 20.6393 39.7025 20.5544 40.0639C20.4481 40.5314 20.1718 40.6377 19.6829 40.4039C16.495 38.8737 14.4972 34.1555 14.4972 30.3724C14.4972 22.2324 20.4056 14.7512 31.5635 14.7512C40.5112 14.7512 47.4823 21.1272 47.4823 29.671C47.4823 38.5761 41.8714 45.7385 34.0927 45.7385C31.4785 45.7385 29.0131 44.3783 28.1843 42.763C28.1843 42.763 26.8878 47.6938 26.569 48.9052C25.9952 51.1581 24.4224 53.9635 23.3598 55.685C25.7827 56.4289 28.333 56.8327 31.011 56.8327C45.2719 56.8327 56.8337 45.2709 56.8337 31.01C56.8124 16.7278 45.2506 5.16602 30.9897 5.16602Z" fill="#C92126"/>
</svg>
