<svg width="32" height="32" viewBox="0 0 32 32" fill="none" xmlns="http://www.w3.org/2000/svg">
<path d="M26.6664 13.3339L27.6091 14.2766L28.5518 13.3339L27.6091 12.3913L26.6664 13.3339ZM3.99976 24.0006C3.99976 24.3542 4.14023 24.6934 4.39028 24.9434C4.64033 25.1935 4.97947 25.3339 5.33309 25.3339C5.68671 25.3339 6.02585 25.1935 6.2759 24.9434C6.52595 24.6934 6.66642 24.3542 6.66642 24.0006H3.99976ZM20.9424 20.9433L27.6091 14.2766L25.7238 12.3913L19.0571 19.0579L20.9424 20.9433ZM27.6091 12.3913L20.9424 5.72461L19.0571 7.60994L25.7238 14.2766L27.6091 12.3913ZM26.6664 12.0006H13.3331V14.6673H26.6664V12.0006ZM3.99976 21.3339V24.0006H6.66642V21.3339H3.99976ZM13.3331 12.0006C10.8577 12.0006 8.48377 12.9839 6.73343 14.7343C4.98309 16.4846 3.99976 18.8586 3.99976 21.3339H6.66642C6.66642 19.5658 7.3688 17.8701 8.61905 16.6199C9.86929 15.3697 11.565 14.6673 13.3331 14.6673V12.0006Z" fill="#7140EB"/>
</svg>
