<svg width="62" height="62" viewBox="0 0 62 62" fill="none" xmlns="http://www.w3.org/2000/svg">
<path d="M22.5455 9.41071L29.1779 7.75H31.7288L38.8715 11.625L42.4428 19.9286V26.0179L47.0345 25.4643V29.8929L43.9734 31L42.953 32.6607L45.5039 38.1964L52.1364 42.0714L50.6058 44.2857L46.0141 45.9464L44.9937 48.1607L43.9734 49.8214H38.3613L35.8103 50.9286L30.1983 54.25L26.627 53.1429L22.5455 50.9286L19.4843 49.8214H15.4028L13.8723 48.7143L12.3417 45.9464L9.79075 45.3929L7.75 43.7321V42.0714L10.3009 40.4107L14.8926 36.5357L15.913 32.6607L11.8315 29.8929L12.3417 27.125L13.8723 25.4643L16.9334 26.0179L18.464 16.0536L22.5455 9.41071Z" fill="#FFFC00"/>
<path d="M30.9794 10.3282C37.2203 10.3304 42.4189 15.7272 42.4264 22.2252C42.4282 23.7472 42.4734 25.1487 42.5561 26.4398C42.6071 27.2364 43.2449 27.8267 43.9764 27.8267C44.0841 27.8267 44.1938 27.8139 44.304 27.7871L46.2591 27.3111C46.3423 27.2907 46.4258 27.2811 46.5083 27.2811C47.0048 27.2811 47.462 27.6334 47.5735 28.1554C47.7311 28.893 47.3333 29.6382 46.6452 29.8888L43.6775 31.1331C42.9283 31.4473 42.5259 32.2943 42.7369 33.1045C45.1178 42.2473 51.7679 41.2964 51.7679 42.4876C51.7679 43.9834 46.7554 44.1946 46.3026 44.6651C45.8497 45.1355 46.2829 47.4187 45.2711 47.8607C45.0803 47.9441 44.8094 47.973 44.4789 47.973C43.7167 47.973 42.6389 47.8185 41.5028 47.8185C40.5174 47.8185 39.4882 47.9348 38.5834 48.3689C36.183 49.5207 33.8688 51.672 31 51.672C28.1312 51.672 25.8171 49.5207 23.4167 48.3689C22.5117 47.9347 21.4828 47.8185 20.4973 47.8185C19.3613 47.8185 18.2833 47.973 17.5212 47.973C17.1909 47.973 16.9197 47.944 16.729 47.8607C15.7172 47.4187 16.1504 45.1355 15.6975 44.6651C15.2447 44.1946 10.2322 43.9833 10.2322 42.4875C10.2322 41.2962 16.8823 42.2471 19.2632 33.1044C19.4742 32.2943 19.0718 31.4473 18.3225 31.133L15.3548 29.8887C14.6666 29.6381 14.2688 28.8929 14.4265 28.1553C14.538 27.6332 14.9952 27.2808 15.4917 27.2809C15.5741 27.2809 15.6577 27.2906 15.7409 27.311L17.696 27.787C17.8062 27.8138 17.9159 27.8266 18.0236 27.8266C18.755 27.8266 19.3929 27.2362 19.4439 26.4397C19.5266 25.1486 19.5719 23.7471 19.5737 22.2251C19.5812 15.7272 24.7384 10.3305 30.9794 10.3282ZM30.9802 7.75C29.1174 7.75062 27.3009 8.13942 25.585 8.90567C23.938 9.64108 22.4556 10.6897 21.1792 12.0224C19.9044 13.3534 18.9012 14.8986 18.1975 16.6151C17.4657 18.4 17.0936 20.2864 17.0913 22.222C17.0902 23.1724 17.0713 24.0947 17.0347 24.9779L16.3074 24.8007C16.0405 24.7357 15.766 24.7027 15.4919 24.7026C14.7003 24.7025 13.9194 24.9804 13.2931 25.4852C12.6397 26.0117 12.1815 26.7616 12.0031 27.5966C11.5784 29.5842 12.635 31.5908 14.4661 32.2964L16.6441 33.2097C15.2019 37.8078 12.5425 38.6889 10.7516 39.2824C10.2765 39.4399 9.86601 39.5759 9.47521 39.7773C7.91809 40.5801 7.75 41.9401 7.75 42.4875C7.75 43.536 8.22777 44.4928 9.09544 45.1816C9.52744 45.5246 10.0626 45.8076 10.7314 46.0468C11.6429 46.3728 12.6997 46.5797 13.5585 46.7455C13.6 47.076 13.6609 47.4311 13.7634 47.7889C14.1893 49.2751 15.0879 49.9406 15.7668 50.2371C16.411 50.5186 17.0766 50.5511 17.5212 50.5511C17.9561 50.5511 18.4158 50.5157 18.9025 50.4783C19.4247 50.438 19.9646 50.3966 20.4973 50.3966C21.3227 50.3966 21.9372 50.4989 22.3758 50.7093C22.978 50.9982 23.6166 51.3879 24.2927 51.8003C26.175 52.9485 28.3084 54.25 31 54.25C33.6917 54.25 35.825 52.9485 37.7073 51.8003C38.3834 51.3877 39.022 50.9982 39.6243 50.7093C40.0629 50.4988 40.6774 50.3966 41.5028 50.3966C42.0355 50.3966 42.5754 50.4381 43.0975 50.4783C43.5842 50.5157 44.0439 50.5511 44.4788 50.5511C44.9234 50.5511 45.5889 50.5186 46.2332 50.2371C46.9121 49.9406 47.8107 49.2751 48.2366 47.7889C48.3391 47.4311 48.4001 47.076 48.4415 46.7455C49.3003 46.5795 50.3572 46.3728 51.2686 46.0468C51.9375 45.8076 52.4726 45.5246 52.9046 45.1816C53.7721 44.4928 54.25 43.536 54.25 42.4875C54.25 41.9401 54.0819 40.5801 52.5246 39.7774C52.1338 39.576 51.7233 39.44 51.2482 39.2825C49.4573 38.6891 46.7979 37.8079 45.3557 33.2098L47.5336 32.2965C49.3647 31.5909 50.4214 29.5842 49.9967 27.5966C49.8183 26.7616 49.3601 26.0117 48.7067 25.4852C48.0804 24.9805 47.2997 24.7026 46.5083 24.7026C46.2342 24.7026 45.9597 24.7356 45.6926 24.8006L44.9652 24.9778C44.9286 24.0947 44.9097 23.1724 44.9086 22.2219C44.9063 20.2848 44.5312 18.3965 43.7936 16.6092C43.0856 14.8936 42.0769 13.3488 40.7957 12.0177C39.5146 10.6867 38.0281 9.63923 36.3776 8.90443C34.6585 8.13911 32.8425 7.75072 30.9802 7.75Z" fill="#050505"/>
</svg>
