<svg xmlns="http://www.w3.org/2000/svg" viewBox="0 0 24 24" fill="#FF5500"><path d="M11.56 8.87V17h8.76c1.47-.01 2.67-1.2 2.68-2.68.01-1.47-1.17-2.68-2.64-2.69-.13 0-.26.01-.38.03-.09-2.35-2.01-4.24-4.39-4.24-1.46 0-2.76.67-3.63 1.71zm-1.23 8.13H8.5V9.19c.32-.14.65-.21.97-.21.3 0 .58.07.86.19v7.83zm-2.67 0H5.79V9.72c.26-.17.53-.28.83-.33v7.61zm-2.57 0H3.29c-.14-.34-.21-.72-.21-1.1 0-.42.07-.81.21-1.18V14.8c-.06-.26-.1-.54-.1-.83 0-.29.04-.56.1-.82V9.87c-.14-.26-.21-.56-.21-.87 0-.73.44-1.37 1.07-1.65v9.65zM0 15.7c0 1.27.96 2.3 2.15 2.3H2.1V9.72C.9 10.01 0 11.03 0 12.28v3.42z"/></svg>
