<svg width="61" height="62" viewBox="0 0 61 62" fill="none" xmlns="http://www.w3.org/2000/svg">
<path d="M50.833 30.9993C50.833 42.4132 41.7295 51.666 30.4997 51.666C19.2699 51.666 10.1663 42.4132 10.1663 30.9993C10.1663 19.5855 19.2699 10.3327 30.4997 10.3327C41.7295 10.3327 50.833 19.5855 50.833 30.9993Z" fill="white"/>
<path fill-rule="evenodd" clip-rule="evenodd" d="M55.9163 30.9993C55.9163 45.2667 44.5369 56.8327 30.4997 56.8327C16.4624 56.8327 5.08301 45.2667 5.08301 30.9993C5.08301 16.732 16.4624 5.16602 30.4997 5.16602C44.5369 5.16602 55.9163 16.732 55.9163 30.9993ZM31.4104 24.2373C28.9383 25.2825 23.9975 27.4456 16.588 30.7267C15.3848 31.213 14.7545 31.6887 14.6972 32.1539C14.6002 32.9401 15.5688 33.2497 16.8879 33.6713C17.0673 33.7286 17.2532 33.788 17.4438 33.851C18.7415 34.2797 20.4872 34.7813 21.3947 34.8013C22.2179 34.8193 23.1367 34.4744 24.1511 33.7664C31.074 29.0167 34.6476 26.6159 34.8719 26.5642C35.0302 26.5276 35.2496 26.4817 35.3982 26.616C35.5468 26.7503 35.5322 27.0045 35.5165 27.0727C35.4205 27.4885 31.6182 31.0814 29.6505 32.9407C29.0371 33.5204 28.602 33.9315 28.5131 34.0254C28.3138 34.2358 28.1107 34.4347 27.9156 34.626C26.7099 35.8073 25.8058 36.6931 27.9656 38.1397C29.0035 38.8349 29.834 39.4097 30.6626 39.9832C31.5675 40.6096 32.47 41.2343 33.6378 42.0123C33.9353 42.2105 34.2194 42.4164 34.4962 42.6169C35.5492 43.38 36.4953 44.0655 37.6641 43.9562C38.3433 43.8927 39.0448 43.2436 39.4011 41.3077C40.2431 36.7325 41.8982 26.8197 42.2807 22.7348C42.3142 22.3769 42.2721 21.9189 42.2382 21.7178C42.2044 21.5168 42.1336 21.2303 41.8765 21.0182C41.572 20.7671 41.1018 20.7141 40.8916 20.7179C39.9356 20.735 38.4689 21.2534 31.4104 24.2373Z" fill="url(#paint0_linear_1553_791)"/>
<defs>
<linearGradient id="paint0_linear_1553_791" x1="55.9163" y1="5.16601" x2="4.25651" y2="55.9926" gradientUnits="userSpaceOnUse">
<stop stop-color="#29AAEB"/>
<stop offset="1" stop-color="#23A0DC"/>
</linearGradient>
</defs>
</svg>
