<svg width="62" height="62" viewBox="0 0 62 62" fill="none" xmlns="http://www.w3.org/2000/svg">
<path d="M44.5226 7.75065H35.348V42.9438C35.348 47.1372 31.8194 50.5816 27.4281 50.5816C23.0369 50.5816 19.5082 47.1372 19.5082 42.9438C19.5082 38.8256 22.9585 35.4559 27.1929 35.3062V26.4705C17.8615 26.6202 10.3337 33.8835 10.3337 42.9438C10.3337 52.0792 18.0183 59.4173 27.5066 59.4173C36.9947 59.4173 44.6793 52.0043 44.6793 42.9438V24.898C48.1296 27.2941 52.364 28.7168 56.8337 28.7918V19.956C49.9332 19.7313 44.5226 14.34 44.5226 7.75065Z" fill="#FF0050"/>
<path d="M39.3559 2.58398H30.1813V37.7772C30.1813 41.9705 26.6527 45.4149 22.2614 45.4149C17.8702 45.4149 14.3415 41.9705 14.3415 37.7772C14.3415 33.6589 17.7918 30.2892 22.0262 30.1395V21.3038C12.6948 21.4535 5.16699 28.7168 5.16699 37.7772C5.16699 46.9126 12.8516 54.2507 22.3399 54.2507C31.828 54.2507 39.5126 46.8376 39.5126 37.7772V19.7313C42.9629 22.1275 47.1973 23.5502 51.667 23.6251V14.7893C44.7665 14.5647 39.3559 9.17335 39.3559 2.58398Z" fill="#00F2EA"/>
<path d="M41.9392 5.16732H32.7646V40.3605C32.7646 44.5538 29.236 47.9983 24.8448 47.9983C20.4535 47.9983 16.9249 44.5538 16.9249 40.3605C16.9249 36.2422 20.3751 32.8726 24.6096 32.7229V23.8872C15.2781 24.0368 7.75033 31.3002 7.75033 40.3605C7.75033 49.4959 15.435 56.834 24.9232 56.834C34.4113 56.834 42.096 49.421 42.096 40.3605V22.3146C45.5463 24.7108 49.7806 26.1335 54.2503 26.2084V17.3726C47.3499 17.148 41.9392 11.7567 41.9392 5.16732Z" fill="black"/>
</svg>
