<svg width="61" height="62" viewBox="0 0 61 62" fill="none" xmlns="http://www.w3.org/2000/svg">
<path d="M42.3659 36.1918C41.8553 35.9337 38.5354 34.3859 38.0248 34.1278C37.5141 33.8697 37.0033 33.8697 36.4926 34.3859C35.982 34.9018 34.9605 36.4499 34.4498 36.9659C34.1943 37.4819 33.6836 37.4819 33.173 37.2238C31.3853 36.4499 29.5978 35.4178 28.0657 34.1278C26.7888 32.8377 25.512 31.2896 24.4906 29.7415C24.2352 29.2255 24.4906 28.7096 24.7459 28.4515C25.0013 28.1934 25.2567 27.6775 25.7674 27.4195C26.0227 27.1614 26.2781 26.6454 26.2781 26.3874C26.5335 26.1294 26.5335 25.6134 26.2781 25.3554C26.0227 25.0973 24.7459 22.0012 24.2352 20.7112C23.9798 18.9051 23.4691 18.9051 22.9584 18.9051C22.703 18.9051 22.1923 18.9051 21.6816 18.9051C21.1708 18.9051 20.4048 19.4211 20.1494 19.6791C18.6172 21.2272 17.8511 23.0333 17.8511 25.0973C18.1065 27.4195 18.8726 29.7415 20.4048 31.8056C23.2138 35.9337 26.7888 39.2878 31.13 41.3519C32.4068 41.8681 33.4283 42.3841 34.7051 42.6422C35.982 43.1582 37.2586 43.1581 38.791 42.9001C40.5785 42.6422 42.1106 41.3519 43.1321 39.804C43.6428 38.7719 43.6428 37.74 43.3875 36.7078C43.3875 36.7078 42.8766 36.4499 42.3659 36.1918ZM48.7501 12.7128C38.791 2.65041 22.703 2.65041 12.7439 12.7128C4.57228 20.9692 3.04011 33.6118 8.65809 43.6741L5.08301 56.8327L18.6172 53.2205C22.4477 55.2846 26.5335 56.3167 30.6193 56.3167C44.6643 56.3167 55.9003 44.9641 55.9003 30.7737C56.1556 24.0653 53.3466 17.615 48.7501 12.7128ZM41.8553 48.8344C38.5354 50.8985 34.7051 52.1885 30.6193 52.1885C26.7888 52.1885 23.2138 51.1564 19.8941 49.3504L19.128 48.8344L11.2117 50.8985L13.2546 43.1582L12.7439 42.3841C6.61518 32.0637 9.67953 19.1631 19.6387 12.7128C29.5978 6.26256 42.3659 9.61669 48.4946 19.4211C54.6235 29.4836 51.8145 42.6422 41.8553 48.8344Z" fill="white"/>
<path fill-rule="evenodd" clip-rule="evenodd" d="M41.8553 48.8344C38.5354 50.8985 34.7051 52.1885 30.6193 52.1885C26.7888 52.1885 23.2138 51.1564 19.8941 49.3504L19.128 48.8344L11.2117 50.8985L13.2546 43.1582L12.7439 42.3841C6.61518 32.0637 9.67953 19.1631 19.6387 12.7128C29.5978 6.26256 42.3659 9.61669 48.4946 19.4211C54.6235 29.4836 51.8145 42.6422 41.8553 48.8344ZM38.0248 34.1278C38.5354 34.3859 41.8553 35.9337 42.3659 36.1918C42.8766 36.4499 43.3875 36.7078 43.3875 36.7078C43.6428 37.74 43.6428 38.7719 43.1321 39.804C42.1106 41.3519 40.5785 42.6422 38.791 42.9001C37.2586 43.1581 35.982 43.1582 34.7051 42.6422C33.4283 42.3841 32.4068 41.8681 31.13 41.3519C26.7888 39.2878 23.2138 35.9337 20.4048 31.8056C18.8726 29.7415 18.1065 27.4195 17.8511 25.0973C17.8511 23.0333 18.6172 21.2272 20.1494 19.6791C20.4048 19.4211 21.1708 18.9051 21.6816 18.9051H22.9584C23.4691 18.9051 23.9798 18.9051 24.2352 20.7112C24.7459 22.0012 26.0227 25.0973 26.2781 25.3554C26.5335 25.6134 26.5335 26.1294 26.2781 26.3874C26.2781 26.6454 26.0227 27.1614 25.7674 27.4195C25.2567 27.6775 25.0013 28.1934 24.7459 28.4515C24.4906 28.7096 24.2352 29.2255 24.4906 29.7415C25.512 31.2896 26.7888 32.8377 28.0657 34.1278C29.5978 35.4178 31.3853 36.4499 33.173 37.2238C33.6836 37.4819 34.1943 37.4819 34.4498 36.9659C34.9605 36.4499 35.982 34.9018 36.4926 34.3859C37.0033 33.8697 37.5141 33.8697 38.0248 34.1278Z" fill="#25D366"/>
</svg>
