<svg width="62" height="62" viewBox="0 0 62 62" fill="none" xmlns="http://www.w3.org/2000/svg">
<path d="M56.319 19.9862C56.319 19.9862 55.8145 16.1876 54.2604 14.5197C52.2926 12.3245 50.0928 12.3137 49.0837 12.1846C41.8584 11.625 31.0104 11.625 31.0104 11.625H30.9902C30.9902 11.625 20.1423 11.625 12.917 12.1846C11.9079 12.3137 9.70801 12.3245 7.74023 14.5197C6.1862 16.1876 5.69173 19.9862 5.69173 19.9862C5.69173 19.9862 5.16699 24.452 5.16699 28.907V33.0822C5.16699 37.5372 5.68164 42.003 5.68164 42.003C5.68164 42.003 6.1862 45.8016 7.73014 47.4696C9.69792 49.6648 12.2812 49.5895 13.4316 49.8262C17.569 50.2459 31.0003 50.375 31.0003 50.375C31.0003 50.375 41.8584 50.3535 49.0837 49.8047C50.0928 49.6755 52.2926 49.6648 54.2604 47.4696C55.8145 45.8016 56.319 42.003 56.319 42.003C56.319 42.003 56.8337 37.548 56.8337 33.0822V28.907C56.8337 24.452 56.319 19.9862 56.319 19.9862Z" fill="white"/>
<path d="M56.319 19.9862C56.319 19.9862 55.8145 16.1876 54.2604 14.5197C52.2926 12.3245 50.0928 12.3137 49.0837 12.1846C41.8584 11.625 31.0104 11.625 31.0104 11.625H30.9902C30.9902 11.625 20.1423 11.625 12.917 12.1846C11.9079 12.3137 9.70801 12.3245 7.74023 14.5197C6.1862 16.1876 5.69173 19.9862 5.69173 19.9862C5.69173 19.9862 5.16699 24.452 5.16699 28.907V33.0822C5.16699 37.5372 5.68164 42.003 5.68164 42.003C5.68164 42.003 6.1862 45.8016 7.73014 47.4696C9.69792 49.6648 12.2812 49.5895 13.4316 49.8262C17.569 50.2459 31.0003 50.375 31.0003 50.375C31.0003 50.375 41.8584 50.3535 49.0837 49.8047C50.0928 49.6755 52.2926 49.6648 54.2604 47.4696C55.8145 45.8016 56.319 42.003 56.319 42.003C56.319 42.003 56.8337 37.548 56.8337 33.0822V28.907C56.8337 24.452 56.319 19.9862 56.319 19.9862ZM25.6621 38.1506V22.6657L39.6182 30.4351L25.6621 38.1506Z" fill="#FE0000"/>
</svg>
